<?xml version="1.0" encoding="utf-8" standalone="no"?>
<!DOCTYPE svg PUBLIC "-//W3C//DTD SVG 1.1//EN"
  "http://www.w3.org/Graphics/SVG/1.1/DTD/svg11.dtd">
<svg xmlns:xlink="http://www.w3.org/1999/xlink" width="865.625625pt" height="434.11625pt" viewBox="0 0 865.625625 434.11625" xmlns="http://www.w3.org/2000/svg" version="1.1">
 <metadata>
  <rdf:RDF xmlns:dc="http://purl.org/dc/elements/1.1/" xmlns:cc="http://creativecommons.org/ns#" xmlns:rdf="http://www.w3.org/1999/02/22-rdf-syntax-ns#">
   <cc:Work>
    <dc:type rdf:resource="http://purl.org/dc/dcmitype/StillImage"/>
    <dc:date>2023-03-26T19:22:23.350585</dc:date>
    <dc:format>image/svg+xml</dc:format>
    <dc:creator>
     <cc:Agent>
      <dc:title>Matplotlib v3.6.1, https://matplotlib.org/</dc:title>
     </cc:Agent>
    </dc:creator>
   </cc:Work>
  </rdf:RDF>
 </metadata>
 <defs>
  <style type="text/css">*{stroke-linejoin: round; stroke-linecap: butt}</style>
 </defs>
 <g id="figure_1">
  <g id="patch_1">
   <path d="M 0 434.11625 
L 865.625625 434.11625 
L 865.625625 0 
L 0 0 
z
" style="fill: #ffffff"/>
  </g>
  <g id="axes_1">
   <g id="patch_2">
    <path d="M 46.965625 396.56 
L 858.425625 396.56 
L 858.425625 7.2 
L 46.965625 7.2 
z
" style="fill: #ffffff"/>
   </g>
   <g id="matplotlib.axis_1">
    <g id="xtick_1">
     <g id="line2d_1">
      <defs>
       <path id="mf877f2ca05" d="M 0 0 
L 0 3.5 
" style="stroke: #000000; stroke-width: 0.8"/>
      </defs>
      <g>
       <use xlink:href="#mf877f2ca05" x="76.398747" y="396.56" style="stroke: #000000; stroke-width: 0.8"/>
      </g>
     </g>
     <g id="text_1">
      <!-- 0 -->
      <g transform="translate(73.217497 411.158437) scale(0.1 -0.1)">
       <defs>
        <path id="DejaVuSans-30" d="M 2034 4250 
Q 1547 4250 1301 3770 
Q 1056 3291 1056 2328 
Q 1056 1369 1301 889 
Q 1547 409 2034 409 
Q 2525 409 2770 889 
Q 3016 1369 3016 2328 
Q 3016 3291 2770 3770 
Q 2525 4250 2034 4250 
z
M 2034 4750 
Q 2819 4750 3233 4129 
Q 3647 3509 3647 2328 
Q 3647 1150 3233 529 
Q 2819 -91 2034 -91 
Q 1250 -91 836 529 
Q 422 1150 422 2328 
Q 422 3509 836 4129 
Q 1250 4750 2034 4750 
z
" transform="scale(0.015625)"/>
       </defs>
       <use xlink:href="#DejaVuSans-30"/>
      </g>
     </g>
    </g>
    <g id="xtick_2">
     <g id="line2d_2">
      <g>
       <use xlink:href="#mf877f2ca05" x="225.427214" y="396.56" style="stroke: #000000; stroke-width: 0.8"/>
      </g>
     </g>
     <g id="text_2">
      <!-- 20 -->
      <g transform="translate(219.064714 411.158437) scale(0.1 -0.1)">
       <defs>
        <path id="DejaVuSans-32" d="M 1228 531 
L 3431 531 
L 3431 0 
L 469 0 
L 469 531 
Q 828 903 1448 1529 
Q 2069 2156 2228 2338 
Q 2531 2678 2651 2914 
Q 2772 3150 2772 3378 
Q 2772 3750 2511 3984 
Q 2250 4219 1831 4219 
Q 1534 4219 1204 4116 
Q 875 4013 500 3803 
L 500 4441 
Q 881 4594 1212 4672 
Q 1544 4750 1819 4750 
Q 2544 4750 2975 4387 
Q 3406 4025 3406 3419 
Q 3406 3131 3298 2873 
Q 3191 2616 2906 2266 
Q 2828 2175 2409 1742 
Q 1991 1309 1228 531 
z
" transform="scale(0.015625)"/>
       </defs>
       <use xlink:href="#DejaVuSans-32"/>
       <use xlink:href="#DejaVuSans-30" x="63.623047"/>
      </g>
     </g>
    </g>
    <g id="xtick_3">
     <g id="line2d_3">
      <g>
       <use xlink:href="#mf877f2ca05" x="374.45568" y="396.56" style="stroke: #000000; stroke-width: 0.8"/>
      </g>
     </g>
     <g id="text_3">
      <!-- 40 -->
      <g transform="translate(368.09318 411.158437) scale(0.1 -0.1)">
       <defs>
        <path id="DejaVuSans-34" d="M 2419 4116 
L 825 1625 
L 2419 1625 
L 2419 4116 
z
M 2253 4666 
L 3047 4666 
L 3047 1625 
L 3713 1625 
L 3713 1100 
L 3047 1100 
L 3047 0 
L 2419 0 
L 2419 1100 
L 313 1100 
L 313 1709 
L 2253 4666 
z
" transform="scale(0.015625)"/>
       </defs>
       <use xlink:href="#DejaVuSans-34"/>
       <use xlink:href="#DejaVuSans-30" x="63.623047"/>
      </g>
     </g>
    </g>
    <g id="xtick_4">
     <g id="line2d_4">
      <g>
       <use xlink:href="#mf877f2ca05" x="523.484147" y="396.56" style="stroke: #000000; stroke-width: 0.8"/>
      </g>
     </g>
     <g id="text_4">
      <!-- 60 -->
      <g transform="translate(517.121647 411.158437) scale(0.1 -0.1)">
       <defs>
        <path id="DejaVuSans-36" d="M 2113 2584 
Q 1688 2584 1439 2293 
Q 1191 2003 1191 1497 
Q 1191 994 1439 701 
Q 1688 409 2113 409 
Q 2538 409 2786 701 
Q 3034 994 3034 1497 
Q 3034 2003 2786 2293 
Q 2538 2584 2113 2584 
z
M 3366 4563 
L 3366 3988 
Q 3128 4100 2886 4159 
Q 2644 4219 2406 4219 
Q 1781 4219 1451 3797 
Q 1122 3375 1075 2522 
Q 1259 2794 1537 2939 
Q 1816 3084 2150 3084 
Q 2853 3084 3261 2657 
Q 3669 2231 3669 1497 
Q 3669 778 3244 343 
Q 2819 -91 2113 -91 
Q 1303 -91 875 529 
Q 447 1150 447 2328 
Q 447 3434 972 4092 
Q 1497 4750 2381 4750 
Q 2619 4750 2861 4703 
Q 3103 4656 3366 4563 
z
" transform="scale(0.015625)"/>
       </defs>
       <use xlink:href="#DejaVuSans-36"/>
       <use xlink:href="#DejaVuSans-30" x="63.623047"/>
      </g>
     </g>
    </g>
    <g id="xtick_5">
     <g id="line2d_5">
      <g>
       <use xlink:href="#mf877f2ca05" x="672.512613" y="396.56" style="stroke: #000000; stroke-width: 0.8"/>
      </g>
     </g>
     <g id="text_5">
      <!-- 80 -->
      <g transform="translate(666.150113 411.158437) scale(0.1 -0.1)">
       <defs>
        <path id="DejaVuSans-38" d="M 2034 2216 
Q 1584 2216 1326 1975 
Q 1069 1734 1069 1313 
Q 1069 891 1326 650 
Q 1584 409 2034 409 
Q 2484 409 2743 651 
Q 3003 894 3003 1313 
Q 3003 1734 2745 1975 
Q 2488 2216 2034 2216 
z
M 1403 2484 
Q 997 2584 770 2862 
Q 544 3141 544 3541 
Q 544 4100 942 4425 
Q 1341 4750 2034 4750 
Q 2731 4750 3128 4425 
Q 3525 4100 3525 3541 
Q 3525 3141 3298 2862 
Q 3072 2584 2669 2484 
Q 3125 2378 3379 2068 
Q 3634 1759 3634 1313 
Q 3634 634 3220 271 
Q 2806 -91 2034 -91 
Q 1263 -91 848 271 
Q 434 634 434 1313 
Q 434 1759 690 2068 
Q 947 2378 1403 2484 
z
M 1172 3481 
Q 1172 3119 1398 2916 
Q 1625 2713 2034 2713 
Q 2441 2713 2670 2916 
Q 2900 3119 2900 3481 
Q 2900 3844 2670 4047 
Q 2441 4250 2034 4250 
Q 1625 4250 1398 4047 
Q 1172 3844 1172 3481 
z
" transform="scale(0.015625)"/>
       </defs>
       <use xlink:href="#DejaVuSans-38"/>
       <use xlink:href="#DejaVuSans-30" x="63.623047"/>
      </g>
     </g>
    </g>
    <g id="xtick_6">
     <g id="line2d_6">
      <g>
       <use xlink:href="#mf877f2ca05" x="821.54108" y="396.56" style="stroke: #000000; stroke-width: 0.8"/>
      </g>
     </g>
     <g id="text_6">
      <!-- 100 -->
      <g transform="translate(811.99733 411.158437) scale(0.1 -0.1)">
       <defs>
        <path id="DejaVuSans-31" d="M 794 531 
L 1825 531 
L 1825 4091 
L 703 3866 
L 703 4441 
L 1819 4666 
L 2450 4666 
L 2450 531 
L 3481 531 
L 3481 0 
L 794 0 
L 794 531 
z
" transform="scale(0.015625)"/>
       </defs>
       <use xlink:href="#DejaVuSans-31"/>
       <use xlink:href="#DejaVuSans-30" x="63.623047"/>
       <use xlink:href="#DejaVuSans-30" x="127.246094"/>
      </g>
     </g>
    </g>
    <g id="text_7">
     <!-- interation -->
     <g transform="translate(428.404219 424.836562) scale(0.1 -0.1)">
      <defs>
       <path id="DejaVuSans-69" d="M 603 3500 
L 1178 3500 
L 1178 0 
L 603 0 
L 603 3500 
z
M 603 4863 
L 1178 4863 
L 1178 4134 
L 603 4134 
L 603 4863 
z
" transform="scale(0.015625)"/>
       <path id="DejaVuSans-6e" d="M 3513 2113 
L 3513 0 
L 2938 0 
L 2938 2094 
Q 2938 2591 2744 2837 
Q 2550 3084 2163 3084 
Q 1697 3084 1428 2787 
Q 1159 2491 1159 1978 
L 1159 0 
L 581 0 
L 581 3500 
L 1159 3500 
L 1159 2956 
Q 1366 3272 1645 3428 
Q 1925 3584 2291 3584 
Q 2894 3584 3203 3211 
Q 3513 2838 3513 2113 
z
" transform="scale(0.015625)"/>
       <path id="DejaVuSans-74" d="M 1172 4494 
L 1172 3500 
L 2356 3500 
L 2356 3053 
L 1172 3053 
L 1172 1153 
Q 1172 725 1289 603 
Q 1406 481 1766 481 
L 2356 481 
L 2356 0 
L 1766 0 
Q 1100 0 847 248 
Q 594 497 594 1153 
L 594 3053 
L 172 3053 
L 172 3500 
L 594 3500 
L 594 4494 
L 1172 4494 
z
" transform="scale(0.015625)"/>
       <path id="DejaVuSans-65" d="M 3597 1894 
L 3597 1613 
L 953 1613 
Q 991 1019 1311 708 
Q 1631 397 2203 397 
Q 2534 397 2845 478 
Q 3156 559 3463 722 
L 3463 178 
Q 3153 47 2828 -22 
Q 2503 -91 2169 -91 
Q 1331 -91 842 396 
Q 353 884 353 1716 
Q 353 2575 817 3079 
Q 1281 3584 2069 3584 
Q 2775 3584 3186 3129 
Q 3597 2675 3597 1894 
z
M 3022 2063 
Q 3016 2534 2758 2815 
Q 2500 3097 2075 3097 
Q 1594 3097 1305 2825 
Q 1016 2553 972 2059 
L 3022 2063 
z
" transform="scale(0.015625)"/>
       <path id="DejaVuSans-72" d="M 2631 2963 
Q 2534 3019 2420 3045 
Q 2306 3072 2169 3072 
Q 1681 3072 1420 2755 
Q 1159 2438 1159 1844 
L 1159 0 
L 581 0 
L 581 3500 
L 1159 3500 
L 1159 2956 
Q 1341 3275 1631 3429 
Q 1922 3584 2338 3584 
Q 2397 3584 2469 3576 
Q 2541 3569 2628 3553 
L 2631 2963 
z
" transform="scale(0.015625)"/>
       <path id="DejaVuSans-61" d="M 2194 1759 
Q 1497 1759 1228 1600 
Q 959 1441 959 1056 
Q 959 750 1161 570 
Q 1363 391 1709 391 
Q 2188 391 2477 730 
Q 2766 1069 2766 1631 
L 2766 1759 
L 2194 1759 
z
M 3341 1997 
L 3341 0 
L 2766 0 
L 2766 531 
Q 2569 213 2275 61 
Q 1981 -91 1556 -91 
Q 1019 -91 701 211 
Q 384 513 384 1019 
Q 384 1609 779 1909 
Q 1175 2209 1959 2209 
L 2766 2209 
L 2766 2266 
Q 2766 2663 2505 2880 
Q 2244 3097 1772 3097 
Q 1472 3097 1187 3025 
Q 903 2953 641 2809 
L 641 3341 
Q 956 3463 1253 3523 
Q 1550 3584 1831 3584 
Q 2591 3584 2966 3190 
Q 3341 2797 3341 1997 
z
" transform="scale(0.015625)"/>
       <path id="DejaVuSans-6f" d="M 1959 3097 
Q 1497 3097 1228 2736 
Q 959 2375 959 1747 
Q 959 1119 1226 758 
Q 1494 397 1959 397 
Q 2419 397 2687 759 
Q 2956 1122 2956 1747 
Q 2956 2369 2687 2733 
Q 2419 3097 1959 3097 
z
M 1959 3584 
Q 2709 3584 3137 3096 
Q 3566 2609 3566 1747 
Q 3566 888 3137 398 
Q 2709 -91 1959 -91 
Q 1206 -91 779 398 
Q 353 888 353 1747 
Q 353 2609 779 3096 
Q 1206 3584 1959 3584 
z
" transform="scale(0.015625)"/>
      </defs>
      <use xlink:href="#DejaVuSans-69"/>
      <use xlink:href="#DejaVuSans-6e" x="27.783203"/>
      <use xlink:href="#DejaVuSans-74" x="91.162109"/>
      <use xlink:href="#DejaVuSans-65" x="130.371094"/>
      <use xlink:href="#DejaVuSans-72" x="191.894531"/>
      <use xlink:href="#DejaVuSans-61" x="233.007812"/>
      <use xlink:href="#DejaVuSans-74" x="294.287109"/>
      <use xlink:href="#DejaVuSans-69" x="333.496094"/>
      <use xlink:href="#DejaVuSans-6f" x="361.279297"/>
      <use xlink:href="#DejaVuSans-6e" x="422.460938"/>
     </g>
    </g>
   </g>
   <g id="matplotlib.axis_2">
    <g id="ytick_1">
     <g id="line2d_7">
      <defs>
       <path id="mdddc473f7f" d="M 0 0 
L -3.5 0 
" style="stroke: #000000; stroke-width: 0.8"/>
      </defs>
      <g>
       <use xlink:href="#mdddc473f7f" x="46.965625" y="373.304556" style="stroke: #000000; stroke-width: 0.8"/>
      </g>
     </g>
     <g id="text_8">
      <!-- 20 -->
      <g transform="translate(27.240625 377.103775) scale(0.1 -0.1)">
       <use xlink:href="#DejaVuSans-32"/>
       <use xlink:href="#DejaVuSans-30" x="63.623047"/>
      </g>
     </g>
    </g>
    <g id="ytick_2">
     <g id="line2d_8">
      <g>
       <use xlink:href="#mdddc473f7f" x="46.965625" y="307.973557" style="stroke: #000000; stroke-width: 0.8"/>
      </g>
     </g>
     <g id="text_9">
      <!-- 40 -->
      <g transform="translate(27.240625 311.772776) scale(0.1 -0.1)">
       <use xlink:href="#DejaVuSans-34"/>
       <use xlink:href="#DejaVuSans-30" x="63.623047"/>
      </g>
     </g>
    </g>
    <g id="ytick_3">
     <g id="line2d_9">
      <g>
       <use xlink:href="#mdddc473f7f" x="46.965625" y="242.642558" style="stroke: #000000; stroke-width: 0.8"/>
      </g>
     </g>
     <g id="text_10">
      <!-- 60 -->
      <g transform="translate(27.240625 246.441777) scale(0.1 -0.1)">
       <use xlink:href="#DejaVuSans-36"/>
       <use xlink:href="#DejaVuSans-30" x="63.623047"/>
      </g>
     </g>
    </g>
    <g id="ytick_4">
     <g id="line2d_10">
      <g>
       <use xlink:href="#mdddc473f7f" x="46.965625" y="177.311559" style="stroke: #000000; stroke-width: 0.8"/>
      </g>
     </g>
     <g id="text_11">
      <!-- 80 -->
      <g transform="translate(27.240625 181.110778) scale(0.1 -0.1)">
       <use xlink:href="#DejaVuSans-38"/>
       <use xlink:href="#DejaVuSans-30" x="63.623047"/>
      </g>
     </g>
    </g>
    <g id="ytick_5">
     <g id="line2d_11">
      <g>
       <use xlink:href="#mdddc473f7f" x="46.965625" y="111.98056" style="stroke: #000000; stroke-width: 0.8"/>
      </g>
     </g>
     <g id="text_12">
      <!-- 100 -->
      <g transform="translate(20.878125 115.779779) scale(0.1 -0.1)">
       <use xlink:href="#DejaVuSans-31"/>
       <use xlink:href="#DejaVuSans-30" x="63.623047"/>
       <use xlink:href="#DejaVuSans-30" x="127.246094"/>
      </g>
     </g>
    </g>
    <g id="ytick_6">
     <g id="line2d_12">
      <g>
       <use xlink:href="#mdddc473f7f" x="46.965625" y="46.649561" style="stroke: #000000; stroke-width: 0.8"/>
      </g>
     </g>
     <g id="text_13">
      <!-- 120 -->
      <g transform="translate(20.878125 50.44878) scale(0.1 -0.1)">
       <use xlink:href="#DejaVuSans-31"/>
       <use xlink:href="#DejaVuSans-32" x="63.623047"/>
       <use xlink:href="#DejaVuSans-30" x="127.246094"/>
      </g>
     </g>
    </g>
    <g id="text_14">
     <!-- reward -->
     <g transform="translate(14.798437 219.194844) rotate(-90) scale(0.1 -0.1)">
      <defs>
       <path id="DejaVuSans-77" d="M 269 3500 
L 844 3500 
L 1563 769 
L 2278 3500 
L 2956 3500 
L 3675 769 
L 4391 3500 
L 4966 3500 
L 4050 0 
L 3372 0 
L 2619 2869 
L 1863 0 
L 1184 0 
L 269 3500 
z
" transform="scale(0.015625)"/>
       <path id="DejaVuSans-64" d="M 2906 2969 
L 2906 4863 
L 3481 4863 
L 3481 0 
L 2906 0 
L 2906 525 
Q 2725 213 2448 61 
Q 2172 -91 1784 -91 
Q 1150 -91 751 415 
Q 353 922 353 1747 
Q 353 2572 751 3078 
Q 1150 3584 1784 3584 
Q 2172 3584 2448 3432 
Q 2725 3281 2906 2969 
z
M 947 1747 
Q 947 1113 1208 752 
Q 1469 391 1925 391 
Q 2381 391 2643 752 
Q 2906 1113 2906 1747 
Q 2906 2381 2643 2742 
Q 2381 3103 1925 3103 
Q 1469 3103 1208 2742 
Q 947 2381 947 1747 
z
" transform="scale(0.015625)"/>
      </defs>
      <use xlink:href="#DejaVuSans-72"/>
      <use xlink:href="#DejaVuSans-65" x="38.863281"/>
      <use xlink:href="#DejaVuSans-77" x="100.386719"/>
      <use xlink:href="#DejaVuSans-61" x="182.173828"/>
      <use xlink:href="#DejaVuSans-72" x="243.453125"/>
      <use xlink:href="#DejaVuSans-64" x="282.816406"/>
     </g>
    </g>
   </g>
   <g id="line2d_13">
    <path d="M 83.85017 365.273535 
L 91.301594 365.694571 
L 98.753017 370.470841 
L 106.20444 365.167217 
L 113.655864 371.833944 
L 121.107287 357.652337 
L 128.55871 361.778896 
L 136.010134 369.517549 
L 143.461557 367.108286 
L 150.91298 363.14944 
L 158.364404 366.522914 
L 165.815827 358.867748 
L 173.26725 356.659354 
L 180.718674 358.480641 
L 188.170097 356.258376 
L 195.62152 351.723976 
L 203.072944 352.798587 
L 210.524367 355.283477 
L 217.97579 345.281962 
L 225.427214 340.500765 
L 232.878637 354.195031 
L 240.33006 346.077223 
L 247.781484 341.713516 
L 255.232907 343.654333 
L 262.68433 340.017545 
L 270.135754 329.764744 
L 277.587177 329.96797 
L 285.0386 316.94608 
L 292.490024 315.04804 
L 299.941447 317.272495 
L 307.39287 310.757959 
L 314.844294 310.756633 
L 322.295717 319.609915 
L 329.74714 313.08589 
L 337.198563 297.596244 
L 344.649987 292.387647 
L 352.10141 288.521731 
L 359.552833 267.884844 
L 367.004257 295.038572 
L 374.45568 299.565089 
L 381.907103 284.831134 
L 389.358527 255.943949 
L 396.80995 300.12972 
L 404.261373 287.339603 
L 411.712797 305.288014 
L 419.16422 285.468154 
L 426.615643 264.341783 
L 434.067067 277.415256 
L 441.51849 276.64329 
L 448.969913 296.287492 
L 456.421337 270.265677 
L 463.87276 287.2657 
L 471.324183 256.58923 
L 478.775607 272.159292 
L 486.22703 284.457387 
L 493.678453 290.900013 
L 501.129877 277.676505 
L 508.5813 264.797552 
L 516.032723 280.951639 
L 523.484147 277.415256 
L 530.93557 271.824808 
L 538.386993 288.712684 
L 545.838417 275.592793 
L 553.28984 284.298562 
L 560.741263 301.018528 
L 568.192687 282.767946 
L 575.64411 263.636947 
L 583.095533 282.005983 
L 590.546956 285.318939 
L 597.99838 286.326241 
L 605.449803 266.359072 
L 612.901226 263.296681 
L 620.35265 273.045972 
L 627.804073 268.197537 
L 635.255496 269.638435 
L 642.70692 263.587916 
L 650.158343 264.078234 
L 657.609766 291.092824 
L 665.06119 250.74434 
L 672.512613 253.267919 
L 679.964036 263.319216 
L 687.41546 278.800693 
L 694.866883 282.344878 
L 702.318306 295.963354 
L 709.76973 268.452438 
L 717.221153 283.344686 
L 724.672576 266.997819 
L 732.124 252.715846 
L 739.575423 272.868379 
L 747.026846 250.808933 
L 754.47827 279.720222 
L 761.929693 264.5242 
L 769.381116 280.865837 
L 776.83254 273.087447 
L 784.283963 279.753979 
L 791.735386 277.008562 
L 799.18681 261.39373 
L 806.638233 268.388238 
L 814.089656 249.825256 
L 821.54108 279.343207 
" clip-path="url(#pf04497d9f8)" style="fill: none; stroke: #1f77b4; stroke-width: 1.5; stroke-linecap: square"/>
   </g>
   <g id="line2d_14">
    <path d="M 83.85017 367.441698 
L 91.301594 367.128514 
L 98.753017 378.861818 
L 106.20444 374.915674 
L 113.655864 361.609311 
L 121.107287 362.403483 
L 128.55871 359.826639 
L 136.010134 334.677603 
L 143.461557 353.523781 
L 150.91298 330.769906 
L 158.364404 309.879567 
L 165.815827 301.70766 
L 173.26725 275.563008 
L 180.718674 289.001318 
L 188.170097 265.973849 
L 195.62152 283.814698 
L 203.072944 306.549341 
L 210.524367 283.137042 
L 217.97579 284.748997 
L 225.427214 289.685223 
L 232.878637 277.790946 
L 240.33006 266.360918 
L 247.781484 274.704631 
L 255.232907 276.964777 
L 262.68433 283.669227 
L 270.135754 246.94017 
L 277.587177 281.810413 
L 285.0386 272.426752 
L 292.490024 281.053755 
L 299.941447 274.612548 
L 307.39287 271.071245 
L 314.844294 260.247543 
L 322.295717 268.181799 
L 329.74714 288.475658 
L 337.198563 278.232397 
L 344.649987 274.463535 
L 352.10141 268.642976 
L 359.552833 282.548269 
L 367.004257 248.105581 
L 374.45568 271.53597 
L 381.907103 276.774834 
L 389.358527 275.39361 
L 396.80995 262.491147 
L 404.261373 256.694049 
L 411.712797 268.238908 
L 419.16422 267.62592 
L 426.615643 272.930259 
L 434.067067 263.585426 
L 441.51849 271.453529 
L 448.969913 266.013544 
L 456.421337 277.787205 
L 463.87276 284.959228 
L 471.324183 273.875925 
L 478.775607 271.204352 
L 486.22703 272.599211 
L 493.678453 291.190749 
L 501.129877 253.143451 
L 508.5813 262.215725 
L 516.032723 238.396043 
L 523.484147 281.92472 
L 530.93557 263.603616 
L 538.386993 267.833471 
L 545.838417 282.965213 
L 553.28984 286.393634 
L 560.741263 267.212333 
L 568.192687 249.763818 
L 575.64411 256.736632 
L 583.095533 278.582422 
L 590.546956 264.740811 
L 597.99838 264.865123 
L 605.449803 266.331216 
L 612.901226 289.653108 
L 620.35265 263.367379 
L 627.804073 283.195769 
L 635.255496 278.551275 
L 642.70692 250.898673 
L 650.158343 243.575858 
L 657.609766 282.750244 
L 665.06119 265.893693 
L 672.512613 255.128633 
L 679.964036 238.018984 
L 687.41546 252.917832 
L 694.866883 257.298595 
L 702.318306 248.421839 
L 709.76973 262.514781 
L 717.221153 238.417559 
L 724.672576 270.731571 
L 732.124 271.406119 
L 739.575423 268.360421 
L 747.026846 245.447731 
L 754.47827 250.270642 
L 761.929693 285.641171 
L 769.381116 258.542711 
L 776.83254 263.977747 
L 784.283963 256.926051 
L 791.735386 225.885984 
L 799.18681 255.744264 
L 806.638233 225.668903 
L 814.089656 220.361139 
L 821.54108 251.347375 
" clip-path="url(#pf04497d9f8)" style="fill: none; stroke: #ff7f0e; stroke-width: 1.5; stroke-linecap: square"/>
   </g>
   <g id="line2d_15">
    <path d="M 83.85017 367.069371 
L 91.301594 370.923457 
L 98.753017 374.046082 
L 106.20444 350.954249 
L 113.655864 326.342456 
L 121.107287 307.87823 
L 128.55871 292.423041 
L 136.010134 303.640243 
L 143.461557 274.299384 
L 150.91298 316.139932 
L 158.364404 273.905831 
L 165.815827 240.759488 
L 173.26725 273.654619 
L 180.718674 257.666908 
L 188.170097 242.12029 
L 195.62152 291.05929 
L 203.072944 242.2223 
L 210.524367 271.951226 
L 217.97579 239.249999 
L 225.427214 277.309116 
L 232.878637 268.619797 
L 240.33006 247.169063 
L 247.781484 243.544658 
L 255.232907 221.59028 
L 262.68433 225.603251 
L 270.135754 148.965465 
L 277.587177 253.104467 
L 285.0386 223.201829 
L 292.490024 229.820131 
L 299.941447 165.575688 
L 307.39287 210.042828 
L 314.844294 188.786672 
L 322.295717 215.028313 
L 329.74714 228.045163 
L 337.198563 212.791147 
L 344.649987 239.597632 
L 352.10141 207.645418 
L 359.552833 171.035379 
L 367.004257 211.462847 
L 374.45568 192.368685 
L 381.907103 214.272939 
L 389.358527 182.805302 
L 396.80995 127.353403 
L 404.261373 210.411855 
L 411.712797 137.225923 
L 419.16422 166.200245 
L 426.615643 158.859601 
L 434.067067 176.718788 
L 441.51849 139.159387 
L 448.969913 194.179047 
L 456.421337 172.386013 
L 463.87276 154.773731 
L 471.324183 91.797385 
L 478.775607 166.453547 
L 486.22703 164.859471 
L 493.678453 148.23096 
L 501.129877 70.978553 
L 508.5813 75.754694 
L 516.032723 120.032986 
L 523.484147 169.285544 
L 530.93557 111.483804 
L 538.386993 144.332243 
L 545.838417 59.305305 
L 553.28984 133.525272 
L 560.741263 192.064878 
L 568.192687 154.296614 
L 575.64411 159.607665 
L 583.095533 122.993928 
L 590.546956 124.972856 
L 597.99838 141.134878 
L 605.449803 176.514212 
L 612.901226 152.277046 
L 620.35265 160.255885 
L 627.804073 150.564119 
L 635.255496 168.911859 
L 642.70692 152.516102 
L 650.158343 137.428268 
L 657.609766 128.845418 
L 665.06119 87.791339 
L 672.512613 73.231328 
L 679.964036 113.590831 
L 687.41546 94.079867 
L 694.866883 83.415262 
L 702.318306 96.687906 
L 709.76973 68.515811 
L 717.221153 81.961804 
L 724.672576 128.596709 
L 732.124 109.992896 
L 739.575423 150.017416 
L 747.026846 133.792205 
L 754.47827 123.420876 
L 761.929693 82.347089 
L 769.381116 113.37834 
L 776.83254 119.860532 
L 784.283963 146.039975 
L 791.735386 24.898182 
L 799.18681 86.632133 
L 806.638233 55.117043 
L 814.089656 76.860828 
L 821.54108 87.269872 
" clip-path="url(#pf04497d9f8)" style="fill: none; stroke: #2ca02c; stroke-width: 1.5; stroke-linecap: square"/>
   </g>
   <g id="line2d_16">
    <path d="M 83.85017 374.113265 
L 91.301594 307.821033 
L 98.753017 327.885262 
L 106.20444 251.307608 
L 113.655864 233.91536 
L 121.107287 281.652558 
L 128.55871 296.744792 
L 136.010134 238.99798 
L 143.461557 256.52981 
L 150.91298 280.075032 
L 158.364404 249.50785 
L 165.815827 294.012607 
L 173.26725 244.744512 
L 180.718674 233.369131 
L 188.170097 272.446846 
L 195.62152 241.601887 
L 203.072944 244.053114 
L 210.524367 230.525356 
L 217.97579 278.981045 
L 225.427214 269.032624 
L 232.878637 313.747138 
L 240.33006 251.090219 
L 247.781484 249.362318 
L 255.232907 262.615178 
L 262.68433 258.608476 
L 270.135754 254.990835 
L 277.587177 270.228572 
L 285.0386 252.596034 
L 292.490024 242.499288 
L 299.941447 254.405757 
L 307.39287 238.30643 
L 314.844294 227.749132 
L 322.295717 253.924582 
L 329.74714 246.684686 
L 337.198563 282.087831 
L 344.649987 262.721981 
L 352.10141 282.646293 
L 359.552833 273.31725 
L 367.004257 287.290323 
L 374.45568 280.644956 
L 381.907103 287.760855 
L 389.358527 275.092943 
L 396.80995 283.356958 
L 404.261373 246.125623 
L 411.712797 251.175961 
L 419.16422 282.616013 
L 426.615643 248.957281 
L 434.067067 255.512943 
L 441.51849 260.005931 
L 448.969913 217.732411 
L 456.421337 262.764849 
L 463.87276 269.904436 
L 471.324183 272.390048 
L 478.775607 246.598293 
L 486.22703 267.733692 
L 493.678453 271.466989 
L 501.129877 236.904024 
L 508.5813 267.884844 
L 516.032723 278.450167 
L 523.484147 274.637389 
L 530.93557 271.606495 
L 538.386993 237.591594 
L 545.838417 267.70783 
L 553.28984 254.898869 
L 560.741263 275.284098 
L 568.192687 280.822305 
L 575.64411 253.627576 
L 583.095533 266.433375 
L 590.546956 257.241859 
L 597.99838 224.405174 
L 605.449803 274.968778 
L 612.901226 198.434479 
L 620.35265 259.988462 
L 627.804073 246.217616 
L 635.255496 253.563963 
L 642.70692 229.928141 
L 650.158343 248.145084 
L 657.609766 151.530111 
L 665.06119 191.348256 
L 672.512613 249.888192 
L 679.964036 168.162617 
L 687.41546 188.92331 
L 694.866883 198.187038 
L 702.318306 214.221425 
L 709.76973 215.104028 
L 717.221153 220.699403 
L 724.672576 154.44571 
L 732.124 145.772456 
L 739.575423 225.993361 
L 747.026846 227.872071 
L 754.47827 209.265533 
L 761.929693 169.961822 
L 769.381116 205.354156 
L 776.83254 187.147504 
L 784.283963 162.904903 
L 791.735386 200.735112 
L 799.18681 206.214894 
L 806.638233 144.246656 
L 814.089656 173.285346 
L 821.54108 140.75731 
" clip-path="url(#pf04497d9f8)" style="fill: none; stroke: #d62728; stroke-width: 1.5; stroke-linecap: square"/>
   </g>
   <g id="patch_3">
    <path d="M 46.965625 396.56 
L 46.965625 7.2 
" style="fill: none; stroke: #000000; stroke-width: 0.8; stroke-linejoin: miter; stroke-linecap: square"/>
   </g>
   <g id="patch_4">
    <path d="M 858.425625 396.56 
L 858.425625 7.2 
" style="fill: none; stroke: #000000; stroke-width: 0.8; stroke-linejoin: miter; stroke-linecap: square"/>
   </g>
   <g id="patch_5">
    <path d="M 46.965625 396.56 
L 858.425625 396.56 
" style="fill: none; stroke: #000000; stroke-width: 0.8; stroke-linejoin: miter; stroke-linecap: square"/>
   </g>
   <g id="patch_6">
    <path d="M 46.965625 7.2 
L 858.425625 7.2 
" style="fill: none; stroke: #000000; stroke-width: 0.8; stroke-linejoin: miter; stroke-linecap: square"/>
   </g>
   <g id="legend_1">
    <g id="patch_7">
     <path d="M 53.965625 44.55625 
L 319.028125 44.55625 
Q 321.028125 44.55625 321.028125 42.55625 
L 321.028125 14.2 
Q 321.028125 12.2 319.028125 12.2 
L 53.965625 12.2 
Q 51.965625 12.2 51.965625 14.2 
L 51.965625 42.55625 
Q 51.965625 44.55625 53.965625 44.55625 
z
" style="fill: #ffffff; opacity: 0.8; stroke: #cccccc; stroke-linejoin: miter"/>
    </g>
    <g id="text_15">
     <!-- Trust region radius -->
     <g transform="translate(139.946094 23.798437) scale(0.1 -0.1)">
      <defs>
       <path id="DejaVuSans-54" d="M -19 4666 
L 3928 4666 
L 3928 4134 
L 2272 4134 
L 2272 0 
L 1638 0 
L 1638 4134 
L -19 4134 
L -19 4666 
z
" transform="scale(0.015625)"/>
       <path id="DejaVuSans-75" d="M 544 1381 
L 544 3500 
L 1119 3500 
L 1119 1403 
Q 1119 906 1312 657 
Q 1506 409 1894 409 
Q 2359 409 2629 706 
Q 2900 1003 2900 1516 
L 2900 3500 
L 3475 3500 
L 3475 0 
L 2900 0 
L 2900 538 
Q 2691 219 2414 64 
Q 2138 -91 1772 -91 
Q 1169 -91 856 284 
Q 544 659 544 1381 
z
M 1991 3584 
L 1991 3584 
z
" transform="scale(0.015625)"/>
       <path id="DejaVuSans-73" d="M 2834 3397 
L 2834 2853 
Q 2591 2978 2328 3040 
Q 2066 3103 1784 3103 
Q 1356 3103 1142 2972 
Q 928 2841 928 2578 
Q 928 2378 1081 2264 
Q 1234 2150 1697 2047 
L 1894 2003 
Q 2506 1872 2764 1633 
Q 3022 1394 3022 966 
Q 3022 478 2636 193 
Q 2250 -91 1575 -91 
Q 1294 -91 989 -36 
Q 684 19 347 128 
L 347 722 
Q 666 556 975 473 
Q 1284 391 1588 391 
Q 1994 391 2212 530 
Q 2431 669 2431 922 
Q 2431 1156 2273 1281 
Q 2116 1406 1581 1522 
L 1381 1569 
Q 847 1681 609 1914 
Q 372 2147 372 2553 
Q 372 3047 722 3315 
Q 1072 3584 1716 3584 
Q 2034 3584 2315 3537 
Q 2597 3491 2834 3397 
z
" transform="scale(0.015625)"/>
       <path id="DejaVuSans-20" transform="scale(0.015625)"/>
       <path id="DejaVuSans-67" d="M 2906 1791 
Q 2906 2416 2648 2759 
Q 2391 3103 1925 3103 
Q 1463 3103 1205 2759 
Q 947 2416 947 1791 
Q 947 1169 1205 825 
Q 1463 481 1925 481 
Q 2391 481 2648 825 
Q 2906 1169 2906 1791 
z
M 3481 434 
Q 3481 -459 3084 -895 
Q 2688 -1331 1869 -1331 
Q 1566 -1331 1297 -1286 
Q 1028 -1241 775 -1147 
L 775 -588 
Q 1028 -725 1275 -790 
Q 1522 -856 1778 -856 
Q 2344 -856 2625 -561 
Q 2906 -266 2906 331 
L 2906 616 
Q 2728 306 2450 153 
Q 2172 0 1784 0 
Q 1141 0 747 490 
Q 353 981 353 1791 
Q 353 2603 747 3093 
Q 1141 3584 1784 3584 
Q 2172 3584 2450 3431 
Q 2728 3278 2906 2969 
L 2906 3500 
L 3481 3500 
L 3481 434 
z
" transform="scale(0.015625)"/>
      </defs>
      <use xlink:href="#DejaVuSans-54"/>
      <use xlink:href="#DejaVuSans-72" x="46.333984"/>
      <use xlink:href="#DejaVuSans-75" x="87.447266"/>
      <use xlink:href="#DejaVuSans-73" x="150.826172"/>
      <use xlink:href="#DejaVuSans-74" x="202.925781"/>
      <use xlink:href="#DejaVuSans-20" x="242.134766"/>
      <use xlink:href="#DejaVuSans-72" x="273.921875"/>
      <use xlink:href="#DejaVuSans-65" x="312.785156"/>
      <use xlink:href="#DejaVuSans-67" x="374.308594"/>
      <use xlink:href="#DejaVuSans-69" x="437.785156"/>
      <use xlink:href="#DejaVuSans-6f" x="465.568359"/>
      <use xlink:href="#DejaVuSans-6e" x="526.75"/>
      <use xlink:href="#DejaVuSans-20" x="590.128906"/>
      <use xlink:href="#DejaVuSans-72" x="621.916016"/>
      <use xlink:href="#DejaVuSans-61" x="663.029297"/>
      <use xlink:href="#DejaVuSans-64" x="724.308594"/>
      <use xlink:href="#DejaVuSans-69" x="787.785156"/>
      <use xlink:href="#DejaVuSans-75" x="815.568359"/>
      <use xlink:href="#DejaVuSans-73" x="878.947266"/>
     </g>
    </g>
    <g id="line2d_17">
     <path d="M 55.965625 34.976562 
L 65.965625 34.976562 
L 75.965625 34.976562 
" style="fill: none; stroke: #1f77b4; stroke-width: 1.5; stroke-linecap: square"/>
    </g>
    <g id="text_16">
     <!-- 0.001 -->
     <g transform="translate(83.965625 38.476562) scale(0.1 -0.1)">
      <defs>
       <path id="DejaVuSans-2e" d="M 684 794 
L 1344 794 
L 1344 0 
L 684 0 
L 684 794 
z
" transform="scale(0.015625)"/>
      </defs>
      <use xlink:href="#DejaVuSans-30"/>
      <use xlink:href="#DejaVuSans-2e" x="63.623047"/>
      <use xlink:href="#DejaVuSans-30" x="95.410156"/>
      <use xlink:href="#DejaVuSans-30" x="159.033203"/>
      <use xlink:href="#DejaVuSans-31" x="222.65625"/>
     </g>
    </g>
    <g id="line2d_18">
     <path d="M 132.59375 34.976562 
L 142.59375 34.976562 
L 152.59375 34.976562 
" style="fill: none; stroke: #ff7f0e; stroke-width: 1.5; stroke-linecap: square"/>
    </g>
    <g id="text_17">
     <!-- 0.01 -->
     <g transform="translate(160.59375 38.476562) scale(0.1 -0.1)">
      <use xlink:href="#DejaVuSans-30"/>
      <use xlink:href="#DejaVuSans-2e" x="63.623047"/>
      <use xlink:href="#DejaVuSans-30" x="95.410156"/>
      <use xlink:href="#DejaVuSans-31" x="159.033203"/>
     </g>
    </g>
    <g id="line2d_19">
     <path d="M 202.859375 34.976562 
L 212.859375 34.976562 
L 222.859375 34.976562 
" style="fill: none; stroke: #2ca02c; stroke-width: 1.5; stroke-linecap: square"/>
    </g>
    <g id="text_18">
     <!-- 0.05 -->
     <g transform="translate(230.859375 38.476562) scale(0.1 -0.1)">
      <defs>
       <path id="DejaVuSans-35" d="M 691 4666 
L 3169 4666 
L 3169 4134 
L 1269 4134 
L 1269 2991 
Q 1406 3038 1543 3061 
Q 1681 3084 1819 3084 
Q 2600 3084 3056 2656 
Q 3513 2228 3513 1497 
Q 3513 744 3044 326 
Q 2575 -91 1722 -91 
Q 1428 -91 1123 -41 
Q 819 9 494 109 
L 494 744 
Q 775 591 1075 516 
Q 1375 441 1709 441 
Q 2250 441 2565 725 
Q 2881 1009 2881 1497 
Q 2881 1984 2565 2268 
Q 2250 2553 1709 2553 
Q 1456 2553 1204 2497 
Q 953 2441 691 2322 
L 691 4666 
z
" transform="scale(0.015625)"/>
      </defs>
      <use xlink:href="#DejaVuSans-30"/>
      <use xlink:href="#DejaVuSans-2e" x="63.623047"/>
      <use xlink:href="#DejaVuSans-30" x="95.410156"/>
      <use xlink:href="#DejaVuSans-35" x="159.033203"/>
     </g>
    </g>
    <g id="line2d_20">
     <path d="M 273.125 34.976562 
L 283.125 34.976562 
L 293.125 34.976562 
" style="fill: none; stroke: #d62728; stroke-width: 1.5; stroke-linecap: square"/>
    </g>
    <g id="text_19">
     <!-- 0.1 -->
     <g transform="translate(301.125 38.476562) scale(0.1 -0.1)">
      <use xlink:href="#DejaVuSans-30"/>
      <use xlink:href="#DejaVuSans-2e" x="63.623047"/>
      <use xlink:href="#DejaVuSans-31" x="95.410156"/>
     </g>
    </g>
   </g>
  </g>
 </g>
 <defs>
  <clipPath id="pf04497d9f8">
   <rect x="46.965625" y="7.2" width="811.46" height="389.36"/>
  </clipPath>
 </defs>
</svg>
