<?xml version="1.0" encoding="utf-8" standalone="no"?>
<!DOCTYPE svg PUBLIC "-//W3C//DTD SVG 1.1//EN"
  "http://www.w3.org/Graphics/SVG/1.1/DTD/svg11.dtd">
<svg xmlns:xlink="http://www.w3.org/1999/xlink" width="1329.12pt" height="701.28pt" viewBox="0 0 1329.12 701.28" xmlns="http://www.w3.org/2000/svg" version="1.1">
 <metadata>
  <rdf:RDF xmlns:dc="http://purl.org/dc/elements/1.1/" xmlns:cc="http://creativecommons.org/ns#" xmlns:rdf="http://www.w3.org/1999/02/22-rdf-syntax-ns#">
   <cc:Work>
    <dc:type rdf:resource="http://purl.org/dc/dcmitype/StillImage"/>
    <dc:date>2023-03-22T18:02:39.437315</dc:date>
    <dc:format>image/svg+xml</dc:format>
    <dc:creator>
     <cc:Agent>
      <dc:title>Matplotlib v3.7.1, https://matplotlib.org/</dc:title>
     </cc:Agent>
    </dc:creator>
   </cc:Work>
  </rdf:RDF>
 </metadata>
 <defs>
  <style type="text/css">*{stroke-linejoin: round; stroke-linecap: butt}</style>
 </defs>
 <g id="figure_1">
  <g id="patch_1">
   <path d="M 0 701.28 
L 1329.12 701.28 
L 1329.12 0 
L 0 0 
z
" style="fill: #ffffff"/>
  </g>
  <g id="axes_1">
   <g id="patch_2">
    <path d="M 166.14 201.541774 
L 1196.208 201.541774 
L 1196.208 84.1536 
L 166.14 84.1536 
z
" style="fill: #ffffff"/>
   </g>
   <g id="matplotlib.axis_1">
    <g id="xtick_1">
     <g id="line2d_1">
      <defs>
       <path id="mf7bcff5ae2" d="M 0 0 
L 0 3.5 
" style="stroke: #000000; stroke-width: 0.8"/>
      </defs>
      <g>
       <use xlink:href="#mf7bcff5ae2" x="208.255617" y="201.541774" style="stroke: #000000; stroke-width: 0.8"/>
      </g>
     </g>
     <g id="text_1">
      <!-- 0 -->
      <g transform="translate(205.074367 216.140211) scale(0.1 -0.1)">
       <defs>
        <path id="DejaVuSans-30" d="M 2034 4250 
Q 1547 4250 1301 3770 
Q 1056 3291 1056 2328 
Q 1056 1369 1301 889 
Q 1547 409 2034 409 
Q 2525 409 2770 889 
Q 3016 1369 3016 2328 
Q 3016 3291 2770 3770 
Q 2525 4250 2034 4250 
z
M 2034 4750 
Q 2819 4750 3233 4129 
Q 3647 3509 3647 2328 
Q 3647 1150 3233 529 
Q 2819 -91 2034 -91 
Q 1250 -91 836 529 
Q 422 1150 422 2328 
Q 422 3509 836 4129 
Q 1250 4750 2034 4750 
z
" transform="scale(0.015625)"/>
       </defs>
       <use xlink:href="#DejaVuSans-30"/>
      </g>
     </g>
    </g>
    <g id="xtick_2">
     <g id="line2d_2">
      <g>
       <use xlink:href="#mf7bcff5ae2" x="325.897006" y="201.541774" style="stroke: #000000; stroke-width: 0.8"/>
      </g>
     </g>
     <g id="text_2">
      <!-- 25 -->
      <g transform="translate(319.534506 216.140211) scale(0.1 -0.1)">
       <defs>
        <path id="DejaVuSans-32" d="M 1228 531 
L 3431 531 
L 3431 0 
L 469 0 
L 469 531 
Q 828 903 1448 1529 
Q 2069 2156 2228 2338 
Q 2531 2678 2651 2914 
Q 2772 3150 2772 3378 
Q 2772 3750 2511 3984 
Q 2250 4219 1831 4219 
Q 1534 4219 1204 4116 
Q 875 4013 500 3803 
L 500 4441 
Q 881 4594 1212 4672 
Q 1544 4750 1819 4750 
Q 2544 4750 2975 4387 
Q 3406 4025 3406 3419 
Q 3406 3131 3298 2873 
Q 3191 2616 2906 2266 
Q 2828 2175 2409 1742 
Q 1991 1309 1228 531 
z
" transform="scale(0.015625)"/>
        <path id="DejaVuSans-35" d="M 691 4666 
L 3169 4666 
L 3169 4134 
L 1269 4134 
L 1269 2991 
Q 1406 3038 1543 3061 
Q 1681 3084 1819 3084 
Q 2600 3084 3056 2656 
Q 3513 2228 3513 1497 
Q 3513 744 3044 326 
Q 2575 -91 1722 -91 
Q 1428 -91 1123 -41 
Q 819 9 494 109 
L 494 744 
Q 775 591 1075 516 
Q 1375 441 1709 441 
Q 2250 441 2565 725 
Q 2881 1009 2881 1497 
Q 2881 1984 2565 2268 
Q 2250 2553 1709 2553 
Q 1456 2553 1204 2497 
Q 953 2441 691 2322 
L 691 4666 
z
" transform="scale(0.015625)"/>
       </defs>
       <use xlink:href="#DejaVuSans-32"/>
       <use xlink:href="#DejaVuSans-35" x="63.623047"/>
      </g>
     </g>
    </g>
    <g id="xtick_3">
     <g id="line2d_3">
      <g>
       <use xlink:href="#mf7bcff5ae2" x="443.538395" y="201.541774" style="stroke: #000000; stroke-width: 0.8"/>
      </g>
     </g>
     <g id="text_3">
      <!-- 50 -->
      <g transform="translate(437.175895 216.140211) scale(0.1 -0.1)">
       <use xlink:href="#DejaVuSans-35"/>
       <use xlink:href="#DejaVuSans-30" x="63.623047"/>
      </g>
     </g>
    </g>
    <g id="xtick_4">
     <g id="line2d_4">
      <g>
       <use xlink:href="#mf7bcff5ae2" x="561.179783" y="201.541774" style="stroke: #000000; stroke-width: 0.8"/>
      </g>
     </g>
     <g id="text_4">
      <!-- 75 -->
      <g transform="translate(554.817283 216.140211) scale(0.1 -0.1)">
       <defs>
        <path id="DejaVuSans-37" d="M 525 4666 
L 3525 4666 
L 3525 4397 
L 1831 0 
L 1172 0 
L 2766 4134 
L 525 4134 
L 525 4666 
z
" transform="scale(0.015625)"/>
       </defs>
       <use xlink:href="#DejaVuSans-37"/>
       <use xlink:href="#DejaVuSans-35" x="63.623047"/>
      </g>
     </g>
    </g>
    <g id="xtick_5">
     <g id="line2d_5">
      <g>
       <use xlink:href="#mf7bcff5ae2" x="678.821172" y="201.541774" style="stroke: #000000; stroke-width: 0.8"/>
      </g>
     </g>
     <g id="text_5">
      <!-- 100 -->
      <g transform="translate(669.277422 216.140211) scale(0.1 -0.1)">
       <defs>
        <path id="DejaVuSans-31" d="M 794 531 
L 1825 531 
L 1825 4091 
L 703 3866 
L 703 4441 
L 1819 4666 
L 2450 4666 
L 2450 531 
L 3481 531 
L 3481 0 
L 794 0 
L 794 531 
z
" transform="scale(0.015625)"/>
       </defs>
       <use xlink:href="#DejaVuSans-31"/>
       <use xlink:href="#DejaVuSans-30" x="63.623047"/>
       <use xlink:href="#DejaVuSans-30" x="127.246094"/>
      </g>
     </g>
    </g>
    <g id="xtick_6">
     <g id="line2d_6">
      <g>
       <use xlink:href="#mf7bcff5ae2" x="796.462561" y="201.541774" style="stroke: #000000; stroke-width: 0.8"/>
      </g>
     </g>
     <g id="text_6">
      <!-- 125 -->
      <g transform="translate(786.918811 216.140211) scale(0.1 -0.1)">
       <use xlink:href="#DejaVuSans-31"/>
       <use xlink:href="#DejaVuSans-32" x="63.623047"/>
       <use xlink:href="#DejaVuSans-35" x="127.246094"/>
      </g>
     </g>
    </g>
    <g id="xtick_7">
     <g id="line2d_7">
      <g>
       <use xlink:href="#mf7bcff5ae2" x="914.10395" y="201.541774" style="stroke: #000000; stroke-width: 0.8"/>
      </g>
     </g>
     <g id="text_7">
      <!-- 150 -->
      <g transform="translate(904.5602 216.140211) scale(0.1 -0.1)">
       <use xlink:href="#DejaVuSans-31"/>
       <use xlink:href="#DejaVuSans-35" x="63.623047"/>
       <use xlink:href="#DejaVuSans-30" x="127.246094"/>
      </g>
     </g>
    </g>
    <g id="xtick_8">
     <g id="line2d_8">
      <g>
       <use xlink:href="#mf7bcff5ae2" x="1031.745339" y="201.541774" style="stroke: #000000; stroke-width: 0.8"/>
      </g>
     </g>
     <g id="text_8">
      <!-- 175 -->
      <g transform="translate(1022.201589 216.140211) scale(0.1 -0.1)">
       <use xlink:href="#DejaVuSans-31"/>
       <use xlink:href="#DejaVuSans-37" x="63.623047"/>
       <use xlink:href="#DejaVuSans-35" x="127.246094"/>
      </g>
     </g>
    </g>
    <g id="xtick_9">
     <g id="line2d_9">
      <g>
       <use xlink:href="#mf7bcff5ae2" x="1149.386727" y="201.541774" style="stroke: #000000; stroke-width: 0.8"/>
      </g>
     </g>
     <g id="text_9">
      <!-- 200 -->
      <g transform="translate(1139.842977 216.140211) scale(0.1 -0.1)">
       <use xlink:href="#DejaVuSans-32"/>
       <use xlink:href="#DejaVuSans-30" x="63.623047"/>
       <use xlink:href="#DejaVuSans-30" x="127.246094"/>
      </g>
     </g>
    </g>
   </g>
   <g id="matplotlib.axis_2">
    <g id="ytick_1">
     <g id="line2d_10">
      <defs>
       <path id="m38dfef8461" d="M 0 0 
L -3.5 0 
" style="stroke: #000000; stroke-width: 0.8"/>
      </defs>
      <g>
       <use xlink:href="#m38dfef8461" x="166.14" y="191.994647" style="stroke: #000000; stroke-width: 0.8"/>
      </g>
     </g>
     <g id="text_10">
      <!-- 25 -->
      <g transform="translate(146.415 195.793866) scale(0.1 -0.1)">
       <use xlink:href="#DejaVuSans-32"/>
       <use xlink:href="#DejaVuSans-35" x="63.623047"/>
      </g>
     </g>
    </g>
    <g id="ytick_2">
     <g id="line2d_11">
      <g>
       <use xlink:href="#m38dfef8461" x="166.14" y="166.123086" style="stroke: #000000; stroke-width: 0.8"/>
      </g>
     </g>
     <g id="text_11">
      <!-- 50 -->
      <g transform="translate(146.415 169.922304) scale(0.1 -0.1)">
       <use xlink:href="#DejaVuSans-35"/>
       <use xlink:href="#DejaVuSans-30" x="63.623047"/>
      </g>
     </g>
    </g>
    <g id="ytick_3">
     <g id="line2d_12">
      <g>
       <use xlink:href="#m38dfef8461" x="166.14" y="140.251524" style="stroke: #000000; stroke-width: 0.8"/>
      </g>
     </g>
     <g id="text_12">
      <!-- 75 -->
      <g transform="translate(146.415 144.050743) scale(0.1 -0.1)">
       <use xlink:href="#DejaVuSans-37"/>
       <use xlink:href="#DejaVuSans-35" x="63.623047"/>
      </g>
     </g>
    </g>
    <g id="ytick_4">
     <g id="line2d_13">
      <g>
       <use xlink:href="#m38dfef8461" x="166.14" y="114.379962" style="stroke: #000000; stroke-width: 0.8"/>
      </g>
     </g>
     <g id="text_13">
      <!-- 100 -->
      <g transform="translate(140.0525 118.179181) scale(0.1 -0.1)">
       <use xlink:href="#DejaVuSans-31"/>
       <use xlink:href="#DejaVuSans-30" x="63.623047"/>
       <use xlink:href="#DejaVuSans-30" x="127.246094"/>
      </g>
     </g>
    </g>
    <g id="ytick_5">
     <g id="line2d_14">
      <g>
       <use xlink:href="#m38dfef8461" x="166.14" y="88.5084" style="stroke: #000000; stroke-width: 0.8"/>
      </g>
     </g>
     <g id="text_14">
      <!-- 125 -->
      <g transform="translate(140.0525 92.307619) scale(0.1 -0.1)">
       <use xlink:href="#DejaVuSans-31"/>
       <use xlink:href="#DejaVuSans-32" x="63.623047"/>
       <use xlink:href="#DejaVuSans-35" x="127.246094"/>
      </g>
     </g>
    </g>
    <g id="text_15">
     <!-- reward -->
     <g transform="translate(133.972813 160.162531) rotate(-90) scale(0.1 -0.1)">
      <defs>
       <path id="DejaVuSans-72" d="M 2631 2963 
Q 2534 3019 2420 3045 
Q 2306 3072 2169 3072 
Q 1681 3072 1420 2755 
Q 1159 2438 1159 1844 
L 1159 0 
L 581 0 
L 581 3500 
L 1159 3500 
L 1159 2956 
Q 1341 3275 1631 3429 
Q 1922 3584 2338 3584 
Q 2397 3584 2469 3576 
Q 2541 3569 2628 3553 
L 2631 2963 
z
" transform="scale(0.015625)"/>
       <path id="DejaVuSans-65" d="M 3597 1894 
L 3597 1613 
L 953 1613 
Q 991 1019 1311 708 
Q 1631 397 2203 397 
Q 2534 397 2845 478 
Q 3156 559 3463 722 
L 3463 178 
Q 3153 47 2828 -22 
Q 2503 -91 2169 -91 
Q 1331 -91 842 396 
Q 353 884 353 1716 
Q 353 2575 817 3079 
Q 1281 3584 2069 3584 
Q 2775 3584 3186 3129 
Q 3597 2675 3597 1894 
z
M 3022 2063 
Q 3016 2534 2758 2815 
Q 2500 3097 2075 3097 
Q 1594 3097 1305 2825 
Q 1016 2553 972 2059 
L 3022 2063 
z
" transform="scale(0.015625)"/>
       <path id="DejaVuSans-77" d="M 269 3500 
L 844 3500 
L 1563 769 
L 2278 3500 
L 2956 3500 
L 3675 769 
L 4391 3500 
L 4966 3500 
L 4050 0 
L 3372 0 
L 2619 2869 
L 1863 0 
L 1184 0 
L 269 3500 
z
" transform="scale(0.015625)"/>
       <path id="DejaVuSans-61" d="M 2194 1759 
Q 1497 1759 1228 1600 
Q 959 1441 959 1056 
Q 959 750 1161 570 
Q 1363 391 1709 391 
Q 2188 391 2477 730 
Q 2766 1069 2766 1631 
L 2766 1759 
L 2194 1759 
z
M 3341 1997 
L 3341 0 
L 2766 0 
L 2766 531 
Q 2569 213 2275 61 
Q 1981 -91 1556 -91 
Q 1019 -91 701 211 
Q 384 513 384 1019 
Q 384 1609 779 1909 
Q 1175 2209 1959 2209 
L 2766 2209 
L 2766 2266 
Q 2766 2663 2505 2880 
Q 2244 3097 1772 3097 
Q 1472 3097 1187 3025 
Q 903 2953 641 2809 
L 641 3341 
Q 956 3463 1253 3523 
Q 1550 3584 1831 3584 
Q 2591 3584 2966 3190 
Q 3341 2797 3341 1997 
z
" transform="scale(0.015625)"/>
       <path id="DejaVuSans-64" d="M 2906 2969 
L 2906 4863 
L 3481 4863 
L 3481 0 
L 2906 0 
L 2906 525 
Q 2725 213 2448 61 
Q 2172 -91 1784 -91 
Q 1150 -91 751 415 
Q 353 922 353 1747 
Q 353 2572 751 3078 
Q 1150 3584 1784 3584 
Q 2172 3584 2448 3432 
Q 2725 3281 2906 2969 
z
M 947 1747 
Q 947 1113 1208 752 
Q 1469 391 1925 391 
Q 2381 391 2643 752 
Q 2906 1113 2906 1747 
Q 2906 2381 2643 2742 
Q 2381 3103 1925 3103 
Q 1469 3103 1208 2742 
Q 947 2381 947 1747 
z
" transform="scale(0.015625)"/>
      </defs>
      <use xlink:href="#DejaVuSans-72"/>
      <use xlink:href="#DejaVuSans-65" x="38.863281"/>
      <use xlink:href="#DejaVuSans-77" x="100.386719"/>
      <use xlink:href="#DejaVuSans-61" x="182.173828"/>
      <use xlink:href="#DejaVuSans-72" x="243.453125"/>
      <use xlink:href="#DejaVuSans-64" x="282.816406"/>
     </g>
    </g>
   </g>
   <g id="line2d_15">
    <path d="M 212.961273 196.205948 
L 217.666928 189.466546 
L 222.372584 190.81806 
L 227.078239 184.424943 
L 231.783895 182.65816 
L 236.48955 183.493507 
L 241.195206 175.455364 
L 245.900862 178.681853 
L 250.606517 180.058492 
L 255.312173 175.412257 
L 264.723484 170.225159 
L 269.429139 167.832325 
L 274.134795 157.098122 
L 278.84045 165.083075 
L 283.546106 166.029923 
L 288.251762 164.090039 
L 292.957417 172.763453 
L 297.663073 163.476682 
L 302.368728 161.533457 
L 307.074384 165.005018 
L 311.780039 167.945027 
L 316.485695 171.928687 
L 321.19135 162.698247 
L 325.897006 159.832359 
L 330.602661 164.46573 
L 335.308317 161.482459 
L 340.013973 160.764859 
L 344.719628 160.361795 
L 349.425284 158.043087 
L 354.130939 155.038692 
L 358.836595 167.637279 
L 363.54225 165.126177 
L 368.247906 158.451732 
L 372.953561 161.527867 
L 377.659217 157.913177 
L 382.364873 157.726921 
L 387.070528 156.827166 
L 391.776184 164.434626 
L 396.481839 154.6355 
L 401.187495 159.453654 
L 405.89315 161.239743 
L 410.598806 157.594998 
L 420.010117 156.734766 
L 424.715772 160.041878 
L 429.421428 161.292803 
L 434.127084 148.310098 
L 438.832739 157.977442 
L 443.538395 156.640789 
L 448.24405 164.43315 
L 452.949706 158.60461 
L 457.655361 154.650808 
L 462.361017 155.169278 
L 467.066672 154.907003 
L 471.772328 161.702629 
L 476.477984 165.598082 
L 481.183639 157.553955 
L 485.889295 167.243982 
L 490.59495 159.891353 
L 495.300606 154.903477 
L 500.006261 163.581271 
L 504.711917 154.941156 
L 509.417572 154.208183 
L 514.123228 165.846787 
L 518.828884 162.054442 
L 523.534539 154.751992 
L 528.240195 163.735548 
L 532.94585 154.455698 
L 537.651506 150.540445 
L 542.357161 160.340196 
L 547.062817 151.369175 
L 551.768472 162.692119 
L 556.474128 156.835934 
L 565.885439 152.101338 
L 570.591095 155.780513 
L 575.29675 154.024829 
L 580.002406 143.902962 
L 584.708061 154.080217 
L 589.413717 159.601445 
L 594.119372 150.932086 
L 598.825028 157.550191 
L 603.530683 160.320662 
L 608.236339 150.407689 
L 612.941995 153.676767 
L 617.64765 152.969922 
L 622.353306 157.658969 
L 627.058961 159.604005 
L 631.764617 161.083995 
L 636.470272 157.429088 
L 641.175928 153.272492 
L 645.881583 158.481916 
L 650.587239 154.898338 
L 655.292894 150.499798 
L 659.99855 162.71168 
L 664.704206 159.107747 
L 669.409861 163.744486 
L 674.115517 164.53439 
L 678.821172 161.362718 
L 683.526828 155.625791 
L 688.232483 150.247649 
L 692.938139 161.913384 
L 697.643794 152.370227 
L 702.34945 143.512585 
L 707.055106 159.075364 
L 711.760761 148.744764 
L 716.466417 156.264354 
L 721.172072 145.892205 
L 725.877728 152.613767 
L 730.583383 149.044538 
L 735.289039 161.760323 
L 739.994694 139.182916 
L 744.70035 153.601562 
L 749.406005 156.237657 
L 754.111661 158.46739 
L 758.817317 149.793086 
L 763.522972 145.044755 
L 768.228628 142.062533 
L 772.934283 150.339826 
L 777.639939 155.992327 
L 782.345594 150.857237 
L 787.05125 146.491136 
L 791.756905 159.395062 
L 796.462561 146.65602 
L 801.168217 151.968326 
L 805.873872 141.95579 
L 810.579528 151.689988 
L 815.285183 147.373608 
L 819.990839 143.954501 
L 824.696494 144.496214 
L 829.40215 147.867838 
L 834.107805 145.035123 
L 838.813461 147.822711 
L 843.519116 148.861451 
L 848.224772 145.25958 
L 852.930428 139.650033 
L 857.636083 157.627246 
L 862.341739 149.643144 
L 867.047394 135.274882 
L 871.75305 128.180732 
L 876.458705 143.761666 
L 881.164361 137.869818 
L 885.870016 125.749951 
L 890.575672 139.619519 
L 895.281328 130.542935 
L 899.986983 122.262241 
L 904.692639 136.422926 
L 909.398294 158.632516 
L 914.10395 140.467273 
L 918.809605 140.989652 
L 923.515261 127.407305 
L 928.220916 133.732705 
L 932.926572 144.58301 
L 937.632228 131.896708 
L 942.337883 143.73403 
L 947.043539 134.653859 
L 951.749194 138.403555 
L 956.45485 115.955991 
L 961.160505 138.69923 
L 965.866161 138.432109 
L 970.571816 131.698323 
L 975.277472 147.965082 
L 979.983127 135.372339 
L 984.688783 144.705001 
L 989.394439 137.71517 
L 994.100094 142.180451 
L 998.80575 116.775477 
L 1003.511405 126.307895 
L 1008.217061 125.310419 
L 1012.922716 104.242644 
L 1017.628372 89.489426 
L 1022.334027 141.832564 
L 1027.039683 127.858313 
L 1036.450994 106.179165 
L 1041.15665 137.300123 
L 1045.862305 122.226182 
L 1050.567961 120.617489 
L 1055.273616 122.810523 
L 1059.979272 136.583511 
L 1064.684927 111.311236 
L 1069.390583 126.263191 
L 1074.096238 118.258407 
L 1078.801894 95.984292 
L 1083.50755 142.263354 
L 1088.213205 121.081272 
L 1092.918861 134.768705 
L 1097.624516 135.178745 
L 1102.330172 128.137791 
L 1107.035827 135.941492 
L 1111.741483 138.579823 
L 1116.447138 137.197703 
L 1121.152794 141.223555 
L 1125.85845 129.123558 
L 1130.564105 146.288795 
L 1135.269761 135.559094 
L 1139.975416 141.67892 
L 1144.681072 118.393681 
L 1149.386727 127.889939 
L 1149.386727 127.889939 
" clip-path="url(#pe18a1b50d9)" style="fill: none; stroke: #1f77b4; stroke-width: 1.5; stroke-linecap: square"/>
   </g>
   <g id="patch_3">
    <path d="M 166.14 201.541774 
L 166.14 84.1536 
" style="fill: none; stroke: #000000; stroke-width: 0.8; stroke-linejoin: miter; stroke-linecap: square"/>
   </g>
   <g id="patch_4">
    <path d="M 1196.208 201.541774 
L 1196.208 84.1536 
" style="fill: none; stroke: #000000; stroke-width: 0.8; stroke-linejoin: miter; stroke-linecap: square"/>
   </g>
   <g id="patch_5">
    <path d="M 166.14 201.541774 
L 1196.208 201.541774 
" style="fill: none; stroke: #000000; stroke-width: 0.8; stroke-linejoin: miter; stroke-linecap: square"/>
   </g>
   <g id="patch_6">
    <path d="M 166.14 84.1536 
L 1196.208 84.1536 
" style="fill: none; stroke: #000000; stroke-width: 0.8; stroke-linejoin: miter; stroke-linecap: square"/>
   </g>
   <g id="legend_1">
    <g id="patch_7">
     <path d="M 1185.208 97.1536 
L 1189.208 97.1536 
Q 1191.208 97.1536 1191.208 95.1536 
L 1191.208 91.1536 
Q 1191.208 89.1536 1189.208 89.1536 
L 1185.208 89.1536 
Q 1183.208 89.1536 1183.208 91.1536 
L 1183.208 95.1536 
Q 1183.208 97.1536 1185.208 97.1536 
z
" style="fill: #ffffff; opacity: 0.8; stroke: #cccccc; stroke-linejoin: miter"/>
    </g>
   </g>
  </g>
  <g id="axes_2">
   <g id="patch_8">
    <path d="M 166.14 342.407583 
L 1196.208 342.407583 
L 1196.208 225.019409 
L 166.14 225.019409 
z
" style="fill: #ffffff"/>
   </g>
   <g id="matplotlib.axis_3">
    <g id="xtick_10">
     <g id="line2d_16">
      <g>
       <use xlink:href="#mf7bcff5ae2" x="208.255617" y="342.407583" style="stroke: #000000; stroke-width: 0.8"/>
      </g>
     </g>
     <g id="text_16">
      <!-- 0 -->
      <g transform="translate(205.074367 357.00602) scale(0.1 -0.1)">
       <use xlink:href="#DejaVuSans-30"/>
      </g>
     </g>
    </g>
    <g id="xtick_11">
     <g id="line2d_17">
      <g>
       <use xlink:href="#mf7bcff5ae2" x="325.897006" y="342.407583" style="stroke: #000000; stroke-width: 0.8"/>
      </g>
     </g>
     <g id="text_17">
      <!-- 25 -->
      <g transform="translate(319.534506 357.00602) scale(0.1 -0.1)">
       <use xlink:href="#DejaVuSans-32"/>
       <use xlink:href="#DejaVuSans-35" x="63.623047"/>
      </g>
     </g>
    </g>
    <g id="xtick_12">
     <g id="line2d_18">
      <g>
       <use xlink:href="#mf7bcff5ae2" x="443.538395" y="342.407583" style="stroke: #000000; stroke-width: 0.8"/>
      </g>
     </g>
     <g id="text_18">
      <!-- 50 -->
      <g transform="translate(437.175895 357.00602) scale(0.1 -0.1)">
       <use xlink:href="#DejaVuSans-35"/>
       <use xlink:href="#DejaVuSans-30" x="63.623047"/>
      </g>
     </g>
    </g>
    <g id="xtick_13">
     <g id="line2d_19">
      <g>
       <use xlink:href="#mf7bcff5ae2" x="561.179783" y="342.407583" style="stroke: #000000; stroke-width: 0.8"/>
      </g>
     </g>
     <g id="text_19">
      <!-- 75 -->
      <g transform="translate(554.817283 357.00602) scale(0.1 -0.1)">
       <use xlink:href="#DejaVuSans-37"/>
       <use xlink:href="#DejaVuSans-35" x="63.623047"/>
      </g>
     </g>
    </g>
    <g id="xtick_14">
     <g id="line2d_20">
      <g>
       <use xlink:href="#mf7bcff5ae2" x="678.821172" y="342.407583" style="stroke: #000000; stroke-width: 0.8"/>
      </g>
     </g>
     <g id="text_20">
      <!-- 100 -->
      <g transform="translate(669.277422 357.00602) scale(0.1 -0.1)">
       <use xlink:href="#DejaVuSans-31"/>
       <use xlink:href="#DejaVuSans-30" x="63.623047"/>
       <use xlink:href="#DejaVuSans-30" x="127.246094"/>
      </g>
     </g>
    </g>
    <g id="xtick_15">
     <g id="line2d_21">
      <g>
       <use xlink:href="#mf7bcff5ae2" x="796.462561" y="342.407583" style="stroke: #000000; stroke-width: 0.8"/>
      </g>
     </g>
     <g id="text_21">
      <!-- 125 -->
      <g transform="translate(786.918811 357.00602) scale(0.1 -0.1)">
       <use xlink:href="#DejaVuSans-31"/>
       <use xlink:href="#DejaVuSans-32" x="63.623047"/>
       <use xlink:href="#DejaVuSans-35" x="127.246094"/>
      </g>
     </g>
    </g>
    <g id="xtick_16">
     <g id="line2d_22">
      <g>
       <use xlink:href="#mf7bcff5ae2" x="914.10395" y="342.407583" style="stroke: #000000; stroke-width: 0.8"/>
      </g>
     </g>
     <g id="text_22">
      <!-- 150 -->
      <g transform="translate(904.5602 357.00602) scale(0.1 -0.1)">
       <use xlink:href="#DejaVuSans-31"/>
       <use xlink:href="#DejaVuSans-35" x="63.623047"/>
       <use xlink:href="#DejaVuSans-30" x="127.246094"/>
      </g>
     </g>
    </g>
    <g id="xtick_17">
     <g id="line2d_23">
      <g>
       <use xlink:href="#mf7bcff5ae2" x="1031.745339" y="342.407583" style="stroke: #000000; stroke-width: 0.8"/>
      </g>
     </g>
     <g id="text_23">
      <!-- 175 -->
      <g transform="translate(1022.201589 357.00602) scale(0.1 -0.1)">
       <use xlink:href="#DejaVuSans-31"/>
       <use xlink:href="#DejaVuSans-37" x="63.623047"/>
       <use xlink:href="#DejaVuSans-35" x="127.246094"/>
      </g>
     </g>
    </g>
    <g id="xtick_18">
     <g id="line2d_24">
      <g>
       <use xlink:href="#mf7bcff5ae2" x="1149.386727" y="342.407583" style="stroke: #000000; stroke-width: 0.8"/>
      </g>
     </g>
     <g id="text_24">
      <!-- 200 -->
      <g transform="translate(1139.842977 357.00602) scale(0.1 -0.1)">
       <use xlink:href="#DejaVuSans-32"/>
       <use xlink:href="#DejaVuSans-30" x="63.623047"/>
       <use xlink:href="#DejaVuSans-30" x="127.246094"/>
      </g>
     </g>
    </g>
   </g>
   <g id="matplotlib.axis_4">
    <g id="ytick_6">
     <g id="line2d_25">
      <g>
       <use xlink:href="#m38dfef8461" x="166.14" y="316.538293" style="stroke: #000000; stroke-width: 0.8"/>
      </g>
     </g>
     <g id="text_25">
      <!-- 2 -->
      <g transform="translate(152.7775 320.337512) scale(0.1 -0.1)">
       <use xlink:href="#DejaVuSans-32"/>
      </g>
     </g>
    </g>
    <g id="ytick_7">
     <g id="line2d_26">
      <g>
       <use xlink:href="#m38dfef8461" x="166.14" y="286.239077" style="stroke: #000000; stroke-width: 0.8"/>
      </g>
     </g>
     <g id="text_26">
      <!-- 4 -->
      <g transform="translate(152.7775 290.038296) scale(0.1 -0.1)">
       <defs>
        <path id="DejaVuSans-34" d="M 2419 4116 
L 825 1625 
L 2419 1625 
L 2419 4116 
z
M 2253 4666 
L 3047 4666 
L 3047 1625 
L 3713 1625 
L 3713 1100 
L 3047 1100 
L 3047 0 
L 2419 0 
L 2419 1100 
L 313 1100 
L 313 1709 
L 2253 4666 
z
" transform="scale(0.015625)"/>
       </defs>
       <use xlink:href="#DejaVuSans-34"/>
      </g>
     </g>
    </g>
    <g id="ytick_8">
     <g id="line2d_27">
      <g>
       <use xlink:href="#m38dfef8461" x="166.14" y="255.93986" style="stroke: #000000; stroke-width: 0.8"/>
      </g>
     </g>
     <g id="text_27">
      <!-- 6 -->
      <g transform="translate(152.7775 259.739079) scale(0.1 -0.1)">
       <defs>
        <path id="DejaVuSans-36" d="M 2113 2584 
Q 1688 2584 1439 2293 
Q 1191 2003 1191 1497 
Q 1191 994 1439 701 
Q 1688 409 2113 409 
Q 2538 409 2786 701 
Q 3034 994 3034 1497 
Q 3034 2003 2786 2293 
Q 2538 2584 2113 2584 
z
M 3366 4563 
L 3366 3988 
Q 3128 4100 2886 4159 
Q 2644 4219 2406 4219 
Q 1781 4219 1451 3797 
Q 1122 3375 1075 2522 
Q 1259 2794 1537 2939 
Q 1816 3084 2150 3084 
Q 2853 3084 3261 2657 
Q 3669 2231 3669 1497 
Q 3669 778 3244 343 
Q 2819 -91 2113 -91 
Q 1303 -91 875 529 
Q 447 1150 447 2328 
Q 447 3434 972 4092 
Q 1497 4750 2381 4750 
Q 2619 4750 2861 4703 
Q 3103 4656 3366 4563 
z
" transform="scale(0.015625)"/>
       </defs>
       <use xlink:href="#DejaVuSans-36"/>
      </g>
     </g>
    </g>
    <g id="ytick_9">
     <g id="line2d_28">
      <g>
       <use xlink:href="#m38dfef8461" x="166.14" y="225.640644" style="stroke: #000000; stroke-width: 0.8"/>
      </g>
     </g>
     <g id="text_28">
      <!-- 8 -->
      <g transform="translate(152.7775 229.439863) scale(0.1 -0.1)">
       <defs>
        <path id="DejaVuSans-38" d="M 2034 2216 
Q 1584 2216 1326 1975 
Q 1069 1734 1069 1313 
Q 1069 891 1326 650 
Q 1584 409 2034 409 
Q 2484 409 2743 651 
Q 3003 894 3003 1313 
Q 3003 1734 2745 1975 
Q 2488 2216 2034 2216 
z
M 1403 2484 
Q 997 2584 770 2862 
Q 544 3141 544 3541 
Q 544 4100 942 4425 
Q 1341 4750 2034 4750 
Q 2731 4750 3128 4425 
Q 3525 4100 3525 3541 
Q 3525 3141 3298 2862 
Q 3072 2584 2669 2484 
Q 3125 2378 3379 2068 
Q 3634 1759 3634 1313 
Q 3634 634 3220 271 
Q 2806 -91 2034 -91 
Q 1263 -91 848 271 
Q 434 634 434 1313 
Q 434 1759 690 2068 
Q 947 2378 1403 2484 
z
M 1172 3481 
Q 1172 3119 1398 2916 
Q 1625 2713 2034 2713 
Q 2441 2713 2670 2916 
Q 2900 3119 2900 3481 
Q 2900 3844 2670 4047 
Q 2441 4250 2034 4250 
Q 1625 4250 1398 4047 
Q 1172 3844 1172 3481 
z
" transform="scale(0.015625)"/>
       </defs>
       <use xlink:href="#DejaVuSans-38"/>
      </g>
     </g>
    </g>
    <g id="text_29">
     <!-- constraint -->
     <g transform="translate(146.697812 308.893183) rotate(-90) scale(0.1 -0.1)">
      <defs>
       <path id="DejaVuSans-63" d="M 3122 3366 
L 3122 2828 
Q 2878 2963 2633 3030 
Q 2388 3097 2138 3097 
Q 1578 3097 1268 2742 
Q 959 2388 959 1747 
Q 959 1106 1268 751 
Q 1578 397 2138 397 
Q 2388 397 2633 464 
Q 2878 531 3122 666 
L 3122 134 
Q 2881 22 2623 -34 
Q 2366 -91 2075 -91 
Q 1284 -91 818 406 
Q 353 903 353 1747 
Q 353 2603 823 3093 
Q 1294 3584 2113 3584 
Q 2378 3584 2631 3529 
Q 2884 3475 3122 3366 
z
" transform="scale(0.015625)"/>
       <path id="DejaVuSans-6f" d="M 1959 3097 
Q 1497 3097 1228 2736 
Q 959 2375 959 1747 
Q 959 1119 1226 758 
Q 1494 397 1959 397 
Q 2419 397 2687 759 
Q 2956 1122 2956 1747 
Q 2956 2369 2687 2733 
Q 2419 3097 1959 3097 
z
M 1959 3584 
Q 2709 3584 3137 3096 
Q 3566 2609 3566 1747 
Q 3566 888 3137 398 
Q 2709 -91 1959 -91 
Q 1206 -91 779 398 
Q 353 888 353 1747 
Q 353 2609 779 3096 
Q 1206 3584 1959 3584 
z
" transform="scale(0.015625)"/>
       <path id="DejaVuSans-6e" d="M 3513 2113 
L 3513 0 
L 2938 0 
L 2938 2094 
Q 2938 2591 2744 2837 
Q 2550 3084 2163 3084 
Q 1697 3084 1428 2787 
Q 1159 2491 1159 1978 
L 1159 0 
L 581 0 
L 581 3500 
L 1159 3500 
L 1159 2956 
Q 1366 3272 1645 3428 
Q 1925 3584 2291 3584 
Q 2894 3584 3203 3211 
Q 3513 2838 3513 2113 
z
" transform="scale(0.015625)"/>
       <path id="DejaVuSans-73" d="M 2834 3397 
L 2834 2853 
Q 2591 2978 2328 3040 
Q 2066 3103 1784 3103 
Q 1356 3103 1142 2972 
Q 928 2841 928 2578 
Q 928 2378 1081 2264 
Q 1234 2150 1697 2047 
L 1894 2003 
Q 2506 1872 2764 1633 
Q 3022 1394 3022 966 
Q 3022 478 2636 193 
Q 2250 -91 1575 -91 
Q 1294 -91 989 -36 
Q 684 19 347 128 
L 347 722 
Q 666 556 975 473 
Q 1284 391 1588 391 
Q 1994 391 2212 530 
Q 2431 669 2431 922 
Q 2431 1156 2273 1281 
Q 2116 1406 1581 1522 
L 1381 1569 
Q 847 1681 609 1914 
Q 372 2147 372 2553 
Q 372 3047 722 3315 
Q 1072 3584 1716 3584 
Q 2034 3584 2315 3537 
Q 2597 3491 2834 3397 
z
" transform="scale(0.015625)"/>
       <path id="DejaVuSans-74" d="M 1172 4494 
L 1172 3500 
L 2356 3500 
L 2356 3053 
L 1172 3053 
L 1172 1153 
Q 1172 725 1289 603 
Q 1406 481 1766 481 
L 2356 481 
L 2356 0 
L 1766 0 
Q 1100 0 847 248 
Q 594 497 594 1153 
L 594 3053 
L 172 3053 
L 172 3500 
L 594 3500 
L 594 4494 
L 1172 4494 
z
" transform="scale(0.015625)"/>
       <path id="DejaVuSans-69" d="M 603 3500 
L 1178 3500 
L 1178 0 
L 603 0 
L 603 3500 
z
M 603 4863 
L 1178 4863 
L 1178 4134 
L 603 4134 
L 603 4863 
z
" transform="scale(0.015625)"/>
      </defs>
      <use xlink:href="#DejaVuSans-63"/>
      <use xlink:href="#DejaVuSans-6f" x="54.980469"/>
      <use xlink:href="#DejaVuSans-6e" x="116.162109"/>
      <use xlink:href="#DejaVuSans-73" x="179.541016"/>
      <use xlink:href="#DejaVuSans-74" x="231.640625"/>
      <use xlink:href="#DejaVuSans-72" x="270.849609"/>
      <use xlink:href="#DejaVuSans-61" x="311.962891"/>
      <use xlink:href="#DejaVuSans-69" x="373.242188"/>
      <use xlink:href="#DejaVuSans-6e" x="401.025391"/>
      <use xlink:href="#DejaVuSans-74" x="464.404297"/>
     </g>
    </g>
   </g>
   <g id="line2d_29">
    <path d="M 212.961273 277.467557 
L 217.666928 323.411436 
L 222.372584 296.255558 
L 227.078239 305.382603 
L 231.783895 266.959554 
L 236.48955 293.034147 
L 241.195206 304.354627 
L 245.900862 258.862475 
L 250.606517 298.876233 
L 255.312173 323.729483 
L 260.017828 318.416432 
L 264.723484 308.380164 
L 269.429139 267.137256 
L 274.134795 303.796799 
L 278.84045 299.675395 
L 283.546106 295.050387 
L 288.251762 305.543544 
L 292.957417 296.612882 
L 297.663073 306.258387 
L 302.368728 297.566858 
L 307.074384 300.928708 
L 311.780039 277.33864 
L 316.485695 287.79749 
L 321.19135 314.530183 
L 325.897006 311.105533 
L 330.602661 300.60281 
L 335.308317 277.757858 
L 340.013973 314.53966 
L 344.719628 316.21008 
L 349.425284 271.072981 
L 354.130939 305.545632 
L 358.836595 284.098099 
L 363.54225 291.130325 
L 368.247906 307.026758 
L 372.953561 310.124995 
L 377.659217 284.89533 
L 382.364873 318.79414 
L 387.070528 310.804424 
L 391.776184 296.998569 
L 396.481839 315.353694 
L 401.187495 298.417831 
L 405.89315 295.971636 
L 410.598806 315.287686 
L 415.304461 314.854526 
L 420.010117 246.756414 
L 424.715772 304.958386 
L 429.421428 292.577543 
L 434.127084 308.504798 
L 438.832739 289.499658 
L 443.538395 305.893682 
L 448.24405 284.278523 
L 452.949706 314.667288 
L 457.655361 317.715201 
L 462.361017 255.801201 
L 467.066672 285.568259 
L 471.772328 283.132439 
L 476.477984 298.412291 
L 481.183639 309.104657 
L 485.889295 318.412139 
L 490.59495 313.418203 
L 495.300606 307.630446 
L 500.006261 285.677268 
L 504.711917 299.433873 
L 509.417572 330.095076 
L 514.123228 291.143768 
L 518.828884 299.882601 
L 523.534539 291.06979 
L 528.240195 337.071757 
L 532.94585 319.19928 
L 537.651506 319.677862 
L 542.357161 328.026429 
L 547.062817 308.373547 
L 551.768472 286.567136 
L 556.474128 306.922919 
L 561.179783 305.212472 
L 565.885439 295.415582 
L 570.591095 306.287496 
L 575.29675 230.355235 
L 580.002406 296.096018 
L 584.708061 294.216454 
L 589.413717 327.026236 
L 594.119372 311.031493 
L 598.825028 286.04619 
L 603.530683 292.487159 
L 608.236339 297.067809 
L 612.941995 312.05043 
L 617.64765 320.903543 
L 622.353306 289.153583 
L 627.058961 300.133086 
L 631.764617 312.076952 
L 636.470272 275.61118 
L 641.175928 295.303217 
L 645.881583 303.80841 
L 650.587239 309.846297 
L 655.292894 308.447081 
L 659.99855 299.750564 
L 664.704206 320.128914 
L 669.409861 309.163002 
L 674.115517 300.549079 
L 678.821172 301.811659 
L 683.526828 284.112172 
L 688.232483 315.49875 
L 692.938139 315.121299 
L 697.643794 311.99239 
L 702.34945 309.45007 
L 707.055106 286.677357 
L 711.760761 276.788705 
L 716.466417 289.98664 
L 721.172072 327.561977 
L 725.877728 301.92851 
L 730.583383 313.658139 
L 735.289039 277.517953 
L 739.994694 288.556886 
L 744.70035 316.457017 
L 749.406005 306.695688 
L 754.111661 291.658711 
L 758.817317 309.10919 
L 763.522972 311.168562 
L 768.228628 275.350393 
L 772.934283 310.763929 
L 777.639939 290.073415 
L 782.345594 306.074802 
L 787.05125 288.386445 
L 791.756905 287.534686 
L 796.462561 297.304499 
L 801.168217 309.447185 
L 805.873872 314.864905 
L 810.579528 288.791595 
L 815.285183 320.278632 
L 819.990839 305.702833 
L 824.696494 264.556373 
L 829.40215 302.531159 
L 834.107805 265.303583 
L 838.813461 291.527794 
L 843.519116 295.943622 
L 848.224772 327.757683 
L 852.930428 302.277345 
L 857.636083 283.757368 
L 862.341739 281.694243 
L 867.047394 312.831894 
L 871.75305 280.878475 
L 876.458705 325.266699 
L 881.164361 310.463834 
L 885.870016 270.80723 
L 890.575672 275.530113 
L 895.281328 298.155159 
L 899.986983 303.979329 
L 904.692639 299.23034 
L 909.398294 327.099574 
L 914.10395 321.997055 
L 918.809605 312.925103 
L 923.515261 307.348485 
L 928.220916 311.029183 
L 932.926572 256.63554 
L 937.632228 296.981309 
L 942.337883 319.87128 
L 947.043539 297.400445 
L 951.749194 305.685103 
L 956.45485 305.735048 
L 961.160505 276.469227 
L 965.866161 290.700258 
L 970.571816 306.779716 
L 975.277472 306.801508 
L 979.983127 298.180892 
L 984.688783 327.580792 
L 989.394439 303.62185 
L 994.100094 300.393768 
L 998.80575 318.026158 
L 1003.511405 291.343057 
L 1008.217061 286.231503 
L 1012.922716 318.755146 
L 1017.628372 300.653353 
L 1022.334027 299.525423 
L 1027.039683 321.330957 
L 1031.745339 293.922655 
L 1036.450994 317.260766 
L 1041.15665 299.363769 
L 1045.862305 316.396133 
L 1050.567961 307.67686 
L 1055.273616 321.762546 
L 1059.979272 294.357015 
L 1064.684927 312.127469 
L 1069.390583 295.461111 
L 1074.096238 306.696962 
L 1078.801894 313.554596 
L 1083.50755 287.414406 
L 1088.213205 316.074372 
L 1092.918861 328.187339 
L 1097.624516 306.809636 
L 1102.330172 297.329889 
L 1107.035827 280.409262 
L 1111.741483 320.874756 
L 1116.447138 319.289243 
L 1121.152794 282.317891 
L 1125.85845 326.734083 
L 1130.564105 316.586904 
L 1135.269761 320.6441 
L 1139.975416 297.254188 
L 1144.681072 298.179558 
L 1149.386727 322.451363 
L 1149.386727 322.451363 
" clip-path="url(#p601a85f3a9)" style="fill: none; stroke: #1f77b4; stroke-width: 1.5; stroke-linecap: square"/>
   </g>
   <g id="line2d_30">
    <path d="M 212.961273 301.388685 
L 1149.386727 301.388685 
L 1149.386727 301.388685 
" clip-path="url(#p601a85f3a9)" style="fill: none; stroke: #000000; stroke-width: 1.5; stroke-linecap: square"/>
   </g>
   <g id="patch_9">
    <path d="M 166.14 342.407583 
L 166.14 225.019409 
" style="fill: none; stroke: #000000; stroke-width: 0.8; stroke-linejoin: miter; stroke-linecap: square"/>
   </g>
   <g id="patch_10">
    <path d="M 1196.208 342.407583 
L 1196.208 225.019409 
" style="fill: none; stroke: #000000; stroke-width: 0.8; stroke-linejoin: miter; stroke-linecap: square"/>
   </g>
   <g id="patch_11">
    <path d="M 166.14 342.407583 
L 1196.208 342.407583 
" style="fill: none; stroke: #000000; stroke-width: 0.8; stroke-linejoin: miter; stroke-linecap: square"/>
   </g>
   <g id="patch_12">
    <path d="M 166.14 225.019409 
L 1196.208 225.019409 
" style="fill: none; stroke: #000000; stroke-width: 0.8; stroke-linejoin: miter; stroke-linecap: square"/>
   </g>
   <g id="legend_2">
    <g id="patch_13">
     <path d="M 1135.212688 247.697534 
L 1189.208 247.697534 
Q 1191.208 247.697534 1191.208 245.697534 
L 1191.208 232.019409 
Q 1191.208 230.019409 1189.208 230.019409 
L 1135.212688 230.019409 
Q 1133.212688 230.019409 1133.212688 232.019409 
L 1133.212688 245.697534 
Q 1133.212688 247.697534 1135.212688 247.697534 
z
" style="fill: #ffffff; opacity: 0.8; stroke: #cccccc; stroke-linejoin: miter"/>
    </g>
    <g id="line2d_31">
     <path d="M 1137.212688 238.117846 
L 1147.212688 238.117846 
L 1157.212688 238.117846 
" style="fill: none; stroke: #000000; stroke-width: 1.5; stroke-linecap: square"/>
    </g>
    <g id="text_30">
     <!-- limit -->
     <g transform="translate(1165.212688 241.617846) scale(0.1 -0.1)">
      <defs>
       <path id="DejaVuSans-6c" d="M 603 4863 
L 1178 4863 
L 1178 0 
L 603 0 
L 603 4863 
z
" transform="scale(0.015625)"/>
       <path id="DejaVuSans-6d" d="M 3328 2828 
Q 3544 3216 3844 3400 
Q 4144 3584 4550 3584 
Q 5097 3584 5394 3201 
Q 5691 2819 5691 2113 
L 5691 0 
L 5113 0 
L 5113 2094 
Q 5113 2597 4934 2840 
Q 4756 3084 4391 3084 
Q 3944 3084 3684 2787 
Q 3425 2491 3425 1978 
L 3425 0 
L 2847 0 
L 2847 2094 
Q 2847 2600 2669 2842 
Q 2491 3084 2119 3084 
Q 1678 3084 1418 2786 
Q 1159 2488 1159 1978 
L 1159 0 
L 581 0 
L 581 3500 
L 1159 3500 
L 1159 2956 
Q 1356 3278 1631 3431 
Q 1906 3584 2284 3584 
Q 2666 3584 2933 3390 
Q 3200 3197 3328 2828 
z
" transform="scale(0.015625)"/>
      </defs>
      <use xlink:href="#DejaVuSans-6c"/>
      <use xlink:href="#DejaVuSans-69" x="27.783203"/>
      <use xlink:href="#DejaVuSans-6d" x="55.566406"/>
      <use xlink:href="#DejaVuSans-69" x="152.978516"/>
      <use xlink:href="#DejaVuSans-74" x="180.761719"/>
     </g>
    </g>
   </g>
  </g>
  <g id="axes_3">
   <g id="patch_14">
    <path d="M 166.14 483.273391 
L 1196.208 483.273391 
L 1196.208 365.885217 
L 166.14 365.885217 
z
" style="fill: #ffffff"/>
   </g>
   <g id="matplotlib.axis_5">
    <g id="xtick_19">
     <g id="line2d_32">
      <g>
       <use xlink:href="#mf7bcff5ae2" x="208.255617" y="483.273391" style="stroke: #000000; stroke-width: 0.8"/>
      </g>
     </g>
     <g id="text_31">
      <!-- 0 -->
      <g transform="translate(205.074367 497.871829) scale(0.1 -0.1)">
       <use xlink:href="#DejaVuSans-30"/>
      </g>
     </g>
    </g>
    <g id="xtick_20">
     <g id="line2d_33">
      <g>
       <use xlink:href="#mf7bcff5ae2" x="325.897006" y="483.273391" style="stroke: #000000; stroke-width: 0.8"/>
      </g>
     </g>
     <g id="text_32">
      <!-- 25 -->
      <g transform="translate(319.534506 497.871829) scale(0.1 -0.1)">
       <use xlink:href="#DejaVuSans-32"/>
       <use xlink:href="#DejaVuSans-35" x="63.623047"/>
      </g>
     </g>
    </g>
    <g id="xtick_21">
     <g id="line2d_34">
      <g>
       <use xlink:href="#mf7bcff5ae2" x="443.538395" y="483.273391" style="stroke: #000000; stroke-width: 0.8"/>
      </g>
     </g>
     <g id="text_33">
      <!-- 50 -->
      <g transform="translate(437.175895 497.871829) scale(0.1 -0.1)">
       <use xlink:href="#DejaVuSans-35"/>
       <use xlink:href="#DejaVuSans-30" x="63.623047"/>
      </g>
     </g>
    </g>
    <g id="xtick_22">
     <g id="line2d_35">
      <g>
       <use xlink:href="#mf7bcff5ae2" x="561.179783" y="483.273391" style="stroke: #000000; stroke-width: 0.8"/>
      </g>
     </g>
     <g id="text_34">
      <!-- 75 -->
      <g transform="translate(554.817283 497.871829) scale(0.1 -0.1)">
       <use xlink:href="#DejaVuSans-37"/>
       <use xlink:href="#DejaVuSans-35" x="63.623047"/>
      </g>
     </g>
    </g>
    <g id="xtick_23">
     <g id="line2d_36">
      <g>
       <use xlink:href="#mf7bcff5ae2" x="678.821172" y="483.273391" style="stroke: #000000; stroke-width: 0.8"/>
      </g>
     </g>
     <g id="text_35">
      <!-- 100 -->
      <g transform="translate(669.277422 497.871829) scale(0.1 -0.1)">
       <use xlink:href="#DejaVuSans-31"/>
       <use xlink:href="#DejaVuSans-30" x="63.623047"/>
       <use xlink:href="#DejaVuSans-30" x="127.246094"/>
      </g>
     </g>
    </g>
    <g id="xtick_24">
     <g id="line2d_37">
      <g>
       <use xlink:href="#mf7bcff5ae2" x="796.462561" y="483.273391" style="stroke: #000000; stroke-width: 0.8"/>
      </g>
     </g>
     <g id="text_36">
      <!-- 125 -->
      <g transform="translate(786.918811 497.871829) scale(0.1 -0.1)">
       <use xlink:href="#DejaVuSans-31"/>
       <use xlink:href="#DejaVuSans-32" x="63.623047"/>
       <use xlink:href="#DejaVuSans-35" x="127.246094"/>
      </g>
     </g>
    </g>
    <g id="xtick_25">
     <g id="line2d_38">
      <g>
       <use xlink:href="#mf7bcff5ae2" x="914.10395" y="483.273391" style="stroke: #000000; stroke-width: 0.8"/>
      </g>
     </g>
     <g id="text_37">
      <!-- 150 -->
      <g transform="translate(904.5602 497.871829) scale(0.1 -0.1)">
       <use xlink:href="#DejaVuSans-31"/>
       <use xlink:href="#DejaVuSans-35" x="63.623047"/>
       <use xlink:href="#DejaVuSans-30" x="127.246094"/>
      </g>
     </g>
    </g>
    <g id="xtick_26">
     <g id="line2d_39">
      <g>
       <use xlink:href="#mf7bcff5ae2" x="1031.745339" y="483.273391" style="stroke: #000000; stroke-width: 0.8"/>
      </g>
     </g>
     <g id="text_38">
      <!-- 175 -->
      <g transform="translate(1022.201589 497.871829) scale(0.1 -0.1)">
       <use xlink:href="#DejaVuSans-31"/>
       <use xlink:href="#DejaVuSans-37" x="63.623047"/>
       <use xlink:href="#DejaVuSans-35" x="127.246094"/>
      </g>
     </g>
    </g>
    <g id="xtick_27">
     <g id="line2d_40">
      <g>
       <use xlink:href="#mf7bcff5ae2" x="1149.386727" y="483.273391" style="stroke: #000000; stroke-width: 0.8"/>
      </g>
     </g>
     <g id="text_39">
      <!-- 200 -->
      <g transform="translate(1139.842977 497.871829) scale(0.1 -0.1)">
       <use xlink:href="#DejaVuSans-32"/>
       <use xlink:href="#DejaVuSans-30" x="63.623047"/>
       <use xlink:href="#DejaVuSans-30" x="127.246094"/>
      </g>
     </g>
    </g>
   </g>
   <g id="matplotlib.axis_6">
    <g id="ytick_10">
     <g id="line2d_41">
      <g>
       <use xlink:href="#m38dfef8461" x="166.14" y="477.938409" style="stroke: #000000; stroke-width: 0.8"/>
      </g>
     </g>
     <g id="text_40">
      <!-- 0.0 -->
      <g transform="translate(143.236875 481.737627) scale(0.1 -0.1)">
       <defs>
        <path id="DejaVuSans-2e" d="M 684 794 
L 1344 794 
L 1344 0 
L 684 0 
L 684 794 
z
" transform="scale(0.015625)"/>
       </defs>
       <use xlink:href="#DejaVuSans-30"/>
       <use xlink:href="#DejaVuSans-2e" x="63.623047"/>
       <use xlink:href="#DejaVuSans-30" x="95.410156"/>
      </g>
     </g>
    </g>
    <g id="ytick_11">
     <g id="line2d_42">
      <g>
       <use xlink:href="#m38dfef8461" x="166.14" y="433.890728" style="stroke: #000000; stroke-width: 0.8"/>
      </g>
     </g>
     <g id="text_41">
      <!-- 0.1 -->
      <g transform="translate(143.236875 437.689947) scale(0.1 -0.1)">
       <use xlink:href="#DejaVuSans-30"/>
       <use xlink:href="#DejaVuSans-2e" x="63.623047"/>
       <use xlink:href="#DejaVuSans-31" x="95.410156"/>
      </g>
     </g>
    </g>
    <g id="ytick_12">
     <g id="line2d_43">
      <g>
       <use xlink:href="#m38dfef8461" x="166.14" y="389.843047" style="stroke: #000000; stroke-width: 0.8"/>
      </g>
     </g>
     <g id="text_42">
      <!-- 0.2 -->
      <g transform="translate(143.236875 393.642266) scale(0.1 -0.1)">
       <use xlink:href="#DejaVuSans-30"/>
       <use xlink:href="#DejaVuSans-2e" x="63.623047"/>
       <use xlink:href="#DejaVuSans-32" x="95.410156"/>
      </g>
     </g>
    </g>
    <g id="text_43">
     <!-- residual -->
     <g transform="translate(137.157188 444.388679) rotate(-90) scale(0.1 -0.1)">
      <defs>
       <path id="DejaVuSans-75" d="M 544 1381 
L 544 3500 
L 1119 3500 
L 1119 1403 
Q 1119 906 1312 657 
Q 1506 409 1894 409 
Q 2359 409 2629 706 
Q 2900 1003 2900 1516 
L 2900 3500 
L 3475 3500 
L 3475 0 
L 2900 0 
L 2900 538 
Q 2691 219 2414 64 
Q 2138 -91 1772 -91 
Q 1169 -91 856 284 
Q 544 659 544 1381 
z
M 1991 3584 
L 1991 3584 
z
" transform="scale(0.015625)"/>
      </defs>
      <use xlink:href="#DejaVuSans-72"/>
      <use xlink:href="#DejaVuSans-65" x="38.863281"/>
      <use xlink:href="#DejaVuSans-73" x="100.386719"/>
      <use xlink:href="#DejaVuSans-69" x="152.486328"/>
      <use xlink:href="#DejaVuSans-64" x="180.269531"/>
      <use xlink:href="#DejaVuSans-75" x="243.746094"/>
      <use xlink:href="#DejaVuSans-61" x="307.125"/>
      <use xlink:href="#DejaVuSans-6c" x="368.404297"/>
     </g>
    </g>
   </g>
   <g id="line2d_44">
    <path d="M 212.961273 477.936482 
L 236.48955 477.915362 
L 241.195206 477.697314 
L 250.606517 477.895889 
L 255.312173 477.166837 
L 260.017828 477.895631 
L 264.723484 477.649241 
L 269.429139 477.719732 
L 274.134795 477.467998 
L 278.84045 477.508677 
L 283.546106 476.930592 
L 288.251762 477.629685 
L 292.957417 476.971649 
L 297.663073 477.662459 
L 307.074384 477.244961 
L 311.780039 477.455624 
L 321.19135 477.600853 
L 325.897006 475.662956 
L 330.602661 477.133375 
L 340.013973 477.264208 
L 344.719628 477.175529 
L 349.425284 476.896435 
L 354.130939 477.128655 
L 358.836595 476.813536 
L 363.54225 477.276563 
L 368.247906 477.344922 
L 372.953561 470.67852 
L 377.659217 476.935102 
L 382.364873 472.548934 
L 387.070528 470.776464 
L 391.776184 476.553425 
L 396.481839 476.96611 
L 401.187495 477.189464 
L 405.89315 476.740196 
L 410.598806 477.494467 
L 415.304461 476.63746 
L 420.010117 476.667549 
L 424.715772 476.423107 
L 434.127084 477.149916 
L 443.538395 477.204433 
L 448.24405 475.641125 
L 452.949706 476.896138 
L 457.655361 476.743655 
L 462.361017 475.73304 
L 467.066672 476.298931 
L 471.772328 476.319772 
L 476.477984 476.626903 
L 481.183639 475.500521 
L 485.889295 475.455604 
L 490.59495 476.227839 
L 495.300606 475.951638 
L 500.006261 475.432583 
L 504.711917 476.179622 
L 509.417572 476.449156 
L 514.123228 475.884296 
L 518.828884 475.65103 
L 523.534539 475.602188 
L 528.240195 475.177425 
L 532.94585 475.220371 
L 542.357161 476.269871 
L 547.062817 475.535472 
L 551.768472 476.499315 
L 556.474128 476.68089 
L 561.179783 475.946575 
L 570.591095 476.614955 
L 575.29675 476.544506 
L 580.002406 474.594583 
L 584.708061 475.935938 
L 589.413717 475.153452 
L 594.119372 467.522063 
L 598.825028 476.651562 
L 608.236339 476.314132 
L 612.941995 476.515784 
L 617.64765 463.012136 
L 622.353306 475.409054 
L 627.058961 476.103151 
L 631.764617 475.660086 
L 636.470272 474.46572 
L 641.175928 475.696821 
L 645.881583 476.038609 
L 650.587239 473.862046 
L 655.292894 472.902534 
L 659.99855 475.429756 
L 664.704206 475.473412 
L 669.409861 475.278991 
L 674.115517 475.823082 
L 678.821172 474.950511 
L 683.526828 475.030619 
L 688.232483 475.686007 
L 692.938139 475.885934 
L 697.643794 475.722122 
L 702.34945 475.279165 
L 707.055106 475.220008 
L 711.760761 472.680382 
L 716.466417 473.853228 
L 721.172072 475.309324 
L 725.877728 475.435208 
L 730.583383 474.665692 
L 735.289039 473.127473 
L 739.994694 474.16916 
L 744.70035 475.38161 
L 749.406005 475.911035 
L 754.111661 475.720762 
L 758.817317 474.95323 
L 763.522972 474.358477 
L 768.228628 473.922388 
L 772.934283 473.928781 
L 777.639939 473.608173 
L 782.345594 474.757926 
L 787.05125 474.069679 
L 791.756905 474.617829 
L 796.462561 474.594003 
L 801.168217 474.929094 
L 805.873872 474.764572 
L 810.579528 473.750326 
L 815.285183 474.726577 
L 819.990839 473.97235 
L 824.696494 472.32158 
L 829.40215 473.615925 
L 834.107805 472.276202 
L 843.519116 473.113537 
L 848.224772 473.356354 
L 852.930428 474.789057 
L 857.636083 472.590198 
L 862.341739 472.907081 
L 867.047394 474.357318 
L 871.75305 474.785004 
L 876.458705 474.537479 
L 881.164361 473.369275 
L 885.870016 472.66252 
L 890.575672 474.180142 
L 895.281328 472.023851 
L 899.986983 472.821864 
L 904.692639 473.30994 
L 909.398294 474.881401 
L 914.10395 474.340138 
L 918.809605 472.936831 
L 923.515261 471.868638 
L 928.220916 473.172342 
L 932.926572 472.27047 
L 937.632228 473.340469 
L 942.337883 472.818364 
L 947.043539 473.779591 
L 951.749194 473.492261 
L 956.45485 472.750392 
L 961.160505 473.461699 
L 965.866161 473.236714 
L 970.571816 471.292398 
L 975.277472 471.296033 
L 979.983127 471.991713 
L 984.688783 474.757351 
L 989.394439 474.274331 
L 994.100094 475.369019 
L 998.80575 472.674671 
L 1003.511405 473.70697 
L 1012.922716 474.533891 
L 1017.628372 474.737728 
L 1022.334027 471.306639 
L 1027.039683 475.56368 
L 1031.745339 473.27902 
L 1036.450994 474.818039 
L 1041.15665 474.88439 
L 1045.862305 475.611393 
L 1050.567961 474.729346 
L 1055.273616 474.819499 
L 1059.979272 472.93107 
L 1069.390583 474.659359 
L 1074.096238 474.909461 
L 1078.801894 474.630892 
L 1083.50755 475.252902 
L 1088.213205 473.829549 
L 1092.918861 473.736369 
L 1097.624516 474.678296 
L 1102.330172 472.339148 
L 1107.035827 473.747747 
L 1111.741483 469.904713 
L 1116.447138 473.974541 
L 1121.152794 474.730479 
L 1125.85845 472.028621 
L 1130.564105 471.019328 
L 1135.269761 472.920365 
L 1139.975416 472.582496 
L 1149.386727 475.072809 
L 1149.386727 475.072809 
" clip-path="url(#pdcd7ac57e9)" style="fill: none; stroke: #1f77b4; stroke-width: 1.5; stroke-linecap: square"/>
   </g>
   <g id="line2d_45">
    <path d="M 212.961273 477.912687 
L 217.666928 477.842192 
L 222.372584 477.897995 
L 227.078239 477.608423 
L 231.783895 477.813153 
L 241.195206 477.825712 
L 245.900862 477.482875 
L 250.606517 477.486971 
L 255.312173 474.897876 
L 260.017828 477.561957 
L 264.723484 477.4388 
L 269.429139 477.428056 
L 274.134795 477.017342 
L 278.84045 475.702986 
L 283.546106 469.369805 
L 288.251762 476.563434 
L 292.957417 476.820346 
L 302.368728 476.033926 
L 307.074384 476.347082 
L 311.780039 475.535446 
L 316.485695 475.716835 
L 321.19135 475.393612 
L 325.897006 473.239379 
L 330.602661 473.371616 
L 335.308317 475.571796 
L 340.013973 476.243719 
L 344.719628 475.747405 
L 349.425284 474.834797 
L 354.130939 476.421316 
L 358.836595 473.899069 
L 363.54225 474.54232 
L 368.247906 475.730855 
L 372.953561 462.648219 
L 377.659217 475.841956 
L 382.364873 475.419964 
L 387.070528 462.759134 
L 391.776184 475.025581 
L 396.481839 475.83537 
L 401.187495 476.17662 
L 405.89315 475.002945 
L 410.598806 466.489936 
L 415.304461 473.813105 
L 420.010117 474.990929 
L 424.715772 474.236467 
L 429.421428 474.358626 
L 434.127084 472.353654 
L 438.832739 475.413444 
L 443.538395 475.281339 
L 448.24405 472.881295 
L 452.949706 475.969311 
L 457.655361 474.598866 
L 462.361017 472.598616 
L 467.066672 471.675755 
L 471.772328 473.500944 
L 476.477984 473.046859 
L 481.183639 468.944081 
L 485.889295 470.28964 
L 490.59495 468.548678 
L 500.006261 466.973835 
L 504.711917 472.175169 
L 509.417572 469.389795 
L 514.123228 466.999318 
L 518.828884 471.749246 
L 523.534539 469.059506 
L 528.240195 472.710523 
L 532.94585 471.528612 
L 537.651506 468.760528 
L 542.357161 459.337864 
L 547.062817 470.961612 
L 551.768472 466.706398 
L 556.474128 463.434632 
L 561.179783 466.478934 
L 565.885439 454.658085 
L 570.591095 447.86311 
L 575.29675 471.606264 
L 580.002406 467.583031 
L 584.708061 471.257775 
L 589.413717 465.259942 
L 594.119372 464.985502 
L 598.825028 465.286455 
L 603.530683 473.082779 
L 608.236339 461.298839 
L 612.941995 466.311963 
L 617.64765 423.536569 
L 622.353306 458.200985 
L 627.058961 472.117656 
L 631.764617 460.724464 
L 636.470272 467.236583 
L 641.175928 472.189402 
L 645.881583 471.297992 
L 650.587239 469.744088 
L 655.292894 464.417162 
L 659.99855 470.035088 
L 664.704206 463.798946 
L 669.409861 460.640661 
L 674.115517 469.372036 
L 678.821172 469.763621 
L 683.526828 465.113133 
L 688.232483 457.350492 
L 692.938139 467.639841 
L 697.643794 472.249284 
L 702.34945 461.215043 
L 707.055106 468.789298 
L 711.760761 462.470572 
L 716.466417 459.270912 
L 721.172072 464.845211 
L 725.877728 465.277445 
L 730.583383 462.719202 
L 735.289039 464.756327 
L 739.994694 456.964119 
L 744.70035 466.263809 
L 749.406005 463.849196 
L 754.111661 463.75112 
L 758.817317 466.10859 
L 763.522972 465.292005 
L 768.228628 466.737672 
L 772.934283 463.711729 
L 777.639939 459.14996 
L 782.345594 470.057127 
L 787.05125 467.87154 
L 791.756905 468.435841 
L 796.462561 464.745509 
L 801.168217 462.168125 
L 805.873872 451.135414 
L 810.579528 456.398636 
L 815.285183 454.647211 
L 819.990839 433.061782 
L 824.696494 446.569763 
L 829.40215 454.403698 
L 834.107805 448.303132 
L 838.813461 450.829046 
L 843.519116 460.203682 
L 848.224772 449.852314 
L 852.930428 464.603617 
L 857.636083 463.469307 
L 862.341739 466.62953 
L 867.047394 454.96211 
L 871.75305 460.17692 
L 876.458705 456.215322 
L 881.164361 444.185799 
L 885.870016 463.524834 
L 890.575672 371.221043 
L 895.281328 462.112946 
L 899.986983 460.292744 
L 904.692639 461.318699 
L 909.398294 460.672629 
L 914.10395 466.511199 
L 918.809605 463.842757 
L 923.515261 448.809497 
L 928.220916 457.122935 
L 932.926572 450.865041 
L 937.632228 464.102039 
L 942.337883 430.85238 
L 947.043539 467.861964 
L 951.749194 463.001624 
L 956.45485 440.706707 
L 961.160505 455.574337 
L 965.866161 453.714171 
L 970.571816 459.177555 
L 975.277472 463.218967 
L 979.983127 456.15415 
L 984.688783 460.177797 
L 989.394439 468.688983 
L 994.100094 466.009635 
L 998.80575 460.664146 
L 1003.511405 451.818512 
L 1008.217061 434.333967 
L 1012.922716 469.09881 
L 1017.628372 455.37156 
L 1022.334027 461.276384 
L 1027.039683 470.243311 
L 1031.745339 457.27633 
L 1036.450994 468.389677 
L 1041.15665 471.038436 
L 1045.862305 466.153959 
L 1050.567961 469.931449 
L 1055.273616 446.436285 
L 1059.979272 460.748559 
L 1064.684927 446.474223 
L 1069.390583 467.757695 
L 1074.096238 467.971569 
L 1078.801894 451.711448 
L 1083.50755 469.079945 
L 1088.213205 470.249636 
L 1092.918861 463.245213 
L 1097.624516 464.203486 
L 1102.330172 457.422364 
L 1107.035827 465.685201 
L 1111.741483 462.910831 
L 1116.447138 465.595546 
L 1121.152794 467.167485 
L 1125.85845 464.47362 
L 1130.564105 465.182131 
L 1135.269761 460.062503 
L 1139.975416 443.11854 
L 1144.681072 457.907874 
L 1149.386727 461.386612 
L 1149.386727 461.386612 
" clip-path="url(#pdcd7ac57e9)" style="fill: none; stroke: #ff7f0e; stroke-width: 1.5; stroke-linecap: square"/>
   </g>
   <g id="patch_15">
    <path d="M 166.14 483.273391 
L 166.14 365.885217 
" style="fill: none; stroke: #000000; stroke-width: 0.8; stroke-linejoin: miter; stroke-linecap: square"/>
   </g>
   <g id="patch_16">
    <path d="M 1196.208 483.273391 
L 1196.208 365.885217 
" style="fill: none; stroke: #000000; stroke-width: 0.8; stroke-linejoin: miter; stroke-linecap: square"/>
   </g>
   <g id="patch_17">
    <path d="M 166.14 483.273391 
L 1196.208 483.273391 
" style="fill: none; stroke: #000000; stroke-width: 0.8; stroke-linejoin: miter; stroke-linecap: square"/>
   </g>
   <g id="patch_18">
    <path d="M 166.14 365.885217 
L 1196.208 365.885217 
" style="fill: none; stroke: #000000; stroke-width: 0.8; stroke-linejoin: miter; stroke-linecap: square"/>
   </g>
   <g id="legend_3">
    <g id="patch_19">
     <path d="M 1146.734563 403.241467 
L 1189.208 403.241467 
Q 1191.208 403.241467 1191.208 401.241467 
L 1191.208 372.885217 
Q 1191.208 370.885217 1189.208 370.885217 
L 1146.734563 370.885217 
Q 1144.734563 370.885217 1144.734563 372.885217 
L 1144.734563 401.241467 
Q 1144.734563 403.241467 1146.734563 403.241467 
z
" style="fill: #ffffff; opacity: 0.8; stroke: #cccccc; stroke-linejoin: miter"/>
    </g>
    <g id="line2d_46">
     <path d="M 1148.734563 378.983655 
L 1158.734563 378.983655 
L 1168.734563 378.983655 
" style="fill: none; stroke: #1f77b4; stroke-width: 1.5; stroke-linecap: square"/>
    </g>
    <g id="text_44">
     <!-- r1 -->
     <g transform="translate(1176.734563 382.483655) scale(0.1 -0.1)">
      <use xlink:href="#DejaVuSans-72"/>
      <use xlink:href="#DejaVuSans-31" x="41.113281"/>
     </g>
    </g>
    <g id="line2d_47">
     <path d="M 1148.734563 393.66178 
L 1158.734563 393.66178 
L 1168.734563 393.66178 
" style="fill: none; stroke: #ff7f0e; stroke-width: 1.5; stroke-linecap: square"/>
    </g>
    <g id="text_45">
     <!-- r2 -->
     <g transform="translate(1176.734563 397.16178) scale(0.1 -0.1)">
      <use xlink:href="#DejaVuSans-72"/>
      <use xlink:href="#DejaVuSans-32" x="41.113281"/>
     </g>
    </g>
   </g>
  </g>
  <g id="axes_4">
   <g id="patch_20">
    <path d="M 166.14 624.1392 
L 1196.208 624.1392 
L 1196.208 506.751026 
L 166.14 506.751026 
z
" style="fill: #ffffff"/>
   </g>
   <g id="matplotlib.axis_7">
    <g id="xtick_28">
     <g id="line2d_48">
      <g>
       <use xlink:href="#mf7bcff5ae2" x="208.255617" y="624.1392" style="stroke: #000000; stroke-width: 0.8"/>
      </g>
     </g>
     <g id="text_46">
      <!-- 0 -->
      <g transform="translate(205.074367 638.737638) scale(0.1 -0.1)">
       <use xlink:href="#DejaVuSans-30"/>
      </g>
     </g>
    </g>
    <g id="xtick_29">
     <g id="line2d_49">
      <g>
       <use xlink:href="#mf7bcff5ae2" x="325.897006" y="624.1392" style="stroke: #000000; stroke-width: 0.8"/>
      </g>
     </g>
     <g id="text_47">
      <!-- 25 -->
      <g transform="translate(319.534506 638.737638) scale(0.1 -0.1)">
       <use xlink:href="#DejaVuSans-32"/>
       <use xlink:href="#DejaVuSans-35" x="63.623047"/>
      </g>
     </g>
    </g>
    <g id="xtick_30">
     <g id="line2d_50">
      <g>
       <use xlink:href="#mf7bcff5ae2" x="443.538395" y="624.1392" style="stroke: #000000; stroke-width: 0.8"/>
      </g>
     </g>
     <g id="text_48">
      <!-- 50 -->
      <g transform="translate(437.175895 638.737638) scale(0.1 -0.1)">
       <use xlink:href="#DejaVuSans-35"/>
       <use xlink:href="#DejaVuSans-30" x="63.623047"/>
      </g>
     </g>
    </g>
    <g id="xtick_31">
     <g id="line2d_51">
      <g>
       <use xlink:href="#mf7bcff5ae2" x="561.179783" y="624.1392" style="stroke: #000000; stroke-width: 0.8"/>
      </g>
     </g>
     <g id="text_49">
      <!-- 75 -->
      <g transform="translate(554.817283 638.737638) scale(0.1 -0.1)">
       <use xlink:href="#DejaVuSans-37"/>
       <use xlink:href="#DejaVuSans-35" x="63.623047"/>
      </g>
     </g>
    </g>
    <g id="xtick_32">
     <g id="line2d_52">
      <g>
       <use xlink:href="#mf7bcff5ae2" x="678.821172" y="624.1392" style="stroke: #000000; stroke-width: 0.8"/>
      </g>
     </g>
     <g id="text_50">
      <!-- 100 -->
      <g transform="translate(669.277422 638.737638) scale(0.1 -0.1)">
       <use xlink:href="#DejaVuSans-31"/>
       <use xlink:href="#DejaVuSans-30" x="63.623047"/>
       <use xlink:href="#DejaVuSans-30" x="127.246094"/>
      </g>
     </g>
    </g>
    <g id="xtick_33">
     <g id="line2d_53">
      <g>
       <use xlink:href="#mf7bcff5ae2" x="796.462561" y="624.1392" style="stroke: #000000; stroke-width: 0.8"/>
      </g>
     </g>
     <g id="text_51">
      <!-- 125 -->
      <g transform="translate(786.918811 638.737638) scale(0.1 -0.1)">
       <use xlink:href="#DejaVuSans-31"/>
       <use xlink:href="#DejaVuSans-32" x="63.623047"/>
       <use xlink:href="#DejaVuSans-35" x="127.246094"/>
      </g>
     </g>
    </g>
    <g id="xtick_34">
     <g id="line2d_54">
      <g>
       <use xlink:href="#mf7bcff5ae2" x="914.10395" y="624.1392" style="stroke: #000000; stroke-width: 0.8"/>
      </g>
     </g>
     <g id="text_52">
      <!-- 150 -->
      <g transform="translate(904.5602 638.737638) scale(0.1 -0.1)">
       <use xlink:href="#DejaVuSans-31"/>
       <use xlink:href="#DejaVuSans-35" x="63.623047"/>
       <use xlink:href="#DejaVuSans-30" x="127.246094"/>
      </g>
     </g>
    </g>
    <g id="xtick_35">
     <g id="line2d_55">
      <g>
       <use xlink:href="#mf7bcff5ae2" x="1031.745339" y="624.1392" style="stroke: #000000; stroke-width: 0.8"/>
      </g>
     </g>
     <g id="text_53">
      <!-- 175 -->
      <g transform="translate(1022.201589 638.737638) scale(0.1 -0.1)">
       <use xlink:href="#DejaVuSans-31"/>
       <use xlink:href="#DejaVuSans-37" x="63.623047"/>
       <use xlink:href="#DejaVuSans-35" x="127.246094"/>
      </g>
     </g>
    </g>
    <g id="xtick_36">
     <g id="line2d_56">
      <g>
       <use xlink:href="#mf7bcff5ae2" x="1149.386727" y="624.1392" style="stroke: #000000; stroke-width: 0.8"/>
      </g>
     </g>
     <g id="text_54">
      <!-- 200 -->
      <g transform="translate(1139.842977 638.737638) scale(0.1 -0.1)">
       <use xlink:href="#DejaVuSans-32"/>
       <use xlink:href="#DejaVuSans-30" x="63.623047"/>
       <use xlink:href="#DejaVuSans-30" x="127.246094"/>
      </g>
     </g>
    </g>
    <g id="text_55">
     <!-- iterations -->
     <g transform="translate(657.446656 652.415763) scale(0.1 -0.1)">
      <use xlink:href="#DejaVuSans-69"/>
      <use xlink:href="#DejaVuSans-74" x="27.783203"/>
      <use xlink:href="#DejaVuSans-65" x="66.992188"/>
      <use xlink:href="#DejaVuSans-72" x="128.515625"/>
      <use xlink:href="#DejaVuSans-61" x="169.628906"/>
      <use xlink:href="#DejaVuSans-74" x="230.908203"/>
      <use xlink:href="#DejaVuSans-69" x="270.117188"/>
      <use xlink:href="#DejaVuSans-6f" x="297.900391"/>
      <use xlink:href="#DejaVuSans-6e" x="359.082031"/>
      <use xlink:href="#DejaVuSans-73" x="422.460938"/>
     </g>
    </g>
   </g>
   <g id="matplotlib.axis_8">
    <g id="ytick_13">
     <g id="line2d_57">
      <g>
       <use xlink:href="#m38dfef8461" x="166.14" y="618.803914" style="stroke: #000000; stroke-width: 0.8"/>
      </g>
     </g>
     <g id="text_56">
      <!-- 0 -->
      <g transform="translate(152.7775 622.603132) scale(0.1 -0.1)">
       <use xlink:href="#DejaVuSans-30"/>
      </g>
     </g>
    </g>
    <g id="ytick_14">
     <g id="line2d_58">
      <g>
       <use xlink:href="#m38dfef8461" x="166.14" y="591.202534" style="stroke: #000000; stroke-width: 0.8"/>
      </g>
     </g>
     <g id="text_57">
      <!-- 100 -->
      <g transform="translate(140.0525 595.001753) scale(0.1 -0.1)">
       <use xlink:href="#DejaVuSans-31"/>
       <use xlink:href="#DejaVuSans-30" x="63.623047"/>
       <use xlink:href="#DejaVuSans-30" x="127.246094"/>
      </g>
     </g>
    </g>
    <g id="ytick_15">
     <g id="line2d_59">
      <g>
       <use xlink:href="#m38dfef8461" x="166.14" y="563.601154" style="stroke: #000000; stroke-width: 0.8"/>
      </g>
     </g>
     <g id="text_58">
      <!-- 200 -->
      <g transform="translate(140.0525 567.400373) scale(0.1 -0.1)">
       <use xlink:href="#DejaVuSans-32"/>
       <use xlink:href="#DejaVuSans-30" x="63.623047"/>
       <use xlink:href="#DejaVuSans-30" x="127.246094"/>
      </g>
     </g>
    </g>
    <g id="ytick_16">
     <g id="line2d_60">
      <g>
       <use xlink:href="#m38dfef8461" x="166.14" y="535.999775" style="stroke: #000000; stroke-width: 0.8"/>
      </g>
     </g>
     <g id="text_59">
      <!-- 300 -->
      <g transform="translate(140.0525 539.798994) scale(0.1 -0.1)">
       <defs>
        <path id="DejaVuSans-33" d="M 2597 2516 
Q 3050 2419 3304 2112 
Q 3559 1806 3559 1356 
Q 3559 666 3084 287 
Q 2609 -91 1734 -91 
Q 1441 -91 1130 -33 
Q 819 25 488 141 
L 488 750 
Q 750 597 1062 519 
Q 1375 441 1716 441 
Q 2309 441 2620 675 
Q 2931 909 2931 1356 
Q 2931 1769 2642 2001 
Q 2353 2234 1838 2234 
L 1294 2234 
L 1294 2753 
L 1863 2753 
Q 2328 2753 2575 2939 
Q 2822 3125 2822 3475 
Q 2822 3834 2567 4026 
Q 2313 4219 1838 4219 
Q 1578 4219 1281 4162 
Q 984 4106 628 3988 
L 628 4550 
Q 988 4650 1302 4700 
Q 1616 4750 1894 4750 
Q 2613 4750 3031 4423 
Q 3450 4097 3450 3541 
Q 3450 3153 3228 2886 
Q 3006 2619 2597 2516 
z
" transform="scale(0.015625)"/>
       </defs>
       <use xlink:href="#DejaVuSans-33"/>
       <use xlink:href="#DejaVuSans-30" x="63.623047"/>
       <use xlink:href="#DejaVuSans-30" x="127.246094"/>
      </g>
     </g>
    </g>
    <g id="ytick_17">
     <g id="line2d_61">
      <g>
       <use xlink:href="#m38dfef8461" x="166.14" y="508.398395" style="stroke: #000000; stroke-width: 0.8"/>
      </g>
     </g>
     <g id="text_60">
      <!-- 400 -->
      <g transform="translate(140.0525 512.197614) scale(0.1 -0.1)">
       <use xlink:href="#DejaVuSans-34"/>
       <use xlink:href="#DejaVuSans-30" x="63.623047"/>
       <use xlink:href="#DejaVuSans-30" x="127.246094"/>
      </g>
     </g>
    </g>
    <g id="text_61">
     <!-- relative forward error -->
     <g transform="translate(133.972813 618.753707) rotate(-90) scale(0.1 -0.1)">
      <defs>
       <path id="DejaVuSans-76" d="M 191 3500 
L 800 3500 
L 1894 563 
L 2988 3500 
L 3597 3500 
L 2284 0 
L 1503 0 
L 191 3500 
z
" transform="scale(0.015625)"/>
       <path id="DejaVuSans-20" transform="scale(0.015625)"/>
       <path id="DejaVuSans-66" d="M 2375 4863 
L 2375 4384 
L 1825 4384 
Q 1516 4384 1395 4259 
Q 1275 4134 1275 3809 
L 1275 3500 
L 2222 3500 
L 2222 3053 
L 1275 3053 
L 1275 0 
L 697 0 
L 697 3053 
L 147 3053 
L 147 3500 
L 697 3500 
L 697 3744 
Q 697 4328 969 4595 
Q 1241 4863 1831 4863 
L 2375 4863 
z
" transform="scale(0.015625)"/>
      </defs>
      <use xlink:href="#DejaVuSans-72"/>
      <use xlink:href="#DejaVuSans-65" x="38.863281"/>
      <use xlink:href="#DejaVuSans-6c" x="100.386719"/>
      <use xlink:href="#DejaVuSans-61" x="128.169922"/>
      <use xlink:href="#DejaVuSans-74" x="189.449219"/>
      <use xlink:href="#DejaVuSans-69" x="228.658203"/>
      <use xlink:href="#DejaVuSans-76" x="256.441406"/>
      <use xlink:href="#DejaVuSans-65" x="315.621094"/>
      <use xlink:href="#DejaVuSans-20" x="377.144531"/>
      <use xlink:href="#DejaVuSans-66" x="408.931641"/>
      <use xlink:href="#DejaVuSans-6f" x="444.136719"/>
      <use xlink:href="#DejaVuSans-72" x="505.318359"/>
      <use xlink:href="#DejaVuSans-77" x="546.431641"/>
      <use xlink:href="#DejaVuSans-61" x="628.21875"/>
      <use xlink:href="#DejaVuSans-72" x="689.498047"/>
      <use xlink:href="#DejaVuSans-64" x="728.861328"/>
      <use xlink:href="#DejaVuSans-20" x="792.337891"/>
      <use xlink:href="#DejaVuSans-65" x="824.125"/>
      <use xlink:href="#DejaVuSans-72" x="885.648438"/>
      <use xlink:href="#DejaVuSans-72" x="925.011719"/>
      <use xlink:href="#DejaVuSans-6f" x="963.875"/>
      <use xlink:href="#DejaVuSans-72" x="1025.056641"/>
     </g>
    </g>
   </g>
   <g id="line2d_62">
    <path d="M 212.961273 618.802827 
L 236.48955 618.790696 
L 241.195206 618.567621 
L 250.606517 618.746874 
L 255.312173 617.851791 
L 260.017828 618.688713 
L 264.723484 618.513933 
L 269.429139 618.542329 
L 274.134795 618.073 
L 278.84045 618.27471 
L 283.546106 616.561871 
L 288.251762 618.269453 
L 292.957417 617.427426 
L 297.663073 618.144699 
L 302.368728 617.601489 
L 307.074384 615.857614 
L 311.780039 616.513048 
L 316.485695 617.879887 
L 321.19135 617.685379 
L 325.897006 612.941866 
L 330.602661 617.183032 
L 335.308317 616.008726 
L 340.013973 617.227147 
L 344.719628 616.600062 
L 349.425284 611.629785 
L 354.130939 616.444235 
L 358.836595 616.200453 
L 363.54225 617.50669 
L 368.247906 613.481555 
L 372.953561 602.613866 
L 377.659217 616.109545 
L 382.364873 599.379883 
L 387.070528 599.764016 
L 391.776184 613.420674 
L 396.481839 616.022492 
L 401.187495 616.540595 
L 405.89315 614.307627 
L 410.598806 617.568102 
L 415.304461 612.731525 
L 420.010117 614.331251 
L 424.715772 614.875248 
L 429.421428 616.779979 
L 434.127084 616.249138 
L 438.832739 616.745734 
L 443.538395 615.074663 
L 448.24405 611.367507 
L 452.949706 609.175545 
L 457.655361 614.362307 
L 462.361017 613.206734 
L 467.066672 614.806396 
L 471.772328 606.379959 
L 476.477984 611.68436 
L 481.183639 597.522941 
L 485.889295 601.185326 
L 490.59495 611.282363 
L 495.300606 603.249601 
L 500.006261 606.955805 
L 504.711917 611.884055 
L 509.417572 614.952332 
L 514.123228 609.52139 
L 518.828884 608.409053 
L 523.534539 608.11327 
L 528.240195 610.713641 
L 532.94585 610.770429 
L 537.651506 598.837092 
L 542.357161 611.174729 
L 547.062817 607.601553 
L 551.768472 600.761881 
L 556.474128 611.92308 
L 561.179783 603.974664 
L 565.885439 607.105063 
L 570.591095 614.017423 
L 575.29675 591.981733 
L 580.002406 607.339093 
L 584.708061 607.489034 
L 589.413717 603.14055 
L 594.119372 565.485189 
L 598.825028 612.867288 
L 603.530683 609.382308 
L 608.236339 610.222768 
L 612.941995 609.385852 
L 617.64765 512.086852 
L 622.353306 613.574861 
L 627.058961 609.402256 
L 631.764617 614.157924 
L 636.470272 596.695835 
L 641.175928 607.756642 
L 645.881583 599.219746 
L 650.587239 586.578206 
L 655.292894 596.526582 
L 659.99855 606.869159 
L 664.704206 588.83252 
L 669.409861 605.51835 
L 674.115517 609.812391 
L 678.821172 593.968067 
L 683.526828 599.07937 
L 688.232483 607.670739 
L 692.938139 607.351901 
L 697.643794 605.338534 
L 702.34945 608.103744 
L 707.055106 606.518552 
L 711.760761 593.455145 
L 716.466417 583.88554 
L 721.172072 597.147768 
L 725.877728 606.904653 
L 730.583383 602.600943 
L 735.289039 596.614802 
L 739.994694 597.377809 
L 744.70035 610.813735 
L 749.406005 595.923933 
L 754.111661 608.125847 
L 758.817317 606.003289 
L 763.522972 606.793884 
L 768.228628 568.249207 
L 772.934283 604.584058 
L 777.639939 577.549664 
L 782.345594 589.697321 
L 787.05125 602.21492 
L 791.756905 599.312473 
L 796.462561 587.995117 
L 801.168217 608.991717 
L 805.873872 598.77532 
L 810.579528 607.784866 
L 815.285183 601.952505 
L 819.990839 594.607064 
L 824.696494 597.476785 
L 829.40215 593.858024 
L 834.107805 598.86437 
L 838.813461 569.359514 
L 843.519116 578.480721 
L 848.224772 604.372661 
L 852.930428 609.588995 
L 857.636083 604.297351 
L 862.341739 606.785736 
L 867.047394 599.018767 
L 871.75305 603.231303 
L 876.458705 602.093481 
L 881.164361 601.278712 
L 885.870016 574.470937 
L 890.575672 600.612024 
L 895.281328 605.249129 
L 899.986983 599.759957 
L 904.692639 590.677177 
L 909.398294 605.559404 
L 914.10395 603.56578 
L 918.809605 560.00747 
L 923.515261 571.154426 
L 928.220916 596.579308 
L 932.926572 585.626279 
L 937.632228 586.324981 
L 942.337883 590.561917 
L 947.043539 592.51013 
L 951.749194 578.671719 
L 956.45485 598.004579 
L 961.160505 567.106228 
L 965.866161 595.263037 
L 970.571816 573.309479 
L 975.277472 515.058309 
L 979.983127 543.540234 
L 984.688783 602.967648 
L 989.394439 595.500349 
L 994.100094 592.466352 
L 998.80575 584.121463 
L 1003.511405 557.92717 
L 1008.217061 566.803958 
L 1012.922716 599.434338 
L 1017.628372 598.448685 
L 1022.334027 572.929523 
L 1027.039683 603.229996 
L 1031.745339 543.056538 
L 1036.450994 599.897199 
L 1041.15665 591.155123 
L 1045.862305 584.852674 
L 1050.567961 596.086161 
L 1055.273616 606.696407 
L 1059.979272 578.638004 
L 1064.684927 594.6489 
L 1069.390583 591.344147 
L 1074.096238 544.143203 
L 1078.801894 573.347987 
L 1083.50755 582.826531 
L 1088.213205 568.317527 
L 1092.918861 600.722948 
L 1097.624516 582.455201 
L 1102.330172 598.008195 
L 1107.035827 593.070172 
L 1111.741483 572.633512 
L 1116.447138 588.452775 
L 1121.152794 558.659615 
L 1125.85845 577.793265 
L 1130.564105 570.183788 
L 1135.269761 596.344143 
L 1139.975416 571.522803 
L 1144.681072 569.136022 
L 1149.386727 601.044512 
L 1149.386727 601.044512 
" clip-path="url(#pa313481c25)" style="fill: none; stroke: #1f77b4; stroke-width: 1.5; stroke-linecap: square"/>
   </g>
   <g id="line2d_63">
    <path d="M 212.961273 618.801032 
L 250.606517 618.670095 
L 255.312173 617.592015 
L 260.017828 618.65357 
L 274.134795 618.368984 
L 278.84045 617.636827 
L 283.546106 613.787188 
L 288.251762 618.037934 
L 292.957417 618.149973 
L 302.368728 617.703468 
L 307.074384 617.830329 
L 311.780039 617.286461 
L 316.485695 617.360214 
L 321.19135 617.218539 
L 325.897006 615.495522 
L 330.602661 615.948756 
L 335.308317 617.327948 
L 340.013973 617.731119 
L 344.719628 617.328329 
L 349.425284 616.774147 
L 354.130939 617.770756 
L 358.836595 615.988805 
L 368.247906 616.942099 
L 372.953561 603.387744 
L 377.659217 617.115894 
L 382.364873 616.75788 
L 387.070528 605.349176 
L 391.776184 616.561216 
L 396.481839 617.233693 
L 401.187495 617.43533 
L 405.89315 616.652824 
L 410.598806 609.897754 
L 415.304461 615.729412 
L 420.010117 616.641475 
L 424.715772 616.29524 
L 429.421428 616.353011 
L 434.127084 614.738265 
L 438.832739 617.171178 
L 443.538395 616.823008 
L 448.24405 614.219664 
L 452.949706 617.063908 
L 457.655361 615.983132 
L 462.361017 614.147597 
L 467.066672 613.596263 
L 471.772328 615.11048 
L 476.477984 614.457333 
L 481.183639 609.023731 
L 485.889295 611.060734 
L 490.59495 608.959927 
L 495.300606 607.267726 
L 500.006261 606.201382 
L 504.711917 612.449192 
L 509.417572 609.140239 
L 514.123228 606.221073 
L 518.828884 612.209361 
L 523.534539 608.708865 
L 528.240195 613.322729 
L 532.94585 612.342762 
L 537.651506 609.215983 
L 542.357161 598.392105 
L 547.062817 611.277379 
L 551.768472 606.712448 
L 556.474128 602.52554 
L 561.179783 606.007889 
L 565.885439 591.934665 
L 570.591095 582.85471 
L 575.29675 611.071637 
L 580.002406 606.441208 
L 584.708061 610.821639 
L 589.413717 601.90385 
L 594.119372 602.314731 
L 598.825028 604.343806 
L 603.530683 613.484301 
L 608.236339 599.911108 
L 612.941995 606.213431 
L 617.64765 544.882925 
L 622.353306 599.075653 
L 627.058961 612.211129 
L 631.764617 602.358137 
L 636.470272 608.982704 
L 641.175928 613.265253 
L 645.881583 611.965396 
L 650.587239 609.893661 
L 655.292894 602.665754 
L 659.99855 610.356482 
L 664.704206 603.83579 
L 669.409861 601.505188 
L 674.115517 610.685796 
L 678.821172 611.690219 
L 683.526828 607.371634 
L 688.232483 598.344286 
L 692.938139 608.87465 
L 697.643794 613.429144 
L 702.34945 603.501159 
L 707.055106 611.188902 
L 711.760761 606.350753 
L 716.466417 603.683556 
L 721.172072 607.53537 
L 725.877728 608.015662 
L 730.583383 606.582552 
L 735.289039 607.487182 
L 739.994694 601.522204 
L 744.70035 608.995657 
L 749.406005 605.031345 
L 754.111661 606.984341 
L 758.817317 609.34148 
L 763.522972 607.830625 
L 768.228628 610.050694 
L 772.934283 606.238634 
L 777.639939 602.096624 
L 782.345594 612.095097 
L 787.05125 611.14154 
L 791.756905 611.478677 
L 796.462561 606.259999 
L 801.168217 604.746677 
L 805.873872 596.406972 
L 810.579528 602.056369 
L 815.285183 600.676386 
L 819.990839 579.989758 
L 824.696494 592.801802 
L 829.40215 598.060022 
L 834.107805 592.75348 
L 838.813461 595.415238 
L 843.519116 603.55045 
L 848.224772 593.903972 
L 852.930428 607.64515 
L 857.636083 606.888522 
L 862.341739 609.425647 
L 867.047394 598.061281 
L 871.75305 603.281631 
L 876.458705 597.167165 
L 881.164361 583.444461 
L 885.870016 605.823423 
L 890.575672 524.703299 
L 895.281328 602.725735 
L 899.986983 602.314748 
L 904.692639 604.10367 
L 909.398294 600.423718 
L 914.10395 605.687009 
L 918.809605 602.067629 
L 923.515261 582.089623 
L 928.220916 590.722129 
L 932.926572 583.770913 
L 937.632228 602.160678 
L 942.337883 554.552342 
L 947.043539 606.515357 
L 951.749194 599.332672 
L 956.45485 572.085994 
L 961.160505 589.436324 
L 965.866161 587.841175 
L 970.571816 594.075158 
L 975.277472 599.003161 
L 979.983127 588.958472 
L 984.688783 592.788667 
L 989.394439 604.862331 
L 994.100094 602.114718 
L 998.80575 595.043606 
L 1003.511405 583.787743 
L 1008.217061 566.136132 
L 1012.922716 607.742187 
L 1017.628372 591.488677 
L 1022.334027 598.39007 
L 1027.039683 608.016444 
L 1031.745339 593.820448 
L 1036.450994 605.833542 
L 1041.15665 609.310706 
L 1045.862305 602.625543 
L 1050.567961 609.084747 
L 1055.273616 579.866783 
L 1059.979272 598.516498 
L 1064.684927 578.336532 
L 1069.390583 604.266416 
L 1074.096238 605.457658 
L 1078.801894 585.151345 
L 1083.50755 606.732278 
L 1088.213205 607.885725 
L 1092.918861 598.991676 
L 1097.624516 600.161723 
L 1102.330172 590.009672 
L 1107.035827 601.521889 
L 1111.741483 598.127708 
L 1116.447138 604.047224 
L 1121.152794 603.519146 
L 1125.85845 600.986618 
L 1130.564105 601.458591 
L 1135.269761 594.509239 
L 1139.975416 576.265257 
L 1144.681072 594.177517 
L 1149.386727 598.787122 
L 1149.386727 598.787122 
" clip-path="url(#pa313481c25)" style="fill: none; stroke: #ff7f0e; stroke-width: 1.5; stroke-linecap: square"/>
   </g>
   <g id="patch_21">
    <path d="M 166.14 624.1392 
L 166.14 506.751026 
" style="fill: none; stroke: #000000; stroke-width: 0.8; stroke-linejoin: miter; stroke-linecap: square"/>
   </g>
   <g id="patch_22">
    <path d="M 1196.208 624.1392 
L 1196.208 506.751026 
" style="fill: none; stroke: #000000; stroke-width: 0.8; stroke-linejoin: miter; stroke-linecap: square"/>
   </g>
   <g id="patch_23">
    <path d="M 166.14 624.1392 
L 1196.208 624.1392 
" style="fill: none; stroke: #000000; stroke-width: 0.8; stroke-linejoin: miter; stroke-linecap: square"/>
   </g>
   <g id="patch_24">
    <path d="M 166.14 506.751026 
L 1196.208 506.751026 
" style="fill: none; stroke: #000000; stroke-width: 0.8; stroke-linejoin: miter; stroke-linecap: square"/>
   </g>
   <g id="legend_4">
    <g id="patch_25">
     <path d="M 1098.108 544.429151 
L 1189.208 544.429151 
Q 1191.208 544.429151 1191.208 542.429151 
L 1191.208 513.751026 
Q 1191.208 511.751026 1189.208 511.751026 
L 1098.108 511.751026 
Q 1096.108 511.751026 1096.108 513.751026 
L 1096.108 542.429151 
Q 1096.108 544.429151 1098.108 544.429151 
z
" style="fill: #ffffff; opacity: 0.8; stroke: #cccccc; stroke-linejoin: miter"/>
    </g>
    <g id="line2d_64">
     <path d="M 1100.108 519.893214 
L 1110.108 519.893214 
L 1120.108 519.893214 
" style="fill: none; stroke: #1f77b4; stroke-width: 1.5; stroke-linecap: square"/>
    </g>
    <g id="text_62">
     <!-- k(A)*r1/||g|| -->
     <g transform="translate(1128.108 523.393214) scale(0.1 -0.1)">
      <defs>
       <path id="DejaVuSans-6b" d="M 581 4863 
L 1159 4863 
L 1159 1991 
L 2875 3500 
L 3609 3500 
L 1753 1863 
L 3688 0 
L 2938 0 
L 1159 1709 
L 1159 0 
L 581 0 
L 581 4863 
z
" transform="scale(0.015625)"/>
       <path id="DejaVuSans-28" d="M 1984 4856 
Q 1566 4138 1362 3434 
Q 1159 2731 1159 2009 
Q 1159 1288 1364 580 
Q 1569 -128 1984 -844 
L 1484 -844 
Q 1016 -109 783 600 
Q 550 1309 550 2009 
Q 550 2706 781 3412 
Q 1013 4119 1484 4856 
L 1984 4856 
z
" transform="scale(0.015625)"/>
       <path id="DejaVuSans-41" d="M 2188 4044 
L 1331 1722 
L 3047 1722 
L 2188 4044 
z
M 1831 4666 
L 2547 4666 
L 4325 0 
L 3669 0 
L 3244 1197 
L 1141 1197 
L 716 0 
L 50 0 
L 1831 4666 
z
" transform="scale(0.015625)"/>
       <path id="DejaVuSans-29" d="M 513 4856 
L 1013 4856 
Q 1481 4119 1714 3412 
Q 1947 2706 1947 2009 
Q 1947 1309 1714 600 
Q 1481 -109 1013 -844 
L 513 -844 
Q 928 -128 1133 580 
Q 1338 1288 1338 2009 
Q 1338 2731 1133 3434 
Q 928 4138 513 4856 
z
" transform="scale(0.015625)"/>
       <path id="DejaVuSans-2a" d="M 3009 3897 
L 1888 3291 
L 3009 2681 
L 2828 2375 
L 1778 3009 
L 1778 1831 
L 1422 1831 
L 1422 3009 
L 372 2375 
L 191 2681 
L 1313 3291 
L 191 3897 
L 372 4206 
L 1422 3572 
L 1422 4750 
L 1778 4750 
L 1778 3572 
L 2828 4206 
L 3009 3897 
z
" transform="scale(0.015625)"/>
       <path id="DejaVuSans-2f" d="M 1625 4666 
L 2156 4666 
L 531 -594 
L 0 -594 
L 1625 4666 
z
" transform="scale(0.015625)"/>
       <path id="DejaVuSans-7c" d="M 1344 4891 
L 1344 -1509 
L 813 -1509 
L 813 4891 
L 1344 4891 
z
" transform="scale(0.015625)"/>
       <path id="DejaVuSans-67" d="M 2906 1791 
Q 2906 2416 2648 2759 
Q 2391 3103 1925 3103 
Q 1463 3103 1205 2759 
Q 947 2416 947 1791 
Q 947 1169 1205 825 
Q 1463 481 1925 481 
Q 2391 481 2648 825 
Q 2906 1169 2906 1791 
z
M 3481 434 
Q 3481 -459 3084 -895 
Q 2688 -1331 1869 -1331 
Q 1566 -1331 1297 -1286 
Q 1028 -1241 775 -1147 
L 775 -588 
Q 1028 -725 1275 -790 
Q 1522 -856 1778 -856 
Q 2344 -856 2625 -561 
Q 2906 -266 2906 331 
L 2906 616 
Q 2728 306 2450 153 
Q 2172 0 1784 0 
Q 1141 0 747 490 
Q 353 981 353 1791 
Q 353 2603 747 3093 
Q 1141 3584 1784 3584 
Q 2172 3584 2450 3431 
Q 2728 3278 2906 2969 
L 2906 3500 
L 3481 3500 
L 3481 434 
z
" transform="scale(0.015625)"/>
      </defs>
      <use xlink:href="#DejaVuSans-6b"/>
      <use xlink:href="#DejaVuSans-28" x="57.910156"/>
      <use xlink:href="#DejaVuSans-41" x="96.923828"/>
      <use xlink:href="#DejaVuSans-29" x="165.332031"/>
      <use xlink:href="#DejaVuSans-2a" x="204.345703"/>
      <use xlink:href="#DejaVuSans-72" x="254.345703"/>
      <use xlink:href="#DejaVuSans-31" x="295.458984"/>
      <use xlink:href="#DejaVuSans-2f" x="359.082031"/>
      <use xlink:href="#DejaVuSans-7c" x="392.773438"/>
      <use xlink:href="#DejaVuSans-7c" x="426.464844"/>
      <use xlink:href="#DejaVuSans-67" x="460.15625"/>
      <use xlink:href="#DejaVuSans-7c" x="523.632812"/>
      <use xlink:href="#DejaVuSans-7c" x="557.324219"/>
     </g>
    </g>
    <g id="line2d_65">
     <path d="M 1100.108 534.849464 
L 1110.108 534.849464 
L 1120.108 534.849464 
" style="fill: none; stroke: #ff7f0e; stroke-width: 1.5; stroke-linecap: square"/>
    </g>
    <g id="text_63">
     <!-- k(A)*r2 -->
     <g transform="translate(1128.108 538.349464) scale(0.1 -0.1)">
      <use xlink:href="#DejaVuSans-6b"/>
      <use xlink:href="#DejaVuSans-28" x="57.910156"/>
      <use xlink:href="#DejaVuSans-41" x="96.923828"/>
      <use xlink:href="#DejaVuSans-29" x="165.332031"/>
      <use xlink:href="#DejaVuSans-2a" x="204.345703"/>
      <use xlink:href="#DejaVuSans-72" x="254.345703"/>
      <use xlink:href="#DejaVuSans-32" x="295.458984"/>
     </g>
    </g>
   </g>
  </g>
  <g id="text_64">
   <!-- 100 CG iterations -->
   <g transform="translate(611.982188 23.143725) scale(0.12 -0.12)">
    <defs>
     <path id="DejaVuSans-43" d="M 4122 4306 
L 4122 3641 
Q 3803 3938 3442 4084 
Q 3081 4231 2675 4231 
Q 1875 4231 1450 3742 
Q 1025 3253 1025 2328 
Q 1025 1406 1450 917 
Q 1875 428 2675 428 
Q 3081 428 3442 575 
Q 3803 722 4122 1019 
L 4122 359 
Q 3791 134 3420 21 
Q 3050 -91 2638 -91 
Q 1578 -91 968 557 
Q 359 1206 359 2328 
Q 359 3453 968 4101 
Q 1578 4750 2638 4750 
Q 3056 4750 3426 4639 
Q 3797 4528 4122 4306 
z
" transform="scale(0.015625)"/>
     <path id="DejaVuSans-47" d="M 3809 666 
L 3809 1919 
L 2778 1919 
L 2778 2438 
L 4434 2438 
L 4434 434 
Q 4069 175 3628 42 
Q 3188 -91 2688 -91 
Q 1594 -91 976 548 
Q 359 1188 359 2328 
Q 359 3472 976 4111 
Q 1594 4750 2688 4750 
Q 3144 4750 3555 4637 
Q 3966 4525 4313 4306 
L 4313 3634 
Q 3963 3931 3569 4081 
Q 3175 4231 2741 4231 
Q 1884 4231 1454 3753 
Q 1025 3275 1025 2328 
Q 1025 1384 1454 906 
Q 1884 428 2741 428 
Q 3075 428 3337 486 
Q 3600 544 3809 666 
z
" transform="scale(0.015625)"/>
    </defs>
    <use xlink:href="#DejaVuSans-31"/>
    <use xlink:href="#DejaVuSans-30" x="63.623047"/>
    <use xlink:href="#DejaVuSans-30" x="127.246094"/>
    <use xlink:href="#DejaVuSans-20" x="190.869141"/>
    <use xlink:href="#DejaVuSans-43" x="222.65625"/>
    <use xlink:href="#DejaVuSans-47" x="292.480469"/>
    <use xlink:href="#DejaVuSans-20" x="369.970703"/>
    <use xlink:href="#DejaVuSans-69" x="401.757812"/>
    <use xlink:href="#DejaVuSans-74" x="429.541016"/>
    <use xlink:href="#DejaVuSans-65" x="468.75"/>
    <use xlink:href="#DejaVuSans-72" x="530.273438"/>
    <use xlink:href="#DejaVuSans-61" x="571.386719"/>
    <use xlink:href="#DejaVuSans-74" x="632.666016"/>
    <use xlink:href="#DejaVuSans-69" x="671.875"/>
    <use xlink:href="#DejaVuSans-6f" x="699.658203"/>
    <use xlink:href="#DejaVuSans-6e" x="760.839844"/>
    <use xlink:href="#DejaVuSans-73" x="824.21875"/>
   </g>
  </g>
 </g>
 <defs>
  <clipPath id="pe18a1b50d9">
   <rect x="166.14" y="84.1536" width="1030.068" height="117.388174"/>
  </clipPath>
  <clipPath id="p601a85f3a9">
   <rect x="166.14" y="225.019409" width="1030.068" height="117.388174"/>
  </clipPath>
  <clipPath id="pdcd7ac57e9">
   <rect x="166.14" y="365.885217" width="1030.068" height="117.388174"/>
  </clipPath>
  <clipPath id="pa313481c25">
   <rect x="166.14" y="506.751026" width="1030.068" height="117.388174"/>
  </clipPath>
 </defs>
</svg>
