<?xml version="1.0" encoding="utf-8" standalone="no"?>
<!DOCTYPE svg PUBLIC "-//W3C//DTD SVG 1.1//EN"
  "http://www.w3.org/Graphics/SVG/1.1/DTD/svg11.dtd">
<svg xmlns:xlink="http://www.w3.org/1999/xlink" width="796.80375pt" height="578.11625pt" viewBox="0 0 796.80375 578.11625" xmlns="http://www.w3.org/2000/svg" version="1.1">
 <metadata>
  <rdf:RDF xmlns:dc="http://purl.org/dc/elements/1.1/" xmlns:cc="http://creativecommons.org/ns#" xmlns:rdf="http://www.w3.org/1999/02/22-rdf-syntax-ns#">
   <cc:Work>
    <dc:type rdf:resource="http://purl.org/dc/dcmitype/StillImage"/>
    <dc:date>2023-03-25T15:10:25.727020</dc:date>
    <dc:format>image/svg+xml</dc:format>
    <dc:creator>
     <cc:Agent>
      <dc:title>Matplotlib v3.6.1, https://matplotlib.org/</dc:title>
     </cc:Agent>
    </dc:creator>
   </cc:Work>
  </rdf:RDF>
 </metadata>
 <defs>
  <style type="text/css">*{stroke-linejoin: round; stroke-linecap: butt}</style>
 </defs>
 <g id="figure_1">
  <g id="patch_1">
   <path d="M 0 578.11625 
L 796.80375 578.11625 
L 796.80375 0 
L 0 0 
z
" style="fill: #ffffff"/>
  </g>
  <g id="axes_1">
   <g id="patch_2">
    <path d="M 50.14375 257.96 
L 789.60375 257.96 
L 789.60375 7.2 
L 50.14375 7.2 
z
" style="fill: #ffffff"/>
   </g>
   <g id="matplotlib.axis_1">
    <g id="xtick_1">
     <g id="line2d_1">
      <defs>
       <path id="m6052ff9c26" d="M 0 0 
L 0 3.5 
" style="stroke: #000000; stroke-width: 0.8"/>
      </defs>
      <g>
       <use xlink:href="#m6052ff9c26" x="76.965302" y="257.96" style="stroke: #000000; stroke-width: 0.8"/>
      </g>
     </g>
     <g id="text_1">
      <!-- 0 -->
      <g transform="translate(73.784052 272.558438) scale(0.1 -0.1)">
       <defs>
        <path id="DejaVuSans-30" d="M 2034 4250 
Q 1547 4250 1301 3770 
Q 1056 3291 1056 2328 
Q 1056 1369 1301 889 
Q 1547 409 2034 409 
Q 2525 409 2770 889 
Q 3016 1369 3016 2328 
Q 3016 3291 2770 3770 
Q 2525 4250 2034 4250 
z
M 2034 4750 
Q 2819 4750 3233 4129 
Q 3647 3509 3647 2328 
Q 3647 1150 3233 529 
Q 2819 -91 2034 -91 
Q 1250 -91 836 529 
Q 422 1150 422 2328 
Q 422 3509 836 4129 
Q 1250 4750 2034 4750 
z
" transform="scale(0.015625)"/>
       </defs>
       <use xlink:href="#DejaVuSans-30"/>
      </g>
     </g>
    </g>
    <g id="xtick_2">
     <g id="line2d_2">
      <g>
       <use xlink:href="#m6052ff9c26" x="212.770628" y="257.96" style="stroke: #000000; stroke-width: 0.8"/>
      </g>
     </g>
     <g id="text_2">
      <!-- 20 -->
      <g transform="translate(206.408128 272.558438) scale(0.1 -0.1)">
       <defs>
        <path id="DejaVuSans-32" d="M 1228 531 
L 3431 531 
L 3431 0 
L 469 0 
L 469 531 
Q 828 903 1448 1529 
Q 2069 2156 2228 2338 
Q 2531 2678 2651 2914 
Q 2772 3150 2772 3378 
Q 2772 3750 2511 3984 
Q 2250 4219 1831 4219 
Q 1534 4219 1204 4116 
Q 875 4013 500 3803 
L 500 4441 
Q 881 4594 1212 4672 
Q 1544 4750 1819 4750 
Q 2544 4750 2975 4387 
Q 3406 4025 3406 3419 
Q 3406 3131 3298 2873 
Q 3191 2616 2906 2266 
Q 2828 2175 2409 1742 
Q 1991 1309 1228 531 
z
" transform="scale(0.015625)"/>
       </defs>
       <use xlink:href="#DejaVuSans-32"/>
       <use xlink:href="#DejaVuSans-30" x="63.623047"/>
      </g>
     </g>
    </g>
    <g id="xtick_3">
     <g id="line2d_3">
      <g>
       <use xlink:href="#m6052ff9c26" x="348.575954" y="257.96" style="stroke: #000000; stroke-width: 0.8"/>
      </g>
     </g>
     <g id="text_3">
      <!-- 40 -->
      <g transform="translate(342.213454 272.558438) scale(0.1 -0.1)">
       <defs>
        <path id="DejaVuSans-34" d="M 2419 4116 
L 825 1625 
L 2419 1625 
L 2419 4116 
z
M 2253 4666 
L 3047 4666 
L 3047 1625 
L 3713 1625 
L 3713 1100 
L 3047 1100 
L 3047 0 
L 2419 0 
L 2419 1100 
L 313 1100 
L 313 1709 
L 2253 4666 
z
" transform="scale(0.015625)"/>
       </defs>
       <use xlink:href="#DejaVuSans-34"/>
       <use xlink:href="#DejaVuSans-30" x="63.623047"/>
      </g>
     </g>
    </g>
    <g id="xtick_4">
     <g id="line2d_4">
      <g>
       <use xlink:href="#m6052ff9c26" x="484.38128" y="257.96" style="stroke: #000000; stroke-width: 0.8"/>
      </g>
     </g>
     <g id="text_4">
      <!-- 60 -->
      <g transform="translate(478.01878 272.558438) scale(0.1 -0.1)">
       <defs>
        <path id="DejaVuSans-36" d="M 2113 2584 
Q 1688 2584 1439 2293 
Q 1191 2003 1191 1497 
Q 1191 994 1439 701 
Q 1688 409 2113 409 
Q 2538 409 2786 701 
Q 3034 994 3034 1497 
Q 3034 2003 2786 2293 
Q 2538 2584 2113 2584 
z
M 3366 4563 
L 3366 3988 
Q 3128 4100 2886 4159 
Q 2644 4219 2406 4219 
Q 1781 4219 1451 3797 
Q 1122 3375 1075 2522 
Q 1259 2794 1537 2939 
Q 1816 3084 2150 3084 
Q 2853 3084 3261 2657 
Q 3669 2231 3669 1497 
Q 3669 778 3244 343 
Q 2819 -91 2113 -91 
Q 1303 -91 875 529 
Q 447 1150 447 2328 
Q 447 3434 972 4092 
Q 1497 4750 2381 4750 
Q 2619 4750 2861 4703 
Q 3103 4656 3366 4563 
z
" transform="scale(0.015625)"/>
       </defs>
       <use xlink:href="#DejaVuSans-36"/>
       <use xlink:href="#DejaVuSans-30" x="63.623047"/>
      </g>
     </g>
    </g>
    <g id="xtick_5">
     <g id="line2d_5">
      <g>
       <use xlink:href="#m6052ff9c26" x="620.186606" y="257.96" style="stroke: #000000; stroke-width: 0.8"/>
      </g>
     </g>
     <g id="text_5">
      <!-- 80 -->
      <g transform="translate(613.824106 272.558438) scale(0.1 -0.1)">
       <defs>
        <path id="DejaVuSans-38" d="M 2034 2216 
Q 1584 2216 1326 1975 
Q 1069 1734 1069 1313 
Q 1069 891 1326 650 
Q 1584 409 2034 409 
Q 2484 409 2743 651 
Q 3003 894 3003 1313 
Q 3003 1734 2745 1975 
Q 2488 2216 2034 2216 
z
M 1403 2484 
Q 997 2584 770 2862 
Q 544 3141 544 3541 
Q 544 4100 942 4425 
Q 1341 4750 2034 4750 
Q 2731 4750 3128 4425 
Q 3525 4100 3525 3541 
Q 3525 3141 3298 2862 
Q 3072 2584 2669 2484 
Q 3125 2378 3379 2068 
Q 3634 1759 3634 1313 
Q 3634 634 3220 271 
Q 2806 -91 2034 -91 
Q 1263 -91 848 271 
Q 434 634 434 1313 
Q 434 1759 690 2068 
Q 947 2378 1403 2484 
z
M 1172 3481 
Q 1172 3119 1398 2916 
Q 1625 2713 2034 2713 
Q 2441 2713 2670 2916 
Q 2900 3119 2900 3481 
Q 2900 3844 2670 4047 
Q 2441 4250 2034 4250 
Q 1625 4250 1398 4047 
Q 1172 3844 1172 3481 
z
" transform="scale(0.015625)"/>
       </defs>
       <use xlink:href="#DejaVuSans-38"/>
       <use xlink:href="#DejaVuSans-30" x="63.623047"/>
      </g>
     </g>
    </g>
    <g id="xtick_6">
     <g id="line2d_6">
      <g>
       <use xlink:href="#m6052ff9c26" x="755.991932" y="257.96" style="stroke: #000000; stroke-width: 0.8"/>
      </g>
     </g>
     <g id="text_6">
      <!-- 100 -->
      <g transform="translate(746.448182 272.558438) scale(0.1 -0.1)">
       <defs>
        <path id="DejaVuSans-31" d="M 794 531 
L 1825 531 
L 1825 4091 
L 703 3866 
L 703 4441 
L 1819 4666 
L 2450 4666 
L 2450 531 
L 3481 531 
L 3481 0 
L 794 0 
L 794 531 
z
" transform="scale(0.015625)"/>
       </defs>
       <use xlink:href="#DejaVuSans-31"/>
       <use xlink:href="#DejaVuSans-30" x="63.623047"/>
       <use xlink:href="#DejaVuSans-30" x="127.246094"/>
      </g>
     </g>
    </g>
    <g id="text_7">
     <!-- interation -->
     <g transform="translate(395.582344 286.236563) scale(0.1 -0.1)">
      <defs>
       <path id="DejaVuSans-69" d="M 603 3500 
L 1178 3500 
L 1178 0 
L 603 0 
L 603 3500 
z
M 603 4863 
L 1178 4863 
L 1178 4134 
L 603 4134 
L 603 4863 
z
" transform="scale(0.015625)"/>
       <path id="DejaVuSans-6e" d="M 3513 2113 
L 3513 0 
L 2938 0 
L 2938 2094 
Q 2938 2591 2744 2837 
Q 2550 3084 2163 3084 
Q 1697 3084 1428 2787 
Q 1159 2491 1159 1978 
L 1159 0 
L 581 0 
L 581 3500 
L 1159 3500 
L 1159 2956 
Q 1366 3272 1645 3428 
Q 1925 3584 2291 3584 
Q 2894 3584 3203 3211 
Q 3513 2838 3513 2113 
z
" transform="scale(0.015625)"/>
       <path id="DejaVuSans-74" d="M 1172 4494 
L 1172 3500 
L 2356 3500 
L 2356 3053 
L 1172 3053 
L 1172 1153 
Q 1172 725 1289 603 
Q 1406 481 1766 481 
L 2356 481 
L 2356 0 
L 1766 0 
Q 1100 0 847 248 
Q 594 497 594 1153 
L 594 3053 
L 172 3053 
L 172 3500 
L 594 3500 
L 594 4494 
L 1172 4494 
z
" transform="scale(0.015625)"/>
       <path id="DejaVuSans-65" d="M 3597 1894 
L 3597 1613 
L 953 1613 
Q 991 1019 1311 708 
Q 1631 397 2203 397 
Q 2534 397 2845 478 
Q 3156 559 3463 722 
L 3463 178 
Q 3153 47 2828 -22 
Q 2503 -91 2169 -91 
Q 1331 -91 842 396 
Q 353 884 353 1716 
Q 353 2575 817 3079 
Q 1281 3584 2069 3584 
Q 2775 3584 3186 3129 
Q 3597 2675 3597 1894 
z
M 3022 2063 
Q 3016 2534 2758 2815 
Q 2500 3097 2075 3097 
Q 1594 3097 1305 2825 
Q 1016 2553 972 2059 
L 3022 2063 
z
" transform="scale(0.015625)"/>
       <path id="DejaVuSans-72" d="M 2631 2963 
Q 2534 3019 2420 3045 
Q 2306 3072 2169 3072 
Q 1681 3072 1420 2755 
Q 1159 2438 1159 1844 
L 1159 0 
L 581 0 
L 581 3500 
L 1159 3500 
L 1159 2956 
Q 1341 3275 1631 3429 
Q 1922 3584 2338 3584 
Q 2397 3584 2469 3576 
Q 2541 3569 2628 3553 
L 2631 2963 
z
" transform="scale(0.015625)"/>
       <path id="DejaVuSans-61" d="M 2194 1759 
Q 1497 1759 1228 1600 
Q 959 1441 959 1056 
Q 959 750 1161 570 
Q 1363 391 1709 391 
Q 2188 391 2477 730 
Q 2766 1069 2766 1631 
L 2766 1759 
L 2194 1759 
z
M 3341 1997 
L 3341 0 
L 2766 0 
L 2766 531 
Q 2569 213 2275 61 
Q 1981 -91 1556 -91 
Q 1019 -91 701 211 
Q 384 513 384 1019 
Q 384 1609 779 1909 
Q 1175 2209 1959 2209 
L 2766 2209 
L 2766 2266 
Q 2766 2663 2505 2880 
Q 2244 3097 1772 3097 
Q 1472 3097 1187 3025 
Q 903 2953 641 2809 
L 641 3341 
Q 956 3463 1253 3523 
Q 1550 3584 1831 3584 
Q 2591 3584 2966 3190 
Q 3341 2797 3341 1997 
z
" transform="scale(0.015625)"/>
       <path id="DejaVuSans-6f" d="M 1959 3097 
Q 1497 3097 1228 2736 
Q 959 2375 959 1747 
Q 959 1119 1226 758 
Q 1494 397 1959 397 
Q 2419 397 2687 759 
Q 2956 1122 2956 1747 
Q 2956 2369 2687 2733 
Q 2419 3097 1959 3097 
z
M 1959 3584 
Q 2709 3584 3137 3096 
Q 3566 2609 3566 1747 
Q 3566 888 3137 398 
Q 2709 -91 1959 -91 
Q 1206 -91 779 398 
Q 353 888 353 1747 
Q 353 2609 779 3096 
Q 1206 3584 1959 3584 
z
" transform="scale(0.015625)"/>
      </defs>
      <use xlink:href="#DejaVuSans-69"/>
      <use xlink:href="#DejaVuSans-6e" x="27.783203"/>
      <use xlink:href="#DejaVuSans-74" x="91.162109"/>
      <use xlink:href="#DejaVuSans-65" x="130.371094"/>
      <use xlink:href="#DejaVuSans-72" x="191.894531"/>
      <use xlink:href="#DejaVuSans-61" x="233.007812"/>
      <use xlink:href="#DejaVuSans-74" x="294.287109"/>
      <use xlink:href="#DejaVuSans-69" x="333.496094"/>
      <use xlink:href="#DejaVuSans-6f" x="361.279297"/>
      <use xlink:href="#DejaVuSans-6e" x="422.460938"/>
     </g>
    </g>
   </g>
   <g id="matplotlib.axis_2">
    <g id="ytick_1">
     <g id="line2d_7">
      <defs>
       <path id="m4e2ef3c7b9" d="M 0 0 
L -3.5 0 
" style="stroke: #000000; stroke-width: 0.8"/>
      </defs>
      <g>
       <use xlink:href="#m4e2ef3c7b9" x="50.14375" y="242.982768" style="stroke: #000000; stroke-width: 0.8"/>
      </g>
     </g>
     <g id="text_8">
      <!-- 20 -->
      <g transform="translate(30.41875 246.781986) scale(0.1 -0.1)">
       <use xlink:href="#DejaVuSans-32"/>
       <use xlink:href="#DejaVuSans-30" x="63.623047"/>
      </g>
     </g>
    </g>
    <g id="ytick_2">
     <g id="line2d_8">
      <g>
       <use xlink:href="#m4e2ef3c7b9" x="50.14375" y="200.907564" style="stroke: #000000; stroke-width: 0.8"/>
      </g>
     </g>
     <g id="text_9">
      <!-- 40 -->
      <g transform="translate(30.41875 204.706783) scale(0.1 -0.1)">
       <use xlink:href="#DejaVuSans-34"/>
       <use xlink:href="#DejaVuSans-30" x="63.623047"/>
      </g>
     </g>
    </g>
    <g id="ytick_3">
     <g id="line2d_9">
      <g>
       <use xlink:href="#m4e2ef3c7b9" x="50.14375" y="158.83236" style="stroke: #000000; stroke-width: 0.8"/>
      </g>
     </g>
     <g id="text_10">
      <!-- 60 -->
      <g transform="translate(30.41875 162.631579) scale(0.1 -0.1)">
       <use xlink:href="#DejaVuSans-36"/>
       <use xlink:href="#DejaVuSans-30" x="63.623047"/>
      </g>
     </g>
    </g>
    <g id="ytick_4">
     <g id="line2d_10">
      <g>
       <use xlink:href="#m4e2ef3c7b9" x="50.14375" y="116.757157" style="stroke: #000000; stroke-width: 0.8"/>
      </g>
     </g>
     <g id="text_11">
      <!-- 80 -->
      <g transform="translate(30.41875 120.556376) scale(0.1 -0.1)">
       <use xlink:href="#DejaVuSans-38"/>
       <use xlink:href="#DejaVuSans-30" x="63.623047"/>
      </g>
     </g>
    </g>
    <g id="ytick_5">
     <g id="line2d_11">
      <g>
       <use xlink:href="#m4e2ef3c7b9" x="50.14375" y="74.681953" style="stroke: #000000; stroke-width: 0.8"/>
      </g>
     </g>
     <g id="text_12">
      <!-- 100 -->
      <g transform="translate(24.05625 78.481172) scale(0.1 -0.1)">
       <use xlink:href="#DejaVuSans-31"/>
       <use xlink:href="#DejaVuSans-30" x="63.623047"/>
       <use xlink:href="#DejaVuSans-30" x="127.246094"/>
      </g>
     </g>
    </g>
    <g id="ytick_6">
     <g id="line2d_12">
      <g>
       <use xlink:href="#m4e2ef3c7b9" x="50.14375" y="32.60675" style="stroke: #000000; stroke-width: 0.8"/>
      </g>
     </g>
     <g id="text_13">
      <!-- 120 -->
      <g transform="translate(24.05625 36.405968) scale(0.1 -0.1)">
       <use xlink:href="#DejaVuSans-31"/>
       <use xlink:href="#DejaVuSans-32" x="63.623047"/>
       <use xlink:href="#DejaVuSans-30" x="127.246094"/>
      </g>
     </g>
    </g>
    <g id="text_14">
     <!-- reward -->
     <g transform="translate(17.976562 149.894844) rotate(-90) scale(0.1 -0.1)">
      <defs>
       <path id="DejaVuSans-77" d="M 269 3500 
L 844 3500 
L 1563 769 
L 2278 3500 
L 2956 3500 
L 3675 769 
L 4391 3500 
L 4966 3500 
L 4050 0 
L 3372 0 
L 2619 2869 
L 1863 0 
L 1184 0 
L 269 3500 
z
" transform="scale(0.015625)"/>
       <path id="DejaVuSans-64" d="M 2906 2969 
L 2906 4863 
L 3481 4863 
L 3481 0 
L 2906 0 
L 2906 525 
Q 2725 213 2448 61 
Q 2172 -91 1784 -91 
Q 1150 -91 751 415 
Q 353 922 353 1747 
Q 353 2572 751 3078 
Q 1150 3584 1784 3584 
Q 2172 3584 2448 3432 
Q 2725 3281 2906 2969 
z
M 947 1747 
Q 947 1113 1208 752 
Q 1469 391 1925 391 
Q 2381 391 2643 752 
Q 2906 1113 2906 1747 
Q 2906 2381 2643 2742 
Q 2381 3103 1925 3103 
Q 1469 3103 1208 2742 
Q 947 2381 947 1747 
z
" transform="scale(0.015625)"/>
      </defs>
      <use xlink:href="#DejaVuSans-72"/>
      <use xlink:href="#DejaVuSans-65" x="38.863281"/>
      <use xlink:href="#DejaVuSans-77" x="100.386719"/>
      <use xlink:href="#DejaVuSans-61" x="182.173828"/>
      <use xlink:href="#DejaVuSans-72" x="243.453125"/>
      <use xlink:href="#DejaVuSans-64" x="282.816406"/>
     </g>
    </g>
   </g>
   <g id="line2d_13">
    <path d="M 83.755568 237.81054 
L 90.545834 238.0817 
L 97.336101 241.157767 
L 104.126367 237.742067 
L 110.916633 242.035648 
L 117.7069 232.90225 
L 124.497166 235.559883 
L 131.287432 240.543817 
L 138.077699 238.992176 
L 144.867965 236.442556 
L 151.658231 238.615179 
L 158.448497 233.685013 
L 165.238764 232.262738 
L 172.02903 233.435704 
L 178.819296 232.004495 
L 185.609563 229.0842 
L 192.399829 229.776284 
L 199.190095 231.37663 
L 205.980362 224.935342 
L 212.770628 221.856102 
L 219.560894 230.675637 
L 226.35116 225.447515 
L 233.141427 222.637152 
L 239.931693 223.887098 
L 246.721959 221.544893 
L 253.512226 214.941769 
L 260.302492 215.072653 
L 267.092758 206.686149 
L 273.883025 205.463752 
L 280.673291 206.89637 
L 287.463557 202.700806 
L 294.253823 202.699952 
L 301.04409 208.401742 
L 307.834356 204.200066 
L 314.624622 194.22425 
L 321.414889 190.869751 
L 328.205155 188.379981 
L 334.995421 175.089181 
L 341.785688 192.57703 
L 348.575954 195.492248 
L 355.36622 186.003121 
L 362.156486 167.398872 
L 368.946753 195.855888 
L 375.737019 187.618654 
L 382.527285 199.17799 
L 389.317552 186.413382 
L 396.107818 172.807339 
L 402.898084 181.227064 
L 409.688351 180.729893 
L 416.478617 193.381373 
L 423.268883 176.622512 
L 430.059149 187.571057 
L 436.849416 167.814452 
L 443.639682 177.842059 
L 450.429948 185.762416 
L 457.220215 189.911669 
L 464.010481 181.395316 
L 470.800747 173.100869 
L 477.591014 183.504605 
L 484.38128 181.227064 
L 491.171546 177.626641 
L 497.961812 188.50296 
L 504.752079 180.053341 
L 511.542345 185.660128 
L 518.332611 196.428308 
L 525.122878 184.674363 
L 531.913144 172.353402 
L 538.70341 184.183636 
L 545.493677 186.317283 
L 552.283943 186.966016 
L 559.074209 174.106536 
L 565.864475 172.134261 
L 572.654742 178.413108 
L 579.445008 175.290565 
L 586.235274 176.218548 
L 593.025541 172.321825 
L 599.815807 172.637605 
L 606.606073 190.035845 
L 613.39634 164.050161 
L 620.186606 165.675425 
L 626.976872 172.148774 
L 633.767138 182.119329 
L 640.557405 184.401894 
L 647.347671 193.172618 
L 654.137937 175.454729 
L 660.928204 185.045802 
L 667.71847 174.517909 
L 674.508736 165.319872 
L 681.299003 178.298733 
L 688.089269 164.091761 
L 694.879535 182.711534 
L 701.669801 172.924822 
L 708.460068 183.449346 
L 715.250334 178.43982 
L 722.0406 182.733275 
L 728.830867 180.96514 
L 735.621133 170.908701 
L 742.411399 175.413382 
L 749.201666 163.458242 
L 755.991932 182.468725 
" clip-path="url(#p91f3294464)" style="fill: none; stroke: #1f77b4; stroke-width: 1.5; stroke-linecap: square"/>
   </g>
   <g id="line2d_14">
    <path d="M 83.755568 236.083495 
L 90.545834 237.90044 
L 97.336101 240.485244 
L 104.126367 241.586027 
L 110.916633 240.291708 
L 117.7069 241.330894 
L 124.497166 234.50504 
L 131.287432 236.958257 
L 138.077699 238.146431 
L 144.867965 232.51553 
L 151.658231 234.550154 
L 158.448497 222.475733 
L 165.238764 221.914228 
L 172.02903 216.704102 
L 178.819296 206.433802 
L 185.609563 195.869725 
L 192.399829 201.969657 
L 199.190095 199.959625 
L 205.980362 199.292177 
L 212.770628 167.107151 
L 219.560894 183.030611 
L 226.35116 180.800966 
L 233.141427 181.71581 
L 239.931693 177.361228 
L 246.721959 169.499912 
L 253.512226 193.217958 
L 260.302492 174.566961 
L 267.092758 173.575117 
L 273.883025 183.952852 
L 280.673291 183.173755 
L 287.463557 184.028784 
L 294.253823 173.408413 
L 301.04409 180.658233 
L 307.834356 186.813336 
L 314.624622 187.405249 
L 321.414889 180.043153 
L 328.205155 186.248795 
L 334.995421 178.243125 
L 341.785688 166.952644 
L 348.575954 179.376736 
L 355.36622 185.47675 
L 362.156486 190.110733 
L 368.946753 190.843881 
L 375.737019 193.521831 
L 382.527285 188.19894 
L 389.317552 176.607835 
L 396.107818 163.17174 
L 402.898084 181.878778 
L 409.688351 195.899653 
L 416.478617 184.469457 
L 423.268883 188.910954 
L 430.059149 178.31411 
L 436.849416 186.893729 
L 443.639682 175.572583 
L 450.429948 178.439614 
L 457.220215 180.577863 
L 464.010481 188.045395 
L 470.800747 180.338596 
L 477.591014 191.586358 
L 484.38128 181.370476 
L 491.171546 176.330634 
L 497.961812 190.347059 
L 504.752079 191.599332 
L 511.542345 192.846134 
L 518.332611 174.624294 
L 525.122878 178.030442 
L 531.913144 189.00336 
L 538.70341 181.231219 
L 545.493677 161.53371 
L 552.283943 191.055256 
L 559.074209 172.742711 
L 565.864475 180.83669 
L 572.654742 186.384985 
L 579.445008 183.255104 
L 586.235274 190.36544 
L 593.025541 173.063679 
L 599.815807 187.308084 
L 606.606073 182.762633 
L 613.39634 175.194342 
L 620.186606 173.845312 
L 626.976872 191.964326 
L 633.767138 184.501123 
L 640.557405 162.081973 
L 647.347671 183.308419 
L 654.137937 155.900789 
L 660.928204 173.459291 
L 667.71847 164.377017 
L 674.508736 168.674348 
L 681.299003 171.875674 
L 688.089269 159.483381 
L 694.879535 158.881716 
L 701.669801 171.404832 
L 708.460068 179.002486 
L 715.250334 155.940466 
L 722.0406 153.192493 
L 728.830867 159.734843 
L 735.621133 166.980073 
L 742.411399 165.468612 
L 749.201666 158.203083 
L 755.991932 171.65528 
" clip-path="url(#p91f3294464)" style="fill: none; stroke: #ff7f0e; stroke-width: 1.5; stroke-linecap: square"/>
   </g>
   <g id="line2d_15">
    <path d="M 83.755568 239.206904 
L 90.545834 239.005204 
L 97.336101 246.561818 
L 104.126367 244.020378 
L 110.916633 235.450665 
L 117.7069 235.962136 
L 124.497166 234.302568 
L 131.287432 218.105804 
L 138.077699 230.243331 
L 144.867965 215.589124 
L 151.658231 202.135094 
L 158.448497 196.87213 
L 165.238764 180.034158 
L 172.02903 188.68885 
L 178.819296 173.85844 
L 185.609563 185.348504 
L 192.399829 199.990325 
L 199.190095 184.912073 
L 205.980362 185.950222 
L 212.770628 189.129306 
L 219.560894 181.46902 
L 226.35116 174.107725 
L 233.141427 179.481337 
L 239.931693 180.936941 
L 246.721959 185.254816 
L 253.512226 161.600157 
L 260.302492 184.057683 
L 267.092758 178.014311 
L 273.883025 183.570371 
L 280.673291 179.422032 
L 287.463557 177.141323 
L 294.253823 170.170521 
L 301.04409 175.280429 
L 307.834356 188.350308 
L 314.624622 181.753329 
L 321.414889 179.326063 
L 328.205155 175.577441 
L 334.995421 184.532885 
L 341.785688 162.350718 
L 348.575954 177.44062 
L 355.36622 180.814612 
L 362.156486 179.925061 
L 368.946753 171.615472 
L 375.737019 167.881959 
L 382.527285 175.317209 
L 389.317552 174.922426 
L 396.107818 178.338586 
L 402.898084 172.320221 
L 409.688351 177.387525 
L 416.478617 173.884005 
L 423.268883 181.466611 
L 430.059149 186.085617 
L 436.849416 178.947624 
L 443.639682 177.227047 
L 450.429948 178.125381 
L 457.220215 190.098912 
L 464.010481 165.595263 
L 470.800747 171.438091 
L 477.591014 156.097472 
L 484.38128 184.1313 
L 491.171546 172.331937 
L 497.961812 175.056095 
L 504.752079 184.801409 
L 511.542345 187.00942 
L 518.332611 174.656063 
L 525.122878 163.418674 
L 531.913144 167.909384 
L 538.70341 181.978755 
L 545.493677 173.064326 
L 552.283943 173.144386 
L 559.074209 174.088596 
L 565.864475 189.108623 
L 572.654742 172.179792 
L 579.445008 184.949895 
L 586.235274 181.958696 
L 593.025541 164.149557 
L 599.815807 159.433435 
L 606.606073 184.662963 
L 613.39634 173.806818 
L 620.186606 166.873783 
L 626.976872 155.854635 
L 633.767138 165.449958 
L 640.557405 168.271306 
L 647.347671 162.554398 
L 654.137937 171.630693 
L 660.928204 156.111329 
L 667.71847 176.922562 
L 674.508736 177.356992 
L 681.299003 175.395467 
L 688.089269 160.638979 
L 694.879535 163.745085 
L 701.669801 186.52481 
L 708.460068 169.072555 
L 715.250334 172.572888 
L 722.0406 168.031376 
L 728.830867 148.040603 
L 735.621133 167.270268 
L 742.411399 147.900796 
L 749.201666 144.482431 
L 755.991932 164.438535 
" clip-path="url(#p91f3294464)" style="fill: none; stroke: #2ca02c; stroke-width: 1.5; stroke-linecap: square"/>
   </g>
   <g id="line2d_16">
    <path d="M 83.755568 238.967114 
L 90.545834 241.449265 
L 97.336101 243.460334 
L 104.126367 228.588472 
L 110.916633 212.737709 
L 117.7069 200.84617 
L 124.497166 190.892546 
L 131.287432 198.116775 
L 138.077699 179.220345 
L 144.867965 206.166965 
L 151.658231 178.966885 
L 158.448497 157.619605 
L 165.238764 178.805096 
L 172.02903 168.508511 
L 178.819296 158.496003 
L 185.609563 190.014248 
L 192.399829 158.561701 
L 199.190095 177.708058 
L 205.980362 156.647446 
L 212.770628 181.158706 
L 219.560894 175.562513 
L 226.35116 161.747571 
L 233.141427 159.413341 
L 239.931693 145.274036 
L 246.721959 147.858514 
L 253.512226 98.501387 
L 260.302492 165.570157 
L 267.092758 146.311924 
L 273.883025 150.574317 
L 280.673291 109.198889 
L 287.463557 137.837116 
L 294.253823 124.147488 
L 301.04409 141.047924 
L 307.834356 149.431182 
L 314.624622 139.60712 
L 321.414889 156.871333 
L 328.205155 136.293109 
L 334.995421 112.715101 
L 341.785688 138.751653 
L 348.575954 126.454416 
L 355.36622 140.56144 
L 362.156486 120.295299 
L 368.946753 84.582544 
L 375.737019 138.074781 
L 382.527285 90.940755 
L 389.317552 109.601123 
L 396.107818 104.87352 
L 402.898084 116.375393 
L 409.688351 92.185967 
L 416.478617 127.620346 
L 423.268883 113.584952 
L 430.059149 102.242092 
L 436.849416 61.683358 
L 443.639682 109.764258 
L 450.429948 108.737623 
L 457.220215 98.028343 
L 464.010481 48.27538 
L 470.800747 51.351364 
L 477.591014 79.867967 
L 484.38128 111.588152 
L 491.171546 74.362027 
L 497.961812 95.517447 
L 504.752079 40.757444 
L 511.542345 88.55742 
L 518.332611 126.258755 
L 525.122878 101.934813 
L 531.913144 105.355296 
L 538.70341 81.774906 
L 545.493677 83.049398 
L 552.283943 93.458245 
L 559.074209 116.243641 
L 565.864475 100.634148 
L 572.654742 105.77277 
L 579.445008 99.53097 
L 586.235274 111.347488 
L 593.025541 100.788108 
L 599.815807 91.071072 
L 606.606073 85.543448 
L 613.39634 59.103339 
L 620.186606 49.726237 
L 626.976872 75.719018 
L 633.767138 63.153347 
L 640.557405 56.285009 
L 647.347671 64.833006 
L 654.137937 46.689297 
L 660.928204 55.348937 
L 667.71847 85.383272 
L 674.508736 73.401835 
L 681.299003 99.178876 
L 688.089269 88.729334 
L 694.879535 82.049873 
L 701.669801 55.597072 
L 708.460068 75.582167 
L 715.250334 79.756901 
L 722.0406 96.61728 
L 728.830867 18.598182 
L 735.621133 58.356774 
L 742.411399 38.060072 
L 749.201666 52.063749 
L 755.991932 58.767498 
" clip-path="url(#p91f3294464)" style="fill: none; stroke: #d62728; stroke-width: 1.5; stroke-linecap: square"/>
   </g>
   <g id="line2d_17">
    <path d="M 83.755568 243.503602 
L 90.545834 200.809334 
L 97.336101 213.731324 
L 104.126367 164.412923 
L 110.916633 153.211772 
L 117.7069 183.956018 
L 124.497166 193.675888 
L 131.287432 156.485138 
L 138.077699 167.776184 
L 144.867965 182.940043 
L 151.658231 163.253823 
L 158.448497 191.916276 
L 165.238764 160.186084 
L 172.02903 152.859984 
L 178.819296 178.027253 
L 185.609563 158.162136 
L 192.399829 159.740802 
L 199.190095 151.028504 
L 205.980362 182.235481 
L 212.770628 175.828387 
L 219.560894 204.62593 
L 226.35116 164.272918 
L 233.141427 163.160096 
L 239.931693 171.695351 
L 246.721959 169.11491 
L 253.512226 166.785036 
L 260.302492 176.598615 
L 267.092758 165.24271 
L 273.883025 158.74009 
L 280.673291 166.408228 
L 287.463557 156.039758 
L 294.253823 149.240529 
L 301.04409 166.098337 
L 307.834356 161.435617 
L 314.624622 184.236348 
L 321.414889 171.764136 
L 328.205155 184.596015 
L 334.995421 178.58782 
L 341.785688 187.586916 
L 348.575954 183.307092 
L 355.36622 187.889953 
L 362.156486 179.731422 
L 368.946753 185.053705 
L 375.737019 161.075563 
L 382.527285 164.328138 
L 389.317552 184.576514 
L 396.107818 162.899239 
L 402.898084 167.12129 
L 409.688351 170.014915 
L 416.478617 142.789448 
L 423.268883 171.791744 
L 430.059149 176.389861 
L 436.849416 177.990673 
L 443.639682 161.379978 
L 450.429948 174.991835 
L 457.220215 177.396194 
L 464.010481 155.136566 
L 470.800747 175.089181 
L 477.591014 181.893579 
L 484.38128 179.438031 
L 491.171546 177.48604 
L 497.961812 155.579382 
L 504.752079 174.975179 
L 511.542345 166.725808 
L 518.332611 179.854531 
L 525.122878 183.42131 
L 531.913144 165.907055 
L 538.70341 174.154389 
L 545.493677 168.234766 
L 552.283943 147.086916 
L 559.074209 179.651456 
L 565.864475 130.360977 
L 572.654742 170.003665 
L 579.445008 161.134809 
L 586.235274 165.866086 
L 593.025541 150.643879 
L 599.815807 162.376159 
L 606.606073 100.153099 
L 613.39634 125.797228 
L 620.186606 163.498775 
L 626.976872 110.864952 
L 633.767138 124.235487 
L 640.557405 130.201617 
L 647.347671 140.528263 
L 654.137937 141.096687 
L 660.928204 144.700283 
L 667.71847 102.030836 
L 674.508736 96.44499 
L 681.299003 148.109758 
L 688.089269 149.319706 
L 694.879535 137.336514 
L 701.669801 112.023696 
L 708.460068 134.817465 
L 715.250334 123.091812 
L 722.0406 107.47882 
L 728.830867 131.842657 
L 735.621133 135.371807 
L 742.411399 95.462327 
L 749.201666 114.16415 
L 755.991932 93.215079 
" clip-path="url(#p91f3294464)" style="fill: none; stroke: #9467bd; stroke-width: 1.5; stroke-linecap: square"/>
   </g>
   <g id="patch_3">
    <path d="M 50.14375 257.96 
L 50.14375 7.2 
" style="fill: none; stroke: #000000; stroke-width: 0.8; stroke-linejoin: miter; stroke-linecap: square"/>
   </g>
   <g id="patch_4">
    <path d="M 789.60375 257.96 
L 789.60375 7.2 
" style="fill: none; stroke: #000000; stroke-width: 0.8; stroke-linejoin: miter; stroke-linecap: square"/>
   </g>
   <g id="patch_5">
    <path d="M 50.14375 257.96 
L 789.60375 257.96 
" style="fill: none; stroke: #000000; stroke-width: 0.8; stroke-linejoin: miter; stroke-linecap: square"/>
   </g>
   <g id="patch_6">
    <path d="M 50.14375 7.2 
L 789.60375 7.2 
" style="fill: none; stroke: #000000; stroke-width: 0.8; stroke-linejoin: miter; stroke-linecap: square"/>
   </g>
   <g id="legend_1">
    <g id="patch_7">
     <path d="M 57.14375 29.878125 
L 398.834375 29.878125 
Q 400.834375 29.878125 400.834375 27.878125 
L 400.834375 14.2 
Q 400.834375 12.2 398.834375 12.2 
L 57.14375 12.2 
Q 55.14375 12.2 55.14375 14.2 
L 55.14375 27.878125 
Q 55.14375 29.878125 57.14375 29.878125 
z
" style="fill: #ffffff; opacity: 0.8; stroke: #cccccc; stroke-linejoin: miter"/>
    </g>
    <g id="line2d_18">
     <path d="M 59.14375 20.298437 
L 69.14375 20.298437 
L 79.14375 20.298437 
" style="fill: none; stroke: #1f77b4; stroke-width: 1.5; stroke-linecap: square"/>
    </g>
    <g id="text_15">
     <!-- 0.001 -->
     <g transform="translate(87.14375 23.798437) scale(0.1 -0.1)">
      <defs>
       <path id="DejaVuSans-2e" d="M 684 794 
L 1344 794 
L 1344 0 
L 684 0 
L 684 794 
z
" transform="scale(0.015625)"/>
      </defs>
      <use xlink:href="#DejaVuSans-30"/>
      <use xlink:href="#DejaVuSans-2e" x="63.623047"/>
      <use xlink:href="#DejaVuSans-30" x="95.410156"/>
      <use xlink:href="#DejaVuSans-30" x="159.033203"/>
      <use xlink:href="#DejaVuSans-31" x="222.65625"/>
     </g>
    </g>
    <g id="line2d_19">
     <path d="M 135.771875 20.298437 
L 145.771875 20.298437 
L 155.771875 20.298437 
" style="fill: none; stroke: #ff7f0e; stroke-width: 1.5; stroke-linecap: square"/>
    </g>
    <g id="text_16">
     <!-- 0.005 -->
     <g transform="translate(163.771875 23.798437) scale(0.1 -0.1)">
      <defs>
       <path id="DejaVuSans-35" d="M 691 4666 
L 3169 4666 
L 3169 4134 
L 1269 4134 
L 1269 2991 
Q 1406 3038 1543 3061 
Q 1681 3084 1819 3084 
Q 2600 3084 3056 2656 
Q 3513 2228 3513 1497 
Q 3513 744 3044 326 
Q 2575 -91 1722 -91 
Q 1428 -91 1123 -41 
Q 819 9 494 109 
L 494 744 
Q 775 591 1075 516 
Q 1375 441 1709 441 
Q 2250 441 2565 725 
Q 2881 1009 2881 1497 
Q 2881 1984 2565 2268 
Q 2250 2553 1709 2553 
Q 1456 2553 1204 2497 
Q 953 2441 691 2322 
L 691 4666 
z
" transform="scale(0.015625)"/>
      </defs>
      <use xlink:href="#DejaVuSans-30"/>
      <use xlink:href="#DejaVuSans-2e" x="63.623047"/>
      <use xlink:href="#DejaVuSans-30" x="95.410156"/>
      <use xlink:href="#DejaVuSans-30" x="159.033203"/>
      <use xlink:href="#DejaVuSans-35" x="222.65625"/>
     </g>
    </g>
    <g id="line2d_20">
     <path d="M 212.4 20.298437 
L 222.4 20.298437 
L 232.4 20.298437 
" style="fill: none; stroke: #2ca02c; stroke-width: 1.5; stroke-linecap: square"/>
    </g>
    <g id="text_17">
     <!-- 0.01 -->
     <g transform="translate(240.4 23.798437) scale(0.1 -0.1)">
      <use xlink:href="#DejaVuSans-30"/>
      <use xlink:href="#DejaVuSans-2e" x="63.623047"/>
      <use xlink:href="#DejaVuSans-30" x="95.410156"/>
      <use xlink:href="#DejaVuSans-31" x="159.033203"/>
     </g>
    </g>
    <g id="line2d_21">
     <path d="M 282.665625 20.298437 
L 292.665625 20.298437 
L 302.665625 20.298437 
" style="fill: none; stroke: #d62728; stroke-width: 1.5; stroke-linecap: square"/>
    </g>
    <g id="text_18">
     <!-- 0.05 -->
     <g transform="translate(310.665625 23.798437) scale(0.1 -0.1)">
      <use xlink:href="#DejaVuSans-30"/>
      <use xlink:href="#DejaVuSans-2e" x="63.623047"/>
      <use xlink:href="#DejaVuSans-30" x="95.410156"/>
      <use xlink:href="#DejaVuSans-35" x="159.033203"/>
     </g>
    </g>
    <g id="line2d_22">
     <path d="M 352.93125 20.298437 
L 362.93125 20.298437 
L 372.93125 20.298437 
" style="fill: none; stroke: #9467bd; stroke-width: 1.5; stroke-linecap: square"/>
    </g>
    <g id="text_19">
     <!-- 0.1 -->
     <g transform="translate(380.93125 23.798437) scale(0.1 -0.1)">
      <use xlink:href="#DejaVuSans-30"/>
      <use xlink:href="#DejaVuSans-2e" x="63.623047"/>
      <use xlink:href="#DejaVuSans-31" x="95.410156"/>
     </g>
    </g>
   </g>
  </g>
  <g id="axes_2">
   <g id="patch_8">
    <path d="M 50.14375 540.56 
L 789.60375 540.56 
L 789.60375 289.8 
L 50.14375 289.8 
z
" style="fill: #ffffff"/>
   </g>
   <g id="matplotlib.axis_3">
    <g id="xtick_7">
     <g id="line2d_23">
      <g>
       <use xlink:href="#m6052ff9c26" x="76.965302" y="540.56" style="stroke: #000000; stroke-width: 0.8"/>
      </g>
     </g>
     <g id="text_20">
      <!-- 0 -->
      <g transform="translate(73.784052 555.158437) scale(0.1 -0.1)">
       <use xlink:href="#DejaVuSans-30"/>
      </g>
     </g>
    </g>
    <g id="xtick_8">
     <g id="line2d_24">
      <g>
       <use xlink:href="#m6052ff9c26" x="212.770628" y="540.56" style="stroke: #000000; stroke-width: 0.8"/>
      </g>
     </g>
     <g id="text_21">
      <!-- 20 -->
      <g transform="translate(206.408128 555.158437) scale(0.1 -0.1)">
       <use xlink:href="#DejaVuSans-32"/>
       <use xlink:href="#DejaVuSans-30" x="63.623047"/>
      </g>
     </g>
    </g>
    <g id="xtick_9">
     <g id="line2d_25">
      <g>
       <use xlink:href="#m6052ff9c26" x="348.575954" y="540.56" style="stroke: #000000; stroke-width: 0.8"/>
      </g>
     </g>
     <g id="text_22">
      <!-- 40 -->
      <g transform="translate(342.213454 555.158437) scale(0.1 -0.1)">
       <use xlink:href="#DejaVuSans-34"/>
       <use xlink:href="#DejaVuSans-30" x="63.623047"/>
      </g>
     </g>
    </g>
    <g id="xtick_10">
     <g id="line2d_26">
      <g>
       <use xlink:href="#m6052ff9c26" x="484.38128" y="540.56" style="stroke: #000000; stroke-width: 0.8"/>
      </g>
     </g>
     <g id="text_23">
      <!-- 60 -->
      <g transform="translate(478.01878 555.158437) scale(0.1 -0.1)">
       <use xlink:href="#DejaVuSans-36"/>
       <use xlink:href="#DejaVuSans-30" x="63.623047"/>
      </g>
     </g>
    </g>
    <g id="xtick_11">
     <g id="line2d_27">
      <g>
       <use xlink:href="#m6052ff9c26" x="620.186606" y="540.56" style="stroke: #000000; stroke-width: 0.8"/>
      </g>
     </g>
     <g id="text_24">
      <!-- 80 -->
      <g transform="translate(613.824106 555.158437) scale(0.1 -0.1)">
       <use xlink:href="#DejaVuSans-38"/>
       <use xlink:href="#DejaVuSans-30" x="63.623047"/>
      </g>
     </g>
    </g>
    <g id="xtick_12">
     <g id="line2d_28">
      <g>
       <use xlink:href="#m6052ff9c26" x="755.991932" y="540.56" style="stroke: #000000; stroke-width: 0.8"/>
      </g>
     </g>
     <g id="text_25">
      <!-- 100 -->
      <g transform="translate(746.448182 555.158437) scale(0.1 -0.1)">
       <use xlink:href="#DejaVuSans-31"/>
       <use xlink:href="#DejaVuSans-30" x="63.623047"/>
       <use xlink:href="#DejaVuSans-30" x="127.246094"/>
      </g>
     </g>
    </g>
    <g id="text_26">
     <!-- interation -->
     <g transform="translate(395.582344 568.836562) scale(0.1 -0.1)">
      <use xlink:href="#DejaVuSans-69"/>
      <use xlink:href="#DejaVuSans-6e" x="27.783203"/>
      <use xlink:href="#DejaVuSans-74" x="91.162109"/>
      <use xlink:href="#DejaVuSans-65" x="130.371094"/>
      <use xlink:href="#DejaVuSans-72" x="191.894531"/>
      <use xlink:href="#DejaVuSans-61" x="233.007812"/>
      <use xlink:href="#DejaVuSans-74" x="294.287109"/>
      <use xlink:href="#DejaVuSans-69" x="333.496094"/>
      <use xlink:href="#DejaVuSans-6f" x="361.279297"/>
      <use xlink:href="#DejaVuSans-6e" x="422.460938"/>
     </g>
    </g>
   </g>
   <g id="matplotlib.axis_4">
    <g id="ytick_7">
     <g id="line2d_29">
      <g>
       <use xlink:href="#m4e2ef3c7b9" x="50.14375" y="531.055081" style="stroke: #000000; stroke-width: 0.8"/>
      </g>
     </g>
     <g id="text_27">
      <!-- 0.0 -->
      <g transform="translate(27.240625 534.8543) scale(0.1 -0.1)">
       <use xlink:href="#DejaVuSans-30"/>
       <use xlink:href="#DejaVuSans-2e" x="63.623047"/>
       <use xlink:href="#DejaVuSans-30" x="95.410156"/>
      </g>
     </g>
    </g>
    <g id="ytick_8">
     <g id="line2d_30">
      <g>
       <use xlink:href="#m4e2ef3c7b9" x="50.14375" y="497.656831" style="stroke: #000000; stroke-width: 0.8"/>
      </g>
     </g>
     <g id="text_28">
      <!-- 2.5 -->
      <g transform="translate(27.240625 501.45605) scale(0.1 -0.1)">
       <use xlink:href="#DejaVuSans-32"/>
       <use xlink:href="#DejaVuSans-2e" x="63.623047"/>
       <use xlink:href="#DejaVuSans-35" x="95.410156"/>
      </g>
     </g>
    </g>
    <g id="ytick_9">
     <g id="line2d_31">
      <g>
       <use xlink:href="#m4e2ef3c7b9" x="50.14375" y="464.258581" style="stroke: #000000; stroke-width: 0.8"/>
      </g>
     </g>
     <g id="text_29">
      <!-- 5.0 -->
      <g transform="translate(27.240625 468.0578) scale(0.1 -0.1)">
       <use xlink:href="#DejaVuSans-35"/>
       <use xlink:href="#DejaVuSans-2e" x="63.623047"/>
       <use xlink:href="#DejaVuSans-30" x="95.410156"/>
      </g>
     </g>
    </g>
    <g id="ytick_10">
     <g id="line2d_32">
      <g>
       <use xlink:href="#m4e2ef3c7b9" x="50.14375" y="430.860331" style="stroke: #000000; stroke-width: 0.8"/>
      </g>
     </g>
     <g id="text_30">
      <!-- 7.5 -->
      <g transform="translate(27.240625 434.65955) scale(0.1 -0.1)">
       <defs>
        <path id="DejaVuSans-37" d="M 525 4666 
L 3525 4666 
L 3525 4397 
L 1831 0 
L 1172 0 
L 2766 4134 
L 525 4134 
L 525 4666 
z
" transform="scale(0.015625)"/>
       </defs>
       <use xlink:href="#DejaVuSans-37"/>
       <use xlink:href="#DejaVuSans-2e" x="63.623047"/>
       <use xlink:href="#DejaVuSans-35" x="95.410156"/>
      </g>
     </g>
    </g>
    <g id="ytick_11">
     <g id="line2d_33">
      <g>
       <use xlink:href="#m4e2ef3c7b9" x="50.14375" y="397.462081" style="stroke: #000000; stroke-width: 0.8"/>
      </g>
     </g>
     <g id="text_31">
      <!-- 10.0 -->
      <g transform="translate(20.878125 401.2613) scale(0.1 -0.1)">
       <use xlink:href="#DejaVuSans-31"/>
       <use xlink:href="#DejaVuSans-30" x="63.623047"/>
       <use xlink:href="#DejaVuSans-2e" x="127.246094"/>
       <use xlink:href="#DejaVuSans-30" x="159.033203"/>
      </g>
     </g>
    </g>
    <g id="ytick_12">
     <g id="line2d_34">
      <g>
       <use xlink:href="#m4e2ef3c7b9" x="50.14375" y="364.063831" style="stroke: #000000; stroke-width: 0.8"/>
      </g>
     </g>
     <g id="text_32">
      <!-- 12.5 -->
      <g transform="translate(20.878125 367.86305) scale(0.1 -0.1)">
       <use xlink:href="#DejaVuSans-31"/>
       <use xlink:href="#DejaVuSans-32" x="63.623047"/>
       <use xlink:href="#DejaVuSans-2e" x="127.246094"/>
       <use xlink:href="#DejaVuSans-35" x="159.033203"/>
      </g>
     </g>
    </g>
    <g id="ytick_13">
     <g id="line2d_35">
      <g>
       <use xlink:href="#m4e2ef3c7b9" x="50.14375" y="330.665581" style="stroke: #000000; stroke-width: 0.8"/>
      </g>
     </g>
     <g id="text_33">
      <!-- 15.0 -->
      <g transform="translate(20.878125 334.4648) scale(0.1 -0.1)">
       <use xlink:href="#DejaVuSans-31"/>
       <use xlink:href="#DejaVuSans-35" x="63.623047"/>
       <use xlink:href="#DejaVuSans-2e" x="127.246094"/>
       <use xlink:href="#DejaVuSans-30" x="159.033203"/>
      </g>
     </g>
    </g>
    <g id="ytick_14">
     <g id="line2d_36">
      <g>
       <use xlink:href="#m4e2ef3c7b9" x="50.14375" y="297.267331" style="stroke: #000000; stroke-width: 0.8"/>
      </g>
     </g>
     <g id="text_34">
      <!-- 17.5 -->
      <g transform="translate(20.878125 301.06655) scale(0.1 -0.1)">
       <use xlink:href="#DejaVuSans-31"/>
       <use xlink:href="#DejaVuSans-37" x="63.623047"/>
       <use xlink:href="#DejaVuSans-2e" x="127.246094"/>
       <use xlink:href="#DejaVuSans-35" x="159.033203"/>
      </g>
     </g>
    </g>
    <g id="text_35">
     <!-- constraint -->
     <g transform="translate(14.798438 440.359687) rotate(-90) scale(0.1 -0.1)">
      <defs>
       <path id="DejaVuSans-63" d="M 3122 3366 
L 3122 2828 
Q 2878 2963 2633 3030 
Q 2388 3097 2138 3097 
Q 1578 3097 1268 2742 
Q 959 2388 959 1747 
Q 959 1106 1268 751 
Q 1578 397 2138 397 
Q 2388 397 2633 464 
Q 2878 531 3122 666 
L 3122 134 
Q 2881 22 2623 -34 
Q 2366 -91 2075 -91 
Q 1284 -91 818 406 
Q 353 903 353 1747 
Q 353 2603 823 3093 
Q 1294 3584 2113 3584 
Q 2378 3584 2631 3529 
Q 2884 3475 3122 3366 
z
" transform="scale(0.015625)"/>
       <path id="DejaVuSans-73" d="M 2834 3397 
L 2834 2853 
Q 2591 2978 2328 3040 
Q 2066 3103 1784 3103 
Q 1356 3103 1142 2972 
Q 928 2841 928 2578 
Q 928 2378 1081 2264 
Q 1234 2150 1697 2047 
L 1894 2003 
Q 2506 1872 2764 1633 
Q 3022 1394 3022 966 
Q 3022 478 2636 193 
Q 2250 -91 1575 -91 
Q 1294 -91 989 -36 
Q 684 19 347 128 
L 347 722 
Q 666 556 975 473 
Q 1284 391 1588 391 
Q 1994 391 2212 530 
Q 2431 669 2431 922 
Q 2431 1156 2273 1281 
Q 2116 1406 1581 1522 
L 1381 1569 
Q 847 1681 609 1914 
Q 372 2147 372 2553 
Q 372 3047 722 3315 
Q 1072 3584 1716 3584 
Q 2034 3584 2315 3537 
Q 2597 3491 2834 3397 
z
" transform="scale(0.015625)"/>
      </defs>
      <use xlink:href="#DejaVuSans-63"/>
      <use xlink:href="#DejaVuSans-6f" x="54.980469"/>
      <use xlink:href="#DejaVuSans-6e" x="116.162109"/>
      <use xlink:href="#DejaVuSans-73" x="179.541016"/>
      <use xlink:href="#DejaVuSans-74" x="231.640625"/>
      <use xlink:href="#DejaVuSans-72" x="270.849609"/>
      <use xlink:href="#DejaVuSans-61" x="311.962891"/>
      <use xlink:href="#DejaVuSans-69" x="373.242188"/>
      <use xlink:href="#DejaVuSans-6e" x="401.025391"/>
      <use xlink:href="#DejaVuSans-74" x="464.404297"/>
     </g>
    </g>
   </g>
   <g id="line2d_37">
    <path d="M 83.755568 471.312919 
L 90.545834 485.957341 
L 97.336101 480.372565 
L 104.126367 494.425058 
L 110.916633 490.217821 
L 117.7069 492.001753 
L 124.497166 483.079105 
L 131.287432 481.387436 
L 138.077699 478.931132 
L 144.867965 483.745394 
L 151.658231 488.528372 
L 158.448497 489.909314 
L 165.238764 498.542556 
L 172.02903 490.228684 
L 178.819296 497.646352 
L 185.609563 479.4206 
L 192.399829 487.202205 
L 199.190095 493.167813 
L 205.980362 486.648176 
L 212.770628 493.967171 
L 219.560894 492.595667 
L 226.35116 488.477659 
L 233.141427 488.384293 
L 239.931693 503.626154 
L 246.721959 500.452345 
L 253.512226 487.568974 
L 260.302492 496.396837 
L 267.092758 500.039004 
L 273.883025 495.777089 
L 280.673291 480.341764 
L 287.463557 497.465972 
L 294.253823 491.332917 
L 301.04409 474.536369 
L 307.834356 480.883229 
L 314.624622 498.805396 
L 321.414889 485.692409 
L 328.205155 492.475189 
L 334.995421 491.718981 
L 341.785688 496.748105 
L 348.575954 472.390519 
L 355.36622 493.720426 
L 362.156486 492.409474 
L 368.946753 488.787075 
L 375.737019 490.495925 
L 382.527285 494.346009 
L 389.317552 499.820782 
L 396.107818 478.812977 
L 402.898084 491.978941 
L 409.688351 476.422745 
L 416.478617 498.866634 
L 423.268883 493.02921 
L 430.059149 480.74362 
L 436.849416 504.813213 
L 443.639682 492.066142 
L 450.429948 462.313488 
L 457.220215 472.773402 
L 464.010481 508.64215 
L 470.800747 499.881106 
L 477.591014 459.51044 
L 484.38128 501.144451 
L 491.171546 470.470036 
L 497.961812 486.145131 
L 504.752079 496.515123 
L 511.542345 490.174189 
L 518.332611 504.489299 
L 525.122878 491.936071 
L 531.913144 506.735332 
L 538.70341 489.823964 
L 545.493677 501.214171 
L 552.283943 511.684747 
L 559.074209 486.098569 
L 565.864475 506.775486 
L 572.654742 514.881166 
L 579.445008 485.762716 
L 586.235274 493.643591 
L 593.025541 482.2372 
L 599.815807 479.956687 
L 606.606073 496.140147 
L 613.39634 491.100535 
L 620.186606 483.640448 
L 626.976872 501.949464 
L 633.767138 484.793104 
L 640.557405 506.890387 
L 647.347671 508.973193 
L 654.137937 492.944819 
L 660.928204 490.800669 
L 667.71847 494.95267 
L 674.508736 489.156429 
L 681.299003 496.663625 
L 688.089269 489.343358 
L 694.879535 490.978943 
L 701.669801 497.542753 
L 708.460068 483.741702 
L 715.250334 493.314542 
L 722.0406 510.778802 
L 728.830867 472.216486 
L 735.621133 480.054481 
L 742.411399 510.886434 
L 749.201666 503.494387 
L 755.991932 490.345718 
" clip-path="url(#p3fc11d3d07)" style="fill: none; stroke: #1f77b4; stroke-width: 1.5; stroke-linecap: square"/>
   </g>
   <g id="line2d_38">
    <path d="M 83.755568 468.963525 
L 90.545834 476.905687 
L 97.336101 480.367764 
L 104.126367 472.172025 
L 110.916633 475.275809 
L 117.7069 489.699971 
L 124.497166 492.540991 
L 131.287432 485.606147 
L 138.077699 489.135763 
L 144.867965 483.136041 
L 151.658231 505.471251 
L 158.448497 496.309445 
L 165.238764 490.317768 
L 172.02903 505.558757 
L 178.819296 499.444787 
L 185.609563 493.774448 
L 192.399829 477.44793 
L 199.190095 510.028795 
L 205.980362 501.618384 
L 212.770628 499.622912 
L 219.560894 496.482154 
L 226.35116 491.927282 
L 233.141427 451.773303 
L 239.931693 492.220679 
L 246.721959 464.964114 
L 253.512226 486.306591 
L 260.302492 502.591194 
L 267.092758 495.111447 
L 273.883025 504.289674 
L 280.673291 477.153081 
L 287.463557 489.275805 
L 294.253823 503.086471 
L 301.04409 495.953205 
L 307.834356 490.700993 
L 314.624622 478.814344 
L 321.414889 484.643746 
L 328.205155 488.808802 
L 334.995421 507.798173 
L 341.785688 499.160686 
L 348.575954 505.832185 
L 355.36622 484.694636 
L 362.156486 497.22683 
L 368.946753 490.175187 
L 375.737019 504.326111 
L 382.527285 490.246548 
L 389.317552 485.733683 
L 396.107818 513.93751 
L 402.898084 511.521463 
L 409.688351 478.037929 
L 416.478617 513.69829 
L 423.268883 503.161725 
L 430.059149 502.407999 
L 436.849416 467.073287 
L 443.639682 500.690399 
L 450.429948 481.719127 
L 457.220215 513.808716 
L 464.010481 491.696498 
L 470.800747 477.834607 
L 477.591014 487.810881 
L 484.38128 512.641941 
L 491.171546 501.825299 
L 497.961812 468.076983 
L 504.752079 486.986143 
L 511.542345 517.252244 
L 518.332611 514.365649 
L 525.122878 484.138344 
L 531.913144 509.655468 
L 538.70341 500.531952 
L 545.493677 480.815705 
L 552.283943 504.657894 
L 559.074209 500.884541 
L 565.864475 502.40635 
L 572.654742 470.590585 
L 579.445008 488.139005 
L 586.235274 507.664034 
L 593.025541 509.512903 
L 599.815807 504.554377 
L 606.606073 495.082657 
L 613.39634 509.085875 
L 620.186606 483.063016 
L 626.976872 483.877416 
L 633.767138 511.494228 
L 640.557405 499.186309 
L 647.347671 401.140492 
L 654.137937 509.233681 
L 660.928204 485.802662 
L 667.71847 502.051716 
L 674.508736 467.924198 
L 681.299003 496.840894 
L 688.089269 480.687232 
L 694.879535 494.790625 
L 701.669801 482.967089 
L 708.460068 475.900091 
L 715.250334 500.307888 
L 722.0406 504.878067 
L 728.830867 499.220131 
L 735.621133 459.348836 
L 742.411399 478.787472 
L 749.201666 484.391385 
L 755.991932 489.174542 
" clip-path="url(#p3fc11d3d07)" style="fill: none; stroke: #ff7f0e; stroke-width: 1.5; stroke-linecap: square"/>
   </g>
   <g id="line2d_39">
    <path d="M 83.755568 471.388839 
L 90.545834 482.297758 
L 97.336101 475.221723 
L 104.126367 480.947107 
L 110.916633 495.890848 
L 117.7069 486.631844 
L 124.497166 494.58409 
L 131.287432 491.92023 
L 138.077699 461.154211 
L 144.867965 496.005216 
L 151.658231 506.938098 
L 158.448497 491.22411 
L 165.238764 475.083088 
L 172.02903 509.182703 
L 178.819296 493.043752 
L 185.609563 465.15319 
L 192.399829 488.669407 
L 199.190095 507.660178 
L 205.980362 504.223866 
L 212.770628 483.18957 
L 219.560894 511.156972 
L 226.35116 495.429572 
L 233.141427 484.904835 
L 239.931693 517.036425 
L 246.721959 496.924213 
L 253.512226 494.471182 
L 260.302492 476.017493 
L 267.092758 493.172484 
L 273.883025 477.543359 
L 280.673291 488.880248 
L 287.463557 513.013847 
L 294.253823 512.81125 
L 301.04409 503.572419 
L 307.834356 482.427891 
L 314.624622 498.207177 
L 321.414889 482.548817 
L 328.205155 514.214475 
L 334.995421 501.976397 
L 341.785688 504.017827 
L 348.575954 499.191771 
L 355.36622 467.702784 
L 362.156486 487.840789 
L 368.946753 499.523936 
L 375.737019 489.520516 
L 382.527285 511.747213 
L 389.317552 501.514376 
L 396.107818 470.017512 
L 402.898084 529.161818 
L 409.688351 480.881507 
L 416.478617 518.911679 
L 423.268883 494.168936 
L 430.059149 484.896353 
L 436.849416 501.780293 
L 443.639682 461.890893 
L 450.429948 505.07857 
L 457.220215 471.778053 
L 464.010481 522.369248 
L 470.800747 492.449534 
L 477.591014 461.144807 
L 484.38128 488.896043 
L 491.171546 504.425107 
L 497.961812 493.931172 
L 504.752079 479.667586 
L 511.542345 499.789615 
L 518.332611 480.799971 
L 525.122878 494.559512 
L 531.913144 504.368037 
L 538.70341 467.176504 
L 545.493677 492.61674 
L 552.283943 486.554459 
L 559.074209 495.940729 
L 565.864475 485.644134 
L 572.654742 498.385574 
L 579.445008 478.484975 
L 586.235274 507.388109 
L 593.025541 493.237994 
L 599.815807 493.129632 
L 606.606073 475.236518 
L 613.39634 510.299771 
L 620.186606 489.83858 
L 626.976872 496.517017 
L 633.767138 507.807713 
L 640.557405 494.628705 
L 647.347671 485.217078 
L 654.137937 498.445295 
L 660.928204 482.237094 
L 667.71847 510.323522 
L 674.508736 502.233563 
L 681.299003 501.131857 
L 688.089269 485.121631 
L 694.879535 510.237388 
L 701.669801 485.288872 
L 708.460068 513.498736 
L 715.250334 507.134495 
L 722.0406 494.433911 
L 728.830867 495.579586 
L 735.621133 472.215261 
L 742.411399 493.153832 
L 749.201666 509.174247 
L 755.991932 485.521857 
" clip-path="url(#p3fc11d3d07)" style="fill: none; stroke: #2ca02c; stroke-width: 1.5; stroke-linecap: square"/>
   </g>
   <g id="line2d_40">
    <path d="M 83.755568 474.615652 
L 90.545834 481.416851 
L 97.336101 483.790707 
L 104.126367 507.562885 
L 110.916633 507.225593 
L 117.7069 478.468014 
L 124.497166 516.178711 
L 131.287432 483.736146 
L 138.077699 509.360144 
L 144.867965 461.570212 
L 151.658231 518.301228 
L 158.448497 502.710821 
L 165.238764 462.885469 
L 172.02903 521.452697 
L 178.819296 494.996846 
L 185.609563 456.280539 
L 192.399829 509.881435 
L 199.190095 486.028234 
L 205.980362 500.373046 
L 212.770628 426.578786 
L 219.560894 520.646155 
L 226.35116 487.992836 
L 233.141427 506.535216 
L 239.931693 468.176204 
L 246.721959 512.123402 
L 253.512226 502.948616 
L 260.302492 462.033785 
L 267.092758 502.459762 
L 273.883025 462.17846 
L 280.673291 496.568111 
L 287.463557 445.450908 
L 294.253823 513.203511 
L 301.04409 498.607422 
L 307.834356 516.719996 
L 314.624622 510.643095 
L 321.414889 454.367144 
L 328.205155 515.916266 
L 334.995421 496.255027 
L 341.785688 423.179414 
L 348.575954 495.768625 
L 355.36622 474.175517 
L 362.156486 508.416923 
L 368.946753 500.20476 
L 375.737019 425.310135 
L 382.527285 490.74875 
L 389.317552 382.434559 
L 396.107818 476.617969 
L 402.898084 491.878029 
L 409.688351 427.580681 
L 416.478617 463.025682 
L 423.268883 499.902367 
L 430.059149 486.805047 
L 436.849416 496.789337 
L 443.639682 380.628225 
L 450.429948 462.279355 
L 457.220215 497.609504 
L 464.010481 501.380952 
L 470.800747 437.008117 
L 477.591014 421.957262 
L 484.38128 477.687033 
L 491.171546 497.558221 
L 497.961812 433.251244 
L 504.752079 493.589218 
L 511.542345 322.08599 
L 518.332611 453.337662 
L 525.122878 508.489968 
L 531.913144 453.167298 
L 538.70341 493.771004 
L 545.493677 432.773708 
L 552.283943 461.12984 
L 559.074209 474.380243 
L 565.864475 513.956788 
L 572.654742 473.261189 
L 579.445008 496.881065 
L 586.235274 466.015068 
L 593.025541 487.010618 
L 599.815807 507.973434 
L 606.606073 512.012703 
L 613.39634 502.66421 
L 620.186606 386.873167 
L 626.976872 476.204853 
L 633.767138 500.349182 
L 640.557405 459.076952 
L 647.347671 460.945516 
L 654.137937 493.306101 
L 660.928204 473.91952 
L 667.71847 456.287714 
L 674.508736 427.173457 
L 681.299003 480.676612 
L 688.089269 489.593359 
L 694.879535 472.949973 
L 701.669801 491.382328 
L 708.460068 489.228363 
L 715.250334 472.421577 
L 722.0406 501.109241 
L 728.830867 498.11979 
L 735.621133 454.791079 
L 742.411399 502.514226 
L 749.201666 462.18226 
L 755.991932 467.33353 
" clip-path="url(#p3fc11d3d07)" style="fill: none; stroke: #d62728; stroke-width: 1.5; stroke-linecap: square"/>
   </g>
   <g id="line2d_41">
    <path d="M 83.755568 469.668265 
L 90.545834 503.475286 
L 97.336101 475.918131 
L 104.126367 511.059069 
L 110.916633 374.119772 
L 117.7069 424.297209 
L 124.497166 482.223872 
L 131.287432 524.584969 
L 138.077699 454.472727 
L 144.867965 488.646897 
L 151.658231 520.196093 
L 158.448497 485.681192 
L 165.238764 506.315534 
L 172.02903 484.769853 
L 178.819296 522.212815 
L 185.609563 528.365427 
L 192.399829 512.624232 
L 199.190095 477.732347 
L 205.980362 503.122605 
L 212.770628 509.230267 
L 219.560894 476.895952 
L 226.35116 517.972257 
L 233.141427 505.119597 
L 239.931693 458.716951 
L 246.721959 508.073154 
L 253.512226 467.224147 
L 260.302492 488.581707 
L 267.092758 490.786136 
L 273.883025 492.958681 
L 280.673291 417.90685 
L 287.463557 455.433684 
L 294.253823 455.705524 
L 301.04409 490.675963 
L 307.834356 453.710225 
L 314.624622 496.579156 
L 321.414889 475.118016 
L 328.205155 501.372412 
L 334.995421 487.880969 
L 341.785688 505.548732 
L 348.575954 489.254215 
L 355.36622 493.755498 
L 362.156486 490.299302 
L 368.946753 469.41613 
L 375.737019 497.175539 
L 382.527285 455.743257 
L 389.317552 454.696888 
L 396.107818 495.866375 
L 402.898084 438.623167 
L 409.688351 464.926198 
L 416.478617 517.63869 
L 423.268883 471.361566 
L 430.059149 476.968027 
L 436.849416 505.936196 
L 443.639682 500.946081 
L 450.429948 478.349427 
L 457.220215 512.134253 
L 464.010481 493.736083 
L 470.800747 442.867803 
L 477.591014 477.64197 
L 484.38128 518.553995 
L 491.171546 510.314991 
L 497.961812 483.408676 
L 504.752079 509.22412 
L 511.542345 482.993125 
L 518.332611 517.156892 
L 525.122878 486.034124 
L 531.913144 514.557684 
L 538.70341 491.527565 
L 545.493677 518.911463 
L 552.283943 503.057217 
L 559.074209 425.378912 
L 565.864475 497.157791 
L 572.654742 418.354101 
L 579.445008 507.434089 
L 586.235274 436.411 
L 593.025541 502.546066 
L 599.815807 454.102817 
L 606.606073 491.71401 
L 613.39634 301.198182 
L 620.186606 474.693292 
L 626.976872 491.791869 
L 633.767138 363.214384 
L 640.557405 470.599407 
L 647.347671 475.036625 
L 654.137937 464.500562 
L 660.928204 502.485182 
L 667.71847 511.739615 
L 674.508736 471.958039 
L 681.299003 462.128531 
L 688.089269 506.195137 
L 694.879535 457.702434 
L 701.669801 494.885521 
L 708.460068 472.246435 
L 715.250334 484.395596 
L 722.0406 522.532939 
L 728.830867 478.294013 
L 735.621133 486.962773 
L 742.411399 518.615884 
L 749.201666 457.153768 
L 755.991932 501.794866 
" clip-path="url(#p3fc11d3d07)" style="fill: none; stroke: #9467bd; stroke-width: 1.5; stroke-linecap: square"/>
   </g>
   <g id="patch_9">
    <path d="M 50.14375 540.56 
L 50.14375 289.8 
" style="fill: none; stroke: #000000; stroke-width: 0.8; stroke-linejoin: miter; stroke-linecap: square"/>
   </g>
   <g id="patch_10">
    <path d="M 789.60375 540.56 
L 789.60375 289.8 
" style="fill: none; stroke: #000000; stroke-width: 0.8; stroke-linejoin: miter; stroke-linecap: square"/>
   </g>
   <g id="patch_11">
    <path d="M 50.14375 540.56 
L 789.60375 540.56 
" style="fill: none; stroke: #000000; stroke-width: 0.8; stroke-linejoin: miter; stroke-linecap: square"/>
   </g>
   <g id="patch_12">
    <path d="M 50.14375 289.8 
L 789.60375 289.8 
" style="fill: none; stroke: #000000; stroke-width: 0.8; stroke-linejoin: miter; stroke-linecap: square"/>
   </g>
   <g id="legend_2">
    <g id="patch_13">
     <path d="M 57.14375 312.478125 
L 398.834375 312.478125 
Q 400.834375 312.478125 400.834375 310.478125 
L 400.834375 296.8 
Q 400.834375 294.8 398.834375 294.8 
L 57.14375 294.8 
Q 55.14375 294.8 55.14375 296.8 
L 55.14375 310.478125 
Q 55.14375 312.478125 57.14375 312.478125 
z
" style="fill: #ffffff; opacity: 0.8; stroke: #cccccc; stroke-linejoin: miter"/>
    </g>
    <g id="line2d_42">
     <path d="M 59.14375 302.898438 
L 69.14375 302.898438 
L 79.14375 302.898438 
" style="fill: none; stroke: #1f77b4; stroke-width: 1.5; stroke-linecap: square"/>
    </g>
    <g id="text_36">
     <!-- 0.001 -->
     <g transform="translate(87.14375 306.398438) scale(0.1 -0.1)">
      <use xlink:href="#DejaVuSans-30"/>
      <use xlink:href="#DejaVuSans-2e" x="63.623047"/>
      <use xlink:href="#DejaVuSans-30" x="95.410156"/>
      <use xlink:href="#DejaVuSans-30" x="159.033203"/>
      <use xlink:href="#DejaVuSans-31" x="222.65625"/>
     </g>
    </g>
    <g id="line2d_43">
     <path d="M 135.771875 302.898438 
L 145.771875 302.898438 
L 155.771875 302.898438 
" style="fill: none; stroke: #ff7f0e; stroke-width: 1.5; stroke-linecap: square"/>
    </g>
    <g id="text_37">
     <!-- 0.005 -->
     <g transform="translate(163.771875 306.398438) scale(0.1 -0.1)">
      <use xlink:href="#DejaVuSans-30"/>
      <use xlink:href="#DejaVuSans-2e" x="63.623047"/>
      <use xlink:href="#DejaVuSans-30" x="95.410156"/>
      <use xlink:href="#DejaVuSans-30" x="159.033203"/>
      <use xlink:href="#DejaVuSans-35" x="222.65625"/>
     </g>
    </g>
    <g id="line2d_44">
     <path d="M 212.4 302.898438 
L 222.4 302.898438 
L 232.4 302.898438 
" style="fill: none; stroke: #2ca02c; stroke-width: 1.5; stroke-linecap: square"/>
    </g>
    <g id="text_38">
     <!-- 0.01 -->
     <g transform="translate(240.4 306.398438) scale(0.1 -0.1)">
      <use xlink:href="#DejaVuSans-30"/>
      <use xlink:href="#DejaVuSans-2e" x="63.623047"/>
      <use xlink:href="#DejaVuSans-30" x="95.410156"/>
      <use xlink:href="#DejaVuSans-31" x="159.033203"/>
     </g>
    </g>
    <g id="line2d_45">
     <path d="M 282.665625 302.898438 
L 292.665625 302.898438 
L 302.665625 302.898438 
" style="fill: none; stroke: #d62728; stroke-width: 1.5; stroke-linecap: square"/>
    </g>
    <g id="text_39">
     <!-- 0.05 -->
     <g transform="translate(310.665625 306.398438) scale(0.1 -0.1)">
      <use xlink:href="#DejaVuSans-30"/>
      <use xlink:href="#DejaVuSans-2e" x="63.623047"/>
      <use xlink:href="#DejaVuSans-30" x="95.410156"/>
      <use xlink:href="#DejaVuSans-35" x="159.033203"/>
     </g>
    </g>
    <g id="line2d_46">
     <path d="M 352.93125 302.898438 
L 362.93125 302.898438 
L 372.93125 302.898438 
" style="fill: none; stroke: #9467bd; stroke-width: 1.5; stroke-linecap: square"/>
    </g>
    <g id="text_40">
     <!-- 0.1 -->
     <g transform="translate(380.93125 306.398438) scale(0.1 -0.1)">
      <use xlink:href="#DejaVuSans-30"/>
      <use xlink:href="#DejaVuSans-2e" x="63.623047"/>
      <use xlink:href="#DejaVuSans-31" x="95.410156"/>
     </g>
    </g>
   </g>
  </g>
 </g>
 <defs>
  <clipPath id="p91f3294464">
   <rect x="50.14375" y="7.2" width="739.46" height="250.76"/>
  </clipPath>
  <clipPath id="p3fc11d3d07">
   <rect x="50.14375" y="289.8" width="739.46" height="250.76"/>
  </clipPath>
 </defs>
</svg>
