<?xml version="1.0" encoding="utf-8" standalone="no"?>
<!DOCTYPE svg PUBLIC "-//W3C//DTD SVG 1.1//EN"
  "http://www.w3.org/Graphics/SVG/1.1/DTD/svg11.dtd">
<svg xmlns:xlink="http://www.w3.org/1999/xlink" width="868.80375pt" height="434.11625pt" viewBox="0 0 868.80375 434.11625" xmlns="http://www.w3.org/2000/svg" version="1.1">
 <metadata>
  <rdf:RDF xmlns:dc="http://purl.org/dc/elements/1.1/" xmlns:cc="http://creativecommons.org/ns#" xmlns:rdf="http://www.w3.org/1999/02/22-rdf-syntax-ns#">
   <cc:Work>
    <dc:type rdf:resource="http://purl.org/dc/dcmitype/StillImage"/>
    <dc:date>2023-03-26T19:22:25.724799</dc:date>
    <dc:format>image/svg+xml</dc:format>
    <dc:creator>
     <cc:Agent>
      <dc:title>Matplotlib v3.6.1, https://matplotlib.org/</dc:title>
     </cc:Agent>
    </dc:creator>
   </cc:Work>
  </rdf:RDF>
 </metadata>
 <defs>
  <style type="text/css">*{stroke-linejoin: round; stroke-linecap: butt}</style>
 </defs>
 <g id="figure_1">
  <g id="patch_1">
   <path d="M 0 434.11625 
L 868.80375 434.11625 
L 868.80375 0 
L 0 0 
z
" style="fill: #ffffff"/>
  </g>
  <g id="axes_1">
   <g id="patch_2">
    <path d="M 50.14375 396.56 
L 861.60375 396.56 
L 861.60375 7.2 
L 50.14375 7.2 
z
" style="fill: #ffffff"/>
   </g>
   <g id="matplotlib.axis_1">
    <g id="xtick_1">
     <g id="line2d_1">
      <defs>
       <path id="m4d1fc7b1b6" d="M 0 0 
L 0 3.5 
" style="stroke: #000000; stroke-width: 0.8"/>
      </defs>
      <g>
       <use xlink:href="#m4d1fc7b1b6" x="79.576872" y="396.56" style="stroke: #000000; stroke-width: 0.8"/>
      </g>
     </g>
     <g id="text_1">
      <!-- 0 -->
      <g transform="translate(76.395622 411.158437) scale(0.1 -0.1)">
       <defs>
        <path id="DejaVuSans-30" d="M 2034 4250 
Q 1547 4250 1301 3770 
Q 1056 3291 1056 2328 
Q 1056 1369 1301 889 
Q 1547 409 2034 409 
Q 2525 409 2770 889 
Q 3016 1369 3016 2328 
Q 3016 3291 2770 3770 
Q 2525 4250 2034 4250 
z
M 2034 4750 
Q 2819 4750 3233 4129 
Q 3647 3509 3647 2328 
Q 3647 1150 3233 529 
Q 2819 -91 2034 -91 
Q 1250 -91 836 529 
Q 422 1150 422 2328 
Q 422 3509 836 4129 
Q 1250 4750 2034 4750 
z
" transform="scale(0.015625)"/>
       </defs>
       <use xlink:href="#DejaVuSans-30"/>
      </g>
     </g>
    </g>
    <g id="xtick_2">
     <g id="line2d_2">
      <g>
       <use xlink:href="#m4d1fc7b1b6" x="228.605339" y="396.56" style="stroke: #000000; stroke-width: 0.8"/>
      </g>
     </g>
     <g id="text_2">
      <!-- 20 -->
      <g transform="translate(222.242839 411.158437) scale(0.1 -0.1)">
       <defs>
        <path id="DejaVuSans-32" d="M 1228 531 
L 3431 531 
L 3431 0 
L 469 0 
L 469 531 
Q 828 903 1448 1529 
Q 2069 2156 2228 2338 
Q 2531 2678 2651 2914 
Q 2772 3150 2772 3378 
Q 2772 3750 2511 3984 
Q 2250 4219 1831 4219 
Q 1534 4219 1204 4116 
Q 875 4013 500 3803 
L 500 4441 
Q 881 4594 1212 4672 
Q 1544 4750 1819 4750 
Q 2544 4750 2975 4387 
Q 3406 4025 3406 3419 
Q 3406 3131 3298 2873 
Q 3191 2616 2906 2266 
Q 2828 2175 2409 1742 
Q 1991 1309 1228 531 
z
" transform="scale(0.015625)"/>
       </defs>
       <use xlink:href="#DejaVuSans-32"/>
       <use xlink:href="#DejaVuSans-30" x="63.623047"/>
      </g>
     </g>
    </g>
    <g id="xtick_3">
     <g id="line2d_3">
      <g>
       <use xlink:href="#m4d1fc7b1b6" x="377.633805" y="396.56" style="stroke: #000000; stroke-width: 0.8"/>
      </g>
     </g>
     <g id="text_3">
      <!-- 40 -->
      <g transform="translate(371.271305 411.158437) scale(0.1 -0.1)">
       <defs>
        <path id="DejaVuSans-34" d="M 2419 4116 
L 825 1625 
L 2419 1625 
L 2419 4116 
z
M 2253 4666 
L 3047 4666 
L 3047 1625 
L 3713 1625 
L 3713 1100 
L 3047 1100 
L 3047 0 
L 2419 0 
L 2419 1100 
L 313 1100 
L 313 1709 
L 2253 4666 
z
" transform="scale(0.015625)"/>
       </defs>
       <use xlink:href="#DejaVuSans-34"/>
       <use xlink:href="#DejaVuSans-30" x="63.623047"/>
      </g>
     </g>
    </g>
    <g id="xtick_4">
     <g id="line2d_4">
      <g>
       <use xlink:href="#m4d1fc7b1b6" x="526.662272" y="396.56" style="stroke: #000000; stroke-width: 0.8"/>
      </g>
     </g>
     <g id="text_4">
      <!-- 60 -->
      <g transform="translate(520.299772 411.158437) scale(0.1 -0.1)">
       <defs>
        <path id="DejaVuSans-36" d="M 2113 2584 
Q 1688 2584 1439 2293 
Q 1191 2003 1191 1497 
Q 1191 994 1439 701 
Q 1688 409 2113 409 
Q 2538 409 2786 701 
Q 3034 994 3034 1497 
Q 3034 2003 2786 2293 
Q 2538 2584 2113 2584 
z
M 3366 4563 
L 3366 3988 
Q 3128 4100 2886 4159 
Q 2644 4219 2406 4219 
Q 1781 4219 1451 3797 
Q 1122 3375 1075 2522 
Q 1259 2794 1537 2939 
Q 1816 3084 2150 3084 
Q 2853 3084 3261 2657 
Q 3669 2231 3669 1497 
Q 3669 778 3244 343 
Q 2819 -91 2113 -91 
Q 1303 -91 875 529 
Q 447 1150 447 2328 
Q 447 3434 972 4092 
Q 1497 4750 2381 4750 
Q 2619 4750 2861 4703 
Q 3103 4656 3366 4563 
z
" transform="scale(0.015625)"/>
       </defs>
       <use xlink:href="#DejaVuSans-36"/>
       <use xlink:href="#DejaVuSans-30" x="63.623047"/>
      </g>
     </g>
    </g>
    <g id="xtick_5">
     <g id="line2d_5">
      <g>
       <use xlink:href="#m4d1fc7b1b6" x="675.690738" y="396.56" style="stroke: #000000; stroke-width: 0.8"/>
      </g>
     </g>
     <g id="text_5">
      <!-- 80 -->
      <g transform="translate(669.328238 411.158437) scale(0.1 -0.1)">
       <defs>
        <path id="DejaVuSans-38" d="M 2034 2216 
Q 1584 2216 1326 1975 
Q 1069 1734 1069 1313 
Q 1069 891 1326 650 
Q 1584 409 2034 409 
Q 2484 409 2743 651 
Q 3003 894 3003 1313 
Q 3003 1734 2745 1975 
Q 2488 2216 2034 2216 
z
M 1403 2484 
Q 997 2584 770 2862 
Q 544 3141 544 3541 
Q 544 4100 942 4425 
Q 1341 4750 2034 4750 
Q 2731 4750 3128 4425 
Q 3525 4100 3525 3541 
Q 3525 3141 3298 2862 
Q 3072 2584 2669 2484 
Q 3125 2378 3379 2068 
Q 3634 1759 3634 1313 
Q 3634 634 3220 271 
Q 2806 -91 2034 -91 
Q 1263 -91 848 271 
Q 434 634 434 1313 
Q 434 1759 690 2068 
Q 947 2378 1403 2484 
z
M 1172 3481 
Q 1172 3119 1398 2916 
Q 1625 2713 2034 2713 
Q 2441 2713 2670 2916 
Q 2900 3119 2900 3481 
Q 2900 3844 2670 4047 
Q 2441 4250 2034 4250 
Q 1625 4250 1398 4047 
Q 1172 3844 1172 3481 
z
" transform="scale(0.015625)"/>
       </defs>
       <use xlink:href="#DejaVuSans-38"/>
       <use xlink:href="#DejaVuSans-30" x="63.623047"/>
      </g>
     </g>
    </g>
    <g id="xtick_6">
     <g id="line2d_6">
      <g>
       <use xlink:href="#m4d1fc7b1b6" x="824.719205" y="396.56" style="stroke: #000000; stroke-width: 0.8"/>
      </g>
     </g>
     <g id="text_6">
      <!-- 100 -->
      <g transform="translate(815.175455 411.158437) scale(0.1 -0.1)">
       <defs>
        <path id="DejaVuSans-31" d="M 794 531 
L 1825 531 
L 1825 4091 
L 703 3866 
L 703 4441 
L 1819 4666 
L 2450 4666 
L 2450 531 
L 3481 531 
L 3481 0 
L 794 0 
L 794 531 
z
" transform="scale(0.015625)"/>
       </defs>
       <use xlink:href="#DejaVuSans-31"/>
       <use xlink:href="#DejaVuSans-30" x="63.623047"/>
       <use xlink:href="#DejaVuSans-30" x="127.246094"/>
      </g>
     </g>
    </g>
    <g id="text_7">
     <!-- interation -->
     <g transform="translate(431.582344 424.836562) scale(0.1 -0.1)">
      <defs>
       <path id="DejaVuSans-69" d="M 603 3500 
L 1178 3500 
L 1178 0 
L 603 0 
L 603 3500 
z
M 603 4863 
L 1178 4863 
L 1178 4134 
L 603 4134 
L 603 4863 
z
" transform="scale(0.015625)"/>
       <path id="DejaVuSans-6e" d="M 3513 2113 
L 3513 0 
L 2938 0 
L 2938 2094 
Q 2938 2591 2744 2837 
Q 2550 3084 2163 3084 
Q 1697 3084 1428 2787 
Q 1159 2491 1159 1978 
L 1159 0 
L 581 0 
L 581 3500 
L 1159 3500 
L 1159 2956 
Q 1366 3272 1645 3428 
Q 1925 3584 2291 3584 
Q 2894 3584 3203 3211 
Q 3513 2838 3513 2113 
z
" transform="scale(0.015625)"/>
       <path id="DejaVuSans-74" d="M 1172 4494 
L 1172 3500 
L 2356 3500 
L 2356 3053 
L 1172 3053 
L 1172 1153 
Q 1172 725 1289 603 
Q 1406 481 1766 481 
L 2356 481 
L 2356 0 
L 1766 0 
Q 1100 0 847 248 
Q 594 497 594 1153 
L 594 3053 
L 172 3053 
L 172 3500 
L 594 3500 
L 594 4494 
L 1172 4494 
z
" transform="scale(0.015625)"/>
       <path id="DejaVuSans-65" d="M 3597 1894 
L 3597 1613 
L 953 1613 
Q 991 1019 1311 708 
Q 1631 397 2203 397 
Q 2534 397 2845 478 
Q 3156 559 3463 722 
L 3463 178 
Q 3153 47 2828 -22 
Q 2503 -91 2169 -91 
Q 1331 -91 842 396 
Q 353 884 353 1716 
Q 353 2575 817 3079 
Q 1281 3584 2069 3584 
Q 2775 3584 3186 3129 
Q 3597 2675 3597 1894 
z
M 3022 2063 
Q 3016 2534 2758 2815 
Q 2500 3097 2075 3097 
Q 1594 3097 1305 2825 
Q 1016 2553 972 2059 
L 3022 2063 
z
" transform="scale(0.015625)"/>
       <path id="DejaVuSans-72" d="M 2631 2963 
Q 2534 3019 2420 3045 
Q 2306 3072 2169 3072 
Q 1681 3072 1420 2755 
Q 1159 2438 1159 1844 
L 1159 0 
L 581 0 
L 581 3500 
L 1159 3500 
L 1159 2956 
Q 1341 3275 1631 3429 
Q 1922 3584 2338 3584 
Q 2397 3584 2469 3576 
Q 2541 3569 2628 3553 
L 2631 2963 
z
" transform="scale(0.015625)"/>
       <path id="DejaVuSans-61" d="M 2194 1759 
Q 1497 1759 1228 1600 
Q 959 1441 959 1056 
Q 959 750 1161 570 
Q 1363 391 1709 391 
Q 2188 391 2477 730 
Q 2766 1069 2766 1631 
L 2766 1759 
L 2194 1759 
z
M 3341 1997 
L 3341 0 
L 2766 0 
L 2766 531 
Q 2569 213 2275 61 
Q 1981 -91 1556 -91 
Q 1019 -91 701 211 
Q 384 513 384 1019 
Q 384 1609 779 1909 
Q 1175 2209 1959 2209 
L 2766 2209 
L 2766 2266 
Q 2766 2663 2505 2880 
Q 2244 3097 1772 3097 
Q 1472 3097 1187 3025 
Q 903 2953 641 2809 
L 641 3341 
Q 956 3463 1253 3523 
Q 1550 3584 1831 3584 
Q 2591 3584 2966 3190 
Q 3341 2797 3341 1997 
z
" transform="scale(0.015625)"/>
       <path id="DejaVuSans-6f" d="M 1959 3097 
Q 1497 3097 1228 2736 
Q 959 2375 959 1747 
Q 959 1119 1226 758 
Q 1494 397 1959 397 
Q 2419 397 2687 759 
Q 2956 1122 2956 1747 
Q 2956 2369 2687 2733 
Q 2419 3097 1959 3097 
z
M 1959 3584 
Q 2709 3584 3137 3096 
Q 3566 2609 3566 1747 
Q 3566 888 3137 398 
Q 2709 -91 1959 -91 
Q 1206 -91 779 398 
Q 353 888 353 1747 
Q 353 2609 779 3096 
Q 1206 3584 1959 3584 
z
" transform="scale(0.015625)"/>
      </defs>
      <use xlink:href="#DejaVuSans-69"/>
      <use xlink:href="#DejaVuSans-6e" x="27.783203"/>
      <use xlink:href="#DejaVuSans-74" x="91.162109"/>
      <use xlink:href="#DejaVuSans-65" x="130.371094"/>
      <use xlink:href="#DejaVuSans-72" x="191.894531"/>
      <use xlink:href="#DejaVuSans-61" x="233.007812"/>
      <use xlink:href="#DejaVuSans-74" x="294.287109"/>
      <use xlink:href="#DejaVuSans-69" x="333.496094"/>
      <use xlink:href="#DejaVuSans-6f" x="361.279297"/>
      <use xlink:href="#DejaVuSans-6e" x="422.460938"/>
     </g>
    </g>
   </g>
   <g id="matplotlib.axis_2">
    <g id="ytick_1">
     <g id="line2d_7">
      <defs>
       <path id="m048a23f52a" d="M 0 0 
L -3.5 0 
" style="stroke: #000000; stroke-width: 0.8"/>
      </defs>
      <g>
       <use xlink:href="#m048a23f52a" x="50.14375" y="381.801524" style="stroke: #000000; stroke-width: 0.8"/>
      </g>
     </g>
     <g id="text_8">
      <!-- 0.0 -->
      <g transform="translate(27.240625 385.600743) scale(0.1 -0.1)">
       <defs>
        <path id="DejaVuSans-2e" d="M 684 794 
L 1344 794 
L 1344 0 
L 684 0 
L 684 794 
z
" transform="scale(0.015625)"/>
       </defs>
       <use xlink:href="#DejaVuSans-30"/>
       <use xlink:href="#DejaVuSans-2e" x="63.623047"/>
       <use xlink:href="#DejaVuSans-30" x="95.410156"/>
      </g>
     </g>
    </g>
    <g id="ytick_2">
     <g id="line2d_8">
      <g>
       <use xlink:href="#m048a23f52a" x="50.14375" y="329.943403" style="stroke: #000000; stroke-width: 0.8"/>
      </g>
     </g>
     <g id="text_9">
      <!-- 2.5 -->
      <g transform="translate(27.240625 333.742621) scale(0.1 -0.1)">
       <defs>
        <path id="DejaVuSans-35" d="M 691 4666 
L 3169 4666 
L 3169 4134 
L 1269 4134 
L 1269 2991 
Q 1406 3038 1543 3061 
Q 1681 3084 1819 3084 
Q 2600 3084 3056 2656 
Q 3513 2228 3513 1497 
Q 3513 744 3044 326 
Q 2575 -91 1722 -91 
Q 1428 -91 1123 -41 
Q 819 9 494 109 
L 494 744 
Q 775 591 1075 516 
Q 1375 441 1709 441 
Q 2250 441 2565 725 
Q 2881 1009 2881 1497 
Q 2881 1984 2565 2268 
Q 2250 2553 1709 2553 
Q 1456 2553 1204 2497 
Q 953 2441 691 2322 
L 691 4666 
z
" transform="scale(0.015625)"/>
       </defs>
       <use xlink:href="#DejaVuSans-32"/>
       <use xlink:href="#DejaVuSans-2e" x="63.623047"/>
       <use xlink:href="#DejaVuSans-35" x="95.410156"/>
      </g>
     </g>
    </g>
    <g id="ytick_3">
     <g id="line2d_9">
      <g>
       <use xlink:href="#m048a23f52a" x="50.14375" y="278.085281" style="stroke: #000000; stroke-width: 0.8"/>
      </g>
     </g>
     <g id="text_10">
      <!-- 5.0 -->
      <g transform="translate(27.240625 281.8845) scale(0.1 -0.1)">
       <use xlink:href="#DejaVuSans-35"/>
       <use xlink:href="#DejaVuSans-2e" x="63.623047"/>
       <use xlink:href="#DejaVuSans-30" x="95.410156"/>
      </g>
     </g>
    </g>
    <g id="ytick_4">
     <g id="line2d_10">
      <g>
       <use xlink:href="#m048a23f52a" x="50.14375" y="226.227159" style="stroke: #000000; stroke-width: 0.8"/>
      </g>
     </g>
     <g id="text_11">
      <!-- 7.5 -->
      <g transform="translate(27.240625 230.026378) scale(0.1 -0.1)">
       <defs>
        <path id="DejaVuSans-37" d="M 525 4666 
L 3525 4666 
L 3525 4397 
L 1831 0 
L 1172 0 
L 2766 4134 
L 525 4134 
L 525 4666 
z
" transform="scale(0.015625)"/>
       </defs>
       <use xlink:href="#DejaVuSans-37"/>
       <use xlink:href="#DejaVuSans-2e" x="63.623047"/>
       <use xlink:href="#DejaVuSans-35" x="95.410156"/>
      </g>
     </g>
    </g>
    <g id="ytick_5">
     <g id="line2d_11">
      <g>
       <use xlink:href="#m048a23f52a" x="50.14375" y="174.369038" style="stroke: #000000; stroke-width: 0.8"/>
      </g>
     </g>
     <g id="text_12">
      <!-- 10.0 -->
      <g transform="translate(20.878125 178.168256) scale(0.1 -0.1)">
       <use xlink:href="#DejaVuSans-31"/>
       <use xlink:href="#DejaVuSans-30" x="63.623047"/>
       <use xlink:href="#DejaVuSans-2e" x="127.246094"/>
       <use xlink:href="#DejaVuSans-30" x="159.033203"/>
      </g>
     </g>
    </g>
    <g id="ytick_6">
     <g id="line2d_12">
      <g>
       <use xlink:href="#m048a23f52a" x="50.14375" y="122.510916" style="stroke: #000000; stroke-width: 0.8"/>
      </g>
     </g>
     <g id="text_13">
      <!-- 12.5 -->
      <g transform="translate(20.878125 126.310135) scale(0.1 -0.1)">
       <use xlink:href="#DejaVuSans-31"/>
       <use xlink:href="#DejaVuSans-32" x="63.623047"/>
       <use xlink:href="#DejaVuSans-2e" x="127.246094"/>
       <use xlink:href="#DejaVuSans-35" x="159.033203"/>
      </g>
     </g>
    </g>
    <g id="ytick_7">
     <g id="line2d_13">
      <g>
       <use xlink:href="#m048a23f52a" x="50.14375" y="70.652794" style="stroke: #000000; stroke-width: 0.8"/>
      </g>
     </g>
     <g id="text_14">
      <!-- 15.0 -->
      <g transform="translate(20.878125 74.452013) scale(0.1 -0.1)">
       <use xlink:href="#DejaVuSans-31"/>
       <use xlink:href="#DejaVuSans-35" x="63.623047"/>
       <use xlink:href="#DejaVuSans-2e" x="127.246094"/>
       <use xlink:href="#DejaVuSans-30" x="159.033203"/>
      </g>
     </g>
    </g>
    <g id="ytick_8">
     <g id="line2d_14">
      <g>
       <use xlink:href="#m048a23f52a" x="50.14375" y="18.794673" style="stroke: #000000; stroke-width: 0.8"/>
      </g>
     </g>
     <g id="text_15">
      <!-- 17.5 -->
      <g transform="translate(20.878125 22.593891) scale(0.1 -0.1)">
       <use xlink:href="#DejaVuSans-31"/>
       <use xlink:href="#DejaVuSans-37" x="63.623047"/>
       <use xlink:href="#DejaVuSans-2e" x="127.246094"/>
       <use xlink:href="#DejaVuSans-35" x="159.033203"/>
      </g>
     </g>
    </g>
    <g id="text_16">
     <!-- constraint -->
     <g transform="translate(14.798438 227.059687) rotate(-90) scale(0.1 -0.1)">
      <defs>
       <path id="DejaVuSans-63" d="M 3122 3366 
L 3122 2828 
Q 2878 2963 2633 3030 
Q 2388 3097 2138 3097 
Q 1578 3097 1268 2742 
Q 959 2388 959 1747 
Q 959 1106 1268 751 
Q 1578 397 2138 397 
Q 2388 397 2633 464 
Q 2878 531 3122 666 
L 3122 134 
Q 2881 22 2623 -34 
Q 2366 -91 2075 -91 
Q 1284 -91 818 406 
Q 353 903 353 1747 
Q 353 2603 823 3093 
Q 1294 3584 2113 3584 
Q 2378 3584 2631 3529 
Q 2884 3475 3122 3366 
z
" transform="scale(0.015625)"/>
       <path id="DejaVuSans-73" d="M 2834 3397 
L 2834 2853 
Q 2591 2978 2328 3040 
Q 2066 3103 1784 3103 
Q 1356 3103 1142 2972 
Q 928 2841 928 2578 
Q 928 2378 1081 2264 
Q 1234 2150 1697 2047 
L 1894 2003 
Q 2506 1872 2764 1633 
Q 3022 1394 3022 966 
Q 3022 478 2636 193 
Q 2250 -91 1575 -91 
Q 1294 -91 989 -36 
Q 684 19 347 128 
L 347 722 
Q 666 556 975 473 
Q 1284 391 1588 391 
Q 1994 391 2212 530 
Q 2431 669 2431 922 
Q 2431 1156 2273 1281 
Q 2116 1406 1581 1522 
L 1381 1569 
Q 847 1681 609 1914 
Q 372 2147 372 2553 
Q 372 3047 722 3315 
Q 1072 3584 1716 3584 
Q 2034 3584 2315 3537 
Q 2597 3491 2834 3397 
z
" transform="scale(0.015625)"/>
      </defs>
      <use xlink:href="#DejaVuSans-63"/>
      <use xlink:href="#DejaVuSans-6f" x="54.980469"/>
      <use xlink:href="#DejaVuSans-6e" x="116.162109"/>
      <use xlink:href="#DejaVuSans-73" x="179.541016"/>
      <use xlink:href="#DejaVuSans-74" x="231.640625"/>
      <use xlink:href="#DejaVuSans-72" x="270.849609"/>
      <use xlink:href="#DejaVuSans-61" x="311.962891"/>
      <use xlink:href="#DejaVuSans-69" x="373.242188"/>
      <use xlink:href="#DejaVuSans-6e" x="401.025391"/>
      <use xlink:href="#DejaVuSans-74" x="464.404297"/>
     </g>
    </g>
   </g>
   <g id="line2d_15">
    <path d="M 87.028295 289.038691 
L 94.479719 311.777374 
L 101.931142 303.105782 
L 109.382565 324.925366 
L 116.833989 318.392706 
L 124.285412 321.162652 
L 131.736835 307.30828 
L 139.188259 304.681592 
L 146.639682 300.867641 
L 154.091105 308.34284 
L 161.542529 315.769465 
L 168.993952 317.913681 
L 176.445375 331.318685 
L 183.896799 318.409573 
L 191.348222 329.927132 
L 198.799645 301.627648 
L 206.251069 313.7103 
L 213.702492 322.973216 
L 221.153915 312.850048 
L 228.605339 324.214395 
L 236.056762 322.084833 
L 243.508185 315.690722 
L 250.959609 315.54575 
L 258.411032 339.212089 
L 265.862455 334.284052 
L 273.313879 314.279788 
L 280.765302 327.986986 
L 288.216725 333.642249 
L 295.668149 327.02469 
L 303.119572 303.057957 
L 310.570995 329.647052 
L 318.022419 320.124136 
L 325.473842 294.043806 
L 332.925265 303.8987 
L 340.376688 331.726803 
L 347.828112 311.366009 
L 355.279535 321.897766 
L 362.730958 320.723586 
L 370.182382 328.532406 
L 377.633805 290.711902 
L 385.085228 323.83127 
L 392.536652 321.795728 
L 399.988075 316.171158 
L 407.439498 318.824523 
L 414.890922 324.802624 
L 422.342345 333.303412 
L 429.793768 300.684179 
L 437.245192 321.127231 
L 444.696615 296.972819 
L 452.148038 331.821888 
L 459.599462 322.758004 
L 467.050885 303.681926 
L 474.502308 341.055259 
L 481.953732 321.26263 
L 489.405155 275.065096 
L 496.856578 291.306412 
L 504.308002 347.000525 
L 511.759425 333.397079 
L 519.210848 270.712748 
L 526.662272 335.358699 
L 534.113695 287.72993 
L 541.565118 312.068959 
L 549.016542 328.17065 
L 556.467965 318.324958 
L 563.919388 340.552312 
L 571.370812 321.060666 
L 578.822235 344.039771 
L 586.273658 317.781155 
L 593.725081 335.466955 
L 601.176505 351.724825 
L 608.627928 311.996662 
L 616.079351 344.102119 
L 623.530775 356.687968 
L 630.982198 311.475176 
L 638.433621 323.711966 
L 645.885045 306.001038 
L 653.336468 302.46004 
L 660.787891 327.588417 
L 668.239315 319.763313 
L 675.690738 308.179889 
L 683.142161 336.608659 
L 690.593585 309.96964 
L 698.045008 344.280528 
L 705.496431 347.514541 
L 712.947855 322.626969 
L 720.399278 319.297705 
L 727.850701 325.744598 
L 735.302125 316.744661 
L 742.753548 328.401233 
L 750.204971 317.034909 
L 757.656395 319.574514 
L 765.107818 329.766272 
L 772.559241 308.337107 
L 780.010665 323.201046 
L 787.462088 350.318147 
L 794.913511 290.441677 
L 802.364935 302.611887 
L 809.816358 350.485269 
L 817.267781 339.007492 
L 824.719205 318.591294 
" clip-path="url(#p5eea424c7b)" style="fill: none; stroke: #1f77b4; stroke-width: 1.5; stroke-linecap: square"/>
   </g>
   <g id="line2d_16">
    <path d="M 87.028295 289.156573 
L 94.479719 306.095067 
L 101.931142 295.107968 
L 109.382565 303.997885 
L 116.833989 327.201326 
L 124.285412 312.824688 
L 131.736835 325.172298 
L 139.188259 321.036069 
L 146.639682 273.265065 
L 154.091105 327.378907 
L 161.542529 344.354609 
L 168.993952 319.955191 
L 176.445375 294.892706 
L 183.896799 347.839852 
L 191.348222 322.780584 
L 198.799645 279.474358 
L 206.251069 315.988453 
L 213.702492 345.475797 
L 221.153915 340.140167 
L 228.605339 307.479801 
L 236.056762 350.905339 
L 243.508185 326.485093 
L 250.959609 310.143128 
L 258.411032 360.034481 
L 265.862455 328.805852 
L 273.313879 324.996983 
L 280.765302 296.343576 
L 288.216725 322.980469 
L 295.668149 298.712817 
L 303.119572 316.315829 
L 310.570995 353.788544 
L 318.022419 353.473968 
L 325.473842 339.128654 
L 332.925265 306.297127 
L 340.376688 330.797935 
L 347.828112 306.484892 
L 355.279535 355.652784 
L 362.730958 336.650478 
L 370.182382 339.820247 
L 377.633805 332.326735 
L 385.085228 283.433163 
L 392.536652 314.70184 
L 399.988075 332.842494 
L 407.439498 317.309987 
L 414.890922 351.821817 
L 422.342345 335.933089 
L 429.793768 287.027286 
L 437.245192 378.861818 
L 444.696615 303.896026 
L 452.148038 362.946225 
L 459.599462 324.527679 
L 467.050885 310.129958 
L 474.502308 336.345984 
L 481.953732 274.408925 
L 489.405155 341.467283 
L 496.856578 289.760913 
L 504.308002 368.31486 
L 511.759425 321.857931 
L 519.210848 273.250463 
L 526.662272 316.340354 
L 534.113695 340.452638 
L 541.565118 324.158499 
L 549.016542 302.011147 
L 556.467965 333.255019 
L 563.919388 303.769423 
L 571.370812 325.134134 
L 578.822235 340.364025 
L 586.273658 282.615998 
L 593.725081 322.117554 
L 601.176505 312.70453 
L 608.627928 327.278777 
L 616.079351 311.291052 
L 623.530775 331.074936 
L 630.982198 300.174883 
L 638.433621 345.05335 
L 645.885045 323.082188 
L 653.336468 322.913931 
L 660.787891 295.13094 
L 668.239315 349.574345 
L 675.690738 317.803851 
L 683.142161 328.17359 
L 690.593585 345.704878 
L 698.045008 325.241571 
L 705.496431 310.627952 
L 712.947855 331.167667 
L 720.399278 306.000872 
L 727.850701 349.611224 
L 735.302125 337.049786 
L 742.753548 335.339145 
L 750.204971 310.47975 
L 757.656395 349.477481 
L 765.107818 310.739428 
L 772.559241 354.541441 
L 780.010665 344.659558 
L 787.462088 324.939111 
L 794.913511 326.718023 
L 802.364935 290.439775 
L 809.816358 322.951507 
L 817.267781 347.826723 
L 824.719205 311.10119 
" clip-path="url(#p5eea424c7b)" style="fill: none; stroke: #ff7f0e; stroke-width: 1.5; stroke-linecap: square"/>
   </g>
   <g id="line2d_17">
    <path d="M 87.028295 294.16691 
L 94.479719 304.727266 
L 101.931142 308.413199 
L 109.382565 345.324729 
L 116.833989 344.801009 
L 124.285412 300.148548 
L 131.736835 358.702691 
L 139.188259 308.328481 
L 146.639682 348.115368 
L 154.091105 273.910997 
L 161.542529 361.998366 
L 168.993952 337.790833 
L 176.445375 275.953223 
L 183.896799 366.891713 
L 191.348222 325.813192 
L 198.799645 265.697617 
L 206.251069 348.924786 
L 213.702492 311.887452 
L 221.153915 334.160924 
L 228.605339 219.579121 
L 236.056762 365.63938 
L 243.508185 314.937927 
L 250.959609 343.729047 
L 258.411032 284.168251 
L 265.862455 352.405932 
L 273.313879 338.160063 
L 280.765302 274.630796 
L 288.216725 337.401008 
L 295.668149 274.855436 
L 303.119572 328.252926 
L 310.570995 248.882237 
L 318.022419 354.083039 
L 325.473842 331.419405 
L 332.925265 359.543156 
L 340.376688 350.107431 
L 347.828112 262.726651 
L 355.279535 358.295188 
L 362.730958 327.766795 
L 370.182382 214.300847 
L 377.633805 327.011548 
L 385.085228 293.483503 
L 392.536652 346.65081 
L 399.988075 333.899622 
L 407.439498 217.609261 
L 414.890922 319.217089 
L 422.342345 151.035508 
L 429.793768 297.275946 
L 437.245192 320.970543 
L 444.696615 221.134782 
L 452.148038 276.170935 
L 459.599462 333.430091 
L 467.050885 313.093624 
L 474.502308 328.596428 
L 481.953732 148.230778 
L 489.405155 275.012097 
L 496.856578 329.869918 
L 504.308002 335.725919 
L 511.759425 235.772948 
L 519.210848 212.403188 
L 526.662272 298.935904 
L 534.113695 329.79029 
L 541.565118 229.939578 
L 549.016542 323.62754 
L 556.467965 57.331093 
L 563.919388 261.128154 
L 571.370812 346.764229 
L 578.822235 260.863628 
L 586.273658 323.909803 
L 593.725081 229.198098 
L 601.176505 273.227223 
L 608.627928 293.801385 
L 616.079351 355.252667 
L 623.530775 292.063809 
L 630.982198 328.738856 
L 638.433621 280.812614 
L 645.885045 313.412817 
L 653.336468 345.962196 
L 660.787891 352.234049 
L 668.239315 337.718459 
L 675.690738 157.927422 
L 683.142161 296.634493 
L 690.593585 334.12387 
L 698.045008 270.039664 
L 705.496431 272.94102 
L 712.947855 323.187939 
L 720.399278 293.086011 
L 727.850701 265.708758 
L 735.302125 220.502478 
L 742.753548 303.577882 
L 750.204971 317.423091 
L 757.656395 291.580577 
L 765.107818 320.200858 
L 772.559241 316.856354 
L 780.010665 290.760125 
L 787.462088 335.304028 
L 794.913511 330.662248 
L 802.364935 263.384904 
L 809.816358 337.485576 
L 817.267781 274.861336 
L 824.719205 282.859815 
" clip-path="url(#p5eea424c7b)" style="fill: none; stroke: #2ca02c; stroke-width: 1.5; stroke-linecap: square"/>
   </g>
   <g id="line2d_18">
    <path d="M 87.028295 286.485004 
L 94.479719 338.977834 
L 101.931142 296.189294 
L 109.382565 350.753322 
L 116.833989 138.124973 
L 124.285412 216.036471 
L 131.736835 305.980343 
L 139.188259 371.755254 
L 146.639682 262.890592 
L 154.091105 315.9535 
L 161.542529 364.940561 
L 168.993952 311.348593 
L 176.445375 343.387941 
L 183.896799 309.933538 
L 191.348222 368.071965 
L 198.799645 377.625247 
L 206.251069 353.183581 
L 213.702492 299.006264 
L 221.153915 338.430218 
L 228.605339 347.913705 
L 236.056762 297.707577 
L 243.508185 361.487566 
L 250.959609 341.530987 
L 258.411032 269.480683 
L 265.862455 346.117034 
L 273.313879 282.689973 
L 280.765302 315.852279 
L 288.216725 319.275139 
L 295.668149 322.648492 
L 303.119572 206.114033 
L 310.570995 264.38269 
L 318.022419 264.80478 
L 325.473842 319.104071 
L 332.925265 261.70664 
L 340.376688 328.270076 
L 347.828112 294.946941 
L 355.279535 335.712658 
L 362.730958 314.764229 
L 370.182382 342.197313 
L 377.633805 316.896495 
L 385.085228 323.885727 
L 392.536652 318.519222 
L 399.988075 286.09351 
L 407.439498 329.196091 
L 414.890922 264.86337 
L 422.342345 263.238652 
L 429.793768 327.163326 
L 437.245192 238.280668 
L 444.696615 279.121903 
L 452.148038 360.969629 
L 459.599462 289.114226 
L 467.050885 297.819489 
L 474.502308 342.798937 
L 481.953732 335.050687 
L 489.405155 299.964416 
L 496.856578 352.422782 
L 504.308002 323.855581 
L 511.759425 244.871398 
L 519.210848 298.865933 
L 526.662272 362.390841 
L 534.113695 349.597977 
L 541.565118 307.820012 
L 549.016542 347.904161 
L 556.467965 307.174777 
L 563.919388 360.221532 
L 571.370812 311.896597 
L 578.822235 356.18569 
L 586.273658 320.426371 
L 593.725081 362.94589 
L 601.176505 338.328689 
L 608.627928 217.716051 
L 616.079351 329.168533 
L 623.530775 206.808489 
L 630.982198 345.124744 
L 638.433621 234.845792 
L 645.885045 337.535014 
L 653.336468 262.316226 
L 660.787891 320.715867 
L 668.239315 24.898182 
L 675.690738 294.287463 
L 683.142161 320.836761 
L 690.593585 121.191963 
L 698.045008 287.930806 
L 705.496431 294.820563 
L 712.947855 278.46101 
L 720.399278 337.440479 
L 727.850701 351.810019 
L 735.302125 290.040381 
L 742.753548 274.77791 
L 750.204971 343.201 
L 757.656395 267.905422 
L 765.107818 325.640335 
L 772.559241 290.488179 
L 780.010665 309.352421 
L 787.462088 368.569026 
L 794.913511 299.878373 
L 802.364935 313.338528 
L 809.816358 362.486938 
L 817.267781 267.053498 
L 824.719205 336.368611 
" clip-path="url(#p5eea424c7b)" style="fill: none; stroke: #d62728; stroke-width: 1.5; stroke-linecap: square"/>
   </g>
   <g id="line2d_19">
    <path d="M 87.028295 319.571778 
L 94.479719 319.571778 
L 101.931142 319.571778 
L 109.382565 319.571778 
L 116.833989 319.571778 
L 124.285412 319.571778 
L 131.736835 319.571778 
L 139.188259 319.571778 
L 146.639682 319.571778 
L 154.091105 319.571778 
L 161.542529 319.571778 
L 168.993952 319.571778 
L 176.445375 319.571778 
L 183.896799 319.571778 
L 191.348222 319.571778 
L 198.799645 319.571778 
L 206.251069 319.571778 
L 213.702492 319.571778 
L 221.153915 319.571778 
L 228.605339 319.571778 
L 236.056762 319.571778 
L 243.508185 319.571778 
L 250.959609 319.571778 
L 258.411032 319.571778 
L 265.862455 319.571778 
L 273.313879 319.571778 
L 280.765302 319.571778 
L 288.216725 319.571778 
L 295.668149 319.571778 
L 303.119572 319.571778 
L 310.570995 319.571778 
L 318.022419 319.571778 
L 325.473842 319.571778 
L 332.925265 319.571778 
L 340.376688 319.571778 
L 347.828112 319.571778 
L 355.279535 319.571778 
L 362.730958 319.571778 
L 370.182382 319.571778 
L 377.633805 319.571778 
L 385.085228 319.571778 
L 392.536652 319.571778 
L 399.988075 319.571778 
L 407.439498 319.571778 
L 414.890922 319.571778 
L 422.342345 319.571778 
L 429.793768 319.571778 
L 437.245192 319.571778 
L 444.696615 319.571778 
L 452.148038 319.571778 
L 459.599462 319.571778 
L 467.050885 319.571778 
L 474.502308 319.571778 
L 481.953732 319.571778 
L 489.405155 319.571778 
L 496.856578 319.571778 
L 504.308002 319.571778 
L 511.759425 319.571778 
L 519.210848 319.571778 
L 526.662272 319.571778 
L 534.113695 319.571778 
L 541.565118 319.571778 
L 549.016542 319.571778 
L 556.467965 319.571778 
L 563.919388 319.571778 
L 571.370812 319.571778 
L 578.822235 319.571778 
L 586.273658 319.571778 
L 593.725081 319.571778 
L 601.176505 319.571778 
L 608.627928 319.571778 
L 616.079351 319.571778 
L 623.530775 319.571778 
L 630.982198 319.571778 
L 638.433621 319.571778 
L 645.885045 319.571778 
L 653.336468 319.571778 
L 660.787891 319.571778 
L 668.239315 319.571778 
L 675.690738 319.571778 
L 683.142161 319.571778 
L 690.593585 319.571778 
L 698.045008 319.571778 
L 705.496431 319.571778 
L 712.947855 319.571778 
L 720.399278 319.571778 
L 727.850701 319.571778 
L 735.302125 319.571778 
L 742.753548 319.571778 
L 750.204971 319.571778 
L 757.656395 319.571778 
L 765.107818 319.571778 
L 772.559241 319.571778 
L 780.010665 319.571778 
L 787.462088 319.571778 
L 794.913511 319.571778 
L 802.364935 319.571778 
L 809.816358 319.571778 
L 817.267781 319.571778 
L 824.719205 319.571778 
" clip-path="url(#p5eea424c7b)" style="fill: none; stroke-dasharray: 5.55,2.4; stroke-dashoffset: 0; stroke: #000000; stroke-width: 1.5"/>
   </g>
   <g id="patch_3">
    <path d="M 50.14375 396.56 
L 50.14375 7.2 
" style="fill: none; stroke: #000000; stroke-width: 0.8; stroke-linejoin: miter; stroke-linecap: square"/>
   </g>
   <g id="patch_4">
    <path d="M 861.60375 396.56 
L 861.60375 7.2 
" style="fill: none; stroke: #000000; stroke-width: 0.8; stroke-linejoin: miter; stroke-linecap: square"/>
   </g>
   <g id="patch_5">
    <path d="M 50.14375 396.56 
L 861.60375 396.56 
" style="fill: none; stroke: #000000; stroke-width: 0.8; stroke-linejoin: miter; stroke-linecap: square"/>
   </g>
   <g id="patch_6">
    <path d="M 50.14375 7.2 
L 861.60375 7.2 
" style="fill: none; stroke: #000000; stroke-width: 0.8; stroke-linejoin: miter; stroke-linecap: square"/>
   </g>
   <g id="legend_1">
    <g id="patch_7">
     <path d="M 57.14375 44.55625 
L 392.201563 44.55625 
Q 394.201563 44.55625 394.201563 42.55625 
L 394.201563 14.2 
Q 394.201563 12.2 392.201563 12.2 
L 57.14375 12.2 
Q 55.14375 12.2 55.14375 14.2 
L 55.14375 42.55625 
Q 55.14375 44.55625 57.14375 44.55625 
z
" style="fill: #ffffff; opacity: 0.8; stroke: #cccccc; stroke-linejoin: miter"/>
    </g>
    <g id="text_17">
     <!-- Trust region radius -->
     <g transform="translate(178.121875 23.798437) scale(0.1 -0.1)">
      <defs>
       <path id="DejaVuSans-54" d="M -19 4666 
L 3928 4666 
L 3928 4134 
L 2272 4134 
L 2272 0 
L 1638 0 
L 1638 4134 
L -19 4134 
L -19 4666 
z
" transform="scale(0.015625)"/>
       <path id="DejaVuSans-75" d="M 544 1381 
L 544 3500 
L 1119 3500 
L 1119 1403 
Q 1119 906 1312 657 
Q 1506 409 1894 409 
Q 2359 409 2629 706 
Q 2900 1003 2900 1516 
L 2900 3500 
L 3475 3500 
L 3475 0 
L 2900 0 
L 2900 538 
Q 2691 219 2414 64 
Q 2138 -91 1772 -91 
Q 1169 -91 856 284 
Q 544 659 544 1381 
z
M 1991 3584 
L 1991 3584 
z
" transform="scale(0.015625)"/>
       <path id="DejaVuSans-20" transform="scale(0.015625)"/>
       <path id="DejaVuSans-67" d="M 2906 1791 
Q 2906 2416 2648 2759 
Q 2391 3103 1925 3103 
Q 1463 3103 1205 2759 
Q 947 2416 947 1791 
Q 947 1169 1205 825 
Q 1463 481 1925 481 
Q 2391 481 2648 825 
Q 2906 1169 2906 1791 
z
M 3481 434 
Q 3481 -459 3084 -895 
Q 2688 -1331 1869 -1331 
Q 1566 -1331 1297 -1286 
Q 1028 -1241 775 -1147 
L 775 -588 
Q 1028 -725 1275 -790 
Q 1522 -856 1778 -856 
Q 2344 -856 2625 -561 
Q 2906 -266 2906 331 
L 2906 616 
Q 2728 306 2450 153 
Q 2172 0 1784 0 
Q 1141 0 747 490 
Q 353 981 353 1791 
Q 353 2603 747 3093 
Q 1141 3584 1784 3584 
Q 2172 3584 2450 3431 
Q 2728 3278 2906 2969 
L 2906 3500 
L 3481 3500 
L 3481 434 
z
" transform="scale(0.015625)"/>
       <path id="DejaVuSans-64" d="M 2906 2969 
L 2906 4863 
L 3481 4863 
L 3481 0 
L 2906 0 
L 2906 525 
Q 2725 213 2448 61 
Q 2172 -91 1784 -91 
Q 1150 -91 751 415 
Q 353 922 353 1747 
Q 353 2572 751 3078 
Q 1150 3584 1784 3584 
Q 2172 3584 2448 3432 
Q 2725 3281 2906 2969 
z
M 947 1747 
Q 947 1113 1208 752 
Q 1469 391 1925 391 
Q 2381 391 2643 752 
Q 2906 1113 2906 1747 
Q 2906 2381 2643 2742 
Q 2381 3103 1925 3103 
Q 1469 3103 1208 2742 
Q 947 2381 947 1747 
z
" transform="scale(0.015625)"/>
      </defs>
      <use xlink:href="#DejaVuSans-54"/>
      <use xlink:href="#DejaVuSans-72" x="46.333984"/>
      <use xlink:href="#DejaVuSans-75" x="87.447266"/>
      <use xlink:href="#DejaVuSans-73" x="150.826172"/>
      <use xlink:href="#DejaVuSans-74" x="202.925781"/>
      <use xlink:href="#DejaVuSans-20" x="242.134766"/>
      <use xlink:href="#DejaVuSans-72" x="273.921875"/>
      <use xlink:href="#DejaVuSans-65" x="312.785156"/>
      <use xlink:href="#DejaVuSans-67" x="374.308594"/>
      <use xlink:href="#DejaVuSans-69" x="437.785156"/>
      <use xlink:href="#DejaVuSans-6f" x="465.568359"/>
      <use xlink:href="#DejaVuSans-6e" x="526.75"/>
      <use xlink:href="#DejaVuSans-20" x="590.128906"/>
      <use xlink:href="#DejaVuSans-72" x="621.916016"/>
      <use xlink:href="#DejaVuSans-61" x="663.029297"/>
      <use xlink:href="#DejaVuSans-64" x="724.308594"/>
      <use xlink:href="#DejaVuSans-69" x="787.785156"/>
      <use xlink:href="#DejaVuSans-75" x="815.568359"/>
      <use xlink:href="#DejaVuSans-73" x="878.947266"/>
     </g>
    </g>
    <g id="line2d_20">
     <path d="M 59.14375 34.976562 
L 69.14375 34.976562 
L 79.14375 34.976562 
" style="fill: none; stroke: #1f77b4; stroke-width: 1.5; stroke-linecap: square"/>
    </g>
    <g id="text_18">
     <!-- 0.001 -->
     <g transform="translate(87.14375 38.476562) scale(0.1 -0.1)">
      <use xlink:href="#DejaVuSans-30"/>
      <use xlink:href="#DejaVuSans-2e" x="63.623047"/>
      <use xlink:href="#DejaVuSans-30" x="95.410156"/>
      <use xlink:href="#DejaVuSans-30" x="159.033203"/>
      <use xlink:href="#DejaVuSans-31" x="222.65625"/>
     </g>
    </g>
    <g id="line2d_21">
     <path d="M 135.771875 34.976562 
L 145.771875 34.976562 
L 155.771875 34.976562 
" style="fill: none; stroke: #ff7f0e; stroke-width: 1.5; stroke-linecap: square"/>
    </g>
    <g id="text_19">
     <!-- 0.01 -->
     <g transform="translate(163.771875 38.476562) scale(0.1 -0.1)">
      <use xlink:href="#DejaVuSans-30"/>
      <use xlink:href="#DejaVuSans-2e" x="63.623047"/>
      <use xlink:href="#DejaVuSans-30" x="95.410156"/>
      <use xlink:href="#DejaVuSans-31" x="159.033203"/>
     </g>
    </g>
    <g id="line2d_22">
     <path d="M 206.0375 34.976562 
L 216.0375 34.976562 
L 226.0375 34.976562 
" style="fill: none; stroke: #2ca02c; stroke-width: 1.5; stroke-linecap: square"/>
    </g>
    <g id="text_20">
     <!-- 0.05 -->
     <g transform="translate(234.0375 38.476562) scale(0.1 -0.1)">
      <use xlink:href="#DejaVuSans-30"/>
      <use xlink:href="#DejaVuSans-2e" x="63.623047"/>
      <use xlink:href="#DejaVuSans-30" x="95.410156"/>
      <use xlink:href="#DejaVuSans-35" x="159.033203"/>
     </g>
    </g>
    <g id="line2d_23">
     <path d="M 276.303125 34.976562 
L 286.303125 34.976562 
L 296.303125 34.976562 
" style="fill: none; stroke: #d62728; stroke-width: 1.5; stroke-linecap: square"/>
    </g>
    <g id="text_21">
     <!-- 0.1 -->
     <g transform="translate(304.303125 38.476562) scale(0.1 -0.1)">
      <use xlink:href="#DejaVuSans-30"/>
      <use xlink:href="#DejaVuSans-2e" x="63.623047"/>
      <use xlink:href="#DejaVuSans-31" x="95.410156"/>
     </g>
    </g>
    <g id="line2d_24">
     <path d="M 340.20625 34.976562 
L 350.20625 34.976562 
L 360.20625 34.976562 
" style="fill: none; stroke-dasharray: 5.55,2.4; stroke-dashoffset: 0; stroke: #000000; stroke-width: 1.5"/>
    </g>
    <g id="text_22">
     <!-- limit -->
     <g transform="translate(368.20625 38.476562) scale(0.1 -0.1)">
      <defs>
       <path id="DejaVuSans-6c" d="M 603 4863 
L 1178 4863 
L 1178 0 
L 603 0 
L 603 4863 
z
" transform="scale(0.015625)"/>
       <path id="DejaVuSans-6d" d="M 3328 2828 
Q 3544 3216 3844 3400 
Q 4144 3584 4550 3584 
Q 5097 3584 5394 3201 
Q 5691 2819 5691 2113 
L 5691 0 
L 5113 0 
L 5113 2094 
Q 5113 2597 4934 2840 
Q 4756 3084 4391 3084 
Q 3944 3084 3684 2787 
Q 3425 2491 3425 1978 
L 3425 0 
L 2847 0 
L 2847 2094 
Q 2847 2600 2669 2842 
Q 2491 3084 2119 3084 
Q 1678 3084 1418 2786 
Q 1159 2488 1159 1978 
L 1159 0 
L 581 0 
L 581 3500 
L 1159 3500 
L 1159 2956 
Q 1356 3278 1631 3431 
Q 1906 3584 2284 3584 
Q 2666 3584 2933 3390 
Q 3200 3197 3328 2828 
z
" transform="scale(0.015625)"/>
      </defs>
      <use xlink:href="#DejaVuSans-6c"/>
      <use xlink:href="#DejaVuSans-69" x="27.783203"/>
      <use xlink:href="#DejaVuSans-6d" x="55.566406"/>
      <use xlink:href="#DejaVuSans-69" x="152.978516"/>
      <use xlink:href="#DejaVuSans-74" x="180.761719"/>
     </g>
    </g>
   </g>
  </g>
 </g>
 <defs>
  <clipPath id="p5eea424c7b">
   <rect x="50.14375" y="7.2" width="811.46" height="389.36"/>
  </clipPath>
 </defs>
</svg>
