<?xml version="1.0" encoding="utf-8" standalone="no"?>
<!DOCTYPE svg PUBLIC "-//W3C//DTD SVG 1.1//EN"
  "http://www.w3.org/Graphics/SVG/1.1/DTD/svg11.dtd">
<svg xmlns:xlink="http://www.w3.org/1999/xlink" width="1329.12pt" height="701.28pt" viewBox="0 0 1329.12 701.28" xmlns="http://www.w3.org/2000/svg" version="1.1">
 <metadata>
  <rdf:RDF xmlns:dc="http://purl.org/dc/elements/1.1/" xmlns:cc="http://creativecommons.org/ns#" xmlns:rdf="http://www.w3.org/1999/02/22-rdf-syntax-ns#">
   <cc:Work>
    <dc:type rdf:resource="http://purl.org/dc/dcmitype/StillImage"/>
    <dc:date>2023-03-23T16:36:39.792297</dc:date>
    <dc:format>image/svg+xml</dc:format>
    <dc:creator>
     <cc:Agent>
      <dc:title>Matplotlib v3.7.1, https://matplotlib.org/</dc:title>
     </cc:Agent>
    </dc:creator>
   </cc:Work>
  </rdf:RDF>
 </metadata>
 <defs>
  <style type="text/css">*{stroke-linejoin: round; stroke-linecap: butt}</style>
 </defs>
 <g id="figure_1">
  <g id="patch_1">
   <path d="M 0 701.28 
L 1329.12 701.28 
L 1329.12 0 
L 0 0 
z
" style="fill: #ffffff"/>
  </g>
  <g id="axes_1">
   <g id="patch_2">
    <path d="M 166.14 624.1392 
L 1196.208 624.1392 
L 1196.208 84.1536 
L 166.14 84.1536 
z
" style="fill: #ffffff"/>
   </g>
   <g id="matplotlib.axis_1">
    <g id="xtick_1">
     <g id="line2d_1">
      <defs>
       <path id="mb2dddead94" d="M 0 0 
L 0 3.5 
" style="stroke: #000000; stroke-width: 0.8"/>
      </defs>
      <g>
       <use xlink:href="#mb2dddead94" x="203.50243" y="624.1392" style="stroke: #000000; stroke-width: 0.8"/>
      </g>
     </g>
     <g id="text_1">
      <!-- 0 -->
      <g transform="translate(200.32118 638.737638) scale(0.1 -0.1)">
       <defs>
        <path id="DejaVuSans-30" d="M 2034 4250 
Q 1547 4250 1301 3770 
Q 1056 3291 1056 2328 
Q 1056 1369 1301 889 
Q 1547 409 2034 409 
Q 2525 409 2770 889 
Q 3016 1369 3016 2328 
Q 3016 3291 2770 3770 
Q 2525 4250 2034 4250 
z
M 2034 4750 
Q 2819 4750 3233 4129 
Q 3647 3509 3647 2328 
Q 3647 1150 3233 529 
Q 2819 -91 2034 -91 
Q 1250 -91 836 529 
Q 422 1150 422 2328 
Q 422 3509 836 4129 
Q 1250 4750 2034 4750 
z
" transform="scale(0.015625)"/>
       </defs>
       <use xlink:href="#DejaVuSans-30"/>
      </g>
     </g>
    </g>
    <g id="xtick_2">
     <g id="line2d_2">
      <g>
       <use xlink:href="#mb2dddead94" x="392.679289" y="624.1392" style="stroke: #000000; stroke-width: 0.8"/>
      </g>
     </g>
     <g id="text_2">
      <!-- 20 -->
      <g transform="translate(386.316789 638.737638) scale(0.1 -0.1)">
       <defs>
        <path id="DejaVuSans-32" d="M 1228 531 
L 3431 531 
L 3431 0 
L 469 0 
L 469 531 
Q 828 903 1448 1529 
Q 2069 2156 2228 2338 
Q 2531 2678 2651 2914 
Q 2772 3150 2772 3378 
Q 2772 3750 2511 3984 
Q 2250 4219 1831 4219 
Q 1534 4219 1204 4116 
Q 875 4013 500 3803 
L 500 4441 
Q 881 4594 1212 4672 
Q 1544 4750 1819 4750 
Q 2544 4750 2975 4387 
Q 3406 4025 3406 3419 
Q 3406 3131 3298 2873 
Q 3191 2616 2906 2266 
Q 2828 2175 2409 1742 
Q 1991 1309 1228 531 
z
" transform="scale(0.015625)"/>
       </defs>
       <use xlink:href="#DejaVuSans-32"/>
       <use xlink:href="#DejaVuSans-30" x="63.623047"/>
      </g>
     </g>
    </g>
    <g id="xtick_3">
     <g id="line2d_3">
      <g>
       <use xlink:href="#mb2dddead94" x="581.856149" y="624.1392" style="stroke: #000000; stroke-width: 0.8"/>
      </g>
     </g>
     <g id="text_3">
      <!-- 40 -->
      <g transform="translate(575.493649 638.737638) scale(0.1 -0.1)">
       <defs>
        <path id="DejaVuSans-34" d="M 2419 4116 
L 825 1625 
L 2419 1625 
L 2419 4116 
z
M 2253 4666 
L 3047 4666 
L 3047 1625 
L 3713 1625 
L 3713 1100 
L 3047 1100 
L 3047 0 
L 2419 0 
L 2419 1100 
L 313 1100 
L 313 1709 
L 2253 4666 
z
" transform="scale(0.015625)"/>
       </defs>
       <use xlink:href="#DejaVuSans-34"/>
       <use xlink:href="#DejaVuSans-30" x="63.623047"/>
      </g>
     </g>
    </g>
    <g id="xtick_4">
     <g id="line2d_4">
      <g>
       <use xlink:href="#mb2dddead94" x="771.033008" y="624.1392" style="stroke: #000000; stroke-width: 0.8"/>
      </g>
     </g>
     <g id="text_4">
      <!-- 60 -->
      <g transform="translate(764.670508 638.737638) scale(0.1 -0.1)">
       <defs>
        <path id="DejaVuSans-36" d="M 2113 2584 
Q 1688 2584 1439 2293 
Q 1191 2003 1191 1497 
Q 1191 994 1439 701 
Q 1688 409 2113 409 
Q 2538 409 2786 701 
Q 3034 994 3034 1497 
Q 3034 2003 2786 2293 
Q 2538 2584 2113 2584 
z
M 3366 4563 
L 3366 3988 
Q 3128 4100 2886 4159 
Q 2644 4219 2406 4219 
Q 1781 4219 1451 3797 
Q 1122 3375 1075 2522 
Q 1259 2794 1537 2939 
Q 1816 3084 2150 3084 
Q 2853 3084 3261 2657 
Q 3669 2231 3669 1497 
Q 3669 778 3244 343 
Q 2819 -91 2113 -91 
Q 1303 -91 875 529 
Q 447 1150 447 2328 
Q 447 3434 972 4092 
Q 1497 4750 2381 4750 
Q 2619 4750 2861 4703 
Q 3103 4656 3366 4563 
z
" transform="scale(0.015625)"/>
       </defs>
       <use xlink:href="#DejaVuSans-36"/>
       <use xlink:href="#DejaVuSans-30" x="63.623047"/>
      </g>
     </g>
    </g>
    <g id="xtick_5">
     <g id="line2d_5">
      <g>
       <use xlink:href="#mb2dddead94" x="960.209868" y="624.1392" style="stroke: #000000; stroke-width: 0.8"/>
      </g>
     </g>
     <g id="text_5">
      <!-- 80 -->
      <g transform="translate(953.847368 638.737638) scale(0.1 -0.1)">
       <defs>
        <path id="DejaVuSans-38" d="M 2034 2216 
Q 1584 2216 1326 1975 
Q 1069 1734 1069 1313 
Q 1069 891 1326 650 
Q 1584 409 2034 409 
Q 2484 409 2743 651 
Q 3003 894 3003 1313 
Q 3003 1734 2745 1975 
Q 2488 2216 2034 2216 
z
M 1403 2484 
Q 997 2584 770 2862 
Q 544 3141 544 3541 
Q 544 4100 942 4425 
Q 1341 4750 2034 4750 
Q 2731 4750 3128 4425 
Q 3525 4100 3525 3541 
Q 3525 3141 3298 2862 
Q 3072 2584 2669 2484 
Q 3125 2378 3379 2068 
Q 3634 1759 3634 1313 
Q 3634 634 3220 271 
Q 2806 -91 2034 -91 
Q 1263 -91 848 271 
Q 434 634 434 1313 
Q 434 1759 690 2068 
Q 947 2378 1403 2484 
z
M 1172 3481 
Q 1172 3119 1398 2916 
Q 1625 2713 2034 2713 
Q 2441 2713 2670 2916 
Q 2900 3119 2900 3481 
Q 2900 3844 2670 4047 
Q 2441 4250 2034 4250 
Q 1625 4250 1398 4047 
Q 1172 3844 1172 3481 
z
" transform="scale(0.015625)"/>
       </defs>
       <use xlink:href="#DejaVuSans-38"/>
       <use xlink:href="#DejaVuSans-30" x="63.623047"/>
      </g>
     </g>
    </g>
    <g id="xtick_6">
     <g id="line2d_6">
      <g>
       <use xlink:href="#mb2dddead94" x="1149.386727" y="624.1392" style="stroke: #000000; stroke-width: 0.8"/>
      </g>
     </g>
     <g id="text_6">
      <!-- 100 -->
      <g transform="translate(1139.842977 638.737638) scale(0.1 -0.1)">
       <defs>
        <path id="DejaVuSans-31" d="M 794 531 
L 1825 531 
L 1825 4091 
L 703 3866 
L 703 4441 
L 1819 4666 
L 2450 4666 
L 2450 531 
L 3481 531 
L 3481 0 
L 794 0 
L 794 531 
z
" transform="scale(0.015625)"/>
       </defs>
       <use xlink:href="#DejaVuSans-31"/>
       <use xlink:href="#DejaVuSans-30" x="63.623047"/>
       <use xlink:href="#DejaVuSans-30" x="127.246094"/>
      </g>
     </g>
    </g>
    <g id="text_7">
     <!-- iterations -->
     <g transform="translate(657.446656 652.415763) scale(0.1 -0.1)">
      <defs>
       <path id="DejaVuSans-69" d="M 603 3500 
L 1178 3500 
L 1178 0 
L 603 0 
L 603 3500 
z
M 603 4863 
L 1178 4863 
L 1178 4134 
L 603 4134 
L 603 4863 
z
" transform="scale(0.015625)"/>
       <path id="DejaVuSans-74" d="M 1172 4494 
L 1172 3500 
L 2356 3500 
L 2356 3053 
L 1172 3053 
L 1172 1153 
Q 1172 725 1289 603 
Q 1406 481 1766 481 
L 2356 481 
L 2356 0 
L 1766 0 
Q 1100 0 847 248 
Q 594 497 594 1153 
L 594 3053 
L 172 3053 
L 172 3500 
L 594 3500 
L 594 4494 
L 1172 4494 
z
" transform="scale(0.015625)"/>
       <path id="DejaVuSans-65" d="M 3597 1894 
L 3597 1613 
L 953 1613 
Q 991 1019 1311 708 
Q 1631 397 2203 397 
Q 2534 397 2845 478 
Q 3156 559 3463 722 
L 3463 178 
Q 3153 47 2828 -22 
Q 2503 -91 2169 -91 
Q 1331 -91 842 396 
Q 353 884 353 1716 
Q 353 2575 817 3079 
Q 1281 3584 2069 3584 
Q 2775 3584 3186 3129 
Q 3597 2675 3597 1894 
z
M 3022 2063 
Q 3016 2534 2758 2815 
Q 2500 3097 2075 3097 
Q 1594 3097 1305 2825 
Q 1016 2553 972 2059 
L 3022 2063 
z
" transform="scale(0.015625)"/>
       <path id="DejaVuSans-72" d="M 2631 2963 
Q 2534 3019 2420 3045 
Q 2306 3072 2169 3072 
Q 1681 3072 1420 2755 
Q 1159 2438 1159 1844 
L 1159 0 
L 581 0 
L 581 3500 
L 1159 3500 
L 1159 2956 
Q 1341 3275 1631 3429 
Q 1922 3584 2338 3584 
Q 2397 3584 2469 3576 
Q 2541 3569 2628 3553 
L 2631 2963 
z
" transform="scale(0.015625)"/>
       <path id="DejaVuSans-61" d="M 2194 1759 
Q 1497 1759 1228 1600 
Q 959 1441 959 1056 
Q 959 750 1161 570 
Q 1363 391 1709 391 
Q 2188 391 2477 730 
Q 2766 1069 2766 1631 
L 2766 1759 
L 2194 1759 
z
M 3341 1997 
L 3341 0 
L 2766 0 
L 2766 531 
Q 2569 213 2275 61 
Q 1981 -91 1556 -91 
Q 1019 -91 701 211 
Q 384 513 384 1019 
Q 384 1609 779 1909 
Q 1175 2209 1959 2209 
L 2766 2209 
L 2766 2266 
Q 2766 2663 2505 2880 
Q 2244 3097 1772 3097 
Q 1472 3097 1187 3025 
Q 903 2953 641 2809 
L 641 3341 
Q 956 3463 1253 3523 
Q 1550 3584 1831 3584 
Q 2591 3584 2966 3190 
Q 3341 2797 3341 1997 
z
" transform="scale(0.015625)"/>
       <path id="DejaVuSans-6f" d="M 1959 3097 
Q 1497 3097 1228 2736 
Q 959 2375 959 1747 
Q 959 1119 1226 758 
Q 1494 397 1959 397 
Q 2419 397 2687 759 
Q 2956 1122 2956 1747 
Q 2956 2369 2687 2733 
Q 2419 3097 1959 3097 
z
M 1959 3584 
Q 2709 3584 3137 3096 
Q 3566 2609 3566 1747 
Q 3566 888 3137 398 
Q 2709 -91 1959 -91 
Q 1206 -91 779 398 
Q 353 888 353 1747 
Q 353 2609 779 3096 
Q 1206 3584 1959 3584 
z
" transform="scale(0.015625)"/>
       <path id="DejaVuSans-6e" d="M 3513 2113 
L 3513 0 
L 2938 0 
L 2938 2094 
Q 2938 2591 2744 2837 
Q 2550 3084 2163 3084 
Q 1697 3084 1428 2787 
Q 1159 2491 1159 1978 
L 1159 0 
L 581 0 
L 581 3500 
L 1159 3500 
L 1159 2956 
Q 1366 3272 1645 3428 
Q 1925 3584 2291 3584 
Q 2894 3584 3203 3211 
Q 3513 2838 3513 2113 
z
" transform="scale(0.015625)"/>
       <path id="DejaVuSans-73" d="M 2834 3397 
L 2834 2853 
Q 2591 2978 2328 3040 
Q 2066 3103 1784 3103 
Q 1356 3103 1142 2972 
Q 928 2841 928 2578 
Q 928 2378 1081 2264 
Q 1234 2150 1697 2047 
L 1894 2003 
Q 2506 1872 2764 1633 
Q 3022 1394 3022 966 
Q 3022 478 2636 193 
Q 2250 -91 1575 -91 
Q 1294 -91 989 -36 
Q 684 19 347 128 
L 347 722 
Q 666 556 975 473 
Q 1284 391 1588 391 
Q 1994 391 2212 530 
Q 2431 669 2431 922 
Q 2431 1156 2273 1281 
Q 2116 1406 1581 1522 
L 1381 1569 
Q 847 1681 609 1914 
Q 372 2147 372 2553 
Q 372 3047 722 3315 
Q 1072 3584 1716 3584 
Q 2034 3584 2315 3537 
Q 2597 3491 2834 3397 
z
" transform="scale(0.015625)"/>
      </defs>
      <use xlink:href="#DejaVuSans-69"/>
      <use xlink:href="#DejaVuSans-74" x="27.783203"/>
      <use xlink:href="#DejaVuSans-65" x="66.992188"/>
      <use xlink:href="#DejaVuSans-72" x="128.515625"/>
      <use xlink:href="#DejaVuSans-61" x="169.628906"/>
      <use xlink:href="#DejaVuSans-74" x="230.908203"/>
      <use xlink:href="#DejaVuSans-69" x="270.117188"/>
      <use xlink:href="#DejaVuSans-6f" x="297.900391"/>
      <use xlink:href="#DejaVuSans-6e" x="359.082031"/>
      <use xlink:href="#DejaVuSans-73" x="422.460938"/>
     </g>
    </g>
   </g>
   <g id="matplotlib.axis_2">
    <g id="ytick_1">
     <g id="line2d_7">
      <defs>
       <path id="m6f8f9dacc1" d="M 0 0 
L -3.5 0 
" style="stroke: #000000; stroke-width: 0.8"/>
      </defs>
      <g>
       <use xlink:href="#m6f8f9dacc1" x="166.14" y="568.372649" style="stroke: #000000; stroke-width: 0.8"/>
      </g>
     </g>
     <g id="text_8">
      <!-- 10 -->
      <g transform="translate(146.415 572.171868) scale(0.1 -0.1)">
       <use xlink:href="#DejaVuSans-31"/>
       <use xlink:href="#DejaVuSans-30" x="63.623047"/>
      </g>
     </g>
    </g>
    <g id="ytick_2">
     <g id="line2d_8">
      <g>
       <use xlink:href="#m6f8f9dacc1" x="166.14" y="468.330473" style="stroke: #000000; stroke-width: 0.8"/>
      </g>
     </g>
     <g id="text_9">
      <!-- 20 -->
      <g transform="translate(146.415 472.129691) scale(0.1 -0.1)">
       <use xlink:href="#DejaVuSans-32"/>
       <use xlink:href="#DejaVuSans-30" x="63.623047"/>
      </g>
     </g>
    </g>
    <g id="ytick_3">
     <g id="line2d_9">
      <g>
       <use xlink:href="#m6f8f9dacc1" x="166.14" y="368.288296" style="stroke: #000000; stroke-width: 0.8"/>
      </g>
     </g>
     <g id="text_10">
      <!-- 30 -->
      <g transform="translate(146.415 372.087515) scale(0.1 -0.1)">
       <defs>
        <path id="DejaVuSans-33" d="M 2597 2516 
Q 3050 2419 3304 2112 
Q 3559 1806 3559 1356 
Q 3559 666 3084 287 
Q 2609 -91 1734 -91 
Q 1441 -91 1130 -33 
Q 819 25 488 141 
L 488 750 
Q 750 597 1062 519 
Q 1375 441 1716 441 
Q 2309 441 2620 675 
Q 2931 909 2931 1356 
Q 2931 1769 2642 2001 
Q 2353 2234 1838 2234 
L 1294 2234 
L 1294 2753 
L 1863 2753 
Q 2328 2753 2575 2939 
Q 2822 3125 2822 3475 
Q 2822 3834 2567 4026 
Q 2313 4219 1838 4219 
Q 1578 4219 1281 4162 
Q 984 4106 628 3988 
L 628 4550 
Q 988 4650 1302 4700 
Q 1616 4750 1894 4750 
Q 2613 4750 3031 4423 
Q 3450 4097 3450 3541 
Q 3450 3153 3228 2886 
Q 3006 2619 2597 2516 
z
" transform="scale(0.015625)"/>
       </defs>
       <use xlink:href="#DejaVuSans-33"/>
       <use xlink:href="#DejaVuSans-30" x="63.623047"/>
      </g>
     </g>
    </g>
    <g id="ytick_4">
     <g id="line2d_10">
      <g>
       <use xlink:href="#m6f8f9dacc1" x="166.14" y="268.24612" style="stroke: #000000; stroke-width: 0.8"/>
      </g>
     </g>
     <g id="text_11">
      <!-- 40 -->
      <g transform="translate(146.415 272.045339) scale(0.1 -0.1)">
       <use xlink:href="#DejaVuSans-34"/>
       <use xlink:href="#DejaVuSans-30" x="63.623047"/>
      </g>
     </g>
    </g>
    <g id="ytick_5">
     <g id="line2d_11">
      <g>
       <use xlink:href="#m6f8f9dacc1" x="166.14" y="168.203944" style="stroke: #000000; stroke-width: 0.8"/>
      </g>
     </g>
     <g id="text_12">
      <!-- 50 -->
      <g transform="translate(146.415 172.003162) scale(0.1 -0.1)">
       <defs>
        <path id="DejaVuSans-35" d="M 691 4666 
L 3169 4666 
L 3169 4134 
L 1269 4134 
L 1269 2991 
Q 1406 3038 1543 3061 
Q 1681 3084 1819 3084 
Q 2600 3084 3056 2656 
Q 3513 2228 3513 1497 
Q 3513 744 3044 326 
Q 2575 -91 1722 -91 
Q 1428 -91 1123 -41 
Q 819 9 494 109 
L 494 744 
Q 775 591 1075 516 
Q 1375 441 1709 441 
Q 2250 441 2565 725 
Q 2881 1009 2881 1497 
Q 2881 1984 2565 2268 
Q 2250 2553 1709 2553 
Q 1456 2553 1204 2497 
Q 953 2441 691 2322 
L 691 4666 
z
" transform="scale(0.015625)"/>
       </defs>
       <use xlink:href="#DejaVuSans-35"/>
       <use xlink:href="#DejaVuSans-30" x="63.623047"/>
      </g>
     </g>
    </g>
    <g id="text_13">
     <!-- constraint -->
     <g transform="translate(140.335313 379.326087) rotate(-90) scale(0.1 -0.1)">
      <defs>
       <path id="DejaVuSans-63" d="M 3122 3366 
L 3122 2828 
Q 2878 2963 2633 3030 
Q 2388 3097 2138 3097 
Q 1578 3097 1268 2742 
Q 959 2388 959 1747 
Q 959 1106 1268 751 
Q 1578 397 2138 397 
Q 2388 397 2633 464 
Q 2878 531 3122 666 
L 3122 134 
Q 2881 22 2623 -34 
Q 2366 -91 2075 -91 
Q 1284 -91 818 406 
Q 353 903 353 1747 
Q 353 2603 823 3093 
Q 1294 3584 2113 3584 
Q 2378 3584 2631 3529 
Q 2884 3475 3122 3366 
z
" transform="scale(0.015625)"/>
      </defs>
      <use xlink:href="#DejaVuSans-63"/>
      <use xlink:href="#DejaVuSans-6f" x="54.980469"/>
      <use xlink:href="#DejaVuSans-6e" x="116.162109"/>
      <use xlink:href="#DejaVuSans-73" x="179.541016"/>
      <use xlink:href="#DejaVuSans-74" x="231.640625"/>
      <use xlink:href="#DejaVuSans-72" x="270.849609"/>
      <use xlink:href="#DejaVuSans-61" x="311.962891"/>
      <use xlink:href="#DejaVuSans-69" x="373.242188"/>
      <use xlink:href="#DejaVuSans-6e" x="401.025391"/>
      <use xlink:href="#DejaVuSans-74" x="464.404297"/>
     </g>
    </g>
   </g>
   <g id="line2d_12">
    <path d="M 212.961273 366.972195 
L 222.420116 357.890571 
L 231.878959 272.535792 
L 241.337802 451.352801 
L 250.796645 405.425278 
L 260.255488 410.544619 
L 269.714331 356.725389 
L 279.173174 404.652137 
L 288.632017 356.331123 
L 298.09086 438.720949 
L 307.549702 433.910834 
L 317.008545 448.327754 
L 326.467388 370.256215 
L 335.926231 443.197781 
L 345.385074 357.182966 
L 354.843917 390.105456 
L 364.30276 454.24338 
L 373.761603 449.26989 
L 383.220446 463.285896 
L 392.679289 414.391188 
L 402.138132 461.904037 
L 411.596975 449.272906 
L 421.055818 470.191482 
L 430.514661 491.718358 
L 439.973504 465.00282 
L 449.432347 385.36614 
L 458.89119 419.118847 
L 468.350033 424.470884 
L 477.808876 416.049499 
L 487.267719 474.633811 
L 496.726562 435.124215 
L 506.185405 478.739348 
L 515.644248 454.294637 
L 525.103091 443.713007 
L 534.561934 420.969386 
L 544.020777 458.452971 
L 553.47962 419.046211 
L 562.938463 491.998036 
L 572.397306 428.081248 
L 581.856149 451.242041 
L 591.314992 463.539516 
L 600.773835 488.055731 
L 610.232678 436.299673 
L 619.691521 456.896651 
L 629.150364 505.433149 
L 638.609207 458.458283 
L 648.06805 541.971664 
L 657.526893 464.703106 
L 666.985736 436.012901 
L 676.444579 414.901459 
L 685.903421 458.993602 
L 695.362264 473.025211 
L 704.821107 437.982793 
L 714.27995 452.521846 
L 723.738793 480.521857 
L 733.197636 516.066354 
L 742.656479 470.287373 
L 752.115322 507.888069 
L 761.574165 427.023793 
L 771.033008 478.96979 
L 780.491851 482.405809 
L 789.950694 485.498039 
L 799.409537 456.301377 
L 808.86838 469.911382 
L 818.327223 423.508468 
L 827.786066 476.45506 
L 837.244909 440.961118 
L 846.703752 459.350907 
L 856.162595 481.423639 
L 865.621438 507.705584 
L 875.080281 455.201498 
L 884.539124 479.087536 
L 893.997967 424.019301 
L 903.45681 530.546065 
L 912.915653 520.074874 
L 922.374496 468.191711 
L 931.833339 522.898728 
L 941.292182 522.492334 
L 950.751025 487.68444 
L 960.209868 468.293349 
L 969.668711 452.062361 
L 979.127554 462.263528 
L 988.586397 461.502408 
L 998.04524 478.118181 
L 1007.504083 497.915725 
L 1016.962926 484.930358 
L 1026.421769 503.102359 
L 1035.880612 451.809342 
L 1045.339455 509.089807 
L 1054.798298 475.275601 
L 1064.25714 459.477989 
L 1073.715983 457.461237 
L 1083.174826 485.108628 
L 1092.633669 460.873842 
L 1102.092512 458.457542 
L 1111.551355 403.501258 
L 1121.010198 476.792278 
L 1130.469041 534.699086 
L 1139.927884 478.533376 
L 1149.386727 509.638669 
" clip-path="url(#p7240fadf96)" style="fill: none; stroke: #1f77b4; stroke-width: 1.5; stroke-linecap: square"/>
   </g>
   <g id="line2d_13">
    <path d="M 212.961273 281.798249 
L 222.420116 326.976444 
L 231.878959 325.36118 
L 241.337802 356.520798 
L 250.796645 349.51367 
L 260.255488 419.277478 
L 269.714331 376.129373 
L 279.173174 385.846692 
L 288.632017 373.030946 
L 298.09086 373.065177 
L 307.549702 418.910914 
L 317.008545 439.07974 
L 326.467388 371.399199 
L 335.926231 359.507049 
L 345.385074 396.940582 
L 354.843917 390.389684 
L 364.30276 401.372835 
L 373.761603 361.786902 
L 383.220446 413.686352 
L 392.679289 470.295267 
L 402.138132 383.447753 
L 411.596975 410.689123 
L 421.055818 414.229899 
L 430.514661 387.353796 
L 439.973504 453.266399 
L 449.432347 445.829137 
L 458.89119 462.845235 
L 468.350033 444.644765 
L 477.808876 409.991696 
L 487.267719 457.469541 
L 496.726562 415.743852 
L 506.185405 449.400066 
L 515.644248 397.839879 
L 525.103091 461.175155 
L 534.561934 398.699762 
L 544.020777 448.142453 
L 553.47962 488.279359 
L 562.938463 432.586288 
L 572.397306 454.63798 
L 581.856149 471.793443 
L 591.314992 454.679188 
L 600.773835 437.647014 
L 610.232678 473.434978 
L 619.691521 499.128755 
L 629.150364 500.225584 
L 638.609207 489.84375 
L 648.06805 431.301008 
L 657.526893 473.513396 
L 666.985736 470.412783 
L 676.444579 455.294447 
L 685.903421 469.606782 
L 695.362264 451.86992 
L 704.821107 441.635358 
L 714.27995 493.284029 
L 723.738793 477.273183 
L 733.197636 457.385896 
L 742.656479 530.566567 
L 752.115322 512.8748 
L 761.574165 431.222414 
L 771.033008 513.011631 
L 780.491851 446.250594 
L 789.950694 500.977945 
L 799.409537 502.896334 
L 808.86838 493.382037 
L 818.327223 468.975465 
L 827.786066 479.191257 
L 837.244909 491.261125 
L 846.703752 518.56241 
L 856.162595 471.347185 
L 865.621438 495.713015 
L 875.080281 456.995193 
L 884.539124 492.74223 
L 893.997967 505.284316 
L 903.45681 474.280119 
L 912.915653 482.352851 
L 922.374496 481.374489 
L 931.833339 410.607276 
L 941.292182 435.290974 
L 950.751025 525.081442 
L 960.209868 494.479832 
L 969.668711 483.024996 
L 979.127554 570.574633 
L 988.586397 480.552524 
L 998.04524 521.548957 
L 1007.504083 553.691505 
L 1016.962926 511.487666 
L 1026.421769 487.609385 
L 1035.880612 471.388819 
L 1045.339455 411.807867 
L 1054.798298 556.25551 
L 1064.25714 569.162492 
L 1073.715983 519.809947 
L 1083.174826 108.6984 
L 1092.633669 255.26654 
L 1102.092512 361.379284 
L 1111.551355 599.5944 
L 1121.010198 466.758011 
L 1130.469041 404.712935 
L 1139.927884 167.805281 
L 1149.386727 160.79238 
" clip-path="url(#p7240fadf96)" style="fill: none; stroke: #ff7f0e; stroke-width: 1.5; stroke-linecap: square"/>
   </g>
   <g id="line2d_14">
    <path d="M 212.961273 468.330473 
L 222.420116 468.330473 
L 231.878959 468.330473 
L 241.337802 468.330473 
L 250.796645 468.330473 
L 260.255488 468.330473 
L 269.714331 468.330473 
L 279.173174 468.330473 
L 288.632017 468.330473 
L 298.09086 468.330473 
L 307.549702 468.330473 
L 317.008545 468.330473 
L 326.467388 468.330473 
L 335.926231 468.330473 
L 345.385074 468.330473 
L 354.843917 468.330473 
L 364.30276 468.330473 
L 373.761603 468.330473 
L 383.220446 468.330473 
L 392.679289 468.330473 
L 402.138132 468.330473 
L 411.596975 468.330473 
L 421.055818 468.330473 
L 430.514661 468.330473 
L 439.973504 468.330473 
L 449.432347 468.330473 
L 458.89119 468.330473 
L 468.350033 468.330473 
L 477.808876 468.330473 
L 487.267719 468.330473 
L 496.726562 468.330473 
L 506.185405 468.330473 
L 515.644248 468.330473 
L 525.103091 468.330473 
L 534.561934 468.330473 
L 544.020777 468.330473 
L 553.47962 468.330473 
L 562.938463 468.330473 
L 572.397306 468.330473 
L 581.856149 468.330473 
L 591.314992 468.330473 
L 600.773835 468.330473 
L 610.232678 468.330473 
L 619.691521 468.330473 
L 629.150364 468.330473 
L 638.609207 468.330473 
L 648.06805 468.330473 
L 657.526893 468.330473 
L 666.985736 468.330473 
L 676.444579 468.330473 
L 685.903421 468.330473 
L 695.362264 468.330473 
L 704.821107 468.330473 
L 714.27995 468.330473 
L 723.738793 468.330473 
L 733.197636 468.330473 
L 742.656479 468.330473 
L 752.115322 468.330473 
L 761.574165 468.330473 
L 771.033008 468.330473 
L 780.491851 468.330473 
L 789.950694 468.330473 
L 799.409537 468.330473 
L 808.86838 468.330473 
L 818.327223 468.330473 
L 827.786066 468.330473 
L 837.244909 468.330473 
L 846.703752 468.330473 
L 856.162595 468.330473 
L 865.621438 468.330473 
L 875.080281 468.330473 
L 884.539124 468.330473 
L 893.997967 468.330473 
L 903.45681 468.330473 
L 912.915653 468.330473 
L 922.374496 468.330473 
L 931.833339 468.330473 
L 941.292182 468.330473 
L 950.751025 468.330473 
L 960.209868 468.330473 
L 969.668711 468.330473 
L 979.127554 468.330473 
L 988.586397 468.330473 
L 998.04524 468.330473 
L 1007.504083 468.330473 
L 1016.962926 468.330473 
L 1026.421769 468.330473 
L 1035.880612 468.330473 
L 1045.339455 468.330473 
L 1054.798298 468.330473 
L 1064.25714 468.330473 
L 1073.715983 468.330473 
L 1083.174826 468.330473 
L 1092.633669 468.330473 
L 1102.092512 468.330473 
L 1111.551355 468.330473 
L 1121.010198 468.330473 
L 1130.469041 468.330473 
L 1139.927884 468.330473 
L 1149.386727 468.330473 
" clip-path="url(#p7240fadf96)" style="fill: none; stroke: #000000; stroke-width: 1.5; stroke-linecap: square"/>
   </g>
   <g id="patch_3">
    <path d="M 166.14 624.1392 
L 166.14 84.1536 
" style="fill: none; stroke: #000000; stroke-width: 0.8; stroke-linejoin: miter; stroke-linecap: square"/>
   </g>
   <g id="patch_4">
    <path d="M 1196.208 624.1392 
L 1196.208 84.1536 
" style="fill: none; stroke: #000000; stroke-width: 0.8; stroke-linejoin: miter; stroke-linecap: square"/>
   </g>
   <g id="patch_5">
    <path d="M 166.14 624.1392 
L 1196.208 624.1392 
" style="fill: none; stroke: #000000; stroke-width: 0.8; stroke-linejoin: miter; stroke-linecap: square"/>
   </g>
   <g id="patch_6">
    <path d="M 166.14 84.1536 
L 1196.208 84.1536 
" style="fill: none; stroke: #000000; stroke-width: 0.8; stroke-linejoin: miter; stroke-linecap: square"/>
   </g>
   <g id="legend_1">
    <g id="patch_7">
     <path d="M 173.14 136.187975 
L 292.769688 136.187975 
Q 294.769688 136.187975 294.769688 134.187975 
L 294.769688 91.1536 
Q 294.769688 89.1536 292.769688 89.1536 
L 173.14 89.1536 
Q 171.14 89.1536 171.14 91.1536 
L 171.14 134.187975 
Q 171.14 136.187975 173.14 136.187975 
z
" style="fill: #ffffff; opacity: 0.8; stroke: #cccccc; stroke-linejoin: miter"/>
    </g>
    <g id="line2d_15">
     <path d="M 175.14 97.252038 
L 185.14 97.252038 
L 195.14 97.252038 
" style="fill: none; stroke: #1f77b4; stroke-width: 1.5; stroke-linecap: square"/>
    </g>
    <g id="text_14">
     <!-- 10 CG iterations -->
     <g transform="translate(203.14 100.752038) scale(0.1 -0.1)">
      <defs>
       <path id="DejaVuSans-20" transform="scale(0.015625)"/>
       <path id="DejaVuSans-43" d="M 4122 4306 
L 4122 3641 
Q 3803 3938 3442 4084 
Q 3081 4231 2675 4231 
Q 1875 4231 1450 3742 
Q 1025 3253 1025 2328 
Q 1025 1406 1450 917 
Q 1875 428 2675 428 
Q 3081 428 3442 575 
Q 3803 722 4122 1019 
L 4122 359 
Q 3791 134 3420 21 
Q 3050 -91 2638 -91 
Q 1578 -91 968 557 
Q 359 1206 359 2328 
Q 359 3453 968 4101 
Q 1578 4750 2638 4750 
Q 3056 4750 3426 4639 
Q 3797 4528 4122 4306 
z
" transform="scale(0.015625)"/>
       <path id="DejaVuSans-47" d="M 3809 666 
L 3809 1919 
L 2778 1919 
L 2778 2438 
L 4434 2438 
L 4434 434 
Q 4069 175 3628 42 
Q 3188 -91 2688 -91 
Q 1594 -91 976 548 
Q 359 1188 359 2328 
Q 359 3472 976 4111 
Q 1594 4750 2688 4750 
Q 3144 4750 3555 4637 
Q 3966 4525 4313 4306 
L 4313 3634 
Q 3963 3931 3569 4081 
Q 3175 4231 2741 4231 
Q 1884 4231 1454 3753 
Q 1025 3275 1025 2328 
Q 1025 1384 1454 906 
Q 1884 428 2741 428 
Q 3075 428 3337 486 
Q 3600 544 3809 666 
z
" transform="scale(0.015625)"/>
      </defs>
      <use xlink:href="#DejaVuSans-31"/>
      <use xlink:href="#DejaVuSans-30" x="63.623047"/>
      <use xlink:href="#DejaVuSans-20" x="127.246094"/>
      <use xlink:href="#DejaVuSans-43" x="159.033203"/>
      <use xlink:href="#DejaVuSans-47" x="228.857422"/>
      <use xlink:href="#DejaVuSans-20" x="306.347656"/>
      <use xlink:href="#DejaVuSans-69" x="338.134766"/>
      <use xlink:href="#DejaVuSans-74" x="365.917969"/>
      <use xlink:href="#DejaVuSans-65" x="405.126953"/>
      <use xlink:href="#DejaVuSans-72" x="466.650391"/>
      <use xlink:href="#DejaVuSans-61" x="507.763672"/>
      <use xlink:href="#DejaVuSans-74" x="569.042969"/>
      <use xlink:href="#DejaVuSans-69" x="608.251953"/>
      <use xlink:href="#DejaVuSans-6f" x="636.035156"/>
      <use xlink:href="#DejaVuSans-6e" x="697.216797"/>
      <use xlink:href="#DejaVuSans-73" x="760.595703"/>
     </g>
    </g>
    <g id="line2d_16">
     <path d="M 175.14 111.930163 
L 185.14 111.930163 
L 195.14 111.930163 
" style="fill: none; stroke: #ff7f0e; stroke-width: 1.5; stroke-linecap: square"/>
    </g>
    <g id="text_15">
     <!-- 100 CG iterations -->
     <g transform="translate(203.14 115.430163) scale(0.1 -0.1)">
      <use xlink:href="#DejaVuSans-31"/>
      <use xlink:href="#DejaVuSans-30" x="63.623047"/>
      <use xlink:href="#DejaVuSans-30" x="127.246094"/>
      <use xlink:href="#DejaVuSans-20" x="190.869141"/>
      <use xlink:href="#DejaVuSans-43" x="222.65625"/>
      <use xlink:href="#DejaVuSans-47" x="292.480469"/>
      <use xlink:href="#DejaVuSans-20" x="369.970703"/>
      <use xlink:href="#DejaVuSans-69" x="401.757812"/>
      <use xlink:href="#DejaVuSans-74" x="429.541016"/>
      <use xlink:href="#DejaVuSans-65" x="468.75"/>
      <use xlink:href="#DejaVuSans-72" x="530.273438"/>
      <use xlink:href="#DejaVuSans-61" x="571.386719"/>
      <use xlink:href="#DejaVuSans-74" x="632.666016"/>
      <use xlink:href="#DejaVuSans-69" x="671.875"/>
      <use xlink:href="#DejaVuSans-6f" x="699.658203"/>
      <use xlink:href="#DejaVuSans-6e" x="760.839844"/>
      <use xlink:href="#DejaVuSans-73" x="824.21875"/>
     </g>
    </g>
    <g id="line2d_17">
     <path d="M 175.14 126.608288 
L 185.14 126.608288 
L 195.14 126.608288 
" style="fill: none; stroke: #000000; stroke-width: 1.5; stroke-linecap: square"/>
    </g>
    <g id="text_16">
     <!-- limit -->
     <g transform="translate(203.14 130.108288) scale(0.1 -0.1)">
      <defs>
       <path id="DejaVuSans-6c" d="M 603 4863 
L 1178 4863 
L 1178 0 
L 603 0 
L 603 4863 
z
" transform="scale(0.015625)"/>
       <path id="DejaVuSans-6d" d="M 3328 2828 
Q 3544 3216 3844 3400 
Q 4144 3584 4550 3584 
Q 5097 3584 5394 3201 
Q 5691 2819 5691 2113 
L 5691 0 
L 5113 0 
L 5113 2094 
Q 5113 2597 4934 2840 
Q 4756 3084 4391 3084 
Q 3944 3084 3684 2787 
Q 3425 2491 3425 1978 
L 3425 0 
L 2847 0 
L 2847 2094 
Q 2847 2600 2669 2842 
Q 2491 3084 2119 3084 
Q 1678 3084 1418 2786 
Q 1159 2488 1159 1978 
L 1159 0 
L 581 0 
L 581 3500 
L 1159 3500 
L 1159 2956 
Q 1356 3278 1631 3431 
Q 1906 3584 2284 3584 
Q 2666 3584 2933 3390 
Q 3200 3197 3328 2828 
z
" transform="scale(0.015625)"/>
      </defs>
      <use xlink:href="#DejaVuSans-6c"/>
      <use xlink:href="#DejaVuSans-69" x="27.783203"/>
      <use xlink:href="#DejaVuSans-6d" x="55.566406"/>
      <use xlink:href="#DejaVuSans-69" x="152.978516"/>
      <use xlink:href="#DejaVuSans-74" x="180.761719"/>
     </g>
    </g>
   </g>
  </g>
 </g>
 <defs>
  <clipPath id="p7240fadf96">
   <rect x="166.14" y="84.1536" width="1030.068" height="539.9856"/>
  </clipPath>
 </defs>
</svg>
