<?xml version="1.0" encoding="utf-8" standalone="no"?>
<!DOCTYPE svg PUBLIC "-//W3C//DTD SVG 1.1//EN"
  "http://www.w3.org/Graphics/SVG/1.1/DTD/svg11.dtd">
<svg xmlns:xlink="http://www.w3.org/1999/xlink" width="1329.12pt" height="701.28pt" viewBox="0 0 1329.12 701.28" xmlns="http://www.w3.org/2000/svg" version="1.1">
 <metadata>
  <rdf:RDF xmlns:dc="http://purl.org/dc/elements/1.1/" xmlns:cc="http://creativecommons.org/ns#" xmlns:rdf="http://www.w3.org/1999/02/22-rdf-syntax-ns#">
   <cc:Work>
    <dc:type rdf:resource="http://purl.org/dc/dcmitype/StillImage"/>
    <dc:date>2023-03-23T16:32:51.909586</dc:date>
    <dc:format>image/svg+xml</dc:format>
    <dc:creator>
     <cc:Agent>
      <dc:title>Matplotlib v3.7.1, https://matplotlib.org/</dc:title>
     </cc:Agent>
    </dc:creator>
   </cc:Work>
  </rdf:RDF>
 </metadata>
 <defs>
  <style type="text/css">*{stroke-linejoin: round; stroke-linecap: butt}</style>
 </defs>
 <g id="figure_1">
  <g id="patch_1">
   <path d="M 0 701.28 
L 1329.12 701.28 
L 1329.12 0 
L 0 0 
z
" style="fill: #ffffff"/>
  </g>
  <g id="axes_1">
   <g id="patch_2">
    <path d="M 166.14 624.1392 
L 1196.208 624.1392 
L 1196.208 84.1536 
L 166.14 84.1536 
z
" style="fill: #ffffff"/>
   </g>
   <g id="matplotlib.axis_1">
    <g id="xtick_1">
     <g id="line2d_1">
      <defs>
       <path id="m2bf6a51f9e" d="M 0 0 
L 0 3.5 
" style="stroke: #000000; stroke-width: 0.8"/>
      </defs>
      <g>
       <use xlink:href="#m2bf6a51f9e" x="203.50243" y="624.1392" style="stroke: #000000; stroke-width: 0.8"/>
      </g>
     </g>
     <g id="text_1">
      <!-- 0 -->
      <g transform="translate(200.32118 638.737638) scale(0.1 -0.1)">
       <defs>
        <path id="DejaVuSans-30" d="M 2034 4250 
Q 1547 4250 1301 3770 
Q 1056 3291 1056 2328 
Q 1056 1369 1301 889 
Q 1547 409 2034 409 
Q 2525 409 2770 889 
Q 3016 1369 3016 2328 
Q 3016 3291 2770 3770 
Q 2525 4250 2034 4250 
z
M 2034 4750 
Q 2819 4750 3233 4129 
Q 3647 3509 3647 2328 
Q 3647 1150 3233 529 
Q 2819 -91 2034 -91 
Q 1250 -91 836 529 
Q 422 1150 422 2328 
Q 422 3509 836 4129 
Q 1250 4750 2034 4750 
z
" transform="scale(0.015625)"/>
       </defs>
       <use xlink:href="#DejaVuSans-30"/>
      </g>
     </g>
    </g>
    <g id="xtick_2">
     <g id="line2d_2">
      <g>
       <use xlink:href="#m2bf6a51f9e" x="392.679289" y="624.1392" style="stroke: #000000; stroke-width: 0.8"/>
      </g>
     </g>
     <g id="text_2">
      <!-- 20 -->
      <g transform="translate(386.316789 638.737638) scale(0.1 -0.1)">
       <defs>
        <path id="DejaVuSans-32" d="M 1228 531 
L 3431 531 
L 3431 0 
L 469 0 
L 469 531 
Q 828 903 1448 1529 
Q 2069 2156 2228 2338 
Q 2531 2678 2651 2914 
Q 2772 3150 2772 3378 
Q 2772 3750 2511 3984 
Q 2250 4219 1831 4219 
Q 1534 4219 1204 4116 
Q 875 4013 500 3803 
L 500 4441 
Q 881 4594 1212 4672 
Q 1544 4750 1819 4750 
Q 2544 4750 2975 4387 
Q 3406 4025 3406 3419 
Q 3406 3131 3298 2873 
Q 3191 2616 2906 2266 
Q 2828 2175 2409 1742 
Q 1991 1309 1228 531 
z
" transform="scale(0.015625)"/>
       </defs>
       <use xlink:href="#DejaVuSans-32"/>
       <use xlink:href="#DejaVuSans-30" x="63.623047"/>
      </g>
     </g>
    </g>
    <g id="xtick_3">
     <g id="line2d_3">
      <g>
       <use xlink:href="#m2bf6a51f9e" x="581.856149" y="624.1392" style="stroke: #000000; stroke-width: 0.8"/>
      </g>
     </g>
     <g id="text_3">
      <!-- 40 -->
      <g transform="translate(575.493649 638.737638) scale(0.1 -0.1)">
       <defs>
        <path id="DejaVuSans-34" d="M 2419 4116 
L 825 1625 
L 2419 1625 
L 2419 4116 
z
M 2253 4666 
L 3047 4666 
L 3047 1625 
L 3713 1625 
L 3713 1100 
L 3047 1100 
L 3047 0 
L 2419 0 
L 2419 1100 
L 313 1100 
L 313 1709 
L 2253 4666 
z
" transform="scale(0.015625)"/>
       </defs>
       <use xlink:href="#DejaVuSans-34"/>
       <use xlink:href="#DejaVuSans-30" x="63.623047"/>
      </g>
     </g>
    </g>
    <g id="xtick_4">
     <g id="line2d_4">
      <g>
       <use xlink:href="#m2bf6a51f9e" x="771.033008" y="624.1392" style="stroke: #000000; stroke-width: 0.8"/>
      </g>
     </g>
     <g id="text_4">
      <!-- 60 -->
      <g transform="translate(764.670508 638.737638) scale(0.1 -0.1)">
       <defs>
        <path id="DejaVuSans-36" d="M 2113 2584 
Q 1688 2584 1439 2293 
Q 1191 2003 1191 1497 
Q 1191 994 1439 701 
Q 1688 409 2113 409 
Q 2538 409 2786 701 
Q 3034 994 3034 1497 
Q 3034 2003 2786 2293 
Q 2538 2584 2113 2584 
z
M 3366 4563 
L 3366 3988 
Q 3128 4100 2886 4159 
Q 2644 4219 2406 4219 
Q 1781 4219 1451 3797 
Q 1122 3375 1075 2522 
Q 1259 2794 1537 2939 
Q 1816 3084 2150 3084 
Q 2853 3084 3261 2657 
Q 3669 2231 3669 1497 
Q 3669 778 3244 343 
Q 2819 -91 2113 -91 
Q 1303 -91 875 529 
Q 447 1150 447 2328 
Q 447 3434 972 4092 
Q 1497 4750 2381 4750 
Q 2619 4750 2861 4703 
Q 3103 4656 3366 4563 
z
" transform="scale(0.015625)"/>
       </defs>
       <use xlink:href="#DejaVuSans-36"/>
       <use xlink:href="#DejaVuSans-30" x="63.623047"/>
      </g>
     </g>
    </g>
    <g id="xtick_5">
     <g id="line2d_5">
      <g>
       <use xlink:href="#m2bf6a51f9e" x="960.209868" y="624.1392" style="stroke: #000000; stroke-width: 0.8"/>
      </g>
     </g>
     <g id="text_5">
      <!-- 80 -->
      <g transform="translate(953.847368 638.737638) scale(0.1 -0.1)">
       <defs>
        <path id="DejaVuSans-38" d="M 2034 2216 
Q 1584 2216 1326 1975 
Q 1069 1734 1069 1313 
Q 1069 891 1326 650 
Q 1584 409 2034 409 
Q 2484 409 2743 651 
Q 3003 894 3003 1313 
Q 3003 1734 2745 1975 
Q 2488 2216 2034 2216 
z
M 1403 2484 
Q 997 2584 770 2862 
Q 544 3141 544 3541 
Q 544 4100 942 4425 
Q 1341 4750 2034 4750 
Q 2731 4750 3128 4425 
Q 3525 4100 3525 3541 
Q 3525 3141 3298 2862 
Q 3072 2584 2669 2484 
Q 3125 2378 3379 2068 
Q 3634 1759 3634 1313 
Q 3634 634 3220 271 
Q 2806 -91 2034 -91 
Q 1263 -91 848 271 
Q 434 634 434 1313 
Q 434 1759 690 2068 
Q 947 2378 1403 2484 
z
M 1172 3481 
Q 1172 3119 1398 2916 
Q 1625 2713 2034 2713 
Q 2441 2713 2670 2916 
Q 2900 3119 2900 3481 
Q 2900 3844 2670 4047 
Q 2441 4250 2034 4250 
Q 1625 4250 1398 4047 
Q 1172 3844 1172 3481 
z
" transform="scale(0.015625)"/>
       </defs>
       <use xlink:href="#DejaVuSans-38"/>
       <use xlink:href="#DejaVuSans-30" x="63.623047"/>
      </g>
     </g>
    </g>
    <g id="xtick_6">
     <g id="line2d_6">
      <g>
       <use xlink:href="#m2bf6a51f9e" x="1149.386727" y="624.1392" style="stroke: #000000; stroke-width: 0.8"/>
      </g>
     </g>
     <g id="text_6">
      <!-- 100 -->
      <g transform="translate(1139.842977 638.737638) scale(0.1 -0.1)">
       <defs>
        <path id="DejaVuSans-31" d="M 794 531 
L 1825 531 
L 1825 4091 
L 703 3866 
L 703 4441 
L 1819 4666 
L 2450 4666 
L 2450 531 
L 3481 531 
L 3481 0 
L 794 0 
L 794 531 
z
" transform="scale(0.015625)"/>
       </defs>
       <use xlink:href="#DejaVuSans-31"/>
       <use xlink:href="#DejaVuSans-30" x="63.623047"/>
       <use xlink:href="#DejaVuSans-30" x="127.246094"/>
      </g>
     </g>
    </g>
    <g id="text_7">
     <!-- iterations -->
     <g transform="translate(657.446656 652.415763) scale(0.1 -0.1)">
      <defs>
       <path id="DejaVuSans-69" d="M 603 3500 
L 1178 3500 
L 1178 0 
L 603 0 
L 603 3500 
z
M 603 4863 
L 1178 4863 
L 1178 4134 
L 603 4134 
L 603 4863 
z
" transform="scale(0.015625)"/>
       <path id="DejaVuSans-74" d="M 1172 4494 
L 1172 3500 
L 2356 3500 
L 2356 3053 
L 1172 3053 
L 1172 1153 
Q 1172 725 1289 603 
Q 1406 481 1766 481 
L 2356 481 
L 2356 0 
L 1766 0 
Q 1100 0 847 248 
Q 594 497 594 1153 
L 594 3053 
L 172 3053 
L 172 3500 
L 594 3500 
L 594 4494 
L 1172 4494 
z
" transform="scale(0.015625)"/>
       <path id="DejaVuSans-65" d="M 3597 1894 
L 3597 1613 
L 953 1613 
Q 991 1019 1311 708 
Q 1631 397 2203 397 
Q 2534 397 2845 478 
Q 3156 559 3463 722 
L 3463 178 
Q 3153 47 2828 -22 
Q 2503 -91 2169 -91 
Q 1331 -91 842 396 
Q 353 884 353 1716 
Q 353 2575 817 3079 
Q 1281 3584 2069 3584 
Q 2775 3584 3186 3129 
Q 3597 2675 3597 1894 
z
M 3022 2063 
Q 3016 2534 2758 2815 
Q 2500 3097 2075 3097 
Q 1594 3097 1305 2825 
Q 1016 2553 972 2059 
L 3022 2063 
z
" transform="scale(0.015625)"/>
       <path id="DejaVuSans-72" d="M 2631 2963 
Q 2534 3019 2420 3045 
Q 2306 3072 2169 3072 
Q 1681 3072 1420 2755 
Q 1159 2438 1159 1844 
L 1159 0 
L 581 0 
L 581 3500 
L 1159 3500 
L 1159 2956 
Q 1341 3275 1631 3429 
Q 1922 3584 2338 3584 
Q 2397 3584 2469 3576 
Q 2541 3569 2628 3553 
L 2631 2963 
z
" transform="scale(0.015625)"/>
       <path id="DejaVuSans-61" d="M 2194 1759 
Q 1497 1759 1228 1600 
Q 959 1441 959 1056 
Q 959 750 1161 570 
Q 1363 391 1709 391 
Q 2188 391 2477 730 
Q 2766 1069 2766 1631 
L 2766 1759 
L 2194 1759 
z
M 3341 1997 
L 3341 0 
L 2766 0 
L 2766 531 
Q 2569 213 2275 61 
Q 1981 -91 1556 -91 
Q 1019 -91 701 211 
Q 384 513 384 1019 
Q 384 1609 779 1909 
Q 1175 2209 1959 2209 
L 2766 2209 
L 2766 2266 
Q 2766 2663 2505 2880 
Q 2244 3097 1772 3097 
Q 1472 3097 1187 3025 
Q 903 2953 641 2809 
L 641 3341 
Q 956 3463 1253 3523 
Q 1550 3584 1831 3584 
Q 2591 3584 2966 3190 
Q 3341 2797 3341 1997 
z
" transform="scale(0.015625)"/>
       <path id="DejaVuSans-6f" d="M 1959 3097 
Q 1497 3097 1228 2736 
Q 959 2375 959 1747 
Q 959 1119 1226 758 
Q 1494 397 1959 397 
Q 2419 397 2687 759 
Q 2956 1122 2956 1747 
Q 2956 2369 2687 2733 
Q 2419 3097 1959 3097 
z
M 1959 3584 
Q 2709 3584 3137 3096 
Q 3566 2609 3566 1747 
Q 3566 888 3137 398 
Q 2709 -91 1959 -91 
Q 1206 -91 779 398 
Q 353 888 353 1747 
Q 353 2609 779 3096 
Q 1206 3584 1959 3584 
z
" transform="scale(0.015625)"/>
       <path id="DejaVuSans-6e" d="M 3513 2113 
L 3513 0 
L 2938 0 
L 2938 2094 
Q 2938 2591 2744 2837 
Q 2550 3084 2163 3084 
Q 1697 3084 1428 2787 
Q 1159 2491 1159 1978 
L 1159 0 
L 581 0 
L 581 3500 
L 1159 3500 
L 1159 2956 
Q 1366 3272 1645 3428 
Q 1925 3584 2291 3584 
Q 2894 3584 3203 3211 
Q 3513 2838 3513 2113 
z
" transform="scale(0.015625)"/>
       <path id="DejaVuSans-73" d="M 2834 3397 
L 2834 2853 
Q 2591 2978 2328 3040 
Q 2066 3103 1784 3103 
Q 1356 3103 1142 2972 
Q 928 2841 928 2578 
Q 928 2378 1081 2264 
Q 1234 2150 1697 2047 
L 1894 2003 
Q 2506 1872 2764 1633 
Q 3022 1394 3022 966 
Q 3022 478 2636 193 
Q 2250 -91 1575 -91 
Q 1294 -91 989 -36 
Q 684 19 347 128 
L 347 722 
Q 666 556 975 473 
Q 1284 391 1588 391 
Q 1994 391 2212 530 
Q 2431 669 2431 922 
Q 2431 1156 2273 1281 
Q 2116 1406 1581 1522 
L 1381 1569 
Q 847 1681 609 1914 
Q 372 2147 372 2553 
Q 372 3047 722 3315 
Q 1072 3584 1716 3584 
Q 2034 3584 2315 3537 
Q 2597 3491 2834 3397 
z
" transform="scale(0.015625)"/>
      </defs>
      <use xlink:href="#DejaVuSans-69"/>
      <use xlink:href="#DejaVuSans-74" x="27.783203"/>
      <use xlink:href="#DejaVuSans-65" x="66.992188"/>
      <use xlink:href="#DejaVuSans-72" x="128.515625"/>
      <use xlink:href="#DejaVuSans-61" x="169.628906"/>
      <use xlink:href="#DejaVuSans-74" x="230.908203"/>
      <use xlink:href="#DejaVuSans-69" x="270.117188"/>
      <use xlink:href="#DejaVuSans-6f" x="297.900391"/>
      <use xlink:href="#DejaVuSans-6e" x="359.082031"/>
      <use xlink:href="#DejaVuSans-73" x="422.460938"/>
     </g>
    </g>
   </g>
   <g id="matplotlib.axis_2">
    <g id="ytick_1">
     <g id="line2d_7">
      <defs>
       <path id="mf4168aa356" d="M 0 0 
L -3.5 0 
" style="stroke: #000000; stroke-width: 0.8"/>
      </defs>
      <g>
       <use xlink:href="#mf4168aa356" x="166.14" y="566.048875" style="stroke: #000000; stroke-width: 0.8"/>
      </g>
     </g>
     <g id="text_8">
      <!-- 1 -->
      <g transform="translate(152.7775 569.848094) scale(0.1 -0.1)">
       <use xlink:href="#DejaVuSans-31"/>
      </g>
     </g>
    </g>
    <g id="ytick_2">
     <g id="line2d_8">
      <g>
       <use xlink:href="#mf4168aa356" x="166.14" y="469.862798" style="stroke: #000000; stroke-width: 0.8"/>
      </g>
     </g>
     <g id="text_9">
      <!-- 2 -->
      <g transform="translate(152.7775 473.662016) scale(0.1 -0.1)">
       <use xlink:href="#DejaVuSans-32"/>
      </g>
     </g>
    </g>
    <g id="ytick_3">
     <g id="line2d_9">
      <g>
       <use xlink:href="#mf4168aa356" x="166.14" y="373.67672" style="stroke: #000000; stroke-width: 0.8"/>
      </g>
     </g>
     <g id="text_10">
      <!-- 3 -->
      <g transform="translate(152.7775 377.475939) scale(0.1 -0.1)">
       <defs>
        <path id="DejaVuSans-33" d="M 2597 2516 
Q 3050 2419 3304 2112 
Q 3559 1806 3559 1356 
Q 3559 666 3084 287 
Q 2609 -91 1734 -91 
Q 1441 -91 1130 -33 
Q 819 25 488 141 
L 488 750 
Q 750 597 1062 519 
Q 1375 441 1716 441 
Q 2309 441 2620 675 
Q 2931 909 2931 1356 
Q 2931 1769 2642 2001 
Q 2353 2234 1838 2234 
L 1294 2234 
L 1294 2753 
L 1863 2753 
Q 2328 2753 2575 2939 
Q 2822 3125 2822 3475 
Q 2822 3834 2567 4026 
Q 2313 4219 1838 4219 
Q 1578 4219 1281 4162 
Q 984 4106 628 3988 
L 628 4550 
Q 988 4650 1302 4700 
Q 1616 4750 1894 4750 
Q 2613 4750 3031 4423 
Q 3450 4097 3450 3541 
Q 3450 3153 3228 2886 
Q 3006 2619 2597 2516 
z
" transform="scale(0.015625)"/>
       </defs>
       <use xlink:href="#DejaVuSans-33"/>
      </g>
     </g>
    </g>
    <g id="ytick_4">
     <g id="line2d_10">
      <g>
       <use xlink:href="#mf4168aa356" x="166.14" y="277.490643" style="stroke: #000000; stroke-width: 0.8"/>
      </g>
     </g>
     <g id="text_11">
      <!-- 4 -->
      <g transform="translate(152.7775 281.289862) scale(0.1 -0.1)">
       <use xlink:href="#DejaVuSans-34"/>
      </g>
     </g>
    </g>
    <g id="ytick_5">
     <g id="line2d_11">
      <g>
       <use xlink:href="#mf4168aa356" x="166.14" y="181.304565" style="stroke: #000000; stroke-width: 0.8"/>
      </g>
     </g>
     <g id="text_12">
      <!-- 5 -->
      <g transform="translate(152.7775 185.103784) scale(0.1 -0.1)">
       <defs>
        <path id="DejaVuSans-35" d="M 691 4666 
L 3169 4666 
L 3169 4134 
L 1269 4134 
L 1269 2991 
Q 1406 3038 1543 3061 
Q 1681 3084 1819 3084 
Q 2600 3084 3056 2656 
Q 3513 2228 3513 1497 
Q 3513 744 3044 326 
Q 2575 -91 1722 -91 
Q 1428 -91 1123 -41 
Q 819 9 494 109 
L 494 744 
Q 775 591 1075 516 
Q 1375 441 1709 441 
Q 2250 441 2565 725 
Q 2881 1009 2881 1497 
Q 2881 1984 2565 2268 
Q 2250 2553 1709 2553 
Q 1456 2553 1204 2497 
Q 953 2441 691 2322 
L 691 4666 
z
" transform="scale(0.015625)"/>
       </defs>
       <use xlink:href="#DejaVuSans-35"/>
      </g>
     </g>
    </g>
    <g id="ytick_6">
     <g id="line2d_12">
      <g>
       <use xlink:href="#mf4168aa356" x="166.14" y="85.118488" style="stroke: #000000; stroke-width: 0.8"/>
      </g>
     </g>
     <g id="text_13">
      <!-- 6 -->
      <g transform="translate(152.7775 88.917707) scale(0.1 -0.1)">
       <use xlink:href="#DejaVuSans-36"/>
      </g>
     </g>
    </g>
    <g id="text_14">
     <!-- constraint -->
     <g transform="translate(146.697812 379.326087) rotate(-90) scale(0.1 -0.1)">
      <defs>
       <path id="DejaVuSans-63" d="M 3122 3366 
L 3122 2828 
Q 2878 2963 2633 3030 
Q 2388 3097 2138 3097 
Q 1578 3097 1268 2742 
Q 959 2388 959 1747 
Q 959 1106 1268 751 
Q 1578 397 2138 397 
Q 2388 397 2633 464 
Q 2878 531 3122 666 
L 3122 134 
Q 2881 22 2623 -34 
Q 2366 -91 2075 -91 
Q 1284 -91 818 406 
Q 353 903 353 1747 
Q 353 2603 823 3093 
Q 1294 3584 2113 3584 
Q 2378 3584 2631 3529 
Q 2884 3475 3122 3366 
z
" transform="scale(0.015625)"/>
      </defs>
      <use xlink:href="#DejaVuSans-63"/>
      <use xlink:href="#DejaVuSans-6f" x="54.980469"/>
      <use xlink:href="#DejaVuSans-6e" x="116.162109"/>
      <use xlink:href="#DejaVuSans-73" x="179.541016"/>
      <use xlink:href="#DejaVuSans-74" x="231.640625"/>
      <use xlink:href="#DejaVuSans-72" x="270.849609"/>
      <use xlink:href="#DejaVuSans-61" x="311.962891"/>
      <use xlink:href="#DejaVuSans-69" x="373.242188"/>
      <use xlink:href="#DejaVuSans-6e" x="401.025391"/>
      <use xlink:href="#DejaVuSans-74" x="464.404297"/>
     </g>
    </g>
   </g>
   <g id="line2d_13">
    <path d="M 212.961273 260.225483 
L 222.420116 330.811346 
L 231.878959 437.746106 
L 241.337802 305.406689 
L 250.796645 368.328319 
L 260.255488 404.354562 
L 269.714331 294.636012 
L 279.173174 473.28312 
L 288.632017 397.894356 
L 298.09086 199.086417 
L 307.549702 494.498295 
L 317.008545 220.054271 
L 326.467388 272.732189 
L 335.926231 464.345859 
L 345.385074 306.321037 
L 354.843917 524.318891 
L 364.30276 373.123 
L 373.761603 182.879568 
L 383.220446 416.252814 
L 392.679289 457.69922 
L 402.138132 330.946715 
L 411.596975 429.271937 
L 421.055818 532.038982 
L 430.514661 282.51378 
L 439.973504 413.927305 
L 449.432347 499.606243 
L 458.89119 108.6984 
L 468.350033 287.009564 
L 477.808876 454.902005 
L 487.267719 394.429759 
L 496.726562 164.694072 
L 506.185405 273.272176 
L 515.644248 496.009668 
L 525.103091 302.884377 
L 534.561934 488.326668 
L 544.020777 301.75929 
L 553.47962 461.354038 
L 562.938463 288.559471 
L 572.397306 520.538974 
L 581.856149 343.259681 
L 591.314992 473.450341 
L 600.773835 161.615849 
L 610.232678 481.270255 
L 619.691521 436.797909 
L 629.150364 186.05812 
L 638.609207 281.782605 
L 648.06805 222.678685 
L 657.526893 476.619462 
L 666.985736 431.625078 
L 676.444579 304.974842 
L 685.903421 460.339245 
L 695.362264 309.948596 
L 704.821107 516.668119 
L 714.27995 366.491338 
L 723.738793 363.483606 
L 733.197636 485.777913 
L 742.656479 380.370249 
L 752.115322 213.50962 
L 761.574165 400.495452 
L 771.033008 164.15871 
L 780.491851 524.939309 
L 789.950694 254.584223 
L 799.409537 536.463381 
L 808.86838 295.801875 
L 818.327223 486.787139 
L 827.786066 363.09716 
L 837.244909 530.613981 
L 846.703752 270.209013 
L 856.162595 528.628533 
L 865.621438 358.361846 
L 875.080281 462.000744 
L 884.539124 401.532784 
L 893.997967 145.64372 
L 903.45681 490.451255 
L 912.915653 282.791629 
L 922.374496 352.024738 
L 931.833339 599.5944 
L 941.292182 538.011659 
L 950.751025 530.210129 
L 960.209868 373.951284 
L 969.668711 146.812552 
L 979.127554 375.216607 
L 988.586397 275.347422 
L 998.04524 503.429237 
L 1007.504083 427.22596 
L 1016.962926 247.833215 
L 1026.421769 528.876389 
L 1035.880612 473.375844 
L 1045.339455 244.685098 
L 1054.798298 537.020593 
L 1064.25714 449.708118 
L 1073.715983 395.694983 
L 1083.174826 121.581102 
L 1092.633669 345.193563 
L 1102.092512 390.724314 
L 1111.551355 226.196459 
L 1121.010198 476.113875 
L 1130.469041 415.966513 
L 1139.927884 464.533488 
L 1149.386727 284.539763 
" clip-path="url(#pdfddfa5723)" style="fill: none; stroke: #1f77b4; stroke-width: 1.5; stroke-linecap: square"/>
   </g>
   <g id="line2d_14">
    <path d="M 212.961273 222.441119 
L 222.420116 313.63693 
L 231.878959 379.96384 
L 241.337802 192.285776 
L 250.796645 444.176083 
L 260.255488 205.162379 
L 269.714331 291.418054 
L 279.173174 319.43987 
L 288.632017 450.77549 
L 298.09086 491.745732 
L 307.549702 458.995213 
L 317.008545 191.466343 
L 326.467388 429.860141 
L 335.926231 352.173211 
L 345.385074 516.703148 
L 354.843917 339.1148 
L 364.30276 465.322016 
L 373.761603 408.187802 
L 383.220446 432.85534 
L 392.679289 268.928367 
L 402.138132 451.795464 
L 411.596975 413.883256 
L 421.055818 194.274461 
L 430.514661 415.914271 
L 439.973504 184.247526 
L 449.432347 454.877074 
L 458.89119 328.192635 
L 468.350033 398.437127 
L 477.808876 375.961214 
L 487.267719 367.419131 
L 496.726562 422.753753 
L 506.185405 362.628568 
L 515.644248 392.981213 
L 525.103091 347.543149 
L 534.561934 382.119094 
L 544.020777 315.38143 
L 553.47962 416.129841 
L 562.938463 412.487465 
L 572.397306 394.189692 
L 581.856149 139.633599 
L 591.314992 406.712475 
L 600.773835 229.07815 
L 610.232678 493.916412 
L 619.691521 312.771438 
L 629.150364 419.841882 
L 638.609207 361.60287 
L 648.06805 489.170809 
L 657.526893 445.777272 
L 666.985736 238.962262 
L 676.444579 449.022935 
L 685.903421 373.957787 
L 695.362264 177.805681 
L 704.821107 307.143397 
L 714.27995 496.84512 
L 723.738793 279.880397 
L 733.197636 496.14623 
L 742.656479 385.288843 
L 752.115322 147.491288 
L 761.574165 320.429821 
L 771.033008 464.401107 
L 780.491851 346.636716 
L 789.950694 566.620199 
L 799.409537 323.763226 
L 808.86838 500.390701 
L 818.327223 422.11682 
L 827.786066 337.738376 
L 837.244909 416.08248 
L 846.703752 489.606652 
L 856.162595 276.949014 
L 865.621438 506.733721 
L 875.080281 511.966806 
L 884.539124 224.777995 
L 893.997967 408.843257 
L 903.45681 199.435732 
L 912.915653 431.314414 
L 922.374496 382.3682 
L 931.833339 351.889789 
L 941.292182 501.167814 
L 950.751025 394.490928 
L 960.209868 276.709793 
L 969.668711 545.169276 
L 979.127554 349.544115 
L 988.586397 497.745088 
L 998.04524 376.849992 
L 1007.504083 364.256121 
L 1016.962926 340.960105 
L 1026.421769 404.867712 
L 1035.880612 411.935787 
L 1045.339455 186.836976 
L 1054.798298 381.555156 
L 1064.25714 279.438236 
L 1073.715983 422.024379 
L 1083.174826 426.323816 
L 1092.633669 298.021922 
L 1102.092512 455.672527 
L 1111.551355 274.688871 
L 1121.010198 441.199712 
L 1130.469041 200.714351 
L 1139.927884 377.363628 
L 1149.386727 334.79956 
" clip-path="url(#pdfddfa5723)" style="fill: none; stroke: #ff7f0e; stroke-width: 1.5; stroke-linecap: square"/>
   </g>
   <g id="line2d_15">
    <path d="M 212.961273 373.67672 
L 222.420116 373.67672 
L 231.878959 373.67672 
L 241.337802 373.67672 
L 250.796645 373.67672 
L 260.255488 373.67672 
L 269.714331 373.67672 
L 279.173174 373.67672 
L 288.632017 373.67672 
L 298.09086 373.67672 
L 307.549702 373.67672 
L 317.008545 373.67672 
L 326.467388 373.67672 
L 335.926231 373.67672 
L 345.385074 373.67672 
L 354.843917 373.67672 
L 364.30276 373.67672 
L 373.761603 373.67672 
L 383.220446 373.67672 
L 392.679289 373.67672 
L 402.138132 373.67672 
L 411.596975 373.67672 
L 421.055818 373.67672 
L 430.514661 373.67672 
L 439.973504 373.67672 
L 449.432347 373.67672 
L 458.89119 373.67672 
L 468.350033 373.67672 
L 477.808876 373.67672 
L 487.267719 373.67672 
L 496.726562 373.67672 
L 506.185405 373.67672 
L 515.644248 373.67672 
L 525.103091 373.67672 
L 534.561934 373.67672 
L 544.020777 373.67672 
L 553.47962 373.67672 
L 562.938463 373.67672 
L 572.397306 373.67672 
L 581.856149 373.67672 
L 591.314992 373.67672 
L 600.773835 373.67672 
L 610.232678 373.67672 
L 619.691521 373.67672 
L 629.150364 373.67672 
L 638.609207 373.67672 
L 648.06805 373.67672 
L 657.526893 373.67672 
L 666.985736 373.67672 
L 676.444579 373.67672 
L 685.903421 373.67672 
L 695.362264 373.67672 
L 704.821107 373.67672 
L 714.27995 373.67672 
L 723.738793 373.67672 
L 733.197636 373.67672 
L 742.656479 373.67672 
L 752.115322 373.67672 
L 761.574165 373.67672 
L 771.033008 373.67672 
L 780.491851 373.67672 
L 789.950694 373.67672 
L 799.409537 373.67672 
L 808.86838 373.67672 
L 818.327223 373.67672 
L 827.786066 373.67672 
L 837.244909 373.67672 
L 846.703752 373.67672 
L 856.162595 373.67672 
L 865.621438 373.67672 
L 875.080281 373.67672 
L 884.539124 373.67672 
L 893.997967 373.67672 
L 903.45681 373.67672 
L 912.915653 373.67672 
L 922.374496 373.67672 
L 931.833339 373.67672 
L 941.292182 373.67672 
L 950.751025 373.67672 
L 960.209868 373.67672 
L 969.668711 373.67672 
L 979.127554 373.67672 
L 988.586397 373.67672 
L 998.04524 373.67672 
L 1007.504083 373.67672 
L 1016.962926 373.67672 
L 1026.421769 373.67672 
L 1035.880612 373.67672 
L 1045.339455 373.67672 
L 1054.798298 373.67672 
L 1064.25714 373.67672 
L 1073.715983 373.67672 
L 1083.174826 373.67672 
L 1092.633669 373.67672 
L 1102.092512 373.67672 
L 1111.551355 373.67672 
L 1121.010198 373.67672 
L 1130.469041 373.67672 
L 1139.927884 373.67672 
L 1149.386727 373.67672 
" clip-path="url(#pdfddfa5723)" style="fill: none; stroke: #000000; stroke-width: 1.5; stroke-linecap: square"/>
   </g>
   <g id="patch_3">
    <path d="M 166.14 624.1392 
L 166.14 84.1536 
" style="fill: none; stroke: #000000; stroke-width: 0.8; stroke-linejoin: miter; stroke-linecap: square"/>
   </g>
   <g id="patch_4">
    <path d="M 1196.208 624.1392 
L 1196.208 84.1536 
" style="fill: none; stroke: #000000; stroke-width: 0.8; stroke-linejoin: miter; stroke-linecap: square"/>
   </g>
   <g id="patch_5">
    <path d="M 166.14 624.1392 
L 1196.208 624.1392 
" style="fill: none; stroke: #000000; stroke-width: 0.8; stroke-linejoin: miter; stroke-linecap: square"/>
   </g>
   <g id="patch_6">
    <path d="M 166.14 84.1536 
L 1196.208 84.1536 
" style="fill: none; stroke: #000000; stroke-width: 0.8; stroke-linejoin: miter; stroke-linecap: square"/>
   </g>
   <g id="legend_1">
    <g id="patch_7">
     <path d="M 173.14 136.187975 
L 292.769688 136.187975 
Q 294.769688 136.187975 294.769688 134.187975 
L 294.769688 91.1536 
Q 294.769688 89.1536 292.769688 89.1536 
L 173.14 89.1536 
Q 171.14 89.1536 171.14 91.1536 
L 171.14 134.187975 
Q 171.14 136.187975 173.14 136.187975 
z
" style="fill: #ffffff; opacity: 0.8; stroke: #cccccc; stroke-linejoin: miter"/>
    </g>
    <g id="line2d_16">
     <path d="M 175.14 97.252038 
L 185.14 97.252038 
L 195.14 97.252038 
" style="fill: none; stroke: #1f77b4; stroke-width: 1.5; stroke-linecap: square"/>
    </g>
    <g id="text_15">
     <!-- 10 CG iterations -->
     <g transform="translate(203.14 100.752038) scale(0.1 -0.1)">
      <defs>
       <path id="DejaVuSans-20" transform="scale(0.015625)"/>
       <path id="DejaVuSans-43" d="M 4122 4306 
L 4122 3641 
Q 3803 3938 3442 4084 
Q 3081 4231 2675 4231 
Q 1875 4231 1450 3742 
Q 1025 3253 1025 2328 
Q 1025 1406 1450 917 
Q 1875 428 2675 428 
Q 3081 428 3442 575 
Q 3803 722 4122 1019 
L 4122 359 
Q 3791 134 3420 21 
Q 3050 -91 2638 -91 
Q 1578 -91 968 557 
Q 359 1206 359 2328 
Q 359 3453 968 4101 
Q 1578 4750 2638 4750 
Q 3056 4750 3426 4639 
Q 3797 4528 4122 4306 
z
" transform="scale(0.015625)"/>
       <path id="DejaVuSans-47" d="M 3809 666 
L 3809 1919 
L 2778 1919 
L 2778 2438 
L 4434 2438 
L 4434 434 
Q 4069 175 3628 42 
Q 3188 -91 2688 -91 
Q 1594 -91 976 548 
Q 359 1188 359 2328 
Q 359 3472 976 4111 
Q 1594 4750 2688 4750 
Q 3144 4750 3555 4637 
Q 3966 4525 4313 4306 
L 4313 3634 
Q 3963 3931 3569 4081 
Q 3175 4231 2741 4231 
Q 1884 4231 1454 3753 
Q 1025 3275 1025 2328 
Q 1025 1384 1454 906 
Q 1884 428 2741 428 
Q 3075 428 3337 486 
Q 3600 544 3809 666 
z
" transform="scale(0.015625)"/>
      </defs>
      <use xlink:href="#DejaVuSans-31"/>
      <use xlink:href="#DejaVuSans-30" x="63.623047"/>
      <use xlink:href="#DejaVuSans-20" x="127.246094"/>
      <use xlink:href="#DejaVuSans-43" x="159.033203"/>
      <use xlink:href="#DejaVuSans-47" x="228.857422"/>
      <use xlink:href="#DejaVuSans-20" x="306.347656"/>
      <use xlink:href="#DejaVuSans-69" x="338.134766"/>
      <use xlink:href="#DejaVuSans-74" x="365.917969"/>
      <use xlink:href="#DejaVuSans-65" x="405.126953"/>
      <use xlink:href="#DejaVuSans-72" x="466.650391"/>
      <use xlink:href="#DejaVuSans-61" x="507.763672"/>
      <use xlink:href="#DejaVuSans-74" x="569.042969"/>
      <use xlink:href="#DejaVuSans-69" x="608.251953"/>
      <use xlink:href="#DejaVuSans-6f" x="636.035156"/>
      <use xlink:href="#DejaVuSans-6e" x="697.216797"/>
      <use xlink:href="#DejaVuSans-73" x="760.595703"/>
     </g>
    </g>
    <g id="line2d_17">
     <path d="M 175.14 111.930163 
L 185.14 111.930163 
L 195.14 111.930163 
" style="fill: none; stroke: #ff7f0e; stroke-width: 1.5; stroke-linecap: square"/>
    </g>
    <g id="text_16">
     <!-- 100 CG iterations -->
     <g transform="translate(203.14 115.430163) scale(0.1 -0.1)">
      <use xlink:href="#DejaVuSans-31"/>
      <use xlink:href="#DejaVuSans-30" x="63.623047"/>
      <use xlink:href="#DejaVuSans-30" x="127.246094"/>
      <use xlink:href="#DejaVuSans-20" x="190.869141"/>
      <use xlink:href="#DejaVuSans-43" x="222.65625"/>
      <use xlink:href="#DejaVuSans-47" x="292.480469"/>
      <use xlink:href="#DejaVuSans-20" x="369.970703"/>
      <use xlink:href="#DejaVuSans-69" x="401.757812"/>
      <use xlink:href="#DejaVuSans-74" x="429.541016"/>
      <use xlink:href="#DejaVuSans-65" x="468.75"/>
      <use xlink:href="#DejaVuSans-72" x="530.273438"/>
      <use xlink:href="#DejaVuSans-61" x="571.386719"/>
      <use xlink:href="#DejaVuSans-74" x="632.666016"/>
      <use xlink:href="#DejaVuSans-69" x="671.875"/>
      <use xlink:href="#DejaVuSans-6f" x="699.658203"/>
      <use xlink:href="#DejaVuSans-6e" x="760.839844"/>
      <use xlink:href="#DejaVuSans-73" x="824.21875"/>
     </g>
    </g>
    <g id="line2d_18">
     <path d="M 175.14 126.608288 
L 185.14 126.608288 
L 195.14 126.608288 
" style="fill: none; stroke: #000000; stroke-width: 1.5; stroke-linecap: square"/>
    </g>
    <g id="text_17">
     <!-- limit -->
     <g transform="translate(203.14 130.108288) scale(0.1 -0.1)">
      <defs>
       <path id="DejaVuSans-6c" d="M 603 4863 
L 1178 4863 
L 1178 0 
L 603 0 
L 603 4863 
z
" transform="scale(0.015625)"/>
       <path id="DejaVuSans-6d" d="M 3328 2828 
Q 3544 3216 3844 3400 
Q 4144 3584 4550 3584 
Q 5097 3584 5394 3201 
Q 5691 2819 5691 2113 
L 5691 0 
L 5113 0 
L 5113 2094 
Q 5113 2597 4934 2840 
Q 4756 3084 4391 3084 
Q 3944 3084 3684 2787 
Q 3425 2491 3425 1978 
L 3425 0 
L 2847 0 
L 2847 2094 
Q 2847 2600 2669 2842 
Q 2491 3084 2119 3084 
Q 1678 3084 1418 2786 
Q 1159 2488 1159 1978 
L 1159 0 
L 581 0 
L 581 3500 
L 1159 3500 
L 1159 2956 
Q 1356 3278 1631 3431 
Q 1906 3584 2284 3584 
Q 2666 3584 2933 3390 
Q 3200 3197 3328 2828 
z
" transform="scale(0.015625)"/>
      </defs>
      <use xlink:href="#DejaVuSans-6c"/>
      <use xlink:href="#DejaVuSans-69" x="27.783203"/>
      <use xlink:href="#DejaVuSans-6d" x="55.566406"/>
      <use xlink:href="#DejaVuSans-69" x="152.978516"/>
      <use xlink:href="#DejaVuSans-74" x="180.761719"/>
     </g>
    </g>
   </g>
  </g>
 </g>
 <defs>
  <clipPath id="pdfddfa5723">
   <rect x="166.14" y="84.1536" width="1030.068" height="539.9856"/>
  </clipPath>
 </defs>
</svg>
