<?xml version="1.0" encoding="utf-8" standalone="no"?>
<!DOCTYPE svg PUBLIC "-//W3C//DTD SVG 1.1//EN"
  "http://www.w3.org/Graphics/SVG/1.1/DTD/svg11.dtd">
<svg xmlns:xlink="http://www.w3.org/1999/xlink" width="1329.12pt" height="701.28pt" viewBox="0 0 1329.12 701.28" xmlns="http://www.w3.org/2000/svg" version="1.1">
 <metadata>
  <rdf:RDF xmlns:dc="http://purl.org/dc/elements/1.1/" xmlns:cc="http://creativecommons.org/ns#" xmlns:rdf="http://www.w3.org/1999/02/22-rdf-syntax-ns#">
   <cc:Work>
    <dc:type rdf:resource="http://purl.org/dc/dcmitype/StillImage"/>
    <dc:date>2023-03-23T14:17:05.920093</dc:date>
    <dc:format>image/svg+xml</dc:format>
    <dc:creator>
     <cc:Agent>
      <dc:title>Matplotlib v3.7.1, https://matplotlib.org/</dc:title>
     </cc:Agent>
    </dc:creator>
   </cc:Work>
  </rdf:RDF>
 </metadata>
 <defs>
  <style type="text/css">*{stroke-linejoin: round; stroke-linecap: butt}</style>
 </defs>
 <g id="figure_1">
  <g id="patch_1">
   <path d="M 0 701.28 
L 1329.12 701.28 
L 1329.12 0 
L 0 0 
z
" style="fill: #ffffff"/>
  </g>
  <g id="axes_1">
   <g id="patch_2">
    <path d="M 166.14 329.6016 
L 1196.208 329.6016 
L 1196.208 84.1536 
L 166.14 84.1536 
z
" style="fill: #ffffff"/>
   </g>
   <g id="matplotlib.axis_1">
    <g id="xtick_1">
     <g id="line2d_1">
      <defs>
       <path id="md9ecfd7955" d="M 0 0 
L 0 3.5 
" style="stroke: #000000; stroke-width: 0.8"/>
      </defs>
      <g>
       <use xlink:href="#md9ecfd7955" x="203.50243" y="329.6016" style="stroke: #000000; stroke-width: 0.8"/>
      </g>
     </g>
     <g id="text_1">
      <!-- 0 -->
      <g transform="translate(200.32118 344.200037) scale(0.1 -0.1)">
       <defs>
        <path id="DejaVuSans-30" d="M 2034 4250 
Q 1547 4250 1301 3770 
Q 1056 3291 1056 2328 
Q 1056 1369 1301 889 
Q 1547 409 2034 409 
Q 2525 409 2770 889 
Q 3016 1369 3016 2328 
Q 3016 3291 2770 3770 
Q 2525 4250 2034 4250 
z
M 2034 4750 
Q 2819 4750 3233 4129 
Q 3647 3509 3647 2328 
Q 3647 1150 3233 529 
Q 2819 -91 2034 -91 
Q 1250 -91 836 529 
Q 422 1150 422 2328 
Q 422 3509 836 4129 
Q 1250 4750 2034 4750 
z
" transform="scale(0.015625)"/>
       </defs>
       <use xlink:href="#DejaVuSans-30"/>
      </g>
     </g>
    </g>
    <g id="xtick_2">
     <g id="line2d_2">
      <g>
       <use xlink:href="#md9ecfd7955" x="392.679289" y="329.6016" style="stroke: #000000; stroke-width: 0.8"/>
      </g>
     </g>
     <g id="text_2">
      <!-- 20 -->
      <g transform="translate(386.316789 344.200037) scale(0.1 -0.1)">
       <defs>
        <path id="DejaVuSans-32" d="M 1228 531 
L 3431 531 
L 3431 0 
L 469 0 
L 469 531 
Q 828 903 1448 1529 
Q 2069 2156 2228 2338 
Q 2531 2678 2651 2914 
Q 2772 3150 2772 3378 
Q 2772 3750 2511 3984 
Q 2250 4219 1831 4219 
Q 1534 4219 1204 4116 
Q 875 4013 500 3803 
L 500 4441 
Q 881 4594 1212 4672 
Q 1544 4750 1819 4750 
Q 2544 4750 2975 4387 
Q 3406 4025 3406 3419 
Q 3406 3131 3298 2873 
Q 3191 2616 2906 2266 
Q 2828 2175 2409 1742 
Q 1991 1309 1228 531 
z
" transform="scale(0.015625)"/>
       </defs>
       <use xlink:href="#DejaVuSans-32"/>
       <use xlink:href="#DejaVuSans-30" x="63.623047"/>
      </g>
     </g>
    </g>
    <g id="xtick_3">
     <g id="line2d_3">
      <g>
       <use xlink:href="#md9ecfd7955" x="581.856149" y="329.6016" style="stroke: #000000; stroke-width: 0.8"/>
      </g>
     </g>
     <g id="text_3">
      <!-- 40 -->
      <g transform="translate(575.493649 344.200037) scale(0.1 -0.1)">
       <defs>
        <path id="DejaVuSans-34" d="M 2419 4116 
L 825 1625 
L 2419 1625 
L 2419 4116 
z
M 2253 4666 
L 3047 4666 
L 3047 1625 
L 3713 1625 
L 3713 1100 
L 3047 1100 
L 3047 0 
L 2419 0 
L 2419 1100 
L 313 1100 
L 313 1709 
L 2253 4666 
z
" transform="scale(0.015625)"/>
       </defs>
       <use xlink:href="#DejaVuSans-34"/>
       <use xlink:href="#DejaVuSans-30" x="63.623047"/>
      </g>
     </g>
    </g>
    <g id="xtick_4">
     <g id="line2d_4">
      <g>
       <use xlink:href="#md9ecfd7955" x="771.033008" y="329.6016" style="stroke: #000000; stroke-width: 0.8"/>
      </g>
     </g>
     <g id="text_4">
      <!-- 60 -->
      <g transform="translate(764.670508 344.200037) scale(0.1 -0.1)">
       <defs>
        <path id="DejaVuSans-36" d="M 2113 2584 
Q 1688 2584 1439 2293 
Q 1191 2003 1191 1497 
Q 1191 994 1439 701 
Q 1688 409 2113 409 
Q 2538 409 2786 701 
Q 3034 994 3034 1497 
Q 3034 2003 2786 2293 
Q 2538 2584 2113 2584 
z
M 3366 4563 
L 3366 3988 
Q 3128 4100 2886 4159 
Q 2644 4219 2406 4219 
Q 1781 4219 1451 3797 
Q 1122 3375 1075 2522 
Q 1259 2794 1537 2939 
Q 1816 3084 2150 3084 
Q 2853 3084 3261 2657 
Q 3669 2231 3669 1497 
Q 3669 778 3244 343 
Q 2819 -91 2113 -91 
Q 1303 -91 875 529 
Q 447 1150 447 2328 
Q 447 3434 972 4092 
Q 1497 4750 2381 4750 
Q 2619 4750 2861 4703 
Q 3103 4656 3366 4563 
z
" transform="scale(0.015625)"/>
       </defs>
       <use xlink:href="#DejaVuSans-36"/>
       <use xlink:href="#DejaVuSans-30" x="63.623047"/>
      </g>
     </g>
    </g>
    <g id="xtick_5">
     <g id="line2d_5">
      <g>
       <use xlink:href="#md9ecfd7955" x="960.209868" y="329.6016" style="stroke: #000000; stroke-width: 0.8"/>
      </g>
     </g>
     <g id="text_5">
      <!-- 80 -->
      <g transform="translate(953.847368 344.200037) scale(0.1 -0.1)">
       <defs>
        <path id="DejaVuSans-38" d="M 2034 2216 
Q 1584 2216 1326 1975 
Q 1069 1734 1069 1313 
Q 1069 891 1326 650 
Q 1584 409 2034 409 
Q 2484 409 2743 651 
Q 3003 894 3003 1313 
Q 3003 1734 2745 1975 
Q 2488 2216 2034 2216 
z
M 1403 2484 
Q 997 2584 770 2862 
Q 544 3141 544 3541 
Q 544 4100 942 4425 
Q 1341 4750 2034 4750 
Q 2731 4750 3128 4425 
Q 3525 4100 3525 3541 
Q 3525 3141 3298 2862 
Q 3072 2584 2669 2484 
Q 3125 2378 3379 2068 
Q 3634 1759 3634 1313 
Q 3634 634 3220 271 
Q 2806 -91 2034 -91 
Q 1263 -91 848 271 
Q 434 634 434 1313 
Q 434 1759 690 2068 
Q 947 2378 1403 2484 
z
M 1172 3481 
Q 1172 3119 1398 2916 
Q 1625 2713 2034 2713 
Q 2441 2713 2670 2916 
Q 2900 3119 2900 3481 
Q 2900 3844 2670 4047 
Q 2441 4250 2034 4250 
Q 1625 4250 1398 4047 
Q 1172 3844 1172 3481 
z
" transform="scale(0.015625)"/>
       </defs>
       <use xlink:href="#DejaVuSans-38"/>
       <use xlink:href="#DejaVuSans-30" x="63.623047"/>
      </g>
     </g>
    </g>
    <g id="xtick_6">
     <g id="line2d_6">
      <g>
       <use xlink:href="#md9ecfd7955" x="1149.386727" y="329.6016" style="stroke: #000000; stroke-width: 0.8"/>
      </g>
     </g>
     <g id="text_6">
      <!-- 100 -->
      <g transform="translate(1139.842977 344.200037) scale(0.1 -0.1)">
       <defs>
        <path id="DejaVuSans-31" d="M 794 531 
L 1825 531 
L 1825 4091 
L 703 3866 
L 703 4441 
L 1819 4666 
L 2450 4666 
L 2450 531 
L 3481 531 
L 3481 0 
L 794 0 
L 794 531 
z
" transform="scale(0.015625)"/>
       </defs>
       <use xlink:href="#DejaVuSans-31"/>
       <use xlink:href="#DejaVuSans-30" x="63.623047"/>
       <use xlink:href="#DejaVuSans-30" x="127.246094"/>
      </g>
     </g>
    </g>
   </g>
   <g id="matplotlib.axis_2">
    <g id="ytick_1">
     <g id="line2d_7">
      <defs>
       <path id="m9796e2548f" d="M 0 0 
L -3.5 0 
" style="stroke: #000000; stroke-width: 0.8"/>
      </defs>
      <g>
       <use xlink:href="#m9796e2548f" x="166.14" y="320.608624" style="stroke: #000000; stroke-width: 0.8"/>
      </g>
     </g>
     <g id="text_7">
      <!-- 20 -->
      <g transform="translate(146.415 324.407843) scale(0.1 -0.1)">
       <use xlink:href="#DejaVuSans-32"/>
       <use xlink:href="#DejaVuSans-30" x="63.623047"/>
      </g>
     </g>
    </g>
    <g id="ytick_2">
     <g id="line2d_8">
      <g>
       <use xlink:href="#m9796e2548f" x="166.14" y="272.669505" style="stroke: #000000; stroke-width: 0.8"/>
      </g>
     </g>
     <g id="text_8">
      <!-- 30 -->
      <g transform="translate(146.415 276.468724) scale(0.1 -0.1)">
       <defs>
        <path id="DejaVuSans-33" d="M 2597 2516 
Q 3050 2419 3304 2112 
Q 3559 1806 3559 1356 
Q 3559 666 3084 287 
Q 2609 -91 1734 -91 
Q 1441 -91 1130 -33 
Q 819 25 488 141 
L 488 750 
Q 750 597 1062 519 
Q 1375 441 1716 441 
Q 2309 441 2620 675 
Q 2931 909 2931 1356 
Q 2931 1769 2642 2001 
Q 2353 2234 1838 2234 
L 1294 2234 
L 1294 2753 
L 1863 2753 
Q 2328 2753 2575 2939 
Q 2822 3125 2822 3475 
Q 2822 3834 2567 4026 
Q 2313 4219 1838 4219 
Q 1578 4219 1281 4162 
Q 984 4106 628 3988 
L 628 4550 
Q 988 4650 1302 4700 
Q 1616 4750 1894 4750 
Q 2613 4750 3031 4423 
Q 3450 4097 3450 3541 
Q 3450 3153 3228 2886 
Q 3006 2619 2597 2516 
z
" transform="scale(0.015625)"/>
       </defs>
       <use xlink:href="#DejaVuSans-33"/>
       <use xlink:href="#DejaVuSans-30" x="63.623047"/>
      </g>
     </g>
    </g>
    <g id="ytick_3">
     <g id="line2d_9">
      <g>
       <use xlink:href="#m9796e2548f" x="166.14" y="224.730385" style="stroke: #000000; stroke-width: 0.8"/>
      </g>
     </g>
     <g id="text_9">
      <!-- 40 -->
      <g transform="translate(146.415 228.529604) scale(0.1 -0.1)">
       <use xlink:href="#DejaVuSans-34"/>
       <use xlink:href="#DejaVuSans-30" x="63.623047"/>
      </g>
     </g>
    </g>
    <g id="ytick_4">
     <g id="line2d_10">
      <g>
       <use xlink:href="#m9796e2548f" x="166.14" y="176.791266" style="stroke: #000000; stroke-width: 0.8"/>
      </g>
     </g>
     <g id="text_10">
      <!-- 50 -->
      <g transform="translate(146.415 180.590485) scale(0.1 -0.1)">
       <defs>
        <path id="DejaVuSans-35" d="M 691 4666 
L 3169 4666 
L 3169 4134 
L 1269 4134 
L 1269 2991 
Q 1406 3038 1543 3061 
Q 1681 3084 1819 3084 
Q 2600 3084 3056 2656 
Q 3513 2228 3513 1497 
Q 3513 744 3044 326 
Q 2575 -91 1722 -91 
Q 1428 -91 1123 -41 
Q 819 9 494 109 
L 494 744 
Q 775 591 1075 516 
Q 1375 441 1709 441 
Q 2250 441 2565 725 
Q 2881 1009 2881 1497 
Q 2881 1984 2565 2268 
Q 2250 2553 1709 2553 
Q 1456 2553 1204 2497 
Q 953 2441 691 2322 
L 691 4666 
z
" transform="scale(0.015625)"/>
       </defs>
       <use xlink:href="#DejaVuSans-35"/>
       <use xlink:href="#DejaVuSans-30" x="63.623047"/>
      </g>
     </g>
    </g>
    <g id="ytick_5">
     <g id="line2d_11">
      <g>
       <use xlink:href="#m9796e2548f" x="166.14" y="128.852146" style="stroke: #000000; stroke-width: 0.8"/>
      </g>
     </g>
     <g id="text_11">
      <!-- 60 -->
      <g transform="translate(146.415 132.651365) scale(0.1 -0.1)">
       <use xlink:href="#DejaVuSans-36"/>
       <use xlink:href="#DejaVuSans-30" x="63.623047"/>
      </g>
     </g>
    </g>
    <g id="text_12">
     <!-- reward -->
     <g transform="translate(140.335313 224.192444) rotate(-90) scale(0.1 -0.1)">
      <defs>
       <path id="DejaVuSans-72" d="M 2631 2963 
Q 2534 3019 2420 3045 
Q 2306 3072 2169 3072 
Q 1681 3072 1420 2755 
Q 1159 2438 1159 1844 
L 1159 0 
L 581 0 
L 581 3500 
L 1159 3500 
L 1159 2956 
Q 1341 3275 1631 3429 
Q 1922 3584 2338 3584 
Q 2397 3584 2469 3576 
Q 2541 3569 2628 3553 
L 2631 2963 
z
" transform="scale(0.015625)"/>
       <path id="DejaVuSans-65" d="M 3597 1894 
L 3597 1613 
L 953 1613 
Q 991 1019 1311 708 
Q 1631 397 2203 397 
Q 2534 397 2845 478 
Q 3156 559 3463 722 
L 3463 178 
Q 3153 47 2828 -22 
Q 2503 -91 2169 -91 
Q 1331 -91 842 396 
Q 353 884 353 1716 
Q 353 2575 817 3079 
Q 1281 3584 2069 3584 
Q 2775 3584 3186 3129 
Q 3597 2675 3597 1894 
z
M 3022 2063 
Q 3016 2534 2758 2815 
Q 2500 3097 2075 3097 
Q 1594 3097 1305 2825 
Q 1016 2553 972 2059 
L 3022 2063 
z
" transform="scale(0.015625)"/>
       <path id="DejaVuSans-77" d="M 269 3500 
L 844 3500 
L 1563 769 
L 2278 3500 
L 2956 3500 
L 3675 769 
L 4391 3500 
L 4966 3500 
L 4050 0 
L 3372 0 
L 2619 2869 
L 1863 0 
L 1184 0 
L 269 3500 
z
" transform="scale(0.015625)"/>
       <path id="DejaVuSans-61" d="M 2194 1759 
Q 1497 1759 1228 1600 
Q 959 1441 959 1056 
Q 959 750 1161 570 
Q 1363 391 1709 391 
Q 2188 391 2477 730 
Q 2766 1069 2766 1631 
L 2766 1759 
L 2194 1759 
z
M 3341 1997 
L 3341 0 
L 2766 0 
L 2766 531 
Q 2569 213 2275 61 
Q 1981 -91 1556 -91 
Q 1019 -91 701 211 
Q 384 513 384 1019 
Q 384 1609 779 1909 
Q 1175 2209 1959 2209 
L 2766 2209 
L 2766 2266 
Q 2766 2663 2505 2880 
Q 2244 3097 1772 3097 
Q 1472 3097 1187 3025 
Q 903 2953 641 2809 
L 641 3341 
Q 956 3463 1253 3523 
Q 1550 3584 1831 3584 
Q 2591 3584 2966 3190 
Q 3341 2797 3341 1997 
z
" transform="scale(0.015625)"/>
       <path id="DejaVuSans-64" d="M 2906 2969 
L 2906 4863 
L 3481 4863 
L 3481 0 
L 2906 0 
L 2906 525 
Q 2725 213 2448 61 
Q 2172 -91 1784 -91 
Q 1150 -91 751 415 
Q 353 922 353 1747 
Q 353 2572 751 3078 
Q 1150 3584 1784 3584 
Q 2172 3584 2448 3432 
Q 2725 3281 2906 2969 
z
M 947 1747 
Q 947 1113 1208 752 
Q 1469 391 1925 391 
Q 2381 391 2643 752 
Q 2906 1113 2906 1747 
Q 2906 2381 2643 2742 
Q 2381 3103 1925 3103 
Q 1469 3103 1208 2742 
Q 947 2381 947 1747 
z
" transform="scale(0.015625)"/>
      </defs>
      <use xlink:href="#DejaVuSans-72"/>
      <use xlink:href="#DejaVuSans-65" x="38.863281"/>
      <use xlink:href="#DejaVuSans-77" x="100.386719"/>
      <use xlink:href="#DejaVuSans-61" x="182.173828"/>
      <use xlink:href="#DejaVuSans-72" x="243.453125"/>
      <use xlink:href="#DejaVuSans-64" x="282.816406"/>
     </g>
    </g>
   </g>
   <g id="line2d_12">
    <path d="M 212.961273 306.51269 
L 222.420116 316.813854 
L 231.878959 318.444873 
L 241.337802 289.351065 
L 250.796645 297.852266 
L 260.255488 295.499336 
L 269.714331 292.103471 
L 279.173174 275.761231 
L 288.632017 263.37704 
L 298.09086 245.890881 
L 307.549702 232.275349 
L 317.008545 253.421587 
L 326.467388 208.346909 
L 335.926231 238.752139 
L 345.385074 209.180641 
L 354.843917 183.30375 
L 364.30276 156.901631 
L 373.761603 204.241623 
L 383.220446 194.795551 
L 392.679289 181.767803 
L 402.138132 202.243154 
L 411.596975 178.007282 
L 421.055818 181.95394 
L 430.514661 172.816116 
L 439.973504 161.988359 
L 449.432347 185.546344 
L 458.89119 164.08069 
L 468.350033 139.57819 
L 477.808876 190.007209 
L 487.267719 158.269905 
L 496.726562 166.59041 
L 506.185405 131.35454 
L 515.644248 152.003233 
L 525.103091 201.49352 
L 534.561934 197.83357 
L 544.020777 154.641854 
L 553.47962 117.156156 
L 562.938463 168.259316 
L 572.397306 129.788566 
L 581.856149 174.815239 
L 591.314992 175.874783 
L 600.773835 172.620092 
L 610.232678 149.947971 
L 619.691521 168.507579 
L 629.150364 185.205991 
L 638.609207 165.42109 
L 648.06805 170.617469 
L 657.526893 156.301158 
L 666.985736 191.970142 
L 676.444579 160.491965 
L 685.903421 179.420936 
L 695.362264 137.872803 
L 704.821107 160.399582 
L 714.27995 186.603104 
L 723.738793 155.142969 
L 733.197636 173.789138 
L 742.656479 109.850823 
L 752.115322 149.336402 
L 761.574165 116.33471 
L 771.033008 165.280948 
L 780.491851 117.16878 
L 789.950694 167.178921 
L 799.409537 96.049214 
L 808.86838 146.575483 
L 818.327223 161.344216 
L 827.786066 182.389911 
L 837.244909 150.42475 
L 846.703752 168.103071 
L 856.162595 180.230377 
L 865.621438 123.344855 
L 875.080281 160.317641 
L 884.539124 142.483187 
L 893.997967 140.876875 
L 903.45681 164.432536 
L 912.915653 132.502683 
L 922.374496 160.012574 
L 931.833339 143.637717 
L 941.292182 129.201557 
L 950.751025 124.043924 
L 960.209868 136.188075 
L 969.668711 143.287148 
L 979.127554 149.698595 
L 988.586397 150.893859 
L 998.04524 151.386029 
L 1007.504083 117.446448 
L 1016.962926 169.982003 
L 1026.421769 167.49325 
L 1035.880612 109.148728 
L 1045.339455 116.962079 
L 1054.798298 137.457285 
L 1064.25714 133.37212 
L 1073.715983 128.796565 
L 1083.174826 156.442371 
L 1092.633669 134.583112 
L 1102.092512 124.75116 
L 1111.551355 112.472947 
L 1121.010198 114.691668 
L 1130.469041 123.142382 
L 1139.927884 102.418426 
L 1149.386727 95.310327 
" clip-path="url(#p64ab57acf3)" style="fill: none; stroke: #1f77b4; stroke-width: 1.5; stroke-linecap: square"/>
   </g>
   <g id="patch_3">
    <path d="M 166.14 329.6016 
L 166.14 84.1536 
" style="fill: none; stroke: #000000; stroke-width: 0.8; stroke-linejoin: miter; stroke-linecap: square"/>
   </g>
   <g id="patch_4">
    <path d="M 1196.208 329.6016 
L 1196.208 84.1536 
" style="fill: none; stroke: #000000; stroke-width: 0.8; stroke-linejoin: miter; stroke-linecap: square"/>
   </g>
   <g id="patch_5">
    <path d="M 166.14 329.6016 
L 1196.208 329.6016 
" style="fill: none; stroke: #000000; stroke-width: 0.8; stroke-linejoin: miter; stroke-linecap: square"/>
   </g>
   <g id="patch_6">
    <path d="M 166.14 84.1536 
L 1196.208 84.1536 
" style="fill: none; stroke: #000000; stroke-width: 0.8; stroke-linejoin: miter; stroke-linecap: square"/>
   </g>
  </g>
  <g id="axes_2">
   <g id="patch_7">
    <path d="M 166.14 624.1392 
L 1196.208 624.1392 
L 1196.208 378.6912 
L 166.14 378.6912 
z
" style="fill: #ffffff"/>
   </g>
   <g id="matplotlib.axis_3">
    <g id="xtick_7">
     <g id="line2d_13">
      <g>
       <use xlink:href="#md9ecfd7955" x="203.50243" y="624.1392" style="stroke: #000000; stroke-width: 0.8"/>
      </g>
     </g>
     <g id="text_13">
      <!-- 0 -->
      <g transform="translate(200.32118 638.737638) scale(0.1 -0.1)">
       <use xlink:href="#DejaVuSans-30"/>
      </g>
     </g>
    </g>
    <g id="xtick_8">
     <g id="line2d_14">
      <g>
       <use xlink:href="#md9ecfd7955" x="392.679289" y="624.1392" style="stroke: #000000; stroke-width: 0.8"/>
      </g>
     </g>
     <g id="text_14">
      <!-- 20 -->
      <g transform="translate(386.316789 638.737638) scale(0.1 -0.1)">
       <use xlink:href="#DejaVuSans-32"/>
       <use xlink:href="#DejaVuSans-30" x="63.623047"/>
      </g>
     </g>
    </g>
    <g id="xtick_9">
     <g id="line2d_15">
      <g>
       <use xlink:href="#md9ecfd7955" x="581.856149" y="624.1392" style="stroke: #000000; stroke-width: 0.8"/>
      </g>
     </g>
     <g id="text_15">
      <!-- 40 -->
      <g transform="translate(575.493649 638.737638) scale(0.1 -0.1)">
       <use xlink:href="#DejaVuSans-34"/>
       <use xlink:href="#DejaVuSans-30" x="63.623047"/>
      </g>
     </g>
    </g>
    <g id="xtick_10">
     <g id="line2d_16">
      <g>
       <use xlink:href="#md9ecfd7955" x="771.033008" y="624.1392" style="stroke: #000000; stroke-width: 0.8"/>
      </g>
     </g>
     <g id="text_16">
      <!-- 60 -->
      <g transform="translate(764.670508 638.737638) scale(0.1 -0.1)">
       <use xlink:href="#DejaVuSans-36"/>
       <use xlink:href="#DejaVuSans-30" x="63.623047"/>
      </g>
     </g>
    </g>
    <g id="xtick_11">
     <g id="line2d_17">
      <g>
       <use xlink:href="#md9ecfd7955" x="960.209868" y="624.1392" style="stroke: #000000; stroke-width: 0.8"/>
      </g>
     </g>
     <g id="text_17">
      <!-- 80 -->
      <g transform="translate(953.847368 638.737638) scale(0.1 -0.1)">
       <use xlink:href="#DejaVuSans-38"/>
       <use xlink:href="#DejaVuSans-30" x="63.623047"/>
      </g>
     </g>
    </g>
    <g id="xtick_12">
     <g id="line2d_18">
      <g>
       <use xlink:href="#md9ecfd7955" x="1149.386727" y="624.1392" style="stroke: #000000; stroke-width: 0.8"/>
      </g>
     </g>
     <g id="text_18">
      <!-- 100 -->
      <g transform="translate(1139.842977 638.737638) scale(0.1 -0.1)">
       <use xlink:href="#DejaVuSans-31"/>
       <use xlink:href="#DejaVuSans-30" x="63.623047"/>
       <use xlink:href="#DejaVuSans-30" x="127.246094"/>
      </g>
     </g>
    </g>
   </g>
   <g id="matplotlib.axis_4">
    <g id="ytick_6">
     <g id="line2d_19">
      <g>
       <use xlink:href="#m9796e2548f" x="166.14" y="607.293742" style="stroke: #000000; stroke-width: 0.8"/>
      </g>
     </g>
     <g id="text_19">
      <!-- 1 -->
      <g transform="translate(152.7775 611.09296) scale(0.1 -0.1)">
       <use xlink:href="#DejaVuSans-31"/>
      </g>
     </g>
    </g>
    <g id="ytick_7">
     <g id="line2d_20">
      <g>
       <use xlink:href="#m9796e2548f" x="166.14" y="566.351873" style="stroke: #000000; stroke-width: 0.8"/>
      </g>
     </g>
     <g id="text_20">
      <!-- 2 -->
      <g transform="translate(152.7775 570.151092) scale(0.1 -0.1)">
       <use xlink:href="#DejaVuSans-32"/>
      </g>
     </g>
    </g>
    <g id="ytick_8">
     <g id="line2d_21">
      <g>
       <use xlink:href="#m9796e2548f" x="166.14" y="525.410005" style="stroke: #000000; stroke-width: 0.8"/>
      </g>
     </g>
     <g id="text_21">
      <!-- 3 -->
      <g transform="translate(152.7775 529.209223) scale(0.1 -0.1)">
       <use xlink:href="#DejaVuSans-33"/>
      </g>
     </g>
    </g>
    <g id="ytick_9">
     <g id="line2d_22">
      <g>
       <use xlink:href="#m9796e2548f" x="166.14" y="484.468136" style="stroke: #000000; stroke-width: 0.8"/>
      </g>
     </g>
     <g id="text_22">
      <!-- 4 -->
      <g transform="translate(152.7775 488.267355) scale(0.1 -0.1)">
       <use xlink:href="#DejaVuSans-34"/>
      </g>
     </g>
    </g>
    <g id="ytick_10">
     <g id="line2d_23">
      <g>
       <use xlink:href="#m9796e2548f" x="166.14" y="443.526268" style="stroke: #000000; stroke-width: 0.8"/>
      </g>
     </g>
     <g id="text_23">
      <!-- 5 -->
      <g transform="translate(152.7775 447.325487) scale(0.1 -0.1)">
       <use xlink:href="#DejaVuSans-35"/>
      </g>
     </g>
    </g>
    <g id="ytick_11">
     <g id="line2d_24">
      <g>
       <use xlink:href="#m9796e2548f" x="166.14" y="402.584399" style="stroke: #000000; stroke-width: 0.8"/>
      </g>
     </g>
     <g id="text_24">
      <!-- 6 -->
      <g transform="translate(152.7775 406.383618) scale(0.1 -0.1)">
       <use xlink:href="#DejaVuSans-36"/>
      </g>
     </g>
    </g>
    <g id="text_25">
     <!-- constraint -->
     <g transform="translate(146.697812 526.594887) rotate(-90) scale(0.1 -0.1)">
      <defs>
       <path id="DejaVuSans-63" d="M 3122 3366 
L 3122 2828 
Q 2878 2963 2633 3030 
Q 2388 3097 2138 3097 
Q 1578 3097 1268 2742 
Q 959 2388 959 1747 
Q 959 1106 1268 751 
Q 1578 397 2138 397 
Q 2388 397 2633 464 
Q 2878 531 3122 666 
L 3122 134 
Q 2881 22 2623 -34 
Q 2366 -91 2075 -91 
Q 1284 -91 818 406 
Q 353 903 353 1747 
Q 353 2603 823 3093 
Q 1294 3584 2113 3584 
Q 2378 3584 2631 3529 
Q 2884 3475 3122 3366 
z
" transform="scale(0.015625)"/>
       <path id="DejaVuSans-6f" d="M 1959 3097 
Q 1497 3097 1228 2736 
Q 959 2375 959 1747 
Q 959 1119 1226 758 
Q 1494 397 1959 397 
Q 2419 397 2687 759 
Q 2956 1122 2956 1747 
Q 2956 2369 2687 2733 
Q 2419 3097 1959 3097 
z
M 1959 3584 
Q 2709 3584 3137 3096 
Q 3566 2609 3566 1747 
Q 3566 888 3137 398 
Q 2709 -91 1959 -91 
Q 1206 -91 779 398 
Q 353 888 353 1747 
Q 353 2609 779 3096 
Q 1206 3584 1959 3584 
z
" transform="scale(0.015625)"/>
       <path id="DejaVuSans-6e" d="M 3513 2113 
L 3513 0 
L 2938 0 
L 2938 2094 
Q 2938 2591 2744 2837 
Q 2550 3084 2163 3084 
Q 1697 3084 1428 2787 
Q 1159 2491 1159 1978 
L 1159 0 
L 581 0 
L 581 3500 
L 1159 3500 
L 1159 2956 
Q 1366 3272 1645 3428 
Q 1925 3584 2291 3584 
Q 2894 3584 3203 3211 
Q 3513 2838 3513 2113 
z
" transform="scale(0.015625)"/>
       <path id="DejaVuSans-73" d="M 2834 3397 
L 2834 2853 
Q 2591 2978 2328 3040 
Q 2066 3103 1784 3103 
Q 1356 3103 1142 2972 
Q 928 2841 928 2578 
Q 928 2378 1081 2264 
Q 1234 2150 1697 2047 
L 1894 2003 
Q 2506 1872 2764 1633 
Q 3022 1394 3022 966 
Q 3022 478 2636 193 
Q 2250 -91 1575 -91 
Q 1294 -91 989 -36 
Q 684 19 347 128 
L 347 722 
Q 666 556 975 473 
Q 1284 391 1588 391 
Q 1994 391 2212 530 
Q 2431 669 2431 922 
Q 2431 1156 2273 1281 
Q 2116 1406 1581 1522 
L 1381 1569 
Q 847 1681 609 1914 
Q 372 2147 372 2553 
Q 372 3047 722 3315 
Q 1072 3584 1716 3584 
Q 2034 3584 2315 3537 
Q 2597 3491 2834 3397 
z
" transform="scale(0.015625)"/>
       <path id="DejaVuSans-74" d="M 1172 4494 
L 1172 3500 
L 2356 3500 
L 2356 3053 
L 1172 3053 
L 1172 1153 
Q 1172 725 1289 603 
Q 1406 481 1766 481 
L 2356 481 
L 2356 0 
L 1766 0 
Q 1100 0 847 248 
Q 594 497 594 1153 
L 594 3053 
L 172 3053 
L 172 3500 
L 594 3500 
L 594 4494 
L 1172 4494 
z
" transform="scale(0.015625)"/>
       <path id="DejaVuSans-69" d="M 603 3500 
L 1178 3500 
L 1178 0 
L 603 0 
L 603 3500 
z
M 603 4863 
L 1178 4863 
L 1178 4134 
L 603 4134 
L 603 4863 
z
" transform="scale(0.015625)"/>
      </defs>
      <use xlink:href="#DejaVuSans-63"/>
      <use xlink:href="#DejaVuSans-6f" x="54.980469"/>
      <use xlink:href="#DejaVuSans-6e" x="116.162109"/>
      <use xlink:href="#DejaVuSans-73" x="179.541016"/>
      <use xlink:href="#DejaVuSans-74" x="231.640625"/>
      <use xlink:href="#DejaVuSans-72" x="270.849609"/>
      <use xlink:href="#DejaVuSans-61" x="311.962891"/>
      <use xlink:href="#DejaVuSans-69" x="373.242188"/>
      <use xlink:href="#DejaVuSans-6e" x="401.025391"/>
      <use xlink:href="#DejaVuSans-74" x="464.404297"/>
     </g>
    </g>
   </g>
   <g id="line2d_25">
    <path d="M 212.961273 447.269716 
L 222.420116 490.44195 
L 231.878959 516.606571 
L 241.337802 550.557529 
L 250.796645 509.148341 
L 260.255488 482.607967 
L 269.714331 507.441494 
L 279.173174 549.083872 
L 288.632017 528.375355 
L 298.09086 519.824454 
L 307.549702 562.680895 
L 317.008545 475.293901 
L 326.467388 584.265051 
L 335.926231 516.204122 
L 345.385074 598.122472 
L 354.843917 584.284225 
L 364.30276 545.627592 
L 373.761603 515.401586 
L 383.220446 567.991573 
L 392.679289 530.268706 
L 402.138132 474.805914 
L 411.596975 612.982473 
L 421.055818 531.753925 
L 430.514661 421.82945 
L 439.973504 556.687409 
L 449.432347 500.059429 
L 458.89119 570.32765 
L 468.350033 547.450846 
L 477.808876 500.502185 
L 487.267719 558.735498 
L 496.726562 435.016339 
L 506.185405 551.041401 
L 515.644248 389.847927 
L 525.103091 496.037511 
L 534.561934 591.690039 
L 544.020777 572.205459 
L 553.47962 544.032861 
L 562.938463 485.055308 
L 572.397306 556.360506 
L 581.856149 466.161301 
L 591.314992 556.871734 
L 600.773835 498.741106 
L 610.232678 565.972554 
L 619.691521 534.580835 
L 629.150364 537.272663 
L 638.609207 515.080918 
L 648.06805 531.830683 
L 657.526893 577.934028 
L 666.985736 520.103322 
L 676.444579 540.350199 
L 685.903421 490.370349 
L 695.362264 593.433114 
L 704.821107 578.353971 
L 714.27995 526.411966 
L 723.738793 417.100397 
L 733.197636 496.329088 
L 742.656479 545.547391 
L 752.115322 578.509402 
L 761.574165 528.194893 
L 771.033008 489.522386 
L 780.491851 550.801757 
L 789.950694 502.792813 
L 799.409537 561.930402 
L 808.86838 511.10782 
L 818.327223 572.94816 
L 827.786066 460.192172 
L 837.244909 570.329047 
L 846.703752 504.737224 
L 856.162595 590.29468 
L 865.621438 532.583004 
L 875.080281 547.548844 
L 884.539124 493.361665 
L 893.997967 537.926081 
L 903.45681 520.872762 
L 912.915653 560.666176 
L 922.374496 546.73347 
L 931.833339 485.759735 
L 941.292182 526.056894 
L 950.751025 485.187798 
L 960.209868 538.382184 
L 969.668711 471.038965 
L 979.127554 576.986171 
L 988.586397 500.82341 
L 998.04524 577.617286 
L 1007.504083 566.765297 
L 1016.962926 493.77945 
L 1026.421769 498.600308 
L 1035.880612 582.072672 
L 1045.339455 534.128125 
L 1054.798298 530.883927 
L 1064.25714 533.102085 
L 1073.715983 423.562597 
L 1083.174826 435.72304 
L 1092.633669 573.624135 
L 1102.092512 479.989768 
L 1111.551355 588.40648 
L 1121.010198 534.279811 
L 1130.469041 482.022013 
L 1139.927884 551.264849 
L 1149.386727 509.762396 
" clip-path="url(#p5b7ca680a3)" style="fill: none; stroke: #1f77b4; stroke-width: 1.5; stroke-linecap: square"/>
   </g>
   <g id="line2d_26">
    <path d="M 212.961273 525.410005 
L 222.420116 525.410005 
L 231.878959 525.410005 
L 241.337802 525.410005 
L 250.796645 525.410005 
L 260.255488 525.410005 
L 269.714331 525.410005 
L 279.173174 525.410005 
L 288.632017 525.410005 
L 298.09086 525.410005 
L 307.549702 525.410005 
L 317.008545 525.410005 
L 326.467388 525.410005 
L 335.926231 525.410005 
L 345.385074 525.410005 
L 354.843917 525.410005 
L 364.30276 525.410005 
L 373.761603 525.410005 
L 383.220446 525.410005 
L 392.679289 525.410005 
L 402.138132 525.410005 
L 411.596975 525.410005 
L 421.055818 525.410005 
L 430.514661 525.410005 
L 439.973504 525.410005 
L 449.432347 525.410005 
L 458.89119 525.410005 
L 468.350033 525.410005 
L 477.808876 525.410005 
L 487.267719 525.410005 
L 496.726562 525.410005 
L 506.185405 525.410005 
L 515.644248 525.410005 
L 525.103091 525.410005 
L 534.561934 525.410005 
L 544.020777 525.410005 
L 553.47962 525.410005 
L 562.938463 525.410005 
L 572.397306 525.410005 
L 581.856149 525.410005 
L 591.314992 525.410005 
L 600.773835 525.410005 
L 610.232678 525.410005 
L 619.691521 525.410005 
L 629.150364 525.410005 
L 638.609207 525.410005 
L 648.06805 525.410005 
L 657.526893 525.410005 
L 666.985736 525.410005 
L 676.444579 525.410005 
L 685.903421 525.410005 
L 695.362264 525.410005 
L 704.821107 525.410005 
L 714.27995 525.410005 
L 723.738793 525.410005 
L 733.197636 525.410005 
L 742.656479 525.410005 
L 752.115322 525.410005 
L 761.574165 525.410005 
L 771.033008 525.410005 
L 780.491851 525.410005 
L 789.950694 525.410005 
L 799.409537 525.410005 
L 808.86838 525.410005 
L 818.327223 525.410005 
L 827.786066 525.410005 
L 837.244909 525.410005 
L 846.703752 525.410005 
L 856.162595 525.410005 
L 865.621438 525.410005 
L 875.080281 525.410005 
L 884.539124 525.410005 
L 893.997967 525.410005 
L 903.45681 525.410005 
L 912.915653 525.410005 
L 922.374496 525.410005 
L 931.833339 525.410005 
L 941.292182 525.410005 
L 950.751025 525.410005 
L 960.209868 525.410005 
L 969.668711 525.410005 
L 979.127554 525.410005 
L 988.586397 525.410005 
L 998.04524 525.410005 
L 1007.504083 525.410005 
L 1016.962926 525.410005 
L 1026.421769 525.410005 
L 1035.880612 525.410005 
L 1045.339455 525.410005 
L 1054.798298 525.410005 
L 1064.25714 525.410005 
L 1073.715983 525.410005 
L 1083.174826 525.410005 
L 1092.633669 525.410005 
L 1102.092512 525.410005 
L 1111.551355 525.410005 
L 1121.010198 525.410005 
L 1130.469041 525.410005 
L 1139.927884 525.410005 
L 1149.386727 525.410005 
" clip-path="url(#p5b7ca680a3)" style="fill: none; stroke: #000000; stroke-width: 1.5; stroke-linecap: square"/>
   </g>
   <g id="patch_8">
    <path d="M 166.14 624.1392 
L 166.14 378.6912 
" style="fill: none; stroke: #000000; stroke-width: 0.8; stroke-linejoin: miter; stroke-linecap: square"/>
   </g>
   <g id="patch_9">
    <path d="M 1196.208 624.1392 
L 1196.208 378.6912 
" style="fill: none; stroke: #000000; stroke-width: 0.8; stroke-linejoin: miter; stroke-linecap: square"/>
   </g>
   <g id="patch_10">
    <path d="M 166.14 624.1392 
L 1196.208 624.1392 
" style="fill: none; stroke: #000000; stroke-width: 0.8; stroke-linejoin: miter; stroke-linecap: square"/>
   </g>
   <g id="patch_11">
    <path d="M 166.14 378.6912 
L 1196.208 378.6912 
" style="fill: none; stroke: #000000; stroke-width: 0.8; stroke-linejoin: miter; stroke-linecap: square"/>
   </g>
   <g id="legend_1">
    <g id="patch_12">
     <path d="M 1135.212688 401.369325 
L 1189.208 401.369325 
Q 1191.208 401.369325 1191.208 399.369325 
L 1191.208 385.6912 
Q 1191.208 383.6912 1189.208 383.6912 
L 1135.212688 383.6912 
Q 1133.212688 383.6912 1133.212688 385.6912 
L 1133.212688 399.369325 
Q 1133.212688 401.369325 1135.212688 401.369325 
z
" style="fill: #ffffff; opacity: 0.8; stroke: #cccccc; stroke-linejoin: miter"/>
    </g>
    <g id="line2d_27">
     <path d="M 1137.212688 391.789638 
L 1147.212688 391.789638 
L 1157.212688 391.789638 
" style="fill: none; stroke: #000000; stroke-width: 1.5; stroke-linecap: square"/>
    </g>
    <g id="text_26">
     <!-- limit -->
     <g transform="translate(1165.212688 395.289638) scale(0.1 -0.1)">
      <defs>
       <path id="DejaVuSans-6c" d="M 603 4863 
L 1178 4863 
L 1178 0 
L 603 0 
L 603 4863 
z
" transform="scale(0.015625)"/>
       <path id="DejaVuSans-6d" d="M 3328 2828 
Q 3544 3216 3844 3400 
Q 4144 3584 4550 3584 
Q 5097 3584 5394 3201 
Q 5691 2819 5691 2113 
L 5691 0 
L 5113 0 
L 5113 2094 
Q 5113 2597 4934 2840 
Q 4756 3084 4391 3084 
Q 3944 3084 3684 2787 
Q 3425 2491 3425 1978 
L 3425 0 
L 2847 0 
L 2847 2094 
Q 2847 2600 2669 2842 
Q 2491 3084 2119 3084 
Q 1678 3084 1418 2786 
Q 1159 2488 1159 1978 
L 1159 0 
L 581 0 
L 581 3500 
L 1159 3500 
L 1159 2956 
Q 1356 3278 1631 3431 
Q 1906 3584 2284 3584 
Q 2666 3584 2933 3390 
Q 3200 3197 3328 2828 
z
" transform="scale(0.015625)"/>
      </defs>
      <use xlink:href="#DejaVuSans-6c"/>
      <use xlink:href="#DejaVuSans-69" x="27.783203"/>
      <use xlink:href="#DejaVuSans-6d" x="55.566406"/>
      <use xlink:href="#DejaVuSans-69" x="152.978516"/>
      <use xlink:href="#DejaVuSans-74" x="180.761719"/>
     </g>
    </g>
   </g>
  </g>
  <g id="text_27">
   <!-- 20 CG iterations -->
   <g transform="translate(615.799688 23.143725) scale(0.12 -0.12)">
    <defs>
     <path id="DejaVuSans-20" transform="scale(0.015625)"/>
     <path id="DejaVuSans-43" d="M 4122 4306 
L 4122 3641 
Q 3803 3938 3442 4084 
Q 3081 4231 2675 4231 
Q 1875 4231 1450 3742 
Q 1025 3253 1025 2328 
Q 1025 1406 1450 917 
Q 1875 428 2675 428 
Q 3081 428 3442 575 
Q 3803 722 4122 1019 
L 4122 359 
Q 3791 134 3420 21 
Q 3050 -91 2638 -91 
Q 1578 -91 968 557 
Q 359 1206 359 2328 
Q 359 3453 968 4101 
Q 1578 4750 2638 4750 
Q 3056 4750 3426 4639 
Q 3797 4528 4122 4306 
z
" transform="scale(0.015625)"/>
     <path id="DejaVuSans-47" d="M 3809 666 
L 3809 1919 
L 2778 1919 
L 2778 2438 
L 4434 2438 
L 4434 434 
Q 4069 175 3628 42 
Q 3188 -91 2688 -91 
Q 1594 -91 976 548 
Q 359 1188 359 2328 
Q 359 3472 976 4111 
Q 1594 4750 2688 4750 
Q 3144 4750 3555 4637 
Q 3966 4525 4313 4306 
L 4313 3634 
Q 3963 3931 3569 4081 
Q 3175 4231 2741 4231 
Q 1884 4231 1454 3753 
Q 1025 3275 1025 2328 
Q 1025 1384 1454 906 
Q 1884 428 2741 428 
Q 3075 428 3337 486 
Q 3600 544 3809 666 
z
" transform="scale(0.015625)"/>
    </defs>
    <use xlink:href="#DejaVuSans-32"/>
    <use xlink:href="#DejaVuSans-30" x="63.623047"/>
    <use xlink:href="#DejaVuSans-20" x="127.246094"/>
    <use xlink:href="#DejaVuSans-43" x="159.033203"/>
    <use xlink:href="#DejaVuSans-47" x="228.857422"/>
    <use xlink:href="#DejaVuSans-20" x="306.347656"/>
    <use xlink:href="#DejaVuSans-69" x="338.134766"/>
    <use xlink:href="#DejaVuSans-74" x="365.917969"/>
    <use xlink:href="#DejaVuSans-65" x="405.126953"/>
    <use xlink:href="#DejaVuSans-72" x="466.650391"/>
    <use xlink:href="#DejaVuSans-61" x="507.763672"/>
    <use xlink:href="#DejaVuSans-74" x="569.042969"/>
    <use xlink:href="#DejaVuSans-69" x="608.251953"/>
    <use xlink:href="#DejaVuSans-6f" x="636.035156"/>
    <use xlink:href="#DejaVuSans-6e" x="697.216797"/>
    <use xlink:href="#DejaVuSans-73" x="760.595703"/>
   </g>
  </g>
 </g>
 <defs>
  <clipPath id="p64ab57acf3">
   <rect x="166.14" y="84.1536" width="1030.068" height="245.448"/>
  </clipPath>
  <clipPath id="p5b7ca680a3">
   <rect x="166.14" y="378.6912" width="1030.068" height="245.448"/>
  </clipPath>
 </defs>
</svg>
