<?xml version="1.0" encoding="utf-8" standalone="no"?>
<!DOCTYPE svg PUBLIC "-//W3C//DTD SVG 1.1//EN"
  "http://www.w3.org/Graphics/SVG/1.1/DTD/svg11.dtd">
<svg xmlns:xlink="http://www.w3.org/1999/xlink" width="1329.12pt" height="701.28pt" viewBox="0 0 1329.12 701.28" xmlns="http://www.w3.org/2000/svg" version="1.1">
 <metadata>
  <rdf:RDF xmlns:dc="http://purl.org/dc/elements/1.1/" xmlns:cc="http://creativecommons.org/ns#" xmlns:rdf="http://www.w3.org/1999/02/22-rdf-syntax-ns#">
   <cc:Work>
    <dc:type rdf:resource="http://purl.org/dc/dcmitype/StillImage"/>
    <dc:date>2023-03-23T14:16:56.790267</dc:date>
    <dc:format>image/svg+xml</dc:format>
    <dc:creator>
     <cc:Agent>
      <dc:title>Matplotlib v3.7.1, https://matplotlib.org/</dc:title>
     </cc:Agent>
    </dc:creator>
   </cc:Work>
  </rdf:RDF>
 </metadata>
 <defs>
  <style type="text/css">*{stroke-linejoin: round; stroke-linecap: butt}</style>
 </defs>
 <g id="figure_1">
  <g id="patch_1">
   <path d="M 0 701.28 
L 1329.12 701.28 
L 1329.12 0 
L 0 0 
z
" style="fill: #ffffff"/>
  </g>
  <g id="axes_1">
   <g id="patch_2">
    <path d="M 166.14 329.6016 
L 1196.208 329.6016 
L 1196.208 84.1536 
L 166.14 84.1536 
z
" style="fill: #ffffff"/>
   </g>
   <g id="matplotlib.axis_1">
    <g id="xtick_1">
     <g id="line2d_1">
      <defs>
       <path id="m47967edc1f" d="M 0 0 
L 0 3.5 
" style="stroke: #000000; stroke-width: 0.8"/>
      </defs>
      <g>
       <use xlink:href="#m47967edc1f" x="203.50243" y="329.6016" style="stroke: #000000; stroke-width: 0.8"/>
      </g>
     </g>
     <g id="text_1">
      <!-- 0 -->
      <g transform="translate(200.32118 344.200037) scale(0.1 -0.1)">
       <defs>
        <path id="DejaVuSans-30" d="M 2034 4250 
Q 1547 4250 1301 3770 
Q 1056 3291 1056 2328 
Q 1056 1369 1301 889 
Q 1547 409 2034 409 
Q 2525 409 2770 889 
Q 3016 1369 3016 2328 
Q 3016 3291 2770 3770 
Q 2525 4250 2034 4250 
z
M 2034 4750 
Q 2819 4750 3233 4129 
Q 3647 3509 3647 2328 
Q 3647 1150 3233 529 
Q 2819 -91 2034 -91 
Q 1250 -91 836 529 
Q 422 1150 422 2328 
Q 422 3509 836 4129 
Q 1250 4750 2034 4750 
z
" transform="scale(0.015625)"/>
       </defs>
       <use xlink:href="#DejaVuSans-30"/>
      </g>
     </g>
    </g>
    <g id="xtick_2">
     <g id="line2d_2">
      <g>
       <use xlink:href="#m47967edc1f" x="392.679289" y="329.6016" style="stroke: #000000; stroke-width: 0.8"/>
      </g>
     </g>
     <g id="text_2">
      <!-- 20 -->
      <g transform="translate(386.316789 344.200037) scale(0.1 -0.1)">
       <defs>
        <path id="DejaVuSans-32" d="M 1228 531 
L 3431 531 
L 3431 0 
L 469 0 
L 469 531 
Q 828 903 1448 1529 
Q 2069 2156 2228 2338 
Q 2531 2678 2651 2914 
Q 2772 3150 2772 3378 
Q 2772 3750 2511 3984 
Q 2250 4219 1831 4219 
Q 1534 4219 1204 4116 
Q 875 4013 500 3803 
L 500 4441 
Q 881 4594 1212 4672 
Q 1544 4750 1819 4750 
Q 2544 4750 2975 4387 
Q 3406 4025 3406 3419 
Q 3406 3131 3298 2873 
Q 3191 2616 2906 2266 
Q 2828 2175 2409 1742 
Q 1991 1309 1228 531 
z
" transform="scale(0.015625)"/>
       </defs>
       <use xlink:href="#DejaVuSans-32"/>
       <use xlink:href="#DejaVuSans-30" x="63.623047"/>
      </g>
     </g>
    </g>
    <g id="xtick_3">
     <g id="line2d_3">
      <g>
       <use xlink:href="#m47967edc1f" x="581.856149" y="329.6016" style="stroke: #000000; stroke-width: 0.8"/>
      </g>
     </g>
     <g id="text_3">
      <!-- 40 -->
      <g transform="translate(575.493649 344.200037) scale(0.1 -0.1)">
       <defs>
        <path id="DejaVuSans-34" d="M 2419 4116 
L 825 1625 
L 2419 1625 
L 2419 4116 
z
M 2253 4666 
L 3047 4666 
L 3047 1625 
L 3713 1625 
L 3713 1100 
L 3047 1100 
L 3047 0 
L 2419 0 
L 2419 1100 
L 313 1100 
L 313 1709 
L 2253 4666 
z
" transform="scale(0.015625)"/>
       </defs>
       <use xlink:href="#DejaVuSans-34"/>
       <use xlink:href="#DejaVuSans-30" x="63.623047"/>
      </g>
     </g>
    </g>
    <g id="xtick_4">
     <g id="line2d_4">
      <g>
       <use xlink:href="#m47967edc1f" x="771.033008" y="329.6016" style="stroke: #000000; stroke-width: 0.8"/>
      </g>
     </g>
     <g id="text_4">
      <!-- 60 -->
      <g transform="translate(764.670508 344.200037) scale(0.1 -0.1)">
       <defs>
        <path id="DejaVuSans-36" d="M 2113 2584 
Q 1688 2584 1439 2293 
Q 1191 2003 1191 1497 
Q 1191 994 1439 701 
Q 1688 409 2113 409 
Q 2538 409 2786 701 
Q 3034 994 3034 1497 
Q 3034 2003 2786 2293 
Q 2538 2584 2113 2584 
z
M 3366 4563 
L 3366 3988 
Q 3128 4100 2886 4159 
Q 2644 4219 2406 4219 
Q 1781 4219 1451 3797 
Q 1122 3375 1075 2522 
Q 1259 2794 1537 2939 
Q 1816 3084 2150 3084 
Q 2853 3084 3261 2657 
Q 3669 2231 3669 1497 
Q 3669 778 3244 343 
Q 2819 -91 2113 -91 
Q 1303 -91 875 529 
Q 447 1150 447 2328 
Q 447 3434 972 4092 
Q 1497 4750 2381 4750 
Q 2619 4750 2861 4703 
Q 3103 4656 3366 4563 
z
" transform="scale(0.015625)"/>
       </defs>
       <use xlink:href="#DejaVuSans-36"/>
       <use xlink:href="#DejaVuSans-30" x="63.623047"/>
      </g>
     </g>
    </g>
    <g id="xtick_5">
     <g id="line2d_5">
      <g>
       <use xlink:href="#m47967edc1f" x="960.209868" y="329.6016" style="stroke: #000000; stroke-width: 0.8"/>
      </g>
     </g>
     <g id="text_5">
      <!-- 80 -->
      <g transform="translate(953.847368 344.200037) scale(0.1 -0.1)">
       <defs>
        <path id="DejaVuSans-38" d="M 2034 2216 
Q 1584 2216 1326 1975 
Q 1069 1734 1069 1313 
Q 1069 891 1326 650 
Q 1584 409 2034 409 
Q 2484 409 2743 651 
Q 3003 894 3003 1313 
Q 3003 1734 2745 1975 
Q 2488 2216 2034 2216 
z
M 1403 2484 
Q 997 2584 770 2862 
Q 544 3141 544 3541 
Q 544 4100 942 4425 
Q 1341 4750 2034 4750 
Q 2731 4750 3128 4425 
Q 3525 4100 3525 3541 
Q 3525 3141 3298 2862 
Q 3072 2584 2669 2484 
Q 3125 2378 3379 2068 
Q 3634 1759 3634 1313 
Q 3634 634 3220 271 
Q 2806 -91 2034 -91 
Q 1263 -91 848 271 
Q 434 634 434 1313 
Q 434 1759 690 2068 
Q 947 2378 1403 2484 
z
M 1172 3481 
Q 1172 3119 1398 2916 
Q 1625 2713 2034 2713 
Q 2441 2713 2670 2916 
Q 2900 3119 2900 3481 
Q 2900 3844 2670 4047 
Q 2441 4250 2034 4250 
Q 1625 4250 1398 4047 
Q 1172 3844 1172 3481 
z
" transform="scale(0.015625)"/>
       </defs>
       <use xlink:href="#DejaVuSans-38"/>
       <use xlink:href="#DejaVuSans-30" x="63.623047"/>
      </g>
     </g>
    </g>
    <g id="xtick_6">
     <g id="line2d_6">
      <g>
       <use xlink:href="#m47967edc1f" x="1149.386727" y="329.6016" style="stroke: #000000; stroke-width: 0.8"/>
      </g>
     </g>
     <g id="text_6">
      <!-- 100 -->
      <g transform="translate(1139.842977 344.200037) scale(0.1 -0.1)">
       <defs>
        <path id="DejaVuSans-31" d="M 794 531 
L 1825 531 
L 1825 4091 
L 703 3866 
L 703 4441 
L 1819 4666 
L 2450 4666 
L 2450 531 
L 3481 531 
L 3481 0 
L 794 0 
L 794 531 
z
" transform="scale(0.015625)"/>
       </defs>
       <use xlink:href="#DejaVuSans-31"/>
       <use xlink:href="#DejaVuSans-30" x="63.623047"/>
       <use xlink:href="#DejaVuSans-30" x="127.246094"/>
      </g>
     </g>
    </g>
   </g>
   <g id="matplotlib.axis_2">
    <g id="ytick_1">
     <g id="line2d_7">
      <defs>
       <path id="me3f030a566" d="M 0 0 
L -3.5 0 
" style="stroke: #000000; stroke-width: 0.8"/>
      </defs>
      <g>
       <use xlink:href="#me3f030a566" x="166.14" y="316.778277" style="stroke: #000000; stroke-width: 0.8"/>
      </g>
     </g>
     <g id="text_7">
      <!-- 20 -->
      <g transform="translate(146.415 320.577496) scale(0.1 -0.1)">
       <use xlink:href="#DejaVuSans-32"/>
       <use xlink:href="#DejaVuSans-30" x="63.623047"/>
      </g>
     </g>
    </g>
    <g id="ytick_2">
     <g id="line2d_8">
      <g>
       <use xlink:href="#me3f030a566" x="166.14" y="273.463715" style="stroke: #000000; stroke-width: 0.8"/>
      </g>
     </g>
     <g id="text_8">
      <!-- 30 -->
      <g transform="translate(146.415 277.262934) scale(0.1 -0.1)">
       <defs>
        <path id="DejaVuSans-33" d="M 2597 2516 
Q 3050 2419 3304 2112 
Q 3559 1806 3559 1356 
Q 3559 666 3084 287 
Q 2609 -91 1734 -91 
Q 1441 -91 1130 -33 
Q 819 25 488 141 
L 488 750 
Q 750 597 1062 519 
Q 1375 441 1716 441 
Q 2309 441 2620 675 
Q 2931 909 2931 1356 
Q 2931 1769 2642 2001 
Q 2353 2234 1838 2234 
L 1294 2234 
L 1294 2753 
L 1863 2753 
Q 2328 2753 2575 2939 
Q 2822 3125 2822 3475 
Q 2822 3834 2567 4026 
Q 2313 4219 1838 4219 
Q 1578 4219 1281 4162 
Q 984 4106 628 3988 
L 628 4550 
Q 988 4650 1302 4700 
Q 1616 4750 1894 4750 
Q 2613 4750 3031 4423 
Q 3450 4097 3450 3541 
Q 3450 3153 3228 2886 
Q 3006 2619 2597 2516 
z
" transform="scale(0.015625)"/>
       </defs>
       <use xlink:href="#DejaVuSans-33"/>
       <use xlink:href="#DejaVuSans-30" x="63.623047"/>
      </g>
     </g>
    </g>
    <g id="ytick_3">
     <g id="line2d_9">
      <g>
       <use xlink:href="#me3f030a566" x="166.14" y="230.149153" style="stroke: #000000; stroke-width: 0.8"/>
      </g>
     </g>
     <g id="text_9">
      <!-- 40 -->
      <g transform="translate(146.415 233.948372) scale(0.1 -0.1)">
       <use xlink:href="#DejaVuSans-34"/>
       <use xlink:href="#DejaVuSans-30" x="63.623047"/>
      </g>
     </g>
    </g>
    <g id="ytick_4">
     <g id="line2d_10">
      <g>
       <use xlink:href="#me3f030a566" x="166.14" y="186.834591" style="stroke: #000000; stroke-width: 0.8"/>
      </g>
     </g>
     <g id="text_10">
      <!-- 50 -->
      <g transform="translate(146.415 190.633809) scale(0.1 -0.1)">
       <defs>
        <path id="DejaVuSans-35" d="M 691 4666 
L 3169 4666 
L 3169 4134 
L 1269 4134 
L 1269 2991 
Q 1406 3038 1543 3061 
Q 1681 3084 1819 3084 
Q 2600 3084 3056 2656 
Q 3513 2228 3513 1497 
Q 3513 744 3044 326 
Q 2575 -91 1722 -91 
Q 1428 -91 1123 -41 
Q 819 9 494 109 
L 494 744 
Q 775 591 1075 516 
Q 1375 441 1709 441 
Q 2250 441 2565 725 
Q 2881 1009 2881 1497 
Q 2881 1984 2565 2268 
Q 2250 2553 1709 2553 
Q 1456 2553 1204 2497 
Q 953 2441 691 2322 
L 691 4666 
z
" transform="scale(0.015625)"/>
       </defs>
       <use xlink:href="#DejaVuSans-35"/>
       <use xlink:href="#DejaVuSans-30" x="63.623047"/>
      </g>
     </g>
    </g>
    <g id="ytick_5">
     <g id="line2d_11">
      <g>
       <use xlink:href="#me3f030a566" x="166.14" y="143.520028" style="stroke: #000000; stroke-width: 0.8"/>
      </g>
     </g>
     <g id="text_11">
      <!-- 60 -->
      <g transform="translate(146.415 147.319247) scale(0.1 -0.1)">
       <use xlink:href="#DejaVuSans-36"/>
       <use xlink:href="#DejaVuSans-30" x="63.623047"/>
      </g>
     </g>
    </g>
    <g id="ytick_6">
     <g id="line2d_12">
      <g>
       <use xlink:href="#me3f030a566" x="166.14" y="100.205466" style="stroke: #000000; stroke-width: 0.8"/>
      </g>
     </g>
     <g id="text_12">
      <!-- 70 -->
      <g transform="translate(146.415 104.004685) scale(0.1 -0.1)">
       <defs>
        <path id="DejaVuSans-37" d="M 525 4666 
L 3525 4666 
L 3525 4397 
L 1831 0 
L 1172 0 
L 2766 4134 
L 525 4134 
L 525 4666 
z
" transform="scale(0.015625)"/>
       </defs>
       <use xlink:href="#DejaVuSans-37"/>
       <use xlink:href="#DejaVuSans-30" x="63.623047"/>
      </g>
     </g>
    </g>
    <g id="text_13">
     <!-- reward -->
     <g transform="translate(140.335313 224.192444) rotate(-90) scale(0.1 -0.1)">
      <defs>
       <path id="DejaVuSans-72" d="M 2631 2963 
Q 2534 3019 2420 3045 
Q 2306 3072 2169 3072 
Q 1681 3072 1420 2755 
Q 1159 2438 1159 1844 
L 1159 0 
L 581 0 
L 581 3500 
L 1159 3500 
L 1159 2956 
Q 1341 3275 1631 3429 
Q 1922 3584 2338 3584 
Q 2397 3584 2469 3576 
Q 2541 3569 2628 3553 
L 2631 2963 
z
" transform="scale(0.015625)"/>
       <path id="DejaVuSans-65" d="M 3597 1894 
L 3597 1613 
L 953 1613 
Q 991 1019 1311 708 
Q 1631 397 2203 397 
Q 2534 397 2845 478 
Q 3156 559 3463 722 
L 3463 178 
Q 3153 47 2828 -22 
Q 2503 -91 2169 -91 
Q 1331 -91 842 396 
Q 353 884 353 1716 
Q 353 2575 817 3079 
Q 1281 3584 2069 3584 
Q 2775 3584 3186 3129 
Q 3597 2675 3597 1894 
z
M 3022 2063 
Q 3016 2534 2758 2815 
Q 2500 3097 2075 3097 
Q 1594 3097 1305 2825 
Q 1016 2553 972 2059 
L 3022 2063 
z
" transform="scale(0.015625)"/>
       <path id="DejaVuSans-77" d="M 269 3500 
L 844 3500 
L 1563 769 
L 2278 3500 
L 2956 3500 
L 3675 769 
L 4391 3500 
L 4966 3500 
L 4050 0 
L 3372 0 
L 2619 2869 
L 1863 0 
L 1184 0 
L 269 3500 
z
" transform="scale(0.015625)"/>
       <path id="DejaVuSans-61" d="M 2194 1759 
Q 1497 1759 1228 1600 
Q 959 1441 959 1056 
Q 959 750 1161 570 
Q 1363 391 1709 391 
Q 2188 391 2477 730 
Q 2766 1069 2766 1631 
L 2766 1759 
L 2194 1759 
z
M 3341 1997 
L 3341 0 
L 2766 0 
L 2766 531 
Q 2569 213 2275 61 
Q 1981 -91 1556 -91 
Q 1019 -91 701 211 
Q 384 513 384 1019 
Q 384 1609 779 1909 
Q 1175 2209 1959 2209 
L 2766 2209 
L 2766 2266 
Q 2766 2663 2505 2880 
Q 2244 3097 1772 3097 
Q 1472 3097 1187 3025 
Q 903 2953 641 2809 
L 641 3341 
Q 956 3463 1253 3523 
Q 1550 3584 1831 3584 
Q 2591 3584 2966 3190 
Q 3341 2797 3341 1997 
z
" transform="scale(0.015625)"/>
       <path id="DejaVuSans-64" d="M 2906 2969 
L 2906 4863 
L 3481 4863 
L 3481 0 
L 2906 0 
L 2906 525 
Q 2725 213 2448 61 
Q 2172 -91 1784 -91 
Q 1150 -91 751 415 
Q 353 922 353 1747 
Q 353 2572 751 3078 
Q 1150 3584 1784 3584 
Q 2172 3584 2448 3432 
Q 2725 3281 2906 2969 
z
M 947 1747 
Q 947 1113 1208 752 
Q 1469 391 1925 391 
Q 2381 391 2643 752 
Q 2906 1113 2906 1747 
Q 2906 2381 2643 2742 
Q 2381 3103 1925 3103 
Q 1469 3103 1208 2742 
Q 947 2381 947 1747 
z
" transform="scale(0.015625)"/>
      </defs>
      <use xlink:href="#DejaVuSans-72"/>
      <use xlink:href="#DejaVuSans-65" x="38.863281"/>
      <use xlink:href="#DejaVuSans-77" x="100.386719"/>
      <use xlink:href="#DejaVuSans-61" x="182.173828"/>
      <use xlink:href="#DejaVuSans-72" x="243.453125"/>
      <use xlink:href="#DejaVuSans-64" x="282.816406"/>
     </g>
    </g>
   </g>
   <g id="line2d_13">
    <path d="M 212.961273 297.743905 
L 222.420116 318.444873 
L 231.878959 292.89806 
L 241.337802 295.238932 
L 250.796645 290.460639 
L 260.255488 271.839419 
L 269.714331 256.366237 
L 279.173174 237.831358 
L 288.632017 228.671161 
L 298.09086 225.290542 
L 307.549702 204.131475 
L 317.008545 204.661332 
L 326.467388 200.397837 
L 335.926231 191.186575 
L 345.385074 204.483805 
L 354.843917 184.377944 
L 364.30276 181.3627 
L 373.761603 225.391509 
L 383.220446 212.638223 
L 392.679289 161.622691 
L 402.138132 194.741541 
L 411.596975 184.192402 
L 421.055818 197.904964 
L 430.514661 187.334783 
L 439.973504 136.079809 
L 449.432347 160.774259 
L 458.89119 166.59821 
L 468.350033 177.097123 
L 477.808876 167.054651 
L 487.267719 157.33547 
L 496.726562 188.62619 
L 506.185405 164.58188 
L 515.644248 171.635117 
L 525.103091 203.220944 
L 534.561934 170.331628 
L 544.020777 185.616699 
L 553.47962 176.603581 
L 562.938463 175.717186 
L 572.397306 152.693955 
L 581.856149 145.864691 
L 591.314992 180.505671 
L 600.773835 181.301155 
L 610.232678 162.634933 
L 619.691521 143.741523 
L 629.150364 145.901712 
L 638.609207 201.999598 
L 648.06805 172.426561 
L 657.526893 150.289408 
L 666.985736 180.76837 
L 676.444579 171.332537 
L 685.903421 169.780899 
L 695.362264 160.693255 
L 704.821107 174.43189 
L 714.27995 153.080778 
L 723.738793 149.142234 
L 733.197636 161.518586 
L 742.656479 168.524858 
L 752.115322 140.976557 
L 761.574165 147.579997 
L 771.033008 167.787734 
L 780.491851 143.936757 
L 789.950694 150.860451 
L 799.409537 128.563997 
L 808.86838 179.757691 
L 818.327223 172.246785 
L 827.786066 165.916545 
L 837.244909 130.577846 
L 846.703752 185.340614 
L 856.162595 141.878369 
L 865.621438 162.543316 
L 875.080281 132.128431 
L 884.539124 123.512187 
L 893.997967 145.237457 
L 903.45681 182.974877 
L 912.915653 147.86404 
L 922.374496 149.488086 
L 931.833339 140.619726 
L 941.292182 162.210559 
L 950.751025 138.959932 
L 960.209868 127.218002 
L 969.668711 149.043852 
L 979.127554 125.838734 
L 988.586397 183.97834 
L 998.04524 119.332627 
L 1007.504083 115.882543 
L 1016.962926 156.197461 
L 1026.421769 164.501975 
L 1035.880612 131.386653 
L 1045.339455 114.414755 
L 1054.798298 95.310327 
L 1064.25714 131.90385 
L 1073.715983 150.616765 
L 1083.174826 137.818022 
L 1092.633669 154.811015 
L 1102.092512 102.190113 
L 1111.551355 97.570869 
L 1121.010198 117.044002 
L 1130.469041 132.239922 
L 1139.927884 112.534546 
L 1149.386727 117.601379 
" clip-path="url(#p4bb5602c39)" style="fill: none; stroke: #1f77b4; stroke-width: 1.5; stroke-linecap: square"/>
   </g>
   <g id="patch_3">
    <path d="M 166.14 329.6016 
L 166.14 84.1536 
" style="fill: none; stroke: #000000; stroke-width: 0.8; stroke-linejoin: miter; stroke-linecap: square"/>
   </g>
   <g id="patch_4">
    <path d="M 1196.208 329.6016 
L 1196.208 84.1536 
" style="fill: none; stroke: #000000; stroke-width: 0.8; stroke-linejoin: miter; stroke-linecap: square"/>
   </g>
   <g id="patch_5">
    <path d="M 166.14 329.6016 
L 1196.208 329.6016 
" style="fill: none; stroke: #000000; stroke-width: 0.8; stroke-linejoin: miter; stroke-linecap: square"/>
   </g>
   <g id="patch_6">
    <path d="M 166.14 84.1536 
L 1196.208 84.1536 
" style="fill: none; stroke: #000000; stroke-width: 0.8; stroke-linejoin: miter; stroke-linecap: square"/>
   </g>
  </g>
  <g id="axes_2">
   <g id="patch_7">
    <path d="M 166.14 624.1392 
L 1196.208 624.1392 
L 1196.208 378.6912 
L 166.14 378.6912 
z
" style="fill: #ffffff"/>
   </g>
   <g id="matplotlib.axis_3">
    <g id="xtick_7">
     <g id="line2d_14">
      <g>
       <use xlink:href="#m47967edc1f" x="203.50243" y="624.1392" style="stroke: #000000; stroke-width: 0.8"/>
      </g>
     </g>
     <g id="text_14">
      <!-- 0 -->
      <g transform="translate(200.32118 638.737638) scale(0.1 -0.1)">
       <use xlink:href="#DejaVuSans-30"/>
      </g>
     </g>
    </g>
    <g id="xtick_8">
     <g id="line2d_15">
      <g>
       <use xlink:href="#m47967edc1f" x="392.679289" y="624.1392" style="stroke: #000000; stroke-width: 0.8"/>
      </g>
     </g>
     <g id="text_15">
      <!-- 20 -->
      <g transform="translate(386.316789 638.737638) scale(0.1 -0.1)">
       <use xlink:href="#DejaVuSans-32"/>
       <use xlink:href="#DejaVuSans-30" x="63.623047"/>
      </g>
     </g>
    </g>
    <g id="xtick_9">
     <g id="line2d_16">
      <g>
       <use xlink:href="#m47967edc1f" x="581.856149" y="624.1392" style="stroke: #000000; stroke-width: 0.8"/>
      </g>
     </g>
     <g id="text_16">
      <!-- 40 -->
      <g transform="translate(575.493649 638.737638) scale(0.1 -0.1)">
       <use xlink:href="#DejaVuSans-34"/>
       <use xlink:href="#DejaVuSans-30" x="63.623047"/>
      </g>
     </g>
    </g>
    <g id="xtick_10">
     <g id="line2d_17">
      <g>
       <use xlink:href="#m47967edc1f" x="771.033008" y="624.1392" style="stroke: #000000; stroke-width: 0.8"/>
      </g>
     </g>
     <g id="text_17">
      <!-- 60 -->
      <g transform="translate(764.670508 638.737638) scale(0.1 -0.1)">
       <use xlink:href="#DejaVuSans-36"/>
       <use xlink:href="#DejaVuSans-30" x="63.623047"/>
      </g>
     </g>
    </g>
    <g id="xtick_11">
     <g id="line2d_18">
      <g>
       <use xlink:href="#m47967edc1f" x="960.209868" y="624.1392" style="stroke: #000000; stroke-width: 0.8"/>
      </g>
     </g>
     <g id="text_18">
      <!-- 80 -->
      <g transform="translate(953.847368 638.737638) scale(0.1 -0.1)">
       <use xlink:href="#DejaVuSans-38"/>
       <use xlink:href="#DejaVuSans-30" x="63.623047"/>
      </g>
     </g>
    </g>
    <g id="xtick_12">
     <g id="line2d_19">
      <g>
       <use xlink:href="#m47967edc1f" x="1149.386727" y="624.1392" style="stroke: #000000; stroke-width: 0.8"/>
      </g>
     </g>
     <g id="text_19">
      <!-- 100 -->
      <g transform="translate(1139.842977 638.737638) scale(0.1 -0.1)">
       <use xlink:href="#DejaVuSans-31"/>
       <use xlink:href="#DejaVuSans-30" x="63.623047"/>
       <use xlink:href="#DejaVuSans-30" x="127.246094"/>
      </g>
     </g>
    </g>
   </g>
   <g id="matplotlib.axis_4">
    <g id="ytick_7">
     <g id="line2d_20">
      <g>
       <use xlink:href="#me3f030a566" x="166.14" y="597.734507" style="stroke: #000000; stroke-width: 0.8"/>
      </g>
     </g>
     <g id="text_20">
      <!-- 1 -->
      <g transform="translate(152.7775 601.533726) scale(0.1 -0.1)">
       <use xlink:href="#DejaVuSans-31"/>
      </g>
     </g>
    </g>
    <g id="ytick_8">
     <g id="line2d_21">
      <g>
       <use xlink:href="#me3f030a566" x="166.14" y="554.013563" style="stroke: #000000; stroke-width: 0.8"/>
      </g>
     </g>
     <g id="text_21">
      <!-- 2 -->
      <g transform="translate(152.7775 557.812781) scale(0.1 -0.1)">
       <use xlink:href="#DejaVuSans-32"/>
      </g>
     </g>
    </g>
    <g id="ytick_9">
     <g id="line2d_22">
      <g>
       <use xlink:href="#me3f030a566" x="166.14" y="510.292618" style="stroke: #000000; stroke-width: 0.8"/>
      </g>
     </g>
     <g id="text_22">
      <!-- 3 -->
      <g transform="translate(152.7775 514.091837) scale(0.1 -0.1)">
       <use xlink:href="#DejaVuSans-33"/>
      </g>
     </g>
    </g>
    <g id="ytick_10">
     <g id="line2d_23">
      <g>
       <use xlink:href="#me3f030a566" x="166.14" y="466.571674" style="stroke: #000000; stroke-width: 0.8"/>
      </g>
     </g>
     <g id="text_23">
      <!-- 4 -->
      <g transform="translate(152.7775 470.370893) scale(0.1 -0.1)">
       <use xlink:href="#DejaVuSans-34"/>
      </g>
     </g>
    </g>
    <g id="ytick_11">
     <g id="line2d_24">
      <g>
       <use xlink:href="#me3f030a566" x="166.14" y="422.85073" style="stroke: #000000; stroke-width: 0.8"/>
      </g>
     </g>
     <g id="text_24">
      <!-- 5 -->
      <g transform="translate(152.7775 426.649948) scale(0.1 -0.1)">
       <use xlink:href="#DejaVuSans-35"/>
      </g>
     </g>
    </g>
    <g id="ytick_12">
     <g id="line2d_25">
      <g>
       <use xlink:href="#me3f030a566" x="166.14" y="379.129785" style="stroke: #000000; stroke-width: 0.8"/>
      </g>
     </g>
     <g id="text_25">
      <!-- 6 -->
      <g transform="translate(152.7775 382.929004) scale(0.1 -0.1)">
       <use xlink:href="#DejaVuSans-36"/>
      </g>
     </g>
    </g>
    <g id="text_26">
     <!-- constraint -->
     <g transform="translate(146.697812 526.594887) rotate(-90) scale(0.1 -0.1)">
      <defs>
       <path id="DejaVuSans-63" d="M 3122 3366 
L 3122 2828 
Q 2878 2963 2633 3030 
Q 2388 3097 2138 3097 
Q 1578 3097 1268 2742 
Q 959 2388 959 1747 
Q 959 1106 1268 751 
Q 1578 397 2138 397 
Q 2388 397 2633 464 
Q 2878 531 3122 666 
L 3122 134 
Q 2881 22 2623 -34 
Q 2366 -91 2075 -91 
Q 1284 -91 818 406 
Q 353 903 353 1747 
Q 353 2603 823 3093 
Q 1294 3584 2113 3584 
Q 2378 3584 2631 3529 
Q 2884 3475 3122 3366 
z
" transform="scale(0.015625)"/>
       <path id="DejaVuSans-6f" d="M 1959 3097 
Q 1497 3097 1228 2736 
Q 959 2375 959 1747 
Q 959 1119 1226 758 
Q 1494 397 1959 397 
Q 2419 397 2687 759 
Q 2956 1122 2956 1747 
Q 2956 2369 2687 2733 
Q 2419 3097 1959 3097 
z
M 1959 3584 
Q 2709 3584 3137 3096 
Q 3566 2609 3566 1747 
Q 3566 888 3137 398 
Q 2709 -91 1959 -91 
Q 1206 -91 779 398 
Q 353 888 353 1747 
Q 353 2609 779 3096 
Q 1206 3584 1959 3584 
z
" transform="scale(0.015625)"/>
       <path id="DejaVuSans-6e" d="M 3513 2113 
L 3513 0 
L 2938 0 
L 2938 2094 
Q 2938 2591 2744 2837 
Q 2550 3084 2163 3084 
Q 1697 3084 1428 2787 
Q 1159 2491 1159 1978 
L 1159 0 
L 581 0 
L 581 3500 
L 1159 3500 
L 1159 2956 
Q 1366 3272 1645 3428 
Q 1925 3584 2291 3584 
Q 2894 3584 3203 3211 
Q 3513 2838 3513 2113 
z
" transform="scale(0.015625)"/>
       <path id="DejaVuSans-73" d="M 2834 3397 
L 2834 2853 
Q 2591 2978 2328 3040 
Q 2066 3103 1784 3103 
Q 1356 3103 1142 2972 
Q 928 2841 928 2578 
Q 928 2378 1081 2264 
Q 1234 2150 1697 2047 
L 1894 2003 
Q 2506 1872 2764 1633 
Q 3022 1394 3022 966 
Q 3022 478 2636 193 
Q 2250 -91 1575 -91 
Q 1294 -91 989 -36 
Q 684 19 347 128 
L 347 722 
Q 666 556 975 473 
Q 1284 391 1588 391 
Q 1994 391 2212 530 
Q 2431 669 2431 922 
Q 2431 1156 2273 1281 
Q 2116 1406 1581 1522 
L 1381 1569 
Q 847 1681 609 1914 
Q 372 2147 372 2553 
Q 372 3047 722 3315 
Q 1072 3584 1716 3584 
Q 2034 3584 2315 3537 
Q 2597 3491 2834 3397 
z
" transform="scale(0.015625)"/>
       <path id="DejaVuSans-74" d="M 1172 4494 
L 1172 3500 
L 2356 3500 
L 2356 3053 
L 1172 3053 
L 1172 1153 
Q 1172 725 1289 603 
Q 1406 481 1766 481 
L 2356 481 
L 2356 0 
L 1766 0 
Q 1100 0 847 248 
Q 594 497 594 1153 
L 594 3053 
L 172 3053 
L 172 3500 
L 594 3500 
L 594 4494 
L 1172 4494 
z
" transform="scale(0.015625)"/>
       <path id="DejaVuSans-69" d="M 603 3500 
L 1178 3500 
L 1178 0 
L 603 0 
L 603 3500 
z
M 603 4863 
L 1178 4863 
L 1178 4134 
L 603 4134 
L 603 4863 
z
" transform="scale(0.015625)"/>
      </defs>
      <use xlink:href="#DejaVuSans-63"/>
      <use xlink:href="#DejaVuSans-6f" x="54.980469"/>
      <use xlink:href="#DejaVuSans-6e" x="116.162109"/>
      <use xlink:href="#DejaVuSans-73" x="179.541016"/>
      <use xlink:href="#DejaVuSans-74" x="231.640625"/>
      <use xlink:href="#DejaVuSans-72" x="270.849609"/>
      <use xlink:href="#DejaVuSans-61" x="311.962891"/>
      <use xlink:href="#DejaVuSans-69" x="373.242188"/>
      <use xlink:href="#DejaVuSans-6e" x="401.025391"/>
      <use xlink:href="#DejaVuSans-74" x="464.404297"/>
     </g>
    </g>
   </g>
   <g id="line2d_26">
    <path d="M 212.961273 458.723874 
L 222.420116 490.808357 
L 231.878959 539.415067 
L 241.337802 479.260786 
L 250.796645 507.861527 
L 260.255488 524.237092 
L 269.714331 474.365024 
L 279.173174 555.568255 
L 288.632017 521.300635 
L 298.09086 430.933389 
L 307.549702 565.211516 
L 317.008545 440.464232 
L 326.467388 464.40874 
L 335.926231 551.505863 
L 345.385074 479.676398 
L 354.843917 578.766332 
L 364.30276 510.040927 
L 373.761603 423.56664 
L 383.220446 529.645388 
L 392.679289 548.484663 
L 402.138132 490.869889 
L 411.596975 535.563171 
L 421.055818 582.275464 
L 430.514661 468.854918 
L 439.973504 528.588339 
L 449.432347 567.533311 
L 458.89119 389.847927 
L 468.350033 470.898456 
L 477.808876 547.213202 
L 487.267719 519.725818 
L 496.726562 415.300505 
L 506.185405 464.654189 
L 515.644248 565.898504 
L 525.103091 478.114281 
L 534.561934 562.406231 
L 544.020777 477.602877 
L 553.47962 550.145945 
L 562.938463 471.60296 
L 572.397306 577.048188 
L 581.856149 496.466691 
L 591.314992 555.644264 
L 600.773835 413.901313 
L 610.232678 559.19877 
L 619.691521 538.984068 
L 629.150364 425.011436 
L 638.609207 468.522566 
L 648.06805 441.657148 
L 657.526893 557.084774 
L 666.985736 536.632781 
L 676.444579 479.064492 
L 685.903421 549.684675 
L 695.362264 481.325289 
L 704.821107 575.288709 
L 714.27995 507.026535 
L 723.738793 505.659384 
L 733.197636 561.247706 
L 742.656479 513.335131 
L 752.115322 437.489391 
L 761.574165 522.482951 
L 771.033008 415.057159 
L 780.491851 579.04834 
L 789.950694 456.159665 
L 799.409537 584.286555 
L 808.86838 474.894961 
L 818.327223 561.706445 
L 827.786066 505.483727 
L 837.244909 581.627737 
L 846.703752 463.261842 
L 856.162595 580.72526 
L 865.621438 503.331312 
L 875.080281 550.439902 
L 884.539124 522.954465 
L 893.997967 406.641254 
L 903.45681 563.371952 
L 912.915653 468.981213 
L 922.374496 500.450808 
L 931.833339 612.982473 
L 941.292182 584.990318 
L 950.751025 581.444168 
L 960.209868 510.41742 
L 969.668711 407.172542 
L 979.127554 510.992567 
L 988.586397 465.597483 
L 998.04524 569.271035 
L 1007.504083 534.633182 
L 1016.962926 453.091025 
L 1026.421769 580.837922 
L 1035.880612 555.610402 
L 1045.339455 451.660063 
L 1054.798298 584.539833 
L 1064.25714 544.852345 
L 1073.715983 520.300919 
L 1083.174826 395.703701 
L 1092.633669 497.345729 
L 1102.092512 518.041525 
L 1111.551355 443.256136 
L 1121.010198 556.854961 
L 1130.469041 529.515251 
L 1139.927884 551.591149 
L 1149.386727 469.77582 
" clip-path="url(#p5d1290add8)" style="fill: none; stroke: #1f77b4; stroke-width: 1.5; stroke-linecap: square"/>
   </g>
   <g id="line2d_27">
    <path d="M 212.961273 510.292618 
L 222.420116 510.292618 
L 231.878959 510.292618 
L 241.337802 510.292618 
L 250.796645 510.292618 
L 260.255488 510.292618 
L 269.714331 510.292618 
L 279.173174 510.292618 
L 288.632017 510.292618 
L 298.09086 510.292618 
L 307.549702 510.292618 
L 317.008545 510.292618 
L 326.467388 510.292618 
L 335.926231 510.292618 
L 345.385074 510.292618 
L 354.843917 510.292618 
L 364.30276 510.292618 
L 373.761603 510.292618 
L 383.220446 510.292618 
L 392.679289 510.292618 
L 402.138132 510.292618 
L 411.596975 510.292618 
L 421.055818 510.292618 
L 430.514661 510.292618 
L 439.973504 510.292618 
L 449.432347 510.292618 
L 458.89119 510.292618 
L 468.350033 510.292618 
L 477.808876 510.292618 
L 487.267719 510.292618 
L 496.726562 510.292618 
L 506.185405 510.292618 
L 515.644248 510.292618 
L 525.103091 510.292618 
L 534.561934 510.292618 
L 544.020777 510.292618 
L 553.47962 510.292618 
L 562.938463 510.292618 
L 572.397306 510.292618 
L 581.856149 510.292618 
L 591.314992 510.292618 
L 600.773835 510.292618 
L 610.232678 510.292618 
L 619.691521 510.292618 
L 629.150364 510.292618 
L 638.609207 510.292618 
L 648.06805 510.292618 
L 657.526893 510.292618 
L 666.985736 510.292618 
L 676.444579 510.292618 
L 685.903421 510.292618 
L 695.362264 510.292618 
L 704.821107 510.292618 
L 714.27995 510.292618 
L 723.738793 510.292618 
L 733.197636 510.292618 
L 742.656479 510.292618 
L 752.115322 510.292618 
L 761.574165 510.292618 
L 771.033008 510.292618 
L 780.491851 510.292618 
L 789.950694 510.292618 
L 799.409537 510.292618 
L 808.86838 510.292618 
L 818.327223 510.292618 
L 827.786066 510.292618 
L 837.244909 510.292618 
L 846.703752 510.292618 
L 856.162595 510.292618 
L 865.621438 510.292618 
L 875.080281 510.292618 
L 884.539124 510.292618 
L 893.997967 510.292618 
L 903.45681 510.292618 
L 912.915653 510.292618 
L 922.374496 510.292618 
L 931.833339 510.292618 
L 941.292182 510.292618 
L 950.751025 510.292618 
L 960.209868 510.292618 
L 969.668711 510.292618 
L 979.127554 510.292618 
L 988.586397 510.292618 
L 998.04524 510.292618 
L 1007.504083 510.292618 
L 1016.962926 510.292618 
L 1026.421769 510.292618 
L 1035.880612 510.292618 
L 1045.339455 510.292618 
L 1054.798298 510.292618 
L 1064.25714 510.292618 
L 1073.715983 510.292618 
L 1083.174826 510.292618 
L 1092.633669 510.292618 
L 1102.092512 510.292618 
L 1111.551355 510.292618 
L 1121.010198 510.292618 
L 1130.469041 510.292618 
L 1139.927884 510.292618 
L 1149.386727 510.292618 
" clip-path="url(#p5d1290add8)" style="fill: none; stroke: #000000; stroke-width: 1.5; stroke-linecap: square"/>
   </g>
   <g id="patch_8">
    <path d="M 166.14 624.1392 
L 166.14 378.6912 
" style="fill: none; stroke: #000000; stroke-width: 0.8; stroke-linejoin: miter; stroke-linecap: square"/>
   </g>
   <g id="patch_9">
    <path d="M 1196.208 624.1392 
L 1196.208 378.6912 
" style="fill: none; stroke: #000000; stroke-width: 0.8; stroke-linejoin: miter; stroke-linecap: square"/>
   </g>
   <g id="patch_10">
    <path d="M 166.14 624.1392 
L 1196.208 624.1392 
" style="fill: none; stroke: #000000; stroke-width: 0.8; stroke-linejoin: miter; stroke-linecap: square"/>
   </g>
   <g id="patch_11">
    <path d="M 166.14 378.6912 
L 1196.208 378.6912 
" style="fill: none; stroke: #000000; stroke-width: 0.8; stroke-linejoin: miter; stroke-linecap: square"/>
   </g>
   <g id="legend_1">
    <g id="patch_12">
     <path d="M 1135.212688 401.369325 
L 1189.208 401.369325 
Q 1191.208 401.369325 1191.208 399.369325 
L 1191.208 385.6912 
Q 1191.208 383.6912 1189.208 383.6912 
L 1135.212688 383.6912 
Q 1133.212688 383.6912 1133.212688 385.6912 
L 1133.212688 399.369325 
Q 1133.212688 401.369325 1135.212688 401.369325 
z
" style="fill: #ffffff; opacity: 0.8; stroke: #cccccc; stroke-linejoin: miter"/>
    </g>
    <g id="line2d_28">
     <path d="M 1137.212688 391.789638 
L 1147.212688 391.789638 
L 1157.212688 391.789638 
" style="fill: none; stroke: #000000; stroke-width: 1.5; stroke-linecap: square"/>
    </g>
    <g id="text_27">
     <!-- limit -->
     <g transform="translate(1165.212688 395.289638) scale(0.1 -0.1)">
      <defs>
       <path id="DejaVuSans-6c" d="M 603 4863 
L 1178 4863 
L 1178 0 
L 603 0 
L 603 4863 
z
" transform="scale(0.015625)"/>
       <path id="DejaVuSans-6d" d="M 3328 2828 
Q 3544 3216 3844 3400 
Q 4144 3584 4550 3584 
Q 5097 3584 5394 3201 
Q 5691 2819 5691 2113 
L 5691 0 
L 5113 0 
L 5113 2094 
Q 5113 2597 4934 2840 
Q 4756 3084 4391 3084 
Q 3944 3084 3684 2787 
Q 3425 2491 3425 1978 
L 3425 0 
L 2847 0 
L 2847 2094 
Q 2847 2600 2669 2842 
Q 2491 3084 2119 3084 
Q 1678 3084 1418 2786 
Q 1159 2488 1159 1978 
L 1159 0 
L 581 0 
L 581 3500 
L 1159 3500 
L 1159 2956 
Q 1356 3278 1631 3431 
Q 1906 3584 2284 3584 
Q 2666 3584 2933 3390 
Q 3200 3197 3328 2828 
z
" transform="scale(0.015625)"/>
      </defs>
      <use xlink:href="#DejaVuSans-6c"/>
      <use xlink:href="#DejaVuSans-69" x="27.783203"/>
      <use xlink:href="#DejaVuSans-6d" x="55.566406"/>
      <use xlink:href="#DejaVuSans-69" x="152.978516"/>
      <use xlink:href="#DejaVuSans-74" x="180.761719"/>
     </g>
    </g>
   </g>
  </g>
  <g id="text_28">
   <!-- 10 CG iterations -->
   <g transform="translate(615.799688 23.143725) scale(0.12 -0.12)">
    <defs>
     <path id="DejaVuSans-20" transform="scale(0.015625)"/>
     <path id="DejaVuSans-43" d="M 4122 4306 
L 4122 3641 
Q 3803 3938 3442 4084 
Q 3081 4231 2675 4231 
Q 1875 4231 1450 3742 
Q 1025 3253 1025 2328 
Q 1025 1406 1450 917 
Q 1875 428 2675 428 
Q 3081 428 3442 575 
Q 3803 722 4122 1019 
L 4122 359 
Q 3791 134 3420 21 
Q 3050 -91 2638 -91 
Q 1578 -91 968 557 
Q 359 1206 359 2328 
Q 359 3453 968 4101 
Q 1578 4750 2638 4750 
Q 3056 4750 3426 4639 
Q 3797 4528 4122 4306 
z
" transform="scale(0.015625)"/>
     <path id="DejaVuSans-47" d="M 3809 666 
L 3809 1919 
L 2778 1919 
L 2778 2438 
L 4434 2438 
L 4434 434 
Q 4069 175 3628 42 
Q 3188 -91 2688 -91 
Q 1594 -91 976 548 
Q 359 1188 359 2328 
Q 359 3472 976 4111 
Q 1594 4750 2688 4750 
Q 3144 4750 3555 4637 
Q 3966 4525 4313 4306 
L 4313 3634 
Q 3963 3931 3569 4081 
Q 3175 4231 2741 4231 
Q 1884 4231 1454 3753 
Q 1025 3275 1025 2328 
Q 1025 1384 1454 906 
Q 1884 428 2741 428 
Q 3075 428 3337 486 
Q 3600 544 3809 666 
z
" transform="scale(0.015625)"/>
    </defs>
    <use xlink:href="#DejaVuSans-31"/>
    <use xlink:href="#DejaVuSans-30" x="63.623047"/>
    <use xlink:href="#DejaVuSans-20" x="127.246094"/>
    <use xlink:href="#DejaVuSans-43" x="159.033203"/>
    <use xlink:href="#DejaVuSans-47" x="228.857422"/>
    <use xlink:href="#DejaVuSans-20" x="306.347656"/>
    <use xlink:href="#DejaVuSans-69" x="338.134766"/>
    <use xlink:href="#DejaVuSans-74" x="365.917969"/>
    <use xlink:href="#DejaVuSans-65" x="405.126953"/>
    <use xlink:href="#DejaVuSans-72" x="466.650391"/>
    <use xlink:href="#DejaVuSans-61" x="507.763672"/>
    <use xlink:href="#DejaVuSans-74" x="569.042969"/>
    <use xlink:href="#DejaVuSans-69" x="608.251953"/>
    <use xlink:href="#DejaVuSans-6f" x="636.035156"/>
    <use xlink:href="#DejaVuSans-6e" x="697.216797"/>
    <use xlink:href="#DejaVuSans-73" x="760.595703"/>
   </g>
  </g>
 </g>
 <defs>
  <clipPath id="p4bb5602c39">
   <rect x="166.14" y="84.1536" width="1030.068" height="245.448"/>
  </clipPath>
  <clipPath id="p5d1290add8">
   <rect x="166.14" y="378.6912" width="1030.068" height="245.448"/>
  </clipPath>
 </defs>
</svg>
