<?xml version="1.0" encoding="utf-8" standalone="no"?>
<!DOCTYPE svg PUBLIC "-//W3C//DTD SVG 1.1//EN"
  "http://www.w3.org/Graphics/SVG/1.1/DTD/svg11.dtd">
<svg xmlns:xlink="http://www.w3.org/1999/xlink" width="1329.12pt" height="701.28pt" viewBox="0 0 1329.12 701.28" xmlns="http://www.w3.org/2000/svg" version="1.1">
 <metadata>
  <rdf:RDF xmlns:dc="http://purl.org/dc/elements/1.1/" xmlns:cc="http://creativecommons.org/ns#" xmlns:rdf="http://www.w3.org/1999/02/22-rdf-syntax-ns#">
   <cc:Work>
    <dc:type rdf:resource="http://purl.org/dc/dcmitype/StillImage"/>
    <dc:date>2023-03-26T21:52:58.908241</dc:date>
    <dc:format>image/svg+xml</dc:format>
    <dc:creator>
     <cc:Agent>
      <dc:title>Matplotlib v3.7.1, https://matplotlib.org/</dc:title>
     </cc:Agent>
    </dc:creator>
   </cc:Work>
  </rdf:RDF>
 </metadata>
 <defs>
  <style type="text/css">*{stroke-linejoin: round; stroke-linecap: butt}</style>
 </defs>
 <g id="figure_1">
  <g id="patch_1">
   <path d="M 0 701.28 
L 1329.12 701.28 
L 1329.12 0 
L 0 0 
z
" style="fill: #ffffff"/>
  </g>
  <g id="axes_1">
   <g id="patch_2">
    <path d="M 166.14 329.6016 
L 1196.208 329.6016 
L 1196.208 84.1536 
L 166.14 84.1536 
z
" style="fill: #ffffff"/>
   </g>
   <g id="matplotlib.axis_1">
    <g id="xtick_1">
     <g id="line2d_1">
      <defs>
       <path id="m573a0f508b" d="M 0 0 
L 0 3.5 
" style="stroke: #000000; stroke-width: 0.8"/>
      </defs>
      <g>
       <use xlink:href="#m573a0f508b" x="208.255617" y="329.6016" style="stroke: #000000; stroke-width: 0.8"/>
      </g>
     </g>
     <g id="text_1">
      <!-- 0 -->
      <g transform="translate(205.074367 344.200037) scale(0.1 -0.1)">
       <defs>
        <path id="DejaVuSans-30" d="M 2034 4250 
Q 1547 4250 1301 3770 
Q 1056 3291 1056 2328 
Q 1056 1369 1301 889 
Q 1547 409 2034 409 
Q 2525 409 2770 889 
Q 3016 1369 3016 2328 
Q 3016 3291 2770 3770 
Q 2525 4250 2034 4250 
z
M 2034 4750 
Q 2819 4750 3233 4129 
Q 3647 3509 3647 2328 
Q 3647 1150 3233 529 
Q 2819 -91 2034 -91 
Q 1250 -91 836 529 
Q 422 1150 422 2328 
Q 422 3509 836 4129 
Q 1250 4750 2034 4750 
z
" transform="scale(0.015625)"/>
       </defs>
       <use xlink:href="#DejaVuSans-30"/>
      </g>
     </g>
    </g>
    <g id="xtick_2">
     <g id="line2d_2">
      <g>
       <use xlink:href="#m573a0f508b" x="325.897006" y="329.6016" style="stroke: #000000; stroke-width: 0.8"/>
      </g>
     </g>
     <g id="text_2">
      <!-- 25 -->
      <g transform="translate(319.534506 344.200037) scale(0.1 -0.1)">
       <defs>
        <path id="DejaVuSans-32" d="M 1228 531 
L 3431 531 
L 3431 0 
L 469 0 
L 469 531 
Q 828 903 1448 1529 
Q 2069 2156 2228 2338 
Q 2531 2678 2651 2914 
Q 2772 3150 2772 3378 
Q 2772 3750 2511 3984 
Q 2250 4219 1831 4219 
Q 1534 4219 1204 4116 
Q 875 4013 500 3803 
L 500 4441 
Q 881 4594 1212 4672 
Q 1544 4750 1819 4750 
Q 2544 4750 2975 4387 
Q 3406 4025 3406 3419 
Q 3406 3131 3298 2873 
Q 3191 2616 2906 2266 
Q 2828 2175 2409 1742 
Q 1991 1309 1228 531 
z
" transform="scale(0.015625)"/>
        <path id="DejaVuSans-35" d="M 691 4666 
L 3169 4666 
L 3169 4134 
L 1269 4134 
L 1269 2991 
Q 1406 3038 1543 3061 
Q 1681 3084 1819 3084 
Q 2600 3084 3056 2656 
Q 3513 2228 3513 1497 
Q 3513 744 3044 326 
Q 2575 -91 1722 -91 
Q 1428 -91 1123 -41 
Q 819 9 494 109 
L 494 744 
Q 775 591 1075 516 
Q 1375 441 1709 441 
Q 2250 441 2565 725 
Q 2881 1009 2881 1497 
Q 2881 1984 2565 2268 
Q 2250 2553 1709 2553 
Q 1456 2553 1204 2497 
Q 953 2441 691 2322 
L 691 4666 
z
" transform="scale(0.015625)"/>
       </defs>
       <use xlink:href="#DejaVuSans-32"/>
       <use xlink:href="#DejaVuSans-35" x="63.623047"/>
      </g>
     </g>
    </g>
    <g id="xtick_3">
     <g id="line2d_3">
      <g>
       <use xlink:href="#m573a0f508b" x="443.538395" y="329.6016" style="stroke: #000000; stroke-width: 0.8"/>
      </g>
     </g>
     <g id="text_3">
      <!-- 50 -->
      <g transform="translate(437.175895 344.200037) scale(0.1 -0.1)">
       <use xlink:href="#DejaVuSans-35"/>
       <use xlink:href="#DejaVuSans-30" x="63.623047"/>
      </g>
     </g>
    </g>
    <g id="xtick_4">
     <g id="line2d_4">
      <g>
       <use xlink:href="#m573a0f508b" x="561.179783" y="329.6016" style="stroke: #000000; stroke-width: 0.8"/>
      </g>
     </g>
     <g id="text_4">
      <!-- 75 -->
      <g transform="translate(554.817283 344.200037) scale(0.1 -0.1)">
       <defs>
        <path id="DejaVuSans-37" d="M 525 4666 
L 3525 4666 
L 3525 4397 
L 1831 0 
L 1172 0 
L 2766 4134 
L 525 4134 
L 525 4666 
z
" transform="scale(0.015625)"/>
       </defs>
       <use xlink:href="#DejaVuSans-37"/>
       <use xlink:href="#DejaVuSans-35" x="63.623047"/>
      </g>
     </g>
    </g>
    <g id="xtick_5">
     <g id="line2d_5">
      <g>
       <use xlink:href="#m573a0f508b" x="678.821172" y="329.6016" style="stroke: #000000; stroke-width: 0.8"/>
      </g>
     </g>
     <g id="text_5">
      <!-- 100 -->
      <g transform="translate(669.277422 344.200037) scale(0.1 -0.1)">
       <defs>
        <path id="DejaVuSans-31" d="M 794 531 
L 1825 531 
L 1825 4091 
L 703 3866 
L 703 4441 
L 1819 4666 
L 2450 4666 
L 2450 531 
L 3481 531 
L 3481 0 
L 794 0 
L 794 531 
z
" transform="scale(0.015625)"/>
       </defs>
       <use xlink:href="#DejaVuSans-31"/>
       <use xlink:href="#DejaVuSans-30" x="63.623047"/>
       <use xlink:href="#DejaVuSans-30" x="127.246094"/>
      </g>
     </g>
    </g>
    <g id="xtick_6">
     <g id="line2d_6">
      <g>
       <use xlink:href="#m573a0f508b" x="796.462561" y="329.6016" style="stroke: #000000; stroke-width: 0.8"/>
      </g>
     </g>
     <g id="text_6">
      <!-- 125 -->
      <g transform="translate(786.918811 344.200037) scale(0.1 -0.1)">
       <use xlink:href="#DejaVuSans-31"/>
       <use xlink:href="#DejaVuSans-32" x="63.623047"/>
       <use xlink:href="#DejaVuSans-35" x="127.246094"/>
      </g>
     </g>
    </g>
    <g id="xtick_7">
     <g id="line2d_7">
      <g>
       <use xlink:href="#m573a0f508b" x="914.10395" y="329.6016" style="stroke: #000000; stroke-width: 0.8"/>
      </g>
     </g>
     <g id="text_7">
      <!-- 150 -->
      <g transform="translate(904.5602 344.200037) scale(0.1 -0.1)">
       <use xlink:href="#DejaVuSans-31"/>
       <use xlink:href="#DejaVuSans-35" x="63.623047"/>
       <use xlink:href="#DejaVuSans-30" x="127.246094"/>
      </g>
     </g>
    </g>
    <g id="xtick_8">
     <g id="line2d_8">
      <g>
       <use xlink:href="#m573a0f508b" x="1031.745339" y="329.6016" style="stroke: #000000; stroke-width: 0.8"/>
      </g>
     </g>
     <g id="text_8">
      <!-- 175 -->
      <g transform="translate(1022.201589 344.200037) scale(0.1 -0.1)">
       <use xlink:href="#DejaVuSans-31"/>
       <use xlink:href="#DejaVuSans-37" x="63.623047"/>
       <use xlink:href="#DejaVuSans-35" x="127.246094"/>
      </g>
     </g>
    </g>
    <g id="xtick_9">
     <g id="line2d_9">
      <g>
       <use xlink:href="#m573a0f508b" x="1149.386727" y="329.6016" style="stroke: #000000; stroke-width: 0.8"/>
      </g>
     </g>
     <g id="text_9">
      <!-- 200 -->
      <g transform="translate(1139.842977 344.200037) scale(0.1 -0.1)">
       <use xlink:href="#DejaVuSans-32"/>
       <use xlink:href="#DejaVuSans-30" x="63.623047"/>
       <use xlink:href="#DejaVuSans-30" x="127.246094"/>
      </g>
     </g>
    </g>
   </g>
   <g id="matplotlib.axis_2">
    <g id="ytick_1">
     <g id="line2d_10">
      <defs>
       <path id="m101978ffc5" d="M 0 0 
L -3.5 0 
" style="stroke: #000000; stroke-width: 0.8"/>
      </defs>
      <g>
       <use xlink:href="#m101978ffc5" x="166.14" y="287.419043" style="stroke: #000000; stroke-width: 0.8"/>
      </g>
     </g>
     <g id="text_10">
      <!-- −2000 -->
      <g transform="translate(125.310313 291.218261) scale(0.1 -0.1)">
       <defs>
        <path id="DejaVuSans-2212" d="M 678 2272 
L 4684 2272 
L 4684 1741 
L 678 1741 
L 678 2272 
z
" transform="scale(0.015625)"/>
       </defs>
       <use xlink:href="#DejaVuSans-2212"/>
       <use xlink:href="#DejaVuSans-32" x="83.789062"/>
       <use xlink:href="#DejaVuSans-30" x="147.412109"/>
       <use xlink:href="#DejaVuSans-30" x="211.035156"/>
       <use xlink:href="#DejaVuSans-30" x="274.658203"/>
      </g>
     </g>
    </g>
    <g id="ytick_2">
     <g id="line2d_11">
      <g>
       <use xlink:href="#m101978ffc5" x="166.14" y="241.731954" style="stroke: #000000; stroke-width: 0.8"/>
      </g>
     </g>
     <g id="text_11">
      <!-- −1500 -->
      <g transform="translate(125.310313 245.531173) scale(0.1 -0.1)">
       <use xlink:href="#DejaVuSans-2212"/>
       <use xlink:href="#DejaVuSans-31" x="83.789062"/>
       <use xlink:href="#DejaVuSans-35" x="147.412109"/>
       <use xlink:href="#DejaVuSans-30" x="211.035156"/>
       <use xlink:href="#DejaVuSans-30" x="274.658203"/>
      </g>
     </g>
    </g>
    <g id="ytick_3">
     <g id="line2d_12">
      <g>
       <use xlink:href="#m101978ffc5" x="166.14" y="196.044866" style="stroke: #000000; stroke-width: 0.8"/>
      </g>
     </g>
     <g id="text_12">
      <!-- −1000 -->
      <g transform="translate(125.310313 199.844084) scale(0.1 -0.1)">
       <use xlink:href="#DejaVuSans-2212"/>
       <use xlink:href="#DejaVuSans-31" x="83.789062"/>
       <use xlink:href="#DejaVuSans-30" x="147.412109"/>
       <use xlink:href="#DejaVuSans-30" x="211.035156"/>
       <use xlink:href="#DejaVuSans-30" x="274.658203"/>
      </g>
     </g>
    </g>
    <g id="ytick_4">
     <g id="line2d_13">
      <g>
       <use xlink:href="#m101978ffc5" x="166.14" y="150.357777" style="stroke: #000000; stroke-width: 0.8"/>
      </g>
     </g>
     <g id="text_13">
      <!-- −500 -->
      <g transform="translate(131.672813 154.156996) scale(0.1 -0.1)">
       <use xlink:href="#DejaVuSans-2212"/>
       <use xlink:href="#DejaVuSans-35" x="83.789062"/>
       <use xlink:href="#DejaVuSans-30" x="147.412109"/>
       <use xlink:href="#DejaVuSans-30" x="211.035156"/>
      </g>
     </g>
    </g>
    <g id="ytick_5">
     <g id="line2d_14">
      <g>
       <use xlink:href="#m101978ffc5" x="166.14" y="104.670689" style="stroke: #000000; stroke-width: 0.8"/>
      </g>
     </g>
     <g id="text_14">
      <!-- 0 -->
      <g transform="translate(152.7775 108.469907) scale(0.1 -0.1)">
       <use xlink:href="#DejaVuSans-30"/>
      </g>
     </g>
    </g>
    <g id="text_15">
     <!-- reward -->
     <g transform="translate(119.230625 224.192444) rotate(-90) scale(0.1 -0.1)">
      <defs>
       <path id="DejaVuSans-72" d="M 2631 2963 
Q 2534 3019 2420 3045 
Q 2306 3072 2169 3072 
Q 1681 3072 1420 2755 
Q 1159 2438 1159 1844 
L 1159 0 
L 581 0 
L 581 3500 
L 1159 3500 
L 1159 2956 
Q 1341 3275 1631 3429 
Q 1922 3584 2338 3584 
Q 2397 3584 2469 3576 
Q 2541 3569 2628 3553 
L 2631 2963 
z
" transform="scale(0.015625)"/>
       <path id="DejaVuSans-65" d="M 3597 1894 
L 3597 1613 
L 953 1613 
Q 991 1019 1311 708 
Q 1631 397 2203 397 
Q 2534 397 2845 478 
Q 3156 559 3463 722 
L 3463 178 
Q 3153 47 2828 -22 
Q 2503 -91 2169 -91 
Q 1331 -91 842 396 
Q 353 884 353 1716 
Q 353 2575 817 3079 
Q 1281 3584 2069 3584 
Q 2775 3584 3186 3129 
Q 3597 2675 3597 1894 
z
M 3022 2063 
Q 3016 2534 2758 2815 
Q 2500 3097 2075 3097 
Q 1594 3097 1305 2825 
Q 1016 2553 972 2059 
L 3022 2063 
z
" transform="scale(0.015625)"/>
       <path id="DejaVuSans-77" d="M 269 3500 
L 844 3500 
L 1563 769 
L 2278 3500 
L 2956 3500 
L 3675 769 
L 4391 3500 
L 4966 3500 
L 4050 0 
L 3372 0 
L 2619 2869 
L 1863 0 
L 1184 0 
L 269 3500 
z
" transform="scale(0.015625)"/>
       <path id="DejaVuSans-61" d="M 2194 1759 
Q 1497 1759 1228 1600 
Q 959 1441 959 1056 
Q 959 750 1161 570 
Q 1363 391 1709 391 
Q 2188 391 2477 730 
Q 2766 1069 2766 1631 
L 2766 1759 
L 2194 1759 
z
M 3341 1997 
L 3341 0 
L 2766 0 
L 2766 531 
Q 2569 213 2275 61 
Q 1981 -91 1556 -91 
Q 1019 -91 701 211 
Q 384 513 384 1019 
Q 384 1609 779 1909 
Q 1175 2209 1959 2209 
L 2766 2209 
L 2766 2266 
Q 2766 2663 2505 2880 
Q 2244 3097 1772 3097 
Q 1472 3097 1187 3025 
Q 903 2953 641 2809 
L 641 3341 
Q 956 3463 1253 3523 
Q 1550 3584 1831 3584 
Q 2591 3584 2966 3190 
Q 3341 2797 3341 1997 
z
" transform="scale(0.015625)"/>
       <path id="DejaVuSans-64" d="M 2906 2969 
L 2906 4863 
L 3481 4863 
L 3481 0 
L 2906 0 
L 2906 525 
Q 2725 213 2448 61 
Q 2172 -91 1784 -91 
Q 1150 -91 751 415 
Q 353 922 353 1747 
Q 353 2572 751 3078 
Q 1150 3584 1784 3584 
Q 2172 3584 2448 3432 
Q 2725 3281 2906 2969 
z
M 947 1747 
Q 947 1113 1208 752 
Q 1469 391 1925 391 
Q 2381 391 2643 752 
Q 2906 1113 2906 1747 
Q 2906 2381 2643 2742 
Q 2381 3103 1925 3103 
Q 1469 3103 1208 2742 
Q 947 2381 947 1747 
z
" transform="scale(0.015625)"/>
      </defs>
      <use xlink:href="#DejaVuSans-72"/>
      <use xlink:href="#DejaVuSans-65" x="38.863281"/>
      <use xlink:href="#DejaVuSans-77" x="100.386719"/>
      <use xlink:href="#DejaVuSans-61" x="182.173828"/>
      <use xlink:href="#DejaVuSans-72" x="243.453125"/>
      <use xlink:href="#DejaVuSans-64" x="282.816406"/>
     </g>
    </g>
   </g>
   <g id="line2d_15">
    <path d="M 212.961273 121.021972 
L 217.666928 119.235621 
L 222.372584 121.159958 
L 227.078239 120.661288 
L 231.783895 117.410849 
L 236.48955 117.115647 
L 241.195206 115.986765 
L 245.900862 121.061068 
L 250.606517 118.070319 
L 255.312173 116.714278 
L 264.723484 116.477004 
L 269.429139 116.467411 
L 274.134795 117.030951 
L 278.84045 116.612337 
L 283.546106 117.970537 
L 288.251762 117.425151 
L 292.957417 115.631142 
L 297.663073 115.195049 
L 302.368728 117.217776 
L 307.074384 116.562637 
L 311.780039 116.50512 
L 316.485695 116.206601 
L 321.19135 118.916244 
L 325.897006 117.826463 
L 330.602661 115.138098 
L 335.308317 116.008639 
L 340.013973 116.274415 
L 344.719628 116.913142 
L 349.425284 116.740334 
L 354.130939 113.905696 
L 358.836595 117.973986 
L 363.54225 116.549995 
L 368.247906 115.676878 
L 372.953561 115.983331 
L 377.659217 113.4781 
L 382.364873 114.223652 
L 387.070528 111.626374 
L 391.776184 113.622001 
L 396.481839 112.993986 
L 401.187495 113.788167 
L 405.89315 111.99718 
L 415.304461 111.632444 
L 420.010117 110.207656 
L 424.715772 109.91946 
L 429.421428 110.434213 
L 434.127084 109.676218 
L 438.832739 111.122412 
L 448.24405 109.470021 
L 452.949706 109.513764 
L 457.655361 109.050795 
L 462.361017 108.816484 
L 467.066672 109.033181 
L 471.772328 107.973734 
L 476.477984 107.285159 
L 490.59495 107.880099 
L 495.300606 107.197767 
L 500.006261 106.738502 
L 504.711917 106.094168 
L 509.417572 105.775065 
L 514.123228 105.866737 
L 518.828884 105.092515 
L 523.534539 106.032807 
L 528.240195 105.555007 
L 532.94585 107.215996 
L 537.651506 106.053919 
L 542.357161 104.635595 
L 547.062817 106.510068 
L 551.768472 106.112468 
L 556.474128 105.1496 
L 561.179783 105.490354 
L 565.885439 105.047772 
L 570.591095 102.153576 
L 575.29675 104.112232 
L 580.002406 103.586894 
L 584.708061 102.555629 
L 589.413717 104.393379 
L 594.119372 103.741548 
L 598.825028 103.500503 
L 603.530683 98.135455 
L 608.236339 102.464575 
L 612.941995 102.759809 
L 617.64765 101.536099 
L 622.353306 104.579625 
L 627.058961 104.973616 
L 631.764617 100.89522 
L 636.470272 98.698555 
L 641.175928 95.310327 
L 645.881583 96.490436 
L 650.587239 102.586243 
L 655.292894 118.101799 
L 659.99855 116.919205 
L 664.704206 103.965071 
L 669.409861 121.958953 
L 674.115517 108.905131 
L 678.821172 97.771244 
L 683.526828 109.879333 
L 688.232483 114.425779 
L 692.938139 118.337064 
L 697.643794 137.113846 
L 702.34945 121.325157 
L 707.055106 123.18442 
L 711.760761 140.482702 
L 716.466417 141.96644 
L 721.172072 122.512509 
L 725.877728 147.695475 
L 730.583383 119.100588 
L 735.289039 122.828049 
L 739.994694 133.927513 
L 744.70035 181.200934 
L 749.406005 118.407863 
L 754.111661 154.195947 
L 758.817317 137.324242 
L 763.522972 181.520565 
L 768.228628 171.550713 
L 772.934283 125.661388 
L 777.639939 166.193941 
L 782.345594 140.935375 
L 787.05125 142.26635 
L 791.756905 138.272405 
L 796.462561 158.333291 
L 801.168217 168.067284 
L 805.873872 170.751534 
L 810.579528 151.567231 
L 815.285183 160.267039 
L 819.990839 162.368127 
L 824.696494 198.440068 
L 829.40215 181.268112 
L 834.107805 213.939874 
L 838.813461 212.051804 
L 843.519116 162.908945 
L 848.224772 173.788874 
L 852.930428 311.263971 
L 857.636083 194.639782 
L 862.341739 163.654184 
L 867.047394 189.830172 
L 871.75305 262.838436 
L 876.458705 182.782824 
L 881.164361 189.850131 
L 885.870016 170.826913 
L 890.575672 218.487148 
L 895.281328 211.187936 
L 899.986983 149.856508 
L 904.692639 161.721578 
L 909.398294 202.396131 
L 914.10395 224.753524 
L 918.809605 185.548144 
L 923.515261 229.578688 
L 928.220916 272.308671 
L 932.926572 298.152135 
L 937.632228 301.431481 
L 942.337883 172.191287 
L 947.043539 285.120919 
L 951.749194 316.77866 
L 956.45485 195.340338 
L 961.160505 315.27174 
L 965.866161 318.444873 
L 970.571816 257.701933 
L 975.277472 224.032971 
L 979.983127 317.527524 
L 984.688783 180.15006 
L 989.394439 315.0223 
L 994.100094 269.783916 
L 998.80575 179.846607 
L 1003.511405 147.212834 
L 1008.217061 187.759972 
L 1012.922716 172.289463 
L 1017.628372 299.229504 
L 1022.334027 186.630624 
L 1027.039683 214.665033 
L 1031.745339 151.8638 
L 1036.450994 138.937576 
L 1041.15665 211.483218 
L 1045.862305 203.170144 
L 1050.567961 189.61419 
L 1055.273616 190.485514 
L 1059.979272 130.390224 
L 1064.684927 136.414645 
L 1069.390583 147.614961 
L 1074.096238 165.76227 
L 1078.801894 130.44128 
L 1083.50755 103.775429 
L 1088.213205 131.019272 
L 1092.918861 151.767736 
L 1097.624516 168.462726 
L 1102.330172 117.339724 
L 1107.035827 128.274155 
L 1111.741483 143.053533 
L 1116.447138 144.063041 
L 1121.152794 132.613036 
L 1125.85845 128.527272 
L 1130.564105 155.65131 
L 1135.269761 118.245066 
L 1139.975416 139.407022 
L 1144.681072 138.371952 
L 1149.386727 138.730044 
L 1149.386727 138.730044 
" clip-path="url(#p13e1ab8059)" style="fill: none; stroke: #1f77b4; stroke-width: 1.5; stroke-linecap: square"/>
   </g>
   <g id="patch_3">
    <path d="M 166.14 329.6016 
L 166.14 84.1536 
" style="fill: none; stroke: #000000; stroke-width: 0.8; stroke-linejoin: miter; stroke-linecap: square"/>
   </g>
   <g id="patch_4">
    <path d="M 1196.208 329.6016 
L 1196.208 84.1536 
" style="fill: none; stroke: #000000; stroke-width: 0.8; stroke-linejoin: miter; stroke-linecap: square"/>
   </g>
   <g id="patch_5">
    <path d="M 166.14 329.6016 
L 1196.208 329.6016 
" style="fill: none; stroke: #000000; stroke-width: 0.8; stroke-linejoin: miter; stroke-linecap: square"/>
   </g>
   <g id="patch_6">
    <path d="M 166.14 84.1536 
L 1196.208 84.1536 
" style="fill: none; stroke: #000000; stroke-width: 0.8; stroke-linejoin: miter; stroke-linecap: square"/>
   </g>
  </g>
  <g id="axes_2">
   <g id="patch_7">
    <path d="M 166.14 624.1392 
L 1196.208 624.1392 
L 1196.208 378.6912 
L 166.14 378.6912 
z
" style="fill: #ffffff"/>
   </g>
   <g id="matplotlib.axis_3">
    <g id="xtick_10">
     <g id="line2d_16">
      <g>
       <use xlink:href="#m573a0f508b" x="208.255617" y="624.1392" style="stroke: #000000; stroke-width: 0.8"/>
      </g>
     </g>
     <g id="text_16">
      <!-- 0 -->
      <g transform="translate(205.074367 638.737638) scale(0.1 -0.1)">
       <use xlink:href="#DejaVuSans-30"/>
      </g>
     </g>
    </g>
    <g id="xtick_11">
     <g id="line2d_17">
      <g>
       <use xlink:href="#m573a0f508b" x="325.897006" y="624.1392" style="stroke: #000000; stroke-width: 0.8"/>
      </g>
     </g>
     <g id="text_17">
      <!-- 25 -->
      <g transform="translate(319.534506 638.737638) scale(0.1 -0.1)">
       <use xlink:href="#DejaVuSans-32"/>
       <use xlink:href="#DejaVuSans-35" x="63.623047"/>
      </g>
     </g>
    </g>
    <g id="xtick_12">
     <g id="line2d_18">
      <g>
       <use xlink:href="#m573a0f508b" x="443.538395" y="624.1392" style="stroke: #000000; stroke-width: 0.8"/>
      </g>
     </g>
     <g id="text_18">
      <!-- 50 -->
      <g transform="translate(437.175895 638.737638) scale(0.1 -0.1)">
       <use xlink:href="#DejaVuSans-35"/>
       <use xlink:href="#DejaVuSans-30" x="63.623047"/>
      </g>
     </g>
    </g>
    <g id="xtick_13">
     <g id="line2d_19">
      <g>
       <use xlink:href="#m573a0f508b" x="561.179783" y="624.1392" style="stroke: #000000; stroke-width: 0.8"/>
      </g>
     </g>
     <g id="text_19">
      <!-- 75 -->
      <g transform="translate(554.817283 638.737638) scale(0.1 -0.1)">
       <use xlink:href="#DejaVuSans-37"/>
       <use xlink:href="#DejaVuSans-35" x="63.623047"/>
      </g>
     </g>
    </g>
    <g id="xtick_14">
     <g id="line2d_20">
      <g>
       <use xlink:href="#m573a0f508b" x="678.821172" y="624.1392" style="stroke: #000000; stroke-width: 0.8"/>
      </g>
     </g>
     <g id="text_20">
      <!-- 100 -->
      <g transform="translate(669.277422 638.737638) scale(0.1 -0.1)">
       <use xlink:href="#DejaVuSans-31"/>
       <use xlink:href="#DejaVuSans-30" x="63.623047"/>
       <use xlink:href="#DejaVuSans-30" x="127.246094"/>
      </g>
     </g>
    </g>
    <g id="xtick_15">
     <g id="line2d_21">
      <g>
       <use xlink:href="#m573a0f508b" x="796.462561" y="624.1392" style="stroke: #000000; stroke-width: 0.8"/>
      </g>
     </g>
     <g id="text_21">
      <!-- 125 -->
      <g transform="translate(786.918811 638.737638) scale(0.1 -0.1)">
       <use xlink:href="#DejaVuSans-31"/>
       <use xlink:href="#DejaVuSans-32" x="63.623047"/>
       <use xlink:href="#DejaVuSans-35" x="127.246094"/>
      </g>
     </g>
    </g>
    <g id="xtick_16">
     <g id="line2d_22">
      <g>
       <use xlink:href="#m573a0f508b" x="914.10395" y="624.1392" style="stroke: #000000; stroke-width: 0.8"/>
      </g>
     </g>
     <g id="text_22">
      <!-- 150 -->
      <g transform="translate(904.5602 638.737638) scale(0.1 -0.1)">
       <use xlink:href="#DejaVuSans-31"/>
       <use xlink:href="#DejaVuSans-35" x="63.623047"/>
       <use xlink:href="#DejaVuSans-30" x="127.246094"/>
      </g>
     </g>
    </g>
    <g id="xtick_17">
     <g id="line2d_23">
      <g>
       <use xlink:href="#m573a0f508b" x="1031.745339" y="624.1392" style="stroke: #000000; stroke-width: 0.8"/>
      </g>
     </g>
     <g id="text_23">
      <!-- 175 -->
      <g transform="translate(1022.201589 638.737638) scale(0.1 -0.1)">
       <use xlink:href="#DejaVuSans-31"/>
       <use xlink:href="#DejaVuSans-37" x="63.623047"/>
       <use xlink:href="#DejaVuSans-35" x="127.246094"/>
      </g>
     </g>
    </g>
    <g id="xtick_18">
     <g id="line2d_24">
      <g>
       <use xlink:href="#m573a0f508b" x="1149.386727" y="624.1392" style="stroke: #000000; stroke-width: 0.8"/>
      </g>
     </g>
     <g id="text_24">
      <!-- 200 -->
      <g transform="translate(1139.842977 638.737638) scale(0.1 -0.1)">
       <use xlink:href="#DejaVuSans-32"/>
       <use xlink:href="#DejaVuSans-30" x="63.623047"/>
       <use xlink:href="#DejaVuSans-30" x="127.246094"/>
      </g>
     </g>
    </g>
    <g id="text_25">
     <!-- iterations -->
     <g transform="translate(657.446656 652.415763) scale(0.1 -0.1)">
      <defs>
       <path id="DejaVuSans-69" d="M 603 3500 
L 1178 3500 
L 1178 0 
L 603 0 
L 603 3500 
z
M 603 4863 
L 1178 4863 
L 1178 4134 
L 603 4134 
L 603 4863 
z
" transform="scale(0.015625)"/>
       <path id="DejaVuSans-74" d="M 1172 4494 
L 1172 3500 
L 2356 3500 
L 2356 3053 
L 1172 3053 
L 1172 1153 
Q 1172 725 1289 603 
Q 1406 481 1766 481 
L 2356 481 
L 2356 0 
L 1766 0 
Q 1100 0 847 248 
Q 594 497 594 1153 
L 594 3053 
L 172 3053 
L 172 3500 
L 594 3500 
L 594 4494 
L 1172 4494 
z
" transform="scale(0.015625)"/>
       <path id="DejaVuSans-6f" d="M 1959 3097 
Q 1497 3097 1228 2736 
Q 959 2375 959 1747 
Q 959 1119 1226 758 
Q 1494 397 1959 397 
Q 2419 397 2687 759 
Q 2956 1122 2956 1747 
Q 2956 2369 2687 2733 
Q 2419 3097 1959 3097 
z
M 1959 3584 
Q 2709 3584 3137 3096 
Q 3566 2609 3566 1747 
Q 3566 888 3137 398 
Q 2709 -91 1959 -91 
Q 1206 -91 779 398 
Q 353 888 353 1747 
Q 353 2609 779 3096 
Q 1206 3584 1959 3584 
z
" transform="scale(0.015625)"/>
       <path id="DejaVuSans-6e" d="M 3513 2113 
L 3513 0 
L 2938 0 
L 2938 2094 
Q 2938 2591 2744 2837 
Q 2550 3084 2163 3084 
Q 1697 3084 1428 2787 
Q 1159 2491 1159 1978 
L 1159 0 
L 581 0 
L 581 3500 
L 1159 3500 
L 1159 2956 
Q 1366 3272 1645 3428 
Q 1925 3584 2291 3584 
Q 2894 3584 3203 3211 
Q 3513 2838 3513 2113 
z
" transform="scale(0.015625)"/>
       <path id="DejaVuSans-73" d="M 2834 3397 
L 2834 2853 
Q 2591 2978 2328 3040 
Q 2066 3103 1784 3103 
Q 1356 3103 1142 2972 
Q 928 2841 928 2578 
Q 928 2378 1081 2264 
Q 1234 2150 1697 2047 
L 1894 2003 
Q 2506 1872 2764 1633 
Q 3022 1394 3022 966 
Q 3022 478 2636 193 
Q 2250 -91 1575 -91 
Q 1294 -91 989 -36 
Q 684 19 347 128 
L 347 722 
Q 666 556 975 473 
Q 1284 391 1588 391 
Q 1994 391 2212 530 
Q 2431 669 2431 922 
Q 2431 1156 2273 1281 
Q 2116 1406 1581 1522 
L 1381 1569 
Q 847 1681 609 1914 
Q 372 2147 372 2553 
Q 372 3047 722 3315 
Q 1072 3584 1716 3584 
Q 2034 3584 2315 3537 
Q 2597 3491 2834 3397 
z
" transform="scale(0.015625)"/>
      </defs>
      <use xlink:href="#DejaVuSans-69"/>
      <use xlink:href="#DejaVuSans-74" x="27.783203"/>
      <use xlink:href="#DejaVuSans-65" x="66.992188"/>
      <use xlink:href="#DejaVuSans-72" x="128.515625"/>
      <use xlink:href="#DejaVuSans-61" x="169.628906"/>
      <use xlink:href="#DejaVuSans-74" x="230.908203"/>
      <use xlink:href="#DejaVuSans-69" x="270.117188"/>
      <use xlink:href="#DejaVuSans-6f" x="297.900391"/>
      <use xlink:href="#DejaVuSans-6e" x="359.082031"/>
      <use xlink:href="#DejaVuSans-73" x="422.460938"/>
     </g>
    </g>
   </g>
   <g id="matplotlib.axis_4">
    <g id="ytick_6">
     <g id="line2d_25">
      <g>
       <use xlink:href="#m101978ffc5" x="166.14" y="612.982473" style="stroke: #000000; stroke-width: 0.8"/>
      </g>
     </g>
     <g id="text_26">
      <!-- 0 -->
      <g transform="translate(152.7775 616.781691) scale(0.1 -0.1)">
       <use xlink:href="#DejaVuSans-30"/>
      </g>
     </g>
    </g>
    <g id="ytick_7">
     <g id="line2d_26">
      <g>
       <use xlink:href="#m101978ffc5" x="166.14" y="561.78352" style="stroke: #000000; stroke-width: 0.8"/>
      </g>
     </g>
     <g id="text_27">
      <!-- 20 -->
      <g transform="translate(146.415 565.582739) scale(0.1 -0.1)">
       <use xlink:href="#DejaVuSans-32"/>
       <use xlink:href="#DejaVuSans-30" x="63.623047"/>
      </g>
     </g>
    </g>
    <g id="ytick_8">
     <g id="line2d_27">
      <g>
       <use xlink:href="#m101978ffc5" x="166.14" y="510.584567" style="stroke: #000000; stroke-width: 0.8"/>
      </g>
     </g>
     <g id="text_28">
      <!-- 40 -->
      <g transform="translate(146.415 514.383786) scale(0.1 -0.1)">
       <defs>
        <path id="DejaVuSans-34" d="M 2419 4116 
L 825 1625 
L 2419 1625 
L 2419 4116 
z
M 2253 4666 
L 3047 4666 
L 3047 1625 
L 3713 1625 
L 3713 1100 
L 3047 1100 
L 3047 0 
L 2419 0 
L 2419 1100 
L 313 1100 
L 313 1709 
L 2253 4666 
z
" transform="scale(0.015625)"/>
       </defs>
       <use xlink:href="#DejaVuSans-34"/>
       <use xlink:href="#DejaVuSans-30" x="63.623047"/>
      </g>
     </g>
    </g>
    <g id="ytick_9">
     <g id="line2d_28">
      <g>
       <use xlink:href="#m101978ffc5" x="166.14" y="459.385615" style="stroke: #000000; stroke-width: 0.8"/>
      </g>
     </g>
     <g id="text_29">
      <!-- 60 -->
      <g transform="translate(146.415 463.184834) scale(0.1 -0.1)">
       <defs>
        <path id="DejaVuSans-36" d="M 2113 2584 
Q 1688 2584 1439 2293 
Q 1191 2003 1191 1497 
Q 1191 994 1439 701 
Q 1688 409 2113 409 
Q 2538 409 2786 701 
Q 3034 994 3034 1497 
Q 3034 2003 2786 2293 
Q 2538 2584 2113 2584 
z
M 3366 4563 
L 3366 3988 
Q 3128 4100 2886 4159 
Q 2644 4219 2406 4219 
Q 1781 4219 1451 3797 
Q 1122 3375 1075 2522 
Q 1259 2794 1537 2939 
Q 1816 3084 2150 3084 
Q 2853 3084 3261 2657 
Q 3669 2231 3669 1497 
Q 3669 778 3244 343 
Q 2819 -91 2113 -91 
Q 1303 -91 875 529 
Q 447 1150 447 2328 
Q 447 3434 972 4092 
Q 1497 4750 2381 4750 
Q 2619 4750 2861 4703 
Q 3103 4656 3366 4563 
z
" transform="scale(0.015625)"/>
       </defs>
       <use xlink:href="#DejaVuSans-36"/>
       <use xlink:href="#DejaVuSans-30" x="63.623047"/>
      </g>
     </g>
    </g>
    <g id="ytick_10">
     <g id="line2d_29">
      <g>
       <use xlink:href="#m101978ffc5" x="166.14" y="408.186662" style="stroke: #000000; stroke-width: 0.8"/>
      </g>
     </g>
     <g id="text_30">
      <!-- 80 -->
      <g transform="translate(146.415 411.985881) scale(0.1 -0.1)">
       <defs>
        <path id="DejaVuSans-38" d="M 2034 2216 
Q 1584 2216 1326 1975 
Q 1069 1734 1069 1313 
Q 1069 891 1326 650 
Q 1584 409 2034 409 
Q 2484 409 2743 651 
Q 3003 894 3003 1313 
Q 3003 1734 2745 1975 
Q 2488 2216 2034 2216 
z
M 1403 2484 
Q 997 2584 770 2862 
Q 544 3141 544 3541 
Q 544 4100 942 4425 
Q 1341 4750 2034 4750 
Q 2731 4750 3128 4425 
Q 3525 4100 3525 3541 
Q 3525 3141 3298 2862 
Q 3072 2584 2669 2484 
Q 3125 2378 3379 2068 
Q 3634 1759 3634 1313 
Q 3634 634 3220 271 
Q 2806 -91 2034 -91 
Q 1263 -91 848 271 
Q 434 634 434 1313 
Q 434 1759 690 2068 
Q 947 2378 1403 2484 
z
M 1172 3481 
Q 1172 3119 1398 2916 
Q 1625 2713 2034 2713 
Q 2441 2713 2670 2916 
Q 2900 3119 2900 3481 
Q 2900 3844 2670 4047 
Q 2441 4250 2034 4250 
Q 1625 4250 1398 4047 
Q 1172 3844 1172 3481 
z
" transform="scale(0.015625)"/>
       </defs>
       <use xlink:href="#DejaVuSans-38"/>
       <use xlink:href="#DejaVuSans-30" x="63.623047"/>
      </g>
     </g>
    </g>
    <g id="text_31">
     <!-- constraint -->
     <g transform="translate(140.335313 526.594887) rotate(-90) scale(0.1 -0.1)">
      <defs>
       <path id="DejaVuSans-63" d="M 3122 3366 
L 3122 2828 
Q 2878 2963 2633 3030 
Q 2388 3097 2138 3097 
Q 1578 3097 1268 2742 
Q 959 2388 959 1747 
Q 959 1106 1268 751 
Q 1578 397 2138 397 
Q 2388 397 2633 464 
Q 2878 531 3122 666 
L 3122 134 
Q 2881 22 2623 -34 
Q 2366 -91 2075 -91 
Q 1284 -91 818 406 
Q 353 903 353 1747 
Q 353 2603 823 3093 
Q 1294 3584 2113 3584 
Q 2378 3584 2631 3529 
Q 2884 3475 3122 3366 
z
" transform="scale(0.015625)"/>
      </defs>
      <use xlink:href="#DejaVuSans-63"/>
      <use xlink:href="#DejaVuSans-6f" x="54.980469"/>
      <use xlink:href="#DejaVuSans-6e" x="116.162109"/>
      <use xlink:href="#DejaVuSans-73" x="179.541016"/>
      <use xlink:href="#DejaVuSans-74" x="231.640625"/>
      <use xlink:href="#DejaVuSans-72" x="270.849609"/>
      <use xlink:href="#DejaVuSans-61" x="311.962891"/>
      <use xlink:href="#DejaVuSans-69" x="373.242188"/>
      <use xlink:href="#DejaVuSans-6e" x="401.025391"/>
      <use xlink:href="#DejaVuSans-74" x="464.404297"/>
     </g>
    </g>
   </g>
   <g id="line2d_30">
    <path d="M 212.961273 517.155575 
L 217.666928 545.970259 
L 222.372584 545.21773 
L 227.078239 532.618664 
L 231.783895 530.729351 
L 236.48955 544.060393 
L 241.195206 549.288597 
L 245.900862 529.560687 
L 250.606517 532.00239 
L 255.312173 530.707213 
L 260.017828 547.168908 
L 264.723484 552.384853 
L 269.429139 545.076925 
L 274.134795 543.120923 
L 278.84045 548.241102 
L 283.546106 529.591879 
L 288.251762 558.800458 
L 292.957417 554.271954 
L 297.663073 542.872233 
L 302.368728 550.90048 
L 307.074384 555.712932 
L 311.780039 562.62259 
L 316.485695 544.27164 
L 321.19135 545.472579 
L 325.897006 552.771743 
L 330.602661 546.226842 
L 335.308317 569.385864 
L 340.013973 559.192276 
L 349.425284 560.649651 
L 354.130939 552.30015 
L 358.836595 557.398866 
L 363.54225 563.433226 
L 368.247906 561.558515 
L 372.953561 550.407283 
L 377.659217 564.075078 
L 382.364873 566.40335 
L 387.070528 564.613657 
L 391.776184 564.541439 
L 396.481839 558.776344 
L 401.187495 556.589111 
L 405.89315 555.383434 
L 410.598806 560.413663 
L 415.304461 575.7455 
L 420.010117 563.339106 
L 424.715772 565.261014 
L 429.421428 554.291973 
L 434.127084 561.366855 
L 438.832739 564.673495 
L 443.538395 543.94687 
L 448.24405 574.743756 
L 452.949706 563.067166 
L 457.655361 557.286123 
L 462.361017 575.703129 
L 467.066672 574.829911 
L 471.772328 564.468265 
L 476.477984 567.930173 
L 481.183639 563.179925 
L 485.889295 554.810151 
L 490.59495 559.247925 
L 495.300606 570.107341 
L 500.006261 571.384231 
L 504.711917 574.414694 
L 509.417572 567.502023 
L 514.123228 563.504277 
L 518.828884 576.813233 
L 523.534539 565.001358 
L 528.240195 565.512665 
L 532.94585 567.544433 
L 537.651506 552.935967 
L 542.357161 559.261748 
L 547.062817 566.885721 
L 551.768472 562.189312 
L 556.474128 560.174369 
L 561.179783 564.386587 
L 565.885439 573.27891 
L 570.591095 568.761988 
L 575.29675 570.622425 
L 580.002406 545.381962 
L 584.708061 567.510045 
L 589.413717 569.086746 
L 598.825028 552.956808 
L 603.530683 546.978026 
L 608.236339 573.344725 
L 612.941995 549.719807 
L 617.64765 588.42979 
L 622.353306 546.728906 
L 627.058961 558.660788 
L 631.764617 567.238348 
L 636.470272 545.79686 
L 641.175928 608.547191 
L 645.881583 583.897595 
L 650.587239 570.214228 
L 655.292894 572.776753 
L 659.99855 572.16159 
L 664.704206 553.737316 
L 669.409861 568.482551 
L 674.115517 513.476077 
L 678.821172 508.171763 
L 683.526828 561.87743 
L 688.232483 603.168831 
L 692.938139 522.49078 
L 697.643794 491.515736 
L 702.34945 612.373283 
L 707.055106 497.404776 
L 711.760761 612.982473 
L 716.466417 451.941882 
L 721.172072 612.982473 
L 725.877728 493.969664 
L 730.583383 578.681237 
L 735.289039 444.148772 
L 739.994694 455.697298 
L 744.70035 602.954244 
L 749.406005 522.305431 
L 754.111661 593.93349 
L 758.817317 488.007384 
L 763.522972 478.672271 
L 768.228628 549.634701 
L 772.934283 456.750884 
L 777.639939 612.982473 
L 782.345594 504.17662 
L 787.05125 452.879042 
L 791.756905 482.099203 
L 796.462561 529.123278 
L 801.168217 542.054277 
L 805.873872 612.982472 
L 810.579528 487.245891 
L 815.285183 506.172338 
L 819.990839 543.817551 
L 824.696494 612.982473 
L 829.40215 595.524443 
L 834.107805 530.463951 
L 838.813461 503.576118 
L 843.519116 504.275414 
L 848.224772 596.316497 
L 852.930428 612.982473 
L 857.636083 529.54493 
L 862.341739 480.534662 
L 867.047394 580.15738 
L 871.75305 523.252806 
L 876.458705 526.461007 
L 881.164361 514.717396 
L 885.870016 521.71035 
L 890.575672 612.982473 
L 895.281328 512.005532 
L 899.986983 483.633008 
L 904.692639 612.982473 
L 909.398294 602.889336 
L 914.10395 454.612643 
L 918.809605 469.476746 
L 923.515261 471.372997 
L 928.220916 603.862336 
L 932.926572 528.258275 
L 937.632228 612.982473 
L 942.337883 600.436165 
L 947.043539 612.982473 
L 951.749194 612.982462 
L 956.45485 517.467983 
L 961.160505 526.528443 
L 965.866161 389.847927 
L 970.571816 504.275513 
L 975.277472 504.551184 
L 979.983127 612.982473 
L 984.688783 483.136187 
L 989.394439 465.936552 
L 994.100094 612.982473 
L 998.80575 506.878238 
L 1003.511405 488.036153 
L 1008.217061 602.895257 
L 1012.922716 586.189614 
L 1017.628372 515.042838 
L 1022.334027 612.982473 
L 1027.039683 612.982473 
L 1031.745339 610.735951 
L 1036.450994 511.846139 
L 1041.15665 455.869311 
L 1045.862305 500.658719 
L 1050.567961 588.408597 
L 1055.273616 465.969901 
L 1059.979272 521.723453 
L 1064.684927 495.656252 
L 1069.390583 493.152383 
L 1074.096238 460.316194 
L 1078.801894 442.31459 
L 1083.50755 440.130354 
L 1088.213205 612.97219 
L 1092.918861 518.919278 
L 1097.624516 565.639501 
L 1102.330172 472.740163 
L 1107.035827 498.839322 
L 1111.741483 413.868565 
L 1116.447138 539.602544 
L 1121.152794 489.203823 
L 1125.85845 486.534327 
L 1130.564105 477.598254 
L 1135.269761 486.986524 
L 1139.975416 475.542555 
L 1144.681072 474.035855 
L 1149.386727 479.436061 
L 1149.386727 479.436061 
" clip-path="url(#pe9635d3818)" style="fill: none; stroke: #1f77b4; stroke-width: 1.5; stroke-linecap: square"/>
   </g>
   <g id="line2d_31">
    <path d="M 212.961273 561.78352 
L 1149.386727 561.78352 
L 1149.386727 561.78352 
" clip-path="url(#pe9635d3818)" style="fill: none; stroke: #000000; stroke-width: 1.5; stroke-linecap: square"/>
   </g>
   <g id="patch_8">
    <path d="M 166.14 624.1392 
L 166.14 378.6912 
" style="fill: none; stroke: #000000; stroke-width: 0.8; stroke-linejoin: miter; stroke-linecap: square"/>
   </g>
   <g id="patch_9">
    <path d="M 1196.208 624.1392 
L 1196.208 378.6912 
" style="fill: none; stroke: #000000; stroke-width: 0.8; stroke-linejoin: miter; stroke-linecap: square"/>
   </g>
   <g id="patch_10">
    <path d="M 166.14 624.1392 
L 1196.208 624.1392 
" style="fill: none; stroke: #000000; stroke-width: 0.8; stroke-linejoin: miter; stroke-linecap: square"/>
   </g>
   <g id="patch_11">
    <path d="M 166.14 378.6912 
L 1196.208 378.6912 
" style="fill: none; stroke: #000000; stroke-width: 0.8; stroke-linejoin: miter; stroke-linecap: square"/>
   </g>
   <g id="legend_1">
    <g id="patch_12">
     <path d="M 1135.212688 401.369325 
L 1189.208 401.369325 
Q 1191.208 401.369325 1191.208 399.369325 
L 1191.208 385.6912 
Q 1191.208 383.6912 1189.208 383.6912 
L 1135.212688 383.6912 
Q 1133.212688 383.6912 1133.212688 385.6912 
L 1133.212688 399.369325 
Q 1133.212688 401.369325 1135.212688 401.369325 
z
" style="fill: #ffffff; opacity: 0.8; stroke: #cccccc; stroke-linejoin: miter"/>
    </g>
    <g id="line2d_32">
     <path d="M 1137.212688 391.789638 
L 1147.212688 391.789638 
L 1157.212688 391.789638 
" style="fill: none; stroke: #000000; stroke-width: 1.5; stroke-linecap: square"/>
    </g>
    <g id="text_32">
     <!-- limit -->
     <g transform="translate(1165.212688 395.289638) scale(0.1 -0.1)">
      <defs>
       <path id="DejaVuSans-6c" d="M 603 4863 
L 1178 4863 
L 1178 0 
L 603 0 
L 603 4863 
z
" transform="scale(0.015625)"/>
       <path id="DejaVuSans-6d" d="M 3328 2828 
Q 3544 3216 3844 3400 
Q 4144 3584 4550 3584 
Q 5097 3584 5394 3201 
Q 5691 2819 5691 2113 
L 5691 0 
L 5113 0 
L 5113 2094 
Q 5113 2597 4934 2840 
Q 4756 3084 4391 3084 
Q 3944 3084 3684 2787 
Q 3425 2491 3425 1978 
L 3425 0 
L 2847 0 
L 2847 2094 
Q 2847 2600 2669 2842 
Q 2491 3084 2119 3084 
Q 1678 3084 1418 2786 
Q 1159 2488 1159 1978 
L 1159 0 
L 581 0 
L 581 3500 
L 1159 3500 
L 1159 2956 
Q 1356 3278 1631 3431 
Q 1906 3584 2284 3584 
Q 2666 3584 2933 3390 
Q 3200 3197 3328 2828 
z
" transform="scale(0.015625)"/>
      </defs>
      <use xlink:href="#DejaVuSans-6c"/>
      <use xlink:href="#DejaVuSans-69" x="27.783203"/>
      <use xlink:href="#DejaVuSans-6d" x="55.566406"/>
      <use xlink:href="#DejaVuSans-69" x="152.978516"/>
      <use xlink:href="#DejaVuSans-74" x="180.761719"/>
     </g>
    </g>
   </g>
  </g>
 </g>
 <defs>
  <clipPath id="p13e1ab8059">
   <rect x="166.14" y="84.1536" width="1030.068" height="245.448"/>
  </clipPath>
  <clipPath id="pe9635d3818">
   <rect x="166.14" y="378.6912" width="1030.068" height="245.448"/>
  </clipPath>
 </defs>
</svg>
