<?xml version="1.0" encoding="utf-8" standalone="no"?>
<!DOCTYPE svg PUBLIC "-//W3C//DTD SVG 1.1//EN"
  "http://www.w3.org/Graphics/SVG/1.1/DTD/svg11.dtd">
<svg xmlns:xlink="http://www.w3.org/1999/xlink" width="874.005312pt" height="434.11625pt" viewBox="0 0 874.005312 434.11625" xmlns="http://www.w3.org/2000/svg" version="1.1">
 <metadata>
  <rdf:RDF xmlns:dc="http://purl.org/dc/elements/1.1/" xmlns:cc="http://creativecommons.org/ns#" xmlns:rdf="http://www.w3.org/1999/02/22-rdf-syntax-ns#">
   <cc:Work>
    <dc:type rdf:resource="http://purl.org/dc/dcmitype/StillImage"/>
    <dc:date>2023-03-26T19:22:27.502980</dc:date>
    <dc:format>image/svg+xml</dc:format>
    <dc:creator>
     <cc:Agent>
      <dc:title>Matplotlib v3.6.1, https://matplotlib.org/</dc:title>
     </cc:Agent>
    </dc:creator>
   </cc:Work>
  </rdf:RDF>
 </metadata>
 <defs>
  <style type="text/css">*{stroke-linejoin: round; stroke-linecap: butt}</style>
 </defs>
 <g id="figure_1">
  <g id="patch_1">
   <path d="M 0 434.11625 
L 874.005312 434.11625 
L 874.005312 0 
L 0 0 
z
" style="fill: #ffffff"/>
  </g>
  <g id="axes_1">
   <g id="patch_2">
    <path d="M 55.345313 396.56 
L 866.805313 396.56 
L 866.805313 7.2 
L 55.345313 7.2 
z
" style="fill: #ffffff"/>
   </g>
   <g id="matplotlib.axis_1">
    <g id="xtick_1">
     <g id="line2d_1">
      <defs>
       <path id="m6a2c60d16e" d="M 0 0 
L 0 3.5 
" style="stroke: #000000; stroke-width: 0.8"/>
      </defs>
      <g>
       <use xlink:href="#m6a2c60d16e" x="84.778435" y="396.56" style="stroke: #000000; stroke-width: 0.8"/>
      </g>
     </g>
     <g id="text_1">
      <!-- 0 -->
      <g transform="translate(81.597185 411.158437) scale(0.1 -0.1)">
       <defs>
        <path id="DejaVuSans-30" d="M 2034 4250 
Q 1547 4250 1301 3770 
Q 1056 3291 1056 2328 
Q 1056 1369 1301 889 
Q 1547 409 2034 409 
Q 2525 409 2770 889 
Q 3016 1369 3016 2328 
Q 3016 3291 2770 3770 
Q 2525 4250 2034 4250 
z
M 2034 4750 
Q 2819 4750 3233 4129 
Q 3647 3509 3647 2328 
Q 3647 1150 3233 529 
Q 2819 -91 2034 -91 
Q 1250 -91 836 529 
Q 422 1150 422 2328 
Q 422 3509 836 4129 
Q 1250 4750 2034 4750 
z
" transform="scale(0.015625)"/>
       </defs>
       <use xlink:href="#DejaVuSans-30"/>
      </g>
     </g>
    </g>
    <g id="xtick_2">
     <g id="line2d_2">
      <g>
       <use xlink:href="#m6a2c60d16e" x="233.806901" y="396.56" style="stroke: #000000; stroke-width: 0.8"/>
      </g>
     </g>
     <g id="text_2">
      <!-- 20 -->
      <g transform="translate(227.444401 411.158437) scale(0.1 -0.1)">
       <defs>
        <path id="DejaVuSans-32" d="M 1228 531 
L 3431 531 
L 3431 0 
L 469 0 
L 469 531 
Q 828 903 1448 1529 
Q 2069 2156 2228 2338 
Q 2531 2678 2651 2914 
Q 2772 3150 2772 3378 
Q 2772 3750 2511 3984 
Q 2250 4219 1831 4219 
Q 1534 4219 1204 4116 
Q 875 4013 500 3803 
L 500 4441 
Q 881 4594 1212 4672 
Q 1544 4750 1819 4750 
Q 2544 4750 2975 4387 
Q 3406 4025 3406 3419 
Q 3406 3131 3298 2873 
Q 3191 2616 2906 2266 
Q 2828 2175 2409 1742 
Q 1991 1309 1228 531 
z
" transform="scale(0.015625)"/>
       </defs>
       <use xlink:href="#DejaVuSans-32"/>
       <use xlink:href="#DejaVuSans-30" x="63.623047"/>
      </g>
     </g>
    </g>
    <g id="xtick_3">
     <g id="line2d_3">
      <g>
       <use xlink:href="#m6a2c60d16e" x="382.835368" y="396.56" style="stroke: #000000; stroke-width: 0.8"/>
      </g>
     </g>
     <g id="text_3">
      <!-- 40 -->
      <g transform="translate(376.472868 411.158437) scale(0.1 -0.1)">
       <defs>
        <path id="DejaVuSans-34" d="M 2419 4116 
L 825 1625 
L 2419 1625 
L 2419 4116 
z
M 2253 4666 
L 3047 4666 
L 3047 1625 
L 3713 1625 
L 3713 1100 
L 3047 1100 
L 3047 0 
L 2419 0 
L 2419 1100 
L 313 1100 
L 313 1709 
L 2253 4666 
z
" transform="scale(0.015625)"/>
       </defs>
       <use xlink:href="#DejaVuSans-34"/>
       <use xlink:href="#DejaVuSans-30" x="63.623047"/>
      </g>
     </g>
    </g>
    <g id="xtick_4">
     <g id="line2d_4">
      <g>
       <use xlink:href="#m6a2c60d16e" x="531.863834" y="396.56" style="stroke: #000000; stroke-width: 0.8"/>
      </g>
     </g>
     <g id="text_4">
      <!-- 60 -->
      <g transform="translate(525.501334 411.158437) scale(0.1 -0.1)">
       <defs>
        <path id="DejaVuSans-36" d="M 2113 2584 
Q 1688 2584 1439 2293 
Q 1191 2003 1191 1497 
Q 1191 994 1439 701 
Q 1688 409 2113 409 
Q 2538 409 2786 701 
Q 3034 994 3034 1497 
Q 3034 2003 2786 2293 
Q 2538 2584 2113 2584 
z
M 3366 4563 
L 3366 3988 
Q 3128 4100 2886 4159 
Q 2644 4219 2406 4219 
Q 1781 4219 1451 3797 
Q 1122 3375 1075 2522 
Q 1259 2794 1537 2939 
Q 1816 3084 2150 3084 
Q 2853 3084 3261 2657 
Q 3669 2231 3669 1497 
Q 3669 778 3244 343 
Q 2819 -91 2113 -91 
Q 1303 -91 875 529 
Q 447 1150 447 2328 
Q 447 3434 972 4092 
Q 1497 4750 2381 4750 
Q 2619 4750 2861 4703 
Q 3103 4656 3366 4563 
z
" transform="scale(0.015625)"/>
       </defs>
       <use xlink:href="#DejaVuSans-36"/>
       <use xlink:href="#DejaVuSans-30" x="63.623047"/>
      </g>
     </g>
    </g>
    <g id="xtick_5">
     <g id="line2d_5">
      <g>
       <use xlink:href="#m6a2c60d16e" x="680.892301" y="396.56" style="stroke: #000000; stroke-width: 0.8"/>
      </g>
     </g>
     <g id="text_5">
      <!-- 80 -->
      <g transform="translate(674.529801 411.158437) scale(0.1 -0.1)">
       <defs>
        <path id="DejaVuSans-38" d="M 2034 2216 
Q 1584 2216 1326 1975 
Q 1069 1734 1069 1313 
Q 1069 891 1326 650 
Q 1584 409 2034 409 
Q 2484 409 2743 651 
Q 3003 894 3003 1313 
Q 3003 1734 2745 1975 
Q 2488 2216 2034 2216 
z
M 1403 2484 
Q 997 2584 770 2862 
Q 544 3141 544 3541 
Q 544 4100 942 4425 
Q 1341 4750 2034 4750 
Q 2731 4750 3128 4425 
Q 3525 4100 3525 3541 
Q 3525 3141 3298 2862 
Q 3072 2584 2669 2484 
Q 3125 2378 3379 2068 
Q 3634 1759 3634 1313 
Q 3634 634 3220 271 
Q 2806 -91 2034 -91 
Q 1263 -91 848 271 
Q 434 634 434 1313 
Q 434 1759 690 2068 
Q 947 2378 1403 2484 
z
M 1172 3481 
Q 1172 3119 1398 2916 
Q 1625 2713 2034 2713 
Q 2441 2713 2670 2916 
Q 2900 3119 2900 3481 
Q 2900 3844 2670 4047 
Q 2441 4250 2034 4250 
Q 1625 4250 1398 4047 
Q 1172 3844 1172 3481 
z
" transform="scale(0.015625)"/>
       </defs>
       <use xlink:href="#DejaVuSans-38"/>
       <use xlink:href="#DejaVuSans-30" x="63.623047"/>
      </g>
     </g>
    </g>
    <g id="xtick_6">
     <g id="line2d_6">
      <g>
       <use xlink:href="#m6a2c60d16e" x="829.920767" y="396.56" style="stroke: #000000; stroke-width: 0.8"/>
      </g>
     </g>
     <g id="text_6">
      <!-- 100 -->
      <g transform="translate(820.377017 411.158437) scale(0.1 -0.1)">
       <defs>
        <path id="DejaVuSans-31" d="M 794 531 
L 1825 531 
L 1825 4091 
L 703 3866 
L 703 4441 
L 1819 4666 
L 2450 4666 
L 2450 531 
L 3481 531 
L 3481 0 
L 794 0 
L 794 531 
z
" transform="scale(0.015625)"/>
       </defs>
       <use xlink:href="#DejaVuSans-31"/>
       <use xlink:href="#DejaVuSans-30" x="63.623047"/>
       <use xlink:href="#DejaVuSans-30" x="127.246094"/>
      </g>
     </g>
    </g>
    <g id="text_7">
     <!-- interation -->
     <g transform="translate(436.783906 424.836562) scale(0.1 -0.1)">
      <defs>
       <path id="DejaVuSans-69" d="M 603 3500 
L 1178 3500 
L 1178 0 
L 603 0 
L 603 3500 
z
M 603 4863 
L 1178 4863 
L 1178 4134 
L 603 4134 
L 603 4863 
z
" transform="scale(0.015625)"/>
       <path id="DejaVuSans-6e" d="M 3513 2113 
L 3513 0 
L 2938 0 
L 2938 2094 
Q 2938 2591 2744 2837 
Q 2550 3084 2163 3084 
Q 1697 3084 1428 2787 
Q 1159 2491 1159 1978 
L 1159 0 
L 581 0 
L 581 3500 
L 1159 3500 
L 1159 2956 
Q 1366 3272 1645 3428 
Q 1925 3584 2291 3584 
Q 2894 3584 3203 3211 
Q 3513 2838 3513 2113 
z
" transform="scale(0.015625)"/>
       <path id="DejaVuSans-74" d="M 1172 4494 
L 1172 3500 
L 2356 3500 
L 2356 3053 
L 1172 3053 
L 1172 1153 
Q 1172 725 1289 603 
Q 1406 481 1766 481 
L 2356 481 
L 2356 0 
L 1766 0 
Q 1100 0 847 248 
Q 594 497 594 1153 
L 594 3053 
L 172 3053 
L 172 3500 
L 594 3500 
L 594 4494 
L 1172 4494 
z
" transform="scale(0.015625)"/>
       <path id="DejaVuSans-65" d="M 3597 1894 
L 3597 1613 
L 953 1613 
Q 991 1019 1311 708 
Q 1631 397 2203 397 
Q 2534 397 2845 478 
Q 3156 559 3463 722 
L 3463 178 
Q 3153 47 2828 -22 
Q 2503 -91 2169 -91 
Q 1331 -91 842 396 
Q 353 884 353 1716 
Q 353 2575 817 3079 
Q 1281 3584 2069 3584 
Q 2775 3584 3186 3129 
Q 3597 2675 3597 1894 
z
M 3022 2063 
Q 3016 2534 2758 2815 
Q 2500 3097 2075 3097 
Q 1594 3097 1305 2825 
Q 1016 2553 972 2059 
L 3022 2063 
z
" transform="scale(0.015625)"/>
       <path id="DejaVuSans-72" d="M 2631 2963 
Q 2534 3019 2420 3045 
Q 2306 3072 2169 3072 
Q 1681 3072 1420 2755 
Q 1159 2438 1159 1844 
L 1159 0 
L 581 0 
L 581 3500 
L 1159 3500 
L 1159 2956 
Q 1341 3275 1631 3429 
Q 1922 3584 2338 3584 
Q 2397 3584 2469 3576 
Q 2541 3569 2628 3553 
L 2631 2963 
z
" transform="scale(0.015625)"/>
       <path id="DejaVuSans-61" d="M 2194 1759 
Q 1497 1759 1228 1600 
Q 959 1441 959 1056 
Q 959 750 1161 570 
Q 1363 391 1709 391 
Q 2188 391 2477 730 
Q 2766 1069 2766 1631 
L 2766 1759 
L 2194 1759 
z
M 3341 1997 
L 3341 0 
L 2766 0 
L 2766 531 
Q 2569 213 2275 61 
Q 1981 -91 1556 -91 
Q 1019 -91 701 211 
Q 384 513 384 1019 
Q 384 1609 779 1909 
Q 1175 2209 1959 2209 
L 2766 2209 
L 2766 2266 
Q 2766 2663 2505 2880 
Q 2244 3097 1772 3097 
Q 1472 3097 1187 3025 
Q 903 2953 641 2809 
L 641 3341 
Q 956 3463 1253 3523 
Q 1550 3584 1831 3584 
Q 2591 3584 2966 3190 
Q 3341 2797 3341 1997 
z
" transform="scale(0.015625)"/>
       <path id="DejaVuSans-6f" d="M 1959 3097 
Q 1497 3097 1228 2736 
Q 959 2375 959 1747 
Q 959 1119 1226 758 
Q 1494 397 1959 397 
Q 2419 397 2687 759 
Q 2956 1122 2956 1747 
Q 2956 2369 2687 2733 
Q 2419 3097 1959 3097 
z
M 1959 3584 
Q 2709 3584 3137 3096 
Q 3566 2609 3566 1747 
Q 3566 888 3137 398 
Q 2709 -91 1959 -91 
Q 1206 -91 779 398 
Q 353 888 353 1747 
Q 353 2609 779 3096 
Q 1206 3584 1959 3584 
z
" transform="scale(0.015625)"/>
      </defs>
      <use xlink:href="#DejaVuSans-69"/>
      <use xlink:href="#DejaVuSans-6e" x="27.783203"/>
      <use xlink:href="#DejaVuSans-74" x="91.162109"/>
      <use xlink:href="#DejaVuSans-65" x="130.371094"/>
      <use xlink:href="#DejaVuSans-72" x="191.894531"/>
      <use xlink:href="#DejaVuSans-61" x="233.007812"/>
      <use xlink:href="#DejaVuSans-74" x="294.287109"/>
      <use xlink:href="#DejaVuSans-69" x="333.496094"/>
      <use xlink:href="#DejaVuSans-6f" x="361.279297"/>
      <use xlink:href="#DejaVuSans-6e" x="422.460938"/>
     </g>
    </g>
   </g>
   <g id="matplotlib.axis_2">
    <g id="ytick_1">
     <g id="line2d_7">
      <defs>
       <path id="m8ad5c4e651" d="M 0 0 
L -3.5 0 
" style="stroke: #000000; stroke-width: 0.8"/>
      </defs>
      <g>
       <use xlink:href="#m8ad5c4e651" x="55.345313" y="372.328279" style="stroke: #000000; stroke-width: 0.8"/>
      </g>
     </g>
     <g id="text_8">
      <!-- −500 -->
      <g transform="translate(20.878125 376.127498) scale(0.1 -0.1)">
       <defs>
        <path id="DejaVuSans-2212" d="M 678 2272 
L 4684 2272 
L 4684 1741 
L 678 1741 
L 678 2272 
z
" transform="scale(0.015625)"/>
        <path id="DejaVuSans-35" d="M 691 4666 
L 3169 4666 
L 3169 4134 
L 1269 4134 
L 1269 2991 
Q 1406 3038 1543 3061 
Q 1681 3084 1819 3084 
Q 2600 3084 3056 2656 
Q 3513 2228 3513 1497 
Q 3513 744 3044 326 
Q 2575 -91 1722 -91 
Q 1428 -91 1123 -41 
Q 819 9 494 109 
L 494 744 
Q 775 591 1075 516 
Q 1375 441 1709 441 
Q 2250 441 2565 725 
Q 2881 1009 2881 1497 
Q 2881 1984 2565 2268 
Q 2250 2553 1709 2553 
Q 1456 2553 1204 2497 
Q 953 2441 691 2322 
L 691 4666 
z
" transform="scale(0.015625)"/>
       </defs>
       <use xlink:href="#DejaVuSans-2212"/>
       <use xlink:href="#DejaVuSans-35" x="83.789062"/>
       <use xlink:href="#DejaVuSans-30" x="147.412109"/>
       <use xlink:href="#DejaVuSans-30" x="211.035156"/>
      </g>
     </g>
    </g>
    <g id="ytick_2">
     <g id="line2d_8">
      <g>
       <use xlink:href="#m8ad5c4e651" x="55.345313" y="305.381849" style="stroke: #000000; stroke-width: 0.8"/>
      </g>
     </g>
     <g id="text_9">
      <!-- −400 -->
      <g transform="translate(20.878125 309.181067) scale(0.1 -0.1)">
       <use xlink:href="#DejaVuSans-2212"/>
       <use xlink:href="#DejaVuSans-34" x="83.789062"/>
       <use xlink:href="#DejaVuSans-30" x="147.412109"/>
       <use xlink:href="#DejaVuSans-30" x="211.035156"/>
      </g>
     </g>
    </g>
    <g id="ytick_3">
     <g id="line2d_9">
      <g>
       <use xlink:href="#m8ad5c4e651" x="55.345313" y="238.435418" style="stroke: #000000; stroke-width: 0.8"/>
      </g>
     </g>
     <g id="text_10">
      <!-- −300 -->
      <g transform="translate(20.878125 242.234637) scale(0.1 -0.1)">
       <defs>
        <path id="DejaVuSans-33" d="M 2597 2516 
Q 3050 2419 3304 2112 
Q 3559 1806 3559 1356 
Q 3559 666 3084 287 
Q 2609 -91 1734 -91 
Q 1441 -91 1130 -33 
Q 819 25 488 141 
L 488 750 
Q 750 597 1062 519 
Q 1375 441 1716 441 
Q 2309 441 2620 675 
Q 2931 909 2931 1356 
Q 2931 1769 2642 2001 
Q 2353 2234 1838 2234 
L 1294 2234 
L 1294 2753 
L 1863 2753 
Q 2328 2753 2575 2939 
Q 2822 3125 2822 3475 
Q 2822 3834 2567 4026 
Q 2313 4219 1838 4219 
Q 1578 4219 1281 4162 
Q 984 4106 628 3988 
L 628 4550 
Q 988 4650 1302 4700 
Q 1616 4750 1894 4750 
Q 2613 4750 3031 4423 
Q 3450 4097 3450 3541 
Q 3450 3153 3228 2886 
Q 3006 2619 2597 2516 
z
" transform="scale(0.015625)"/>
       </defs>
       <use xlink:href="#DejaVuSans-2212"/>
       <use xlink:href="#DejaVuSans-33" x="83.789062"/>
       <use xlink:href="#DejaVuSans-30" x="147.412109"/>
       <use xlink:href="#DejaVuSans-30" x="211.035156"/>
      </g>
     </g>
    </g>
    <g id="ytick_4">
     <g id="line2d_10">
      <g>
       <use xlink:href="#m8ad5c4e651" x="55.345313" y="171.488987" style="stroke: #000000; stroke-width: 0.8"/>
      </g>
     </g>
     <g id="text_11">
      <!-- −200 -->
      <g transform="translate(20.878125 175.288206) scale(0.1 -0.1)">
       <use xlink:href="#DejaVuSans-2212"/>
       <use xlink:href="#DejaVuSans-32" x="83.789062"/>
       <use xlink:href="#DejaVuSans-30" x="147.412109"/>
       <use xlink:href="#DejaVuSans-30" x="211.035156"/>
      </g>
     </g>
    </g>
    <g id="ytick_5">
     <g id="line2d_11">
      <g>
       <use xlink:href="#m8ad5c4e651" x="55.345313" y="104.542556" style="stroke: #000000; stroke-width: 0.8"/>
      </g>
     </g>
     <g id="text_12">
      <!-- −100 -->
      <g transform="translate(20.878125 108.341775) scale(0.1 -0.1)">
       <use xlink:href="#DejaVuSans-2212"/>
       <use xlink:href="#DejaVuSans-31" x="83.789062"/>
       <use xlink:href="#DejaVuSans-30" x="147.412109"/>
       <use xlink:href="#DejaVuSans-30" x="211.035156"/>
      </g>
     </g>
    </g>
    <g id="ytick_6">
     <g id="line2d_12">
      <g>
       <use xlink:href="#m8ad5c4e651" x="55.345313" y="37.596125" style="stroke: #000000; stroke-width: 0.8"/>
      </g>
     </g>
     <g id="text_13">
      <!-- 0 -->
      <g transform="translate(41.982813 41.395344) scale(0.1 -0.1)">
       <use xlink:href="#DejaVuSans-30"/>
      </g>
     </g>
    </g>
    <g id="text_14">
     <!-- reward -->
     <g transform="translate(14.798438 219.194844) rotate(-90) scale(0.1 -0.1)">
      <defs>
       <path id="DejaVuSans-77" d="M 269 3500 
L 844 3500 
L 1563 769 
L 2278 3500 
L 2956 3500 
L 3675 769 
L 4391 3500 
L 4966 3500 
L 4050 0 
L 3372 0 
L 2619 2869 
L 1863 0 
L 1184 0 
L 269 3500 
z
" transform="scale(0.015625)"/>
       <path id="DejaVuSans-64" d="M 2906 2969 
L 2906 4863 
L 3481 4863 
L 3481 0 
L 2906 0 
L 2906 525 
Q 2725 213 2448 61 
Q 2172 -91 1784 -91 
Q 1150 -91 751 415 
Q 353 922 353 1747 
Q 353 2572 751 3078 
Q 1150 3584 1784 3584 
Q 2172 3584 2448 3432 
Q 2725 3281 2906 2969 
z
M 947 1747 
Q 947 1113 1208 752 
Q 1469 391 1925 391 
Q 2381 391 2643 752 
Q 2906 1113 2906 1747 
Q 2906 2381 2643 2742 
Q 2381 3103 1925 3103 
Q 1469 3103 1208 2742 
Q 947 2381 947 1747 
z
" transform="scale(0.015625)"/>
      </defs>
      <use xlink:href="#DejaVuSans-72"/>
      <use xlink:href="#DejaVuSans-65" x="38.863281"/>
      <use xlink:href="#DejaVuSans-77" x="100.386719"/>
      <use xlink:href="#DejaVuSans-61" x="182.173828"/>
      <use xlink:href="#DejaVuSans-72" x="243.453125"/>
      <use xlink:href="#DejaVuSans-64" x="282.816406"/>
     </g>
    </g>
   </g>
   <g id="line2d_13">
    <path d="M 92.229858 165.07336 
L 99.681281 143.409989 
L 107.132705 149.86037 
L 114.584128 149.893704 
L 122.035551 134.104845 
L 129.486975 153.443993 
L 136.938398 161.080148 
L 144.389821 149.27956 
L 151.841245 158.543062 
L 159.292668 133.323566 
L 166.744091 143.473819 
L 174.195515 117.56824 
L 181.646938 128.421493 
L 189.098361 138.813409 
L 196.549784 166.892191 
L 204.001208 127.973755 
L 211.452631 176.229382 
L 218.904054 144.740419 
L 226.355478 154.896576 
L 233.806901 130.181333 
L 241.258324 138.986242 
L 248.709748 140.91398 
L 256.161171 129.468135 
L 263.612594 148.966354 
L 271.064018 162.057691 
L 278.515441 146.27917 
L 285.966864 144.749879 
L 293.418288 165.475637 
L 300.869711 146.221466 
L 308.321134 125.781615 
L 315.772558 139.404929 
L 323.223981 152.941986 
L 330.675404 122.147543 
L 338.126828 150.982121 
L 345.578251 133.511659 
L 353.029674 128.589365 
L 360.481098 156.76546 
L 367.932521 121.748716 
L 375.383944 141.327107 
L 382.835368 129.709393 
L 390.286791 145.102361 
L 397.738214 131.214647 
L 405.189638 127.156382 
L 412.641061 123.487683 
L 420.092484 135.676797 
L 427.543908 135.293859 
L 434.995331 141.903375 
L 442.446754 148.844191 
L 449.898178 146.694193 
L 457.349601 139.450789 
L 464.801024 120.56717 
L 472.252447 137.185164 
L 479.703871 142.464069 
L 487.155294 137.172683 
L 494.606717 126.092113 
L 502.058141 116.810571 
L 509.509564 125.185403 
L 516.960987 116.321169 
L 524.412411 116.208256 
L 531.863834 111.510212 
L 539.315257 122.476499 
L 546.766681 124.273838 
L 554.218104 133.955735 
L 561.669527 127.949256 
L 569.120951 118.2287 
L 576.572374 124.208668 
L 584.023797 133.375994 
L 591.475221 107.101001 
L 598.926644 131.049773 
L 606.378067 142.106718 
L 613.829491 106.867539 
L 621.280914 119.91041 
L 628.732337 116.082175 
L 636.183761 130.592994 
L 643.635184 119.526484 
L 651.086607 122.961971 
L 658.538031 116.563418 
L 665.989454 118.495649 
L 673.440877 123.116971 
L 680.892301 116.633779 
L 688.343724 117.138799 
L 695.795147 100.721143 
L 703.246571 128.043931 
L 710.697994 119.950365 
L 718.149417 119.07054 
L 725.600841 109.001846 
L 733.052264 109.818483 
L 740.503687 123.776135 
L 747.95511 141.593422 
L 755.406534 102.739505 
L 762.857957 109.383712 
L 770.30938 120.008564 
L 777.760804 108.366216 
L 785.212227 95.253658 
L 792.66365 100.439072 
L 800.115074 113.138607 
L 807.566497 105.164097 
L 815.01792 105.574739 
L 822.469344 110.763638 
L 829.920767 104.024712 
" clip-path="url(#pd8780f97a7)" style="fill: none; stroke: #1f77b4; stroke-width: 1.5; stroke-linecap: square"/>
   </g>
   <g id="line2d_14">
    <path d="M 92.229858 167.176374 
L 99.681281 162.960257 
L 107.132705 152.419912 
L 114.584128 181.49031 
L 122.035551 160.938977 
L 129.486975 131.204136 
L 136.938398 146.865073 
L 144.389821 143.403685 
L 151.841245 154.584428 
L 159.292668 163.555744 
L 166.744091 112.529139 
L 174.195515 142.329796 
L 181.646938 126.876755 
L 189.098361 127.393686 
L 196.549784 129.818636 
L 204.001208 130.01717 
L 211.452631 124.751819 
L 218.904054 136.549226 
L 226.355478 110.982769 
L 233.806901 123.426398 
L 241.258324 141.906229 
L 248.709748 108.728007 
L 256.161171 138.705805 
L 263.612594 138.104221 
L 271.064018 135.653244 
L 278.515441 129.012903 
L 285.966864 116.695965 
L 293.418288 146.505083 
L 300.869711 135.939304 
L 308.321134 149.04189 
L 315.772558 120.285064 
L 323.223981 126.793757 
L 330.675404 129.279197 
L 338.126828 130.414054 
L 345.578251 124.560275 
L 353.029674 112.045881 
L 360.481098 150.582189 
L 367.932521 103.571251 
L 375.383944 103.370259 
L 382.835368 113.825499 
L 390.286791 112.314865 
L 397.738214 109.901564 
L 405.189638 102.000488 
L 412.641061 95.239333 
L 420.092484 105.9165 
L 427.543908 106.789477 
L 434.995331 100.157986 
L 442.446754 98.587025 
L 449.898178 101.602167 
L 457.349601 88.345731 
L 464.801024 93.802041 
L 472.252447 81.828325 
L 479.703871 73.203184 
L 487.155294 71.681087 
L 494.606717 77.692718 
L 502.058141 87.994558 
L 509.509564 85.736052 
L 516.960987 74.849922 
L 524.412411 72.362786 
L 531.863834 74.986255 
L 539.315257 79.253716 
L 546.766681 67.533973 
L 554.218104 68.242082 
L 561.669527 65.169775 
L 569.120951 85.177665 
L 576.572374 63.809416 
L 584.023797 63.150506 
L 591.475221 61.586155 
L 598.926644 60.691147 
L 606.378067 60.511054 
L 613.829491 71.719684 
L 621.280914 65.196232 
L 628.732337 49.681716 
L 636.183761 62.237998 
L 643.635184 61.902665 
L 651.086607 58.297712 
L 658.538031 50.200096 
L 665.989454 46.296006 
L 673.440877 43.964007 
L 680.892301 41.236283 
L 688.343724 39.808069 
L 695.795147 42.585072 
L 703.246571 35.777864 
L 710.697994 36.715018 
L 718.149417 38.228359 
L 725.600841 40.234112 
L 733.052264 35.719666 
L 740.503687 38.400114 
L 747.95511 33.377639 
L 755.406534 32.462641 
L 762.857957 33.317438 
L 770.30938 45.807421 
L 777.760804 29.738802 
L 785.212227 56.245463 
L 792.66365 24.898182 
L 800.115074 56.555228 
L 807.566497 110.240638 
L 815.01792 32.351008 
L 822.469344 49.202085 
L 829.920767 30.967146 
" clip-path="url(#pd8780f97a7)" style="fill: none; stroke: #ff7f0e; stroke-width: 1.5; stroke-linecap: square"/>
   </g>
   <g id="line2d_15">
    <path d="M 92.229858 164.222139 
L 99.681281 157.636816 
L 107.132705 151.135037 
L 114.584128 151.407893 
L 122.035551 131.917289 
L 129.486975 112.51368 
L 136.938398 118.717992 
L 144.389821 113.339954 
L 151.841245 102.335808 
L 159.292668 92.49041 
L 166.744091 86.50235 
L 174.195515 87.796126 
L 181.646938 81.767472 
L 189.098361 81.559318 
L 196.549784 75.532649 
L 204.001208 76.183944 
L 211.452631 71.976207 
L 218.904054 69.423829 
L 226.355478 67.710774 
L 233.806901 72.428733 
L 241.258324 69.610095 
L 248.709748 61.905743 
L 256.161171 52.621209 
L 263.612594 61.88054 
L 271.064018 61.539313 
L 278.515441 56.103344 
L 285.966864 54.680556 
L 293.418288 52.836132 
L 300.869711 53.205995 
L 308.321134 50.365772 
L 315.772558 49.037565 
L 323.223981 42.555326 
L 330.675404 56.52696 
L 338.126828 64.564599 
L 345.578251 62.498765 
L 353.029674 49.354744 
L 360.481098 86.613106 
L 367.932521 44.059261 
L 375.383944 28.303541 
L 382.835368 57.5039 
L 390.286791 177.638676 
L 397.738214 175.481139 
L 405.189638 153.693182 
L 412.641061 136.76995 
L 420.092484 186.956686 
L 427.543908 127.434204 
L 434.995331 201.739077 
L 442.446754 187.478133 
L 449.898178 161.22146 
L 457.349601 166.399464 
L 464.801024 135.954205 
L 472.252447 143.057949 
L 479.703871 244.414993 
L 487.155294 127.934176 
L 494.606717 148.571554 
L 502.058141 174.596494 
L 509.509564 202.352596 
L 516.960987 115.739106 
L 524.412411 138.202648 
L 531.863834 151.983185 
L 539.315257 117.10881 
L 546.766681 160.148686 
L 554.218104 110.064788 
L 561.669527 72.104136 
L 569.120951 97.100725 
L 576.572374 143.876689 
L 584.023797 378.861818 
L 591.475221 297.46983 
L 598.926644 139.820941 
L 606.378067 196.462682 
L 613.829491 219.505718 
L 621.280914 241.437092 
L 628.732337 154.810936 
L 636.183761 337.453733 
L 643.635184 220.384251 
L 651.086607 191.523131 
L 658.538031 177.20632 
L 665.989454 263.479704 
L 673.440877 77.140531 
L 680.892301 233.546827 
L 688.343724 281.489007 
L 695.795147 284.103688 
L 703.246571 104.223113 
L 710.697994 291.611777 
L 718.149417 215.398915 
L 725.600841 272.140581 
L 733.052264 116.15075 
L 740.503687 59.142294 
L 747.95511 37.818259 
L 755.406534 47.193039 
L 762.857957 147.475922 
L 770.30938 270.031265 
L 777.760804 53.946445 
L 785.212227 124.377198 
L 792.66365 296.796452 
L 800.115074 41.890044 
L 807.566497 159.198328 
L 815.01792 354.469825 
L 822.469344 65.542408 
L 829.920767 44.190653 
" clip-path="url(#pd8780f97a7)" style="fill: none; stroke: #2ca02c; stroke-width: 1.5; stroke-linecap: square"/>
   </g>
   <g id="line2d_16">
    <path d="M 92.229858 146.279359 
L 99.681281 129.736856 
L 107.132705 153.758173 
L 114.584128 147.453537 
L 122.035551 159.066258 
L 129.486975 163.250311 
L 136.938398 161.636119 
L 144.389821 149.699666 
L 151.841245 124.231342 
L 159.292668 137.768048 
L 166.744091 153.138878 
L 174.195515 178.621132 
L 181.646938 181.532846 
L 189.098361 127.52988 
L 196.549784 130.997281 
L 204.001208 107.980716 
L 211.452631 96.518025 
L 218.904054 98.406357 
L 226.355478 75.189303 
L 233.806901 89.769933 
L 241.258324 105.747109 
L 248.709748 73.48961 
L 256.161171 78.787911 
L 263.612594 83.887714 
L 271.064018 84.395267 
L 278.515441 70.803266 
L 285.966864 81.28534 
L 293.418288 82.126996 
L 300.869711 72.433464 
L 308.321134 74.035461 
L 315.772558 76.78935 
L 323.223981 71.17436 
L 330.675404 79.140915 
L 338.126828 69.845788 
L 345.578251 71.620156 
L 353.029674 69.193752 
L 360.481098 64.961992 
L 367.932521 52.948294 
L 375.383944 51.150638 
L 382.835368 52.911343 
L 390.286791 49.776832 
L 397.738214 77.019997 
L 405.189638 36.900886 
L 412.641061 32.778576 
L 420.092484 37.050546 
L 427.543908 57.067448 
L 434.995331 49.591706 
L 442.446754 39.179191 
L 449.898178 48.57793 
L 457.349601 55.120038 
L 464.801024 52.190527 
L 472.252447 68.20851 
L 479.703871 72.026239 
L 487.155294 31.962463 
L 494.606717 53.326033 
L 502.058141 52.596258 
L 509.509564 36.720255 
L 516.960987 78.036155 
L 524.412411 59.597388 
L 531.863834 116.005754 
L 539.315257 58.145282 
L 546.766681 58.287495 
L 554.218104 84.054405 
L 561.669527 141.343904 
L 569.120951 161.622318 
L 576.572374 239.754768 
L 584.023797 300.566345 
L 591.475221 264.60686 
L 598.926644 238.167651 
L 606.378067 266.834247 
L 613.829491 306.489087 
L 621.280914 310.724889 
L 628.732337 329.643638 
L 636.183761 265.939563 
L 643.635184 326.753923 
L 651.086607 316.625081 
L 658.538031 294.950632 
L 665.989454 315.71352 
L 673.440877 347.275976 
L 680.892301 344.273707 
L 688.343724 317.418266 
L 695.795147 338.284902 
L 703.246571 292.372359 
L 710.697994 328.785347 
L 718.149417 316.162805 
L 725.600841 310.456462 
L 733.052264 302.177219 
L 740.503687 304.336643 
L 747.95511 300.696551 
L 755.406534 310.968778 
L 762.857957 322.247166 
L 770.30938 319.289663 
L 777.760804 331.809847 
L 785.212227 341.865527 
L 792.66365 291.979173 
L 800.115074 313.323992 
L 807.566497 338.014379 
L 815.01792 314.558341 
L 822.469344 309.540299 
L 829.920767 304.276451 
" clip-path="url(#pd8780f97a7)" style="fill: none; stroke: #d62728; stroke-width: 1.5; stroke-linecap: square"/>
   </g>
   <g id="patch_3">
    <path d="M 55.345313 396.56 
L 55.345313 7.2 
" style="fill: none; stroke: #000000; stroke-width: 0.8; stroke-linejoin: miter; stroke-linecap: square"/>
   </g>
   <g id="patch_4">
    <path d="M 866.805313 396.56 
L 866.805313 7.2 
" style="fill: none; stroke: #000000; stroke-width: 0.8; stroke-linejoin: miter; stroke-linecap: square"/>
   </g>
   <g id="patch_5">
    <path d="M 55.345313 396.56 
L 866.805313 396.56 
" style="fill: none; stroke: #000000; stroke-width: 0.8; stroke-linejoin: miter; stroke-linecap: square"/>
   </g>
   <g id="patch_6">
    <path d="M 55.345313 7.2 
L 866.805313 7.2 
" style="fill: none; stroke: #000000; stroke-width: 0.8; stroke-linejoin: miter; stroke-linecap: square"/>
   </g>
   <g id="legend_1">
    <g id="patch_7">
     <path d="M 62.345313 391.56 
L 327.407812 391.56 
Q 329.407812 391.56 329.407812 389.56 
L 329.407812 361.20375 
Q 329.407812 359.20375 327.407812 359.20375 
L 62.345313 359.20375 
Q 60.345313 359.20375 60.345313 361.20375 
L 60.345313 389.56 
Q 60.345313 391.56 62.345313 391.56 
z
" style="fill: #ffffff; opacity: 0.8; stroke: #cccccc; stroke-linejoin: miter"/>
    </g>
    <g id="text_15">
     <!-- Trust region radius -->
     <g transform="translate(148.325781 370.802187) scale(0.1 -0.1)">
      <defs>
       <path id="DejaVuSans-54" d="M -19 4666 
L 3928 4666 
L 3928 4134 
L 2272 4134 
L 2272 0 
L 1638 0 
L 1638 4134 
L -19 4134 
L -19 4666 
z
" transform="scale(0.015625)"/>
       <path id="DejaVuSans-75" d="M 544 1381 
L 544 3500 
L 1119 3500 
L 1119 1403 
Q 1119 906 1312 657 
Q 1506 409 1894 409 
Q 2359 409 2629 706 
Q 2900 1003 2900 1516 
L 2900 3500 
L 3475 3500 
L 3475 0 
L 2900 0 
L 2900 538 
Q 2691 219 2414 64 
Q 2138 -91 1772 -91 
Q 1169 -91 856 284 
Q 544 659 544 1381 
z
M 1991 3584 
L 1991 3584 
z
" transform="scale(0.015625)"/>
       <path id="DejaVuSans-73" d="M 2834 3397 
L 2834 2853 
Q 2591 2978 2328 3040 
Q 2066 3103 1784 3103 
Q 1356 3103 1142 2972 
Q 928 2841 928 2578 
Q 928 2378 1081 2264 
Q 1234 2150 1697 2047 
L 1894 2003 
Q 2506 1872 2764 1633 
Q 3022 1394 3022 966 
Q 3022 478 2636 193 
Q 2250 -91 1575 -91 
Q 1294 -91 989 -36 
Q 684 19 347 128 
L 347 722 
Q 666 556 975 473 
Q 1284 391 1588 391 
Q 1994 391 2212 530 
Q 2431 669 2431 922 
Q 2431 1156 2273 1281 
Q 2116 1406 1581 1522 
L 1381 1569 
Q 847 1681 609 1914 
Q 372 2147 372 2553 
Q 372 3047 722 3315 
Q 1072 3584 1716 3584 
Q 2034 3584 2315 3537 
Q 2597 3491 2834 3397 
z
" transform="scale(0.015625)"/>
       <path id="DejaVuSans-20" transform="scale(0.015625)"/>
       <path id="DejaVuSans-67" d="M 2906 1791 
Q 2906 2416 2648 2759 
Q 2391 3103 1925 3103 
Q 1463 3103 1205 2759 
Q 947 2416 947 1791 
Q 947 1169 1205 825 
Q 1463 481 1925 481 
Q 2391 481 2648 825 
Q 2906 1169 2906 1791 
z
M 3481 434 
Q 3481 -459 3084 -895 
Q 2688 -1331 1869 -1331 
Q 1566 -1331 1297 -1286 
Q 1028 -1241 775 -1147 
L 775 -588 
Q 1028 -725 1275 -790 
Q 1522 -856 1778 -856 
Q 2344 -856 2625 -561 
Q 2906 -266 2906 331 
L 2906 616 
Q 2728 306 2450 153 
Q 2172 0 1784 0 
Q 1141 0 747 490 
Q 353 981 353 1791 
Q 353 2603 747 3093 
Q 1141 3584 1784 3584 
Q 2172 3584 2450 3431 
Q 2728 3278 2906 2969 
L 2906 3500 
L 3481 3500 
L 3481 434 
z
" transform="scale(0.015625)"/>
      </defs>
      <use xlink:href="#DejaVuSans-54"/>
      <use xlink:href="#DejaVuSans-72" x="46.333984"/>
      <use xlink:href="#DejaVuSans-75" x="87.447266"/>
      <use xlink:href="#DejaVuSans-73" x="150.826172"/>
      <use xlink:href="#DejaVuSans-74" x="202.925781"/>
      <use xlink:href="#DejaVuSans-20" x="242.134766"/>
      <use xlink:href="#DejaVuSans-72" x="273.921875"/>
      <use xlink:href="#DejaVuSans-65" x="312.785156"/>
      <use xlink:href="#DejaVuSans-67" x="374.308594"/>
      <use xlink:href="#DejaVuSans-69" x="437.785156"/>
      <use xlink:href="#DejaVuSans-6f" x="465.568359"/>
      <use xlink:href="#DejaVuSans-6e" x="526.75"/>
      <use xlink:href="#DejaVuSans-20" x="590.128906"/>
      <use xlink:href="#DejaVuSans-72" x="621.916016"/>
      <use xlink:href="#DejaVuSans-61" x="663.029297"/>
      <use xlink:href="#DejaVuSans-64" x="724.308594"/>
      <use xlink:href="#DejaVuSans-69" x="787.785156"/>
      <use xlink:href="#DejaVuSans-75" x="815.568359"/>
      <use xlink:href="#DejaVuSans-73" x="878.947266"/>
     </g>
    </g>
    <g id="line2d_17">
     <path d="M 64.345313 381.980312 
L 74.345313 381.980312 
L 84.345313 381.980312 
" style="fill: none; stroke: #1f77b4; stroke-width: 1.5; stroke-linecap: square"/>
    </g>
    <g id="text_16">
     <!-- 0.001 -->
     <g transform="translate(92.345313 385.480312) scale(0.1 -0.1)">
      <defs>
       <path id="DejaVuSans-2e" d="M 684 794 
L 1344 794 
L 1344 0 
L 684 0 
L 684 794 
z
" transform="scale(0.015625)"/>
      </defs>
      <use xlink:href="#DejaVuSans-30"/>
      <use xlink:href="#DejaVuSans-2e" x="63.623047"/>
      <use xlink:href="#DejaVuSans-30" x="95.410156"/>
      <use xlink:href="#DejaVuSans-30" x="159.033203"/>
      <use xlink:href="#DejaVuSans-31" x="222.65625"/>
     </g>
    </g>
    <g id="line2d_18">
     <path d="M 140.973437 381.980312 
L 150.973437 381.980312 
L 160.973437 381.980312 
" style="fill: none; stroke: #ff7f0e; stroke-width: 1.5; stroke-linecap: square"/>
    </g>
    <g id="text_17">
     <!-- 0.01 -->
     <g transform="translate(168.973437 385.480312) scale(0.1 -0.1)">
      <use xlink:href="#DejaVuSans-30"/>
      <use xlink:href="#DejaVuSans-2e" x="63.623047"/>
      <use xlink:href="#DejaVuSans-30" x="95.410156"/>
      <use xlink:href="#DejaVuSans-31" x="159.033203"/>
     </g>
    </g>
    <g id="line2d_19">
     <path d="M 211.239063 381.980312 
L 221.239063 381.980312 
L 231.239063 381.980312 
" style="fill: none; stroke: #2ca02c; stroke-width: 1.5; stroke-linecap: square"/>
    </g>
    <g id="text_18">
     <!-- 0.05 -->
     <g transform="translate(239.239063 385.480312) scale(0.1 -0.1)">
      <use xlink:href="#DejaVuSans-30"/>
      <use xlink:href="#DejaVuSans-2e" x="63.623047"/>
      <use xlink:href="#DejaVuSans-30" x="95.410156"/>
      <use xlink:href="#DejaVuSans-35" x="159.033203"/>
     </g>
    </g>
    <g id="line2d_20">
     <path d="M 281.504688 381.980312 
L 291.504688 381.980312 
L 301.504688 381.980312 
" style="fill: none; stroke: #d62728; stroke-width: 1.5; stroke-linecap: square"/>
    </g>
    <g id="text_19">
     <!-- 0.1 -->
     <g transform="translate(309.504688 385.480312) scale(0.1 -0.1)">
      <use xlink:href="#DejaVuSans-30"/>
      <use xlink:href="#DejaVuSans-2e" x="63.623047"/>
      <use xlink:href="#DejaVuSans-31" x="95.410156"/>
     </g>
    </g>
   </g>
  </g>
 </g>
 <defs>
  <clipPath id="pd8780f97a7">
   <rect x="55.345313" y="7.2" width="811.46" height="389.36"/>
  </clipPath>
 </defs>
</svg>
