<?xml version="1.0" encoding="utf-8" standalone="no"?>
<!DOCTYPE svg PUBLIC "-//W3C//DTD SVG 1.1//EN"
  "http://www.w3.org/Graphics/SVG/1.1/DTD/svg11.dtd">
<svg xmlns:xlink="http://www.w3.org/1999/xlink" width="859.263125pt" height="434.11625pt" viewBox="0 0 859.263125 434.11625" xmlns="http://www.w3.org/2000/svg" version="1.1">
 <metadata>
  <rdf:RDF xmlns:dc="http://purl.org/dc/elements/1.1/" xmlns:cc="http://creativecommons.org/ns#" xmlns:rdf="http://www.w3.org/1999/02/22-rdf-syntax-ns#">
   <cc:Work>
    <dc:type rdf:resource="http://purl.org/dc/dcmitype/StillImage"/>
    <dc:date>2023-03-26T19:22:28.533062</dc:date>
    <dc:format>image/svg+xml</dc:format>
    <dc:creator>
     <cc:Agent>
      <dc:title>Matplotlib v3.6.1, https://matplotlib.org/</dc:title>
     </cc:Agent>
    </dc:creator>
   </cc:Work>
  </rdf:RDF>
 </metadata>
 <defs>
  <style type="text/css">*{stroke-linejoin: round; stroke-linecap: butt}</style>
 </defs>
 <g id="figure_1">
  <g id="patch_1">
   <path d="M -0 434.11625 
L 859.263125 434.11625 
L 859.263125 0 
L -0 0 
z
" style="fill: #ffffff"/>
  </g>
  <g id="axes_1">
   <g id="patch_2">
    <path d="M 40.603125 396.56 
L 852.063125 396.56 
L 852.063125 7.2 
L 40.603125 7.2 
z
" style="fill: #ffffff"/>
   </g>
   <g id="matplotlib.axis_1">
    <g id="xtick_1">
     <g id="line2d_1">
      <defs>
       <path id="mdff60f35c4" d="M 0 0 
L 0 3.5 
" style="stroke: #000000; stroke-width: 0.8"/>
      </defs>
      <g>
       <use xlink:href="#mdff60f35c4" x="70.036247" y="396.56" style="stroke: #000000; stroke-width: 0.8"/>
      </g>
     </g>
     <g id="text_1">
      <!-- 0 -->
      <g transform="translate(66.854997 411.158437) scale(0.1 -0.1)">
       <defs>
        <path id="DejaVuSans-30" d="M 2034 4250 
Q 1547 4250 1301 3770 
Q 1056 3291 1056 2328 
Q 1056 1369 1301 889 
Q 1547 409 2034 409 
Q 2525 409 2770 889 
Q 3016 1369 3016 2328 
Q 3016 3291 2770 3770 
Q 2525 4250 2034 4250 
z
M 2034 4750 
Q 2819 4750 3233 4129 
Q 3647 3509 3647 2328 
Q 3647 1150 3233 529 
Q 2819 -91 2034 -91 
Q 1250 -91 836 529 
Q 422 1150 422 2328 
Q 422 3509 836 4129 
Q 1250 4750 2034 4750 
z
" transform="scale(0.015625)"/>
       </defs>
       <use xlink:href="#DejaVuSans-30"/>
      </g>
     </g>
    </g>
    <g id="xtick_2">
     <g id="line2d_2">
      <g>
       <use xlink:href="#mdff60f35c4" x="219.064714" y="396.56" style="stroke: #000000; stroke-width: 0.8"/>
      </g>
     </g>
     <g id="text_2">
      <!-- 20 -->
      <g transform="translate(212.702214 411.158437) scale(0.1 -0.1)">
       <defs>
        <path id="DejaVuSans-32" d="M 1228 531 
L 3431 531 
L 3431 0 
L 469 0 
L 469 531 
Q 828 903 1448 1529 
Q 2069 2156 2228 2338 
Q 2531 2678 2651 2914 
Q 2772 3150 2772 3378 
Q 2772 3750 2511 3984 
Q 2250 4219 1831 4219 
Q 1534 4219 1204 4116 
Q 875 4013 500 3803 
L 500 4441 
Q 881 4594 1212 4672 
Q 1544 4750 1819 4750 
Q 2544 4750 2975 4387 
Q 3406 4025 3406 3419 
Q 3406 3131 3298 2873 
Q 3191 2616 2906 2266 
Q 2828 2175 2409 1742 
Q 1991 1309 1228 531 
z
" transform="scale(0.015625)"/>
       </defs>
       <use xlink:href="#DejaVuSans-32"/>
       <use xlink:href="#DejaVuSans-30" x="63.623047"/>
      </g>
     </g>
    </g>
    <g id="xtick_3">
     <g id="line2d_3">
      <g>
       <use xlink:href="#mdff60f35c4" x="368.09318" y="396.56" style="stroke: #000000; stroke-width: 0.8"/>
      </g>
     </g>
     <g id="text_3">
      <!-- 40 -->
      <g transform="translate(361.73068 411.158437) scale(0.1 -0.1)">
       <defs>
        <path id="DejaVuSans-34" d="M 2419 4116 
L 825 1625 
L 2419 1625 
L 2419 4116 
z
M 2253 4666 
L 3047 4666 
L 3047 1625 
L 3713 1625 
L 3713 1100 
L 3047 1100 
L 3047 0 
L 2419 0 
L 2419 1100 
L 313 1100 
L 313 1709 
L 2253 4666 
z
" transform="scale(0.015625)"/>
       </defs>
       <use xlink:href="#DejaVuSans-34"/>
       <use xlink:href="#DejaVuSans-30" x="63.623047"/>
      </g>
     </g>
    </g>
    <g id="xtick_4">
     <g id="line2d_4">
      <g>
       <use xlink:href="#mdff60f35c4" x="517.121647" y="396.56" style="stroke: #000000; stroke-width: 0.8"/>
      </g>
     </g>
     <g id="text_4">
      <!-- 60 -->
      <g transform="translate(510.759147 411.158437) scale(0.1 -0.1)">
       <defs>
        <path id="DejaVuSans-36" d="M 2113 2584 
Q 1688 2584 1439 2293 
Q 1191 2003 1191 1497 
Q 1191 994 1439 701 
Q 1688 409 2113 409 
Q 2538 409 2786 701 
Q 3034 994 3034 1497 
Q 3034 2003 2786 2293 
Q 2538 2584 2113 2584 
z
M 3366 4563 
L 3366 3988 
Q 3128 4100 2886 4159 
Q 2644 4219 2406 4219 
Q 1781 4219 1451 3797 
Q 1122 3375 1075 2522 
Q 1259 2794 1537 2939 
Q 1816 3084 2150 3084 
Q 2853 3084 3261 2657 
Q 3669 2231 3669 1497 
Q 3669 778 3244 343 
Q 2819 -91 2113 -91 
Q 1303 -91 875 529 
Q 447 1150 447 2328 
Q 447 3434 972 4092 
Q 1497 4750 2381 4750 
Q 2619 4750 2861 4703 
Q 3103 4656 3366 4563 
z
" transform="scale(0.015625)"/>
       </defs>
       <use xlink:href="#DejaVuSans-36"/>
       <use xlink:href="#DejaVuSans-30" x="63.623047"/>
      </g>
     </g>
    </g>
    <g id="xtick_5">
     <g id="line2d_5">
      <g>
       <use xlink:href="#mdff60f35c4" x="666.150113" y="396.56" style="stroke: #000000; stroke-width: 0.8"/>
      </g>
     </g>
     <g id="text_5">
      <!-- 80 -->
      <g transform="translate(659.787613 411.158437) scale(0.1 -0.1)">
       <defs>
        <path id="DejaVuSans-38" d="M 2034 2216 
Q 1584 2216 1326 1975 
Q 1069 1734 1069 1313 
Q 1069 891 1326 650 
Q 1584 409 2034 409 
Q 2484 409 2743 651 
Q 3003 894 3003 1313 
Q 3003 1734 2745 1975 
Q 2488 2216 2034 2216 
z
M 1403 2484 
Q 997 2584 770 2862 
Q 544 3141 544 3541 
Q 544 4100 942 4425 
Q 1341 4750 2034 4750 
Q 2731 4750 3128 4425 
Q 3525 4100 3525 3541 
Q 3525 3141 3298 2862 
Q 3072 2584 2669 2484 
Q 3125 2378 3379 2068 
Q 3634 1759 3634 1313 
Q 3634 634 3220 271 
Q 2806 -91 2034 -91 
Q 1263 -91 848 271 
Q 434 634 434 1313 
Q 434 1759 690 2068 
Q 947 2378 1403 2484 
z
M 1172 3481 
Q 1172 3119 1398 2916 
Q 1625 2713 2034 2713 
Q 2441 2713 2670 2916 
Q 2900 3119 2900 3481 
Q 2900 3844 2670 4047 
Q 2441 4250 2034 4250 
Q 1625 4250 1398 4047 
Q 1172 3844 1172 3481 
z
" transform="scale(0.015625)"/>
       </defs>
       <use xlink:href="#DejaVuSans-38"/>
       <use xlink:href="#DejaVuSans-30" x="63.623047"/>
      </g>
     </g>
    </g>
    <g id="xtick_6">
     <g id="line2d_6">
      <g>
       <use xlink:href="#mdff60f35c4" x="815.17858" y="396.56" style="stroke: #000000; stroke-width: 0.8"/>
      </g>
     </g>
     <g id="text_6">
      <!-- 100 -->
      <g transform="translate(805.63483 411.158437) scale(0.1 -0.1)">
       <defs>
        <path id="DejaVuSans-31" d="M 794 531 
L 1825 531 
L 1825 4091 
L 703 3866 
L 703 4441 
L 1819 4666 
L 2450 4666 
L 2450 531 
L 3481 531 
L 3481 0 
L 794 0 
L 794 531 
z
" transform="scale(0.015625)"/>
       </defs>
       <use xlink:href="#DejaVuSans-31"/>
       <use xlink:href="#DejaVuSans-30" x="63.623047"/>
       <use xlink:href="#DejaVuSans-30" x="127.246094"/>
      </g>
     </g>
    </g>
    <g id="text_7">
     <!-- interation -->
     <g transform="translate(422.041719 424.836562) scale(0.1 -0.1)">
      <defs>
       <path id="DejaVuSans-69" d="M 603 3500 
L 1178 3500 
L 1178 0 
L 603 0 
L 603 3500 
z
M 603 4863 
L 1178 4863 
L 1178 4134 
L 603 4134 
L 603 4863 
z
" transform="scale(0.015625)"/>
       <path id="DejaVuSans-6e" d="M 3513 2113 
L 3513 0 
L 2938 0 
L 2938 2094 
Q 2938 2591 2744 2837 
Q 2550 3084 2163 3084 
Q 1697 3084 1428 2787 
Q 1159 2491 1159 1978 
L 1159 0 
L 581 0 
L 581 3500 
L 1159 3500 
L 1159 2956 
Q 1366 3272 1645 3428 
Q 1925 3584 2291 3584 
Q 2894 3584 3203 3211 
Q 3513 2838 3513 2113 
z
" transform="scale(0.015625)"/>
       <path id="DejaVuSans-74" d="M 1172 4494 
L 1172 3500 
L 2356 3500 
L 2356 3053 
L 1172 3053 
L 1172 1153 
Q 1172 725 1289 603 
Q 1406 481 1766 481 
L 2356 481 
L 2356 0 
L 1766 0 
Q 1100 0 847 248 
Q 594 497 594 1153 
L 594 3053 
L 172 3053 
L 172 3500 
L 594 3500 
L 594 4494 
L 1172 4494 
z
" transform="scale(0.015625)"/>
       <path id="DejaVuSans-65" d="M 3597 1894 
L 3597 1613 
L 953 1613 
Q 991 1019 1311 708 
Q 1631 397 2203 397 
Q 2534 397 2845 478 
Q 3156 559 3463 722 
L 3463 178 
Q 3153 47 2828 -22 
Q 2503 -91 2169 -91 
Q 1331 -91 842 396 
Q 353 884 353 1716 
Q 353 2575 817 3079 
Q 1281 3584 2069 3584 
Q 2775 3584 3186 3129 
Q 3597 2675 3597 1894 
z
M 3022 2063 
Q 3016 2534 2758 2815 
Q 2500 3097 2075 3097 
Q 1594 3097 1305 2825 
Q 1016 2553 972 2059 
L 3022 2063 
z
" transform="scale(0.015625)"/>
       <path id="DejaVuSans-72" d="M 2631 2963 
Q 2534 3019 2420 3045 
Q 2306 3072 2169 3072 
Q 1681 3072 1420 2755 
Q 1159 2438 1159 1844 
L 1159 0 
L 581 0 
L 581 3500 
L 1159 3500 
L 1159 2956 
Q 1341 3275 1631 3429 
Q 1922 3584 2338 3584 
Q 2397 3584 2469 3576 
Q 2541 3569 2628 3553 
L 2631 2963 
z
" transform="scale(0.015625)"/>
       <path id="DejaVuSans-61" d="M 2194 1759 
Q 1497 1759 1228 1600 
Q 959 1441 959 1056 
Q 959 750 1161 570 
Q 1363 391 1709 391 
Q 2188 391 2477 730 
Q 2766 1069 2766 1631 
L 2766 1759 
L 2194 1759 
z
M 3341 1997 
L 3341 0 
L 2766 0 
L 2766 531 
Q 2569 213 2275 61 
Q 1981 -91 1556 -91 
Q 1019 -91 701 211 
Q 384 513 384 1019 
Q 384 1609 779 1909 
Q 1175 2209 1959 2209 
L 2766 2209 
L 2766 2266 
Q 2766 2663 2505 2880 
Q 2244 3097 1772 3097 
Q 1472 3097 1187 3025 
Q 903 2953 641 2809 
L 641 3341 
Q 956 3463 1253 3523 
Q 1550 3584 1831 3584 
Q 2591 3584 2966 3190 
Q 3341 2797 3341 1997 
z
" transform="scale(0.015625)"/>
       <path id="DejaVuSans-6f" d="M 1959 3097 
Q 1497 3097 1228 2736 
Q 959 2375 959 1747 
Q 959 1119 1226 758 
Q 1494 397 1959 397 
Q 2419 397 2687 759 
Q 2956 1122 2956 1747 
Q 2956 2369 2687 2733 
Q 2419 3097 1959 3097 
z
M 1959 3584 
Q 2709 3584 3137 3096 
Q 3566 2609 3566 1747 
Q 3566 888 3137 398 
Q 2709 -91 1959 -91 
Q 1206 -91 779 398 
Q 353 888 353 1747 
Q 353 2609 779 3096 
Q 1206 3584 1959 3584 
z
" transform="scale(0.015625)"/>
      </defs>
      <use xlink:href="#DejaVuSans-69"/>
      <use xlink:href="#DejaVuSans-6e" x="27.783203"/>
      <use xlink:href="#DejaVuSans-74" x="91.162109"/>
      <use xlink:href="#DejaVuSans-65" x="130.371094"/>
      <use xlink:href="#DejaVuSans-72" x="191.894531"/>
      <use xlink:href="#DejaVuSans-61" x="233.007812"/>
      <use xlink:href="#DejaVuSans-74" x="294.287109"/>
      <use xlink:href="#DejaVuSans-69" x="333.496094"/>
      <use xlink:href="#DejaVuSans-6f" x="361.279297"/>
      <use xlink:href="#DejaVuSans-6e" x="422.460938"/>
     </g>
    </g>
   </g>
   <g id="matplotlib.axis_2">
    <g id="ytick_1">
     <g id="line2d_7">
      <defs>
       <path id="m63dc14345a" d="M 0 0 
L -3.5 0 
" style="stroke: #000000; stroke-width: 0.8"/>
      </defs>
      <g>
       <use xlink:href="#m63dc14345a" x="40.603125" y="378.903241" style="stroke: #000000; stroke-width: 0.8"/>
      </g>
     </g>
     <g id="text_8">
      <!-- 0 -->
      <g transform="translate(27.240625 382.70246) scale(0.1 -0.1)">
       <use xlink:href="#DejaVuSans-30"/>
      </g>
     </g>
    </g>
    <g id="ytick_2">
     <g id="line2d_8">
      <g>
       <use xlink:href="#m63dc14345a" x="40.603125" y="297.699689" style="stroke: #000000; stroke-width: 0.8"/>
      </g>
     </g>
     <g id="text_9">
      <!-- 10 -->
      <g transform="translate(20.878125 301.498907) scale(0.1 -0.1)">
       <use xlink:href="#DejaVuSans-31"/>
       <use xlink:href="#DejaVuSans-30" x="63.623047"/>
      </g>
     </g>
    </g>
    <g id="ytick_3">
     <g id="line2d_9">
      <g>
       <use xlink:href="#m63dc14345a" x="40.603125" y="216.496136" style="stroke: #000000; stroke-width: 0.8"/>
      </g>
     </g>
     <g id="text_10">
      <!-- 20 -->
      <g transform="translate(20.878125 220.295355) scale(0.1 -0.1)">
       <use xlink:href="#DejaVuSans-32"/>
       <use xlink:href="#DejaVuSans-30" x="63.623047"/>
      </g>
     </g>
    </g>
    <g id="ytick_4">
     <g id="line2d_10">
      <g>
       <use xlink:href="#m63dc14345a" x="40.603125" y="135.292583" style="stroke: #000000; stroke-width: 0.8"/>
      </g>
     </g>
     <g id="text_11">
      <!-- 30 -->
      <g transform="translate(20.878125 139.091802) scale(0.1 -0.1)">
       <defs>
        <path id="DejaVuSans-33" d="M 2597 2516 
Q 3050 2419 3304 2112 
Q 3559 1806 3559 1356 
Q 3559 666 3084 287 
Q 2609 -91 1734 -91 
Q 1441 -91 1130 -33 
Q 819 25 488 141 
L 488 750 
Q 750 597 1062 519 
Q 1375 441 1716 441 
Q 2309 441 2620 675 
Q 2931 909 2931 1356 
Q 2931 1769 2642 2001 
Q 2353 2234 1838 2234 
L 1294 2234 
L 1294 2753 
L 1863 2753 
Q 2328 2753 2575 2939 
Q 2822 3125 2822 3475 
Q 2822 3834 2567 4026 
Q 2313 4219 1838 4219 
Q 1578 4219 1281 4162 
Q 984 4106 628 3988 
L 628 4550 
Q 988 4650 1302 4700 
Q 1616 4750 1894 4750 
Q 2613 4750 3031 4423 
Q 3450 4097 3450 3541 
Q 3450 3153 3228 2886 
Q 3006 2619 2597 2516 
z
" transform="scale(0.015625)"/>
       </defs>
       <use xlink:href="#DejaVuSans-33"/>
       <use xlink:href="#DejaVuSans-30" x="63.623047"/>
      </g>
     </g>
    </g>
    <g id="ytick_5">
     <g id="line2d_11">
      <g>
       <use xlink:href="#m63dc14345a" x="40.603125" y="54.089031" style="stroke: #000000; stroke-width: 0.8"/>
      </g>
     </g>
     <g id="text_12">
      <!-- 40 -->
      <g transform="translate(20.878125 57.888249) scale(0.1 -0.1)">
       <use xlink:href="#DejaVuSans-34"/>
       <use xlink:href="#DejaVuSans-30" x="63.623047"/>
      </g>
     </g>
    </g>
    <g id="text_13">
     <!-- constraint -->
     <g transform="translate(14.798438 227.059687) rotate(-90) scale(0.1 -0.1)">
      <defs>
       <path id="DejaVuSans-63" d="M 3122 3366 
L 3122 2828 
Q 2878 2963 2633 3030 
Q 2388 3097 2138 3097 
Q 1578 3097 1268 2742 
Q 959 2388 959 1747 
Q 959 1106 1268 751 
Q 1578 397 2138 397 
Q 2388 397 2633 464 
Q 2878 531 3122 666 
L 3122 134 
Q 2881 22 2623 -34 
Q 2366 -91 2075 -91 
Q 1284 -91 818 406 
Q 353 903 353 1747 
Q 353 2603 823 3093 
Q 1294 3584 2113 3584 
Q 2378 3584 2631 3529 
Q 2884 3475 3122 3366 
z
" transform="scale(0.015625)"/>
       <path id="DejaVuSans-73" d="M 2834 3397 
L 2834 2853 
Q 2591 2978 2328 3040 
Q 2066 3103 1784 3103 
Q 1356 3103 1142 2972 
Q 928 2841 928 2578 
Q 928 2378 1081 2264 
Q 1234 2150 1697 2047 
L 1894 2003 
Q 2506 1872 2764 1633 
Q 3022 1394 3022 966 
Q 3022 478 2636 193 
Q 2250 -91 1575 -91 
Q 1294 -91 989 -36 
Q 684 19 347 128 
L 347 722 
Q 666 556 975 473 
Q 1284 391 1588 391 
Q 1994 391 2212 530 
Q 2431 669 2431 922 
Q 2431 1156 2273 1281 
Q 2116 1406 1581 1522 
L 1381 1569 
Q 847 1681 609 1914 
Q 372 2147 372 2553 
Q 372 3047 722 3315 
Q 1072 3584 1716 3584 
Q 2034 3584 2315 3537 
Q 2597 3491 2834 3397 
z
" transform="scale(0.015625)"/>
      </defs>
      <use xlink:href="#DejaVuSans-63"/>
      <use xlink:href="#DejaVuSans-6f" x="54.980469"/>
      <use xlink:href="#DejaVuSans-6e" x="116.162109"/>
      <use xlink:href="#DejaVuSans-73" x="179.541016"/>
      <use xlink:href="#DejaVuSans-74" x="231.640625"/>
      <use xlink:href="#DejaVuSans-72" x="270.849609"/>
      <use xlink:href="#DejaVuSans-61" x="311.962891"/>
      <use xlink:href="#DejaVuSans-69" x="373.242188"/>
      <use xlink:href="#DejaVuSans-6e" x="401.025391"/>
      <use xlink:href="#DejaVuSans-74" x="464.404297"/>
     </g>
    </g>
   </g>
   <g id="line2d_12">
    <path d="M 77.48767 86.640621 
L 84.939094 130.255023 
L 92.390517 145.849575 
L 99.84194 152.555647 
L 107.293364 125.524074 
L 114.744787 76.684588 
L 122.19621 92.607532 
L 129.647634 153.450815 
L 137.099057 187.014685 
L 144.55048 142.128954 
L 152.001904 157.934279 
L 159.453327 202.862835 
L 166.90475 166.97532 
L 174.356174 129.790249 
L 181.807597 94.398504 
L 189.25902 182.820642 
L 196.710444 174.470144 
L 204.161867 101.41859 
L 211.61329 169.912674 
L 219.064714 182.283443 
L 226.516137 171.301593 
L 233.96756 151.460252 
L 241.418984 139.40983 
L 248.870407 125.442475 
L 256.32183 119.556551 
L 263.773254 122.164201 
L 271.224677 174.56768 
L 278.6761 105.184501 
L 286.127524 156.639576 
L 293.578947 134.381702 
L 301.03037 144.068358 
L 308.481794 126.258337 
L 315.933217 160.118232 
L 323.38464 106.319326 
L 330.836063 150.03243 
L 338.287487 200.804875 
L 345.73891 110.589043 
L 353.190333 159.740028 
L 360.641757 149.01906 
L 368.09318 150.186207 
L 375.544603 126.314255 
L 382.996027 134.607086 
L 390.44745 150.577656 
L 397.898873 137.951976 
L 405.350297 163.025831 
L 412.80172 189.463318 
L 420.253143 155.435249 
L 427.704567 156.905567 
L 435.15599 149.349451 
L 442.607413 155.591385 
L 450.058837 169.711589 
L 457.51026 147.00035 
L 464.961683 172.779149 
L 472.413107 108.438525 
L 479.86453 147.126975 
L 487.315953 146.603392 
L 494.767377 157.428553 
L 502.2188 146.853349 
L 509.670223 190.069148 
L 517.121647 211.687249 
L 524.57307 217.273339 
L 532.024493 119.221617 
L 539.475917 175.966462 
L 546.92734 159.44578 
L 554.378763 160.563701 
L 561.830187 216.035505 
L 569.28161 163.44735 
L 576.733033 188.727355 
L 584.184456 177.307737 
L 591.63588 204.255444 
L 599.087303 223.388762 
L 606.538726 217.829417 
L 613.99015 166.215365 
L 621.441573 155.500183 
L 628.892996 188.462719 
L 636.34442 199.446987 
L 643.795843 157.583593 
L 651.247266 172.617752 
L 658.69869 214.224165 
L 666.150113 239.448816 
L 673.601536 200.584792 
L 681.05296 218.392057 
L 688.504383 191.772882 
L 695.955806 209.027402 
L 703.40723 177.898523 
L 710.858653 182.323629 
L 718.310076 188.360158 
L 725.7615 205.278631 
L 733.212923 180.058171 
L 740.664346 224.981747 
L 748.11577 228.817608 
L 755.567193 217.809364 
L 763.018616 226.437299 
L 770.47004 201.47245 
L 777.921463 232.557227 
L 785.372886 186.689323 
L 792.82431 213.948865 
L 800.275733 178.759149 
L 807.727156 235.850932 
L 815.17858 151.679935 
" clip-path="url(#pa46de2998f)" style="fill: none; stroke: #1f77b4; stroke-width: 1.5; stroke-linecap: square"/>
   </g>
   <g id="line2d_13">
    <path d="M 77.48767 45.362982 
L 84.939094 172.798759 
L 92.390517 119.58426 
L 99.84194 106.714089 
L 107.293364 126.786216 
L 114.744787 152.027881 
L 122.19621 152.297489 
L 129.647634 128.508161 
L 137.099057 153.476287 
L 144.55048 94.368227 
L 152.001904 181.877702 
L 159.453327 120.627778 
L 166.90475 166.147475 
L 174.356174 213.32504 
L 181.807597 171.243988 
L 189.25902 108.153916 
L 196.710444 156.801656 
L 204.161867 166.421475 
L 211.61329 162.326581 
L 219.064714 189.77733 
L 226.516137 178.999735 
L 233.96756 198.748882 
L 241.418984 160.989081 
L 248.870407 148.027844 
L 256.32183 179.630224 
L 263.773254 155.154381 
L 271.224677 192.49623 
L 278.6761 212.728146 
L 286.127524 195.711806 
L 293.578947 169.67135 
L 301.03037 206.49797 
L 308.481794 152.458882 
L 315.933217 229.082289 
L 323.38464 148.61952 
L 330.836063 215.452002 
L 338.287487 207.191157 
L 345.73891 200.322331 
L 353.190333 240.378507 
L 360.641757 227.31198 
L 368.09318 220.263751 
L 375.544603 231.267344 
L 382.996027 207.763031 
L 390.44745 185.190543 
L 397.898873 189.638133 
L 405.350297 195.883845 
L 412.80172 198.845035 
L 420.253143 235.871601 
L 427.704567 228.14336 
L 435.15599 185.960537 
L 442.607413 227.461678 
L 450.058837 213.825198 
L 457.51026 221.150386 
L 464.961683 262.353801 
L 472.413107 245.885082 
L 479.86453 215.790702 
L 487.315953 197.793467 
L 494.767377 196.590151 
L 502.2188 235.070433 
L 509.670223 221.772328 
L 517.121647 226.511156 
L 524.57307 182.253946 
L 532.024493 194.95697 
L 539.475917 240.056374 
L 546.92734 225.599292 
L 554.378763 182.801383 
L 561.830187 200.994007 
L 569.28161 213.763062 
L 576.733033 263.788461 
L 584.184456 216.157761 
L 591.63588 226.473435 
L 599.087303 216.817023 
L 606.538726 199.333064 
L 613.99015 221.713175 
L 621.441573 250.345004 
L 628.892996 222.188652 
L 636.34442 230.039672 
L 643.795843 242.568182 
L 651.247266 212.817644 
L 658.69869 246.853147 
L 666.150113 246.584836 
L 673.601536 242.593428 
L 681.05296 227.17974 
L 688.504383 235.296673 
L 695.955806 251.661532 
L 703.40723 227.439368 
L 710.858653 229.052745 
L 718.310076 249.801154 
L 725.7615 259.613826 
L 733.212923 214.682974 
L 740.664346 228.380375 
L 748.11577 229.804315 
L 755.567193 242.163117 
L 763.018616 248.618657 
L 770.47004 182.306013 
L 777.921463 222.934536 
L 785.372886 211.609464 
L 792.82431 215.951677 
L 800.275733 230.367428 
L 807.727156 210.355681 
L 815.17858 257.270186 
" clip-path="url(#pa46de2998f)" style="fill: none; stroke: #ff7f0e; stroke-width: 1.5; stroke-linecap: square"/>
   </g>
   <g id="line2d_14">
    <path d="M 77.48767 34.935249 
L 84.939094 133.575809 
L 92.390517 159.278928 
L 99.84194 144.244994 
L 107.293364 177.792583 
L 114.744787 172.898914 
L 122.19621 131.871889 
L 129.647634 152.440157 
L 137.099057 234.550347 
L 144.55048 148.35182 
L 152.001904 194.51872 
L 159.453327 227.080003 
L 166.90475 216.884853 
L 174.356174 204.438443 
L 181.807597 246.330042 
L 189.25902 190.680802 
L 196.710444 239.403966 
L 204.161867 245.87867 
L 211.61329 198.134716 
L 219.064714 164.597148 
L 226.516137 253.109234 
L 233.96756 211.30154 
L 241.418984 255.51011 
L 248.870407 255.042711 
L 256.32183 275.750855 
L 263.773254 219.509083 
L 271.224677 267.347145 
L 278.6761 178.214746 
L 286.127524 227.957429 
L 293.578947 252.918093 
L 301.03037 233.787765 
L 308.481794 247.32733 
L 315.933217 179.258573 
L 323.38464 177.187529 
L 330.836063 230.25829 
L 338.287487 191.745678 
L 345.73891 150.771664 
L 353.190333 218.000293 
L 360.641757 212.865559 
L 368.09318 274.769589 
L 375.544603 92.633093 
L 382.996027 74.606875 
L 390.44745 132.848614 
L 397.898873 126.153224 
L 405.350297 136.686143 
L 412.80172 167.546184 
L 420.253143 113.996803 
L 427.704567 138.35836 
L 435.15599 176.61177 
L 442.607413 197.643434 
L 450.058837 178.811397 
L 457.51026 185.501692 
L 464.961683 161.513687 
L 472.413107 243.40469 
L 479.86453 187.296059 
L 487.315953 135.829042 
L 494.767377 163.322127 
L 502.2188 144.966697 
L 509.670223 170.847439 
L 517.121647 213.027384 
L 524.57307 190.74153 
L 532.024493 204.983656 
L 539.475917 180.097753 
L 546.92734 128.720345 
L 554.378763 176.723317 
L 561.830187 233.021845 
L 569.28161 235.637752 
L 576.733033 152.091296 
L 584.184456 214.934443 
L 591.63588 117.221888 
L 599.087303 213.221429 
L 606.538726 193.870786 
L 613.99015 232.191263 
L 621.441573 86.914052 
L 628.892996 152.941338 
L 636.34442 274.87404 
L 643.795843 212.332028 
L 651.247266 198.908444 
L 658.69869 157.848184 
L 666.150113 243.094562 
L 673.601536 363.261139 
L 681.05296 196.665849 
L 688.504383 135.894454 
L 695.955806 225.432239 
L 703.40723 78.438759 
L 710.858653 171.402377 
L 718.310076 129.956425 
L 725.7615 247.002802 
L 733.212923 236.530774 
L 740.664346 273.476536 
L 748.11577 232.666046 
L 755.567193 70.02082 
L 763.018616 79.767553 
L 770.47004 190.337075 
L 777.921463 56.533007 
L 785.372886 362.038341 
L 792.82431 117.149419 
L 800.275733 378.861818 
L 807.727156 215.501257 
L 815.17858 199.424542 
" clip-path="url(#pa46de2998f)" style="fill: none; stroke: #2ca02c; stroke-width: 1.5; stroke-linecap: square"/>
   </g>
   <g id="line2d_15">
    <path d="M 77.48767 59.969898 
L 84.939094 105.866383 
L 92.390517 148.964741 
L 99.84194 125.445683 
L 107.293364 129.864063 
L 114.744787 115.818156 
L 122.19621 155.740014 
L 129.647634 132.955849 
L 137.099057 180.452592 
L 144.55048 184.49143 
L 152.001904 211.506845 
L 159.453327 186.238145 
L 166.90475 234.262605 
L 174.356174 232.729735 
L 181.807597 203.870099 
L 189.25902 224.747931 
L 196.710444 260.040676 
L 204.161867 264.149628 
L 211.61329 211.505362 
L 219.064714 205.650524 
L 226.516137 204.049622 
L 233.96756 234.670203 
L 241.418984 225.660974 
L 248.870407 219.181007 
L 256.32183 235.187748 
L 263.773254 209.232284 
L 271.224677 199.258936 
L 278.6761 242.054841 
L 286.127524 254.307418 
L 293.578947 227.062012 
L 301.03037 224.51131 
L 308.481794 166.614546 
L 315.933217 233.746105 
L 323.38464 209.841326 
L 330.836063 194.558786 
L 338.287487 231.345384 
L 345.73891 225.351851 
L 353.190333 241.342422 
L 360.641757 247.835283 
L 368.09318 256.408854 
L 375.544603 239.283914 
L 382.996027 202.885566 
L 390.44745 239.613361 
L 397.898873 259.179453 
L 405.350297 208.082143 
L 412.80172 225.391843 
L 420.253143 214.01545 
L 427.704567 178.293505 
L 435.15599 203.361905 
L 442.607413 243.554129 
L 450.058837 168.1009 
L 457.51026 176.29223 
L 464.961683 217.89215 
L 472.413107 219.663034 
L 479.86453 197.539334 
L 487.315953 165.911818 
L 494.767377 215.892748 
L 502.2188 171.830968 
L 509.670223 211.414605 
L 517.121647 132.737856 
L 524.57307 174.794601 
L 532.024493 217.603974 
L 539.475917 156.568608 
L 546.92734 127.198377 
L 554.378763 85.722202 
L 561.830187 24.898182 
L 569.28161 62.632355 
L 576.733033 53.272908 
L 584.184456 48.047758 
L 591.63588 73.377586 
L 599.087303 89.857577 
L 606.538726 98.310423 
L 613.99015 120.130335 
L 621.441573 124.713628 
L 628.892996 119.204266 
L 636.34442 143.374884 
L 643.795843 116.183532 
L 651.247266 141.057926 
L 658.69869 158.59718 
L 666.150113 164.831581 
L 673.601536 177.443494 
L 681.05296 147.277257 
L 688.504383 175.959452 
L 695.955806 180.055034 
L 703.40723 175.072932 
L 710.858653 169.475588 
L 718.310076 180.600969 
L 725.7615 173.445208 
L 733.212923 200.796394 
L 740.664346 200.034481 
L 748.11577 198.790877 
L 755.567193 211.384991 
L 763.018616 174.739566 
L 770.47004 180.494055 
L 777.921463 215.381263 
L 785.372886 188.976283 
L 792.82431 203.00945 
L 800.275733 185.945075 
L 807.727156 215.24552 
L 815.17858 199.004476 
" clip-path="url(#pa46de2998f)" style="fill: none; stroke: #d62728; stroke-width: 1.5; stroke-linecap: square"/>
   </g>
   <g id="line2d_16">
    <path d="M 77.48767 216.496136 
L 84.939094 216.496136 
L 92.390517 216.496136 
L 99.84194 216.496136 
L 107.293364 216.496136 
L 114.744787 216.496136 
L 122.19621 216.496136 
L 129.647634 216.496136 
L 137.099057 216.496136 
L 144.55048 216.496136 
L 152.001904 216.496136 
L 159.453327 216.496136 
L 166.90475 216.496136 
L 174.356174 216.496136 
L 181.807597 216.496136 
L 189.25902 216.496136 
L 196.710444 216.496136 
L 204.161867 216.496136 
L 211.61329 216.496136 
L 219.064714 216.496136 
L 226.516137 216.496136 
L 233.96756 216.496136 
L 241.418984 216.496136 
L 248.870407 216.496136 
L 256.32183 216.496136 
L 263.773254 216.496136 
L 271.224677 216.496136 
L 278.6761 216.496136 
L 286.127524 216.496136 
L 293.578947 216.496136 
L 301.03037 216.496136 
L 308.481794 216.496136 
L 315.933217 216.496136 
L 323.38464 216.496136 
L 330.836063 216.496136 
L 338.287487 216.496136 
L 345.73891 216.496136 
L 353.190333 216.496136 
L 360.641757 216.496136 
L 368.09318 216.496136 
L 375.544603 216.496136 
L 382.996027 216.496136 
L 390.44745 216.496136 
L 397.898873 216.496136 
L 405.350297 216.496136 
L 412.80172 216.496136 
L 420.253143 216.496136 
L 427.704567 216.496136 
L 435.15599 216.496136 
L 442.607413 216.496136 
L 450.058837 216.496136 
L 457.51026 216.496136 
L 464.961683 216.496136 
L 472.413107 216.496136 
L 479.86453 216.496136 
L 487.315953 216.496136 
L 494.767377 216.496136 
L 502.2188 216.496136 
L 509.670223 216.496136 
L 517.121647 216.496136 
L 524.57307 216.496136 
L 532.024493 216.496136 
L 539.475917 216.496136 
L 546.92734 216.496136 
L 554.378763 216.496136 
L 561.830187 216.496136 
L 569.28161 216.496136 
L 576.733033 216.496136 
L 584.184456 216.496136 
L 591.63588 216.496136 
L 599.087303 216.496136 
L 606.538726 216.496136 
L 613.99015 216.496136 
L 621.441573 216.496136 
L 628.892996 216.496136 
L 636.34442 216.496136 
L 643.795843 216.496136 
L 651.247266 216.496136 
L 658.69869 216.496136 
L 666.150113 216.496136 
L 673.601536 216.496136 
L 681.05296 216.496136 
L 688.504383 216.496136 
L 695.955806 216.496136 
L 703.40723 216.496136 
L 710.858653 216.496136 
L 718.310076 216.496136 
L 725.7615 216.496136 
L 733.212923 216.496136 
L 740.664346 216.496136 
L 748.11577 216.496136 
L 755.567193 216.496136 
L 763.018616 216.496136 
L 770.47004 216.496136 
L 777.921463 216.496136 
L 785.372886 216.496136 
L 792.82431 216.496136 
L 800.275733 216.496136 
L 807.727156 216.496136 
L 815.17858 216.496136 
" clip-path="url(#pa46de2998f)" style="fill: none; stroke-dasharray: 5.55,2.4; stroke-dashoffset: 0; stroke: #000000; stroke-width: 1.5"/>
   </g>
   <g id="patch_3">
    <path d="M 40.603125 396.56 
L 40.603125 7.2 
" style="fill: none; stroke: #000000; stroke-width: 0.8; stroke-linejoin: miter; stroke-linecap: square"/>
   </g>
   <g id="patch_4">
    <path d="M 852.063125 396.56 
L 852.063125 7.2 
" style="fill: none; stroke: #000000; stroke-width: 0.8; stroke-linejoin: miter; stroke-linecap: square"/>
   </g>
   <g id="patch_5">
    <path d="M 40.603125 396.56 
L 852.063125 396.56 
" style="fill: none; stroke: #000000; stroke-width: 0.8; stroke-linejoin: miter; stroke-linecap: square"/>
   </g>
   <g id="patch_6">
    <path d="M 40.603125 7.2 
L 852.063125 7.2 
" style="fill: none; stroke: #000000; stroke-width: 0.8; stroke-linejoin: miter; stroke-linecap: square"/>
   </g>
   <g id="legend_1">
    <g id="patch_7">
     <path d="M 47.603125 391.56 
L 312.665625 391.56 
Q 314.665625 391.56 314.665625 389.56 
L 314.665625 361.20375 
Q 314.665625 359.20375 312.665625 359.20375 
L 47.603125 359.20375 
Q 45.603125 359.20375 45.603125 361.20375 
L 45.603125 389.56 
Q 45.603125 391.56 47.603125 391.56 
z
" style="fill: #ffffff; opacity: 0.8; stroke: #cccccc; stroke-linejoin: miter"/>
    </g>
    <g id="text_14">
     <!-- Trust region radius -->
     <g transform="translate(133.583594 370.802187) scale(0.1 -0.1)">
      <defs>
       <path id="DejaVuSans-54" d="M -19 4666 
L 3928 4666 
L 3928 4134 
L 2272 4134 
L 2272 0 
L 1638 0 
L 1638 4134 
L -19 4134 
L -19 4666 
z
" transform="scale(0.015625)"/>
       <path id="DejaVuSans-75" d="M 544 1381 
L 544 3500 
L 1119 3500 
L 1119 1403 
Q 1119 906 1312 657 
Q 1506 409 1894 409 
Q 2359 409 2629 706 
Q 2900 1003 2900 1516 
L 2900 3500 
L 3475 3500 
L 3475 0 
L 2900 0 
L 2900 538 
Q 2691 219 2414 64 
Q 2138 -91 1772 -91 
Q 1169 -91 856 284 
Q 544 659 544 1381 
z
M 1991 3584 
L 1991 3584 
z
" transform="scale(0.015625)"/>
       <path id="DejaVuSans-20" transform="scale(0.015625)"/>
       <path id="DejaVuSans-67" d="M 2906 1791 
Q 2906 2416 2648 2759 
Q 2391 3103 1925 3103 
Q 1463 3103 1205 2759 
Q 947 2416 947 1791 
Q 947 1169 1205 825 
Q 1463 481 1925 481 
Q 2391 481 2648 825 
Q 2906 1169 2906 1791 
z
M 3481 434 
Q 3481 -459 3084 -895 
Q 2688 -1331 1869 -1331 
Q 1566 -1331 1297 -1286 
Q 1028 -1241 775 -1147 
L 775 -588 
Q 1028 -725 1275 -790 
Q 1522 -856 1778 -856 
Q 2344 -856 2625 -561 
Q 2906 -266 2906 331 
L 2906 616 
Q 2728 306 2450 153 
Q 2172 0 1784 0 
Q 1141 0 747 490 
Q 353 981 353 1791 
Q 353 2603 747 3093 
Q 1141 3584 1784 3584 
Q 2172 3584 2450 3431 
Q 2728 3278 2906 2969 
L 2906 3500 
L 3481 3500 
L 3481 434 
z
" transform="scale(0.015625)"/>
       <path id="DejaVuSans-64" d="M 2906 2969 
L 2906 4863 
L 3481 4863 
L 3481 0 
L 2906 0 
L 2906 525 
Q 2725 213 2448 61 
Q 2172 -91 1784 -91 
Q 1150 -91 751 415 
Q 353 922 353 1747 
Q 353 2572 751 3078 
Q 1150 3584 1784 3584 
Q 2172 3584 2448 3432 
Q 2725 3281 2906 2969 
z
M 947 1747 
Q 947 1113 1208 752 
Q 1469 391 1925 391 
Q 2381 391 2643 752 
Q 2906 1113 2906 1747 
Q 2906 2381 2643 2742 
Q 2381 3103 1925 3103 
Q 1469 3103 1208 2742 
Q 947 2381 947 1747 
z
" transform="scale(0.015625)"/>
      </defs>
      <use xlink:href="#DejaVuSans-54"/>
      <use xlink:href="#DejaVuSans-72" x="46.333984"/>
      <use xlink:href="#DejaVuSans-75" x="87.447266"/>
      <use xlink:href="#DejaVuSans-73" x="150.826172"/>
      <use xlink:href="#DejaVuSans-74" x="202.925781"/>
      <use xlink:href="#DejaVuSans-20" x="242.134766"/>
      <use xlink:href="#DejaVuSans-72" x="273.921875"/>
      <use xlink:href="#DejaVuSans-65" x="312.785156"/>
      <use xlink:href="#DejaVuSans-67" x="374.308594"/>
      <use xlink:href="#DejaVuSans-69" x="437.785156"/>
      <use xlink:href="#DejaVuSans-6f" x="465.568359"/>
      <use xlink:href="#DejaVuSans-6e" x="526.75"/>
      <use xlink:href="#DejaVuSans-20" x="590.128906"/>
      <use xlink:href="#DejaVuSans-72" x="621.916016"/>
      <use xlink:href="#DejaVuSans-61" x="663.029297"/>
      <use xlink:href="#DejaVuSans-64" x="724.308594"/>
      <use xlink:href="#DejaVuSans-69" x="787.785156"/>
      <use xlink:href="#DejaVuSans-75" x="815.568359"/>
      <use xlink:href="#DejaVuSans-73" x="878.947266"/>
     </g>
    </g>
    <g id="line2d_17">
     <path d="M 49.603125 381.980312 
L 59.603125 381.980312 
L 69.603125 381.980312 
" style="fill: none; stroke: #1f77b4; stroke-width: 1.5; stroke-linecap: square"/>
    </g>
    <g id="text_15">
     <!-- 0.001 -->
     <g transform="translate(77.603125 385.480312) scale(0.1 -0.1)">
      <defs>
       <path id="DejaVuSans-2e" d="M 684 794 
L 1344 794 
L 1344 0 
L 684 0 
L 684 794 
z
" transform="scale(0.015625)"/>
      </defs>
      <use xlink:href="#DejaVuSans-30"/>
      <use xlink:href="#DejaVuSans-2e" x="63.623047"/>
      <use xlink:href="#DejaVuSans-30" x="95.410156"/>
      <use xlink:href="#DejaVuSans-30" x="159.033203"/>
      <use xlink:href="#DejaVuSans-31" x="222.65625"/>
     </g>
    </g>
    <g id="line2d_18">
     <path d="M 126.23125 381.980312 
L 136.23125 381.980312 
L 146.23125 381.980312 
" style="fill: none; stroke: #ff7f0e; stroke-width: 1.5; stroke-linecap: square"/>
    </g>
    <g id="text_16">
     <!-- 0.01 -->
     <g transform="translate(154.23125 385.480312) scale(0.1 -0.1)">
      <use xlink:href="#DejaVuSans-30"/>
      <use xlink:href="#DejaVuSans-2e" x="63.623047"/>
      <use xlink:href="#DejaVuSans-30" x="95.410156"/>
      <use xlink:href="#DejaVuSans-31" x="159.033203"/>
     </g>
    </g>
    <g id="line2d_19">
     <path d="M 196.496875 381.980312 
L 206.496875 381.980312 
L 216.496875 381.980312 
" style="fill: none; stroke: #2ca02c; stroke-width: 1.5; stroke-linecap: square"/>
    </g>
    <g id="text_17">
     <!-- 0.05 -->
     <g transform="translate(224.496875 385.480312) scale(0.1 -0.1)">
      <defs>
       <path id="DejaVuSans-35" d="M 691 4666 
L 3169 4666 
L 3169 4134 
L 1269 4134 
L 1269 2991 
Q 1406 3038 1543 3061 
Q 1681 3084 1819 3084 
Q 2600 3084 3056 2656 
Q 3513 2228 3513 1497 
Q 3513 744 3044 326 
Q 2575 -91 1722 -91 
Q 1428 -91 1123 -41 
Q 819 9 494 109 
L 494 744 
Q 775 591 1075 516 
Q 1375 441 1709 441 
Q 2250 441 2565 725 
Q 2881 1009 2881 1497 
Q 2881 1984 2565 2268 
Q 2250 2553 1709 2553 
Q 1456 2553 1204 2497 
Q 953 2441 691 2322 
L 691 4666 
z
" transform="scale(0.015625)"/>
      </defs>
      <use xlink:href="#DejaVuSans-30"/>
      <use xlink:href="#DejaVuSans-2e" x="63.623047"/>
      <use xlink:href="#DejaVuSans-30" x="95.410156"/>
      <use xlink:href="#DejaVuSans-35" x="159.033203"/>
     </g>
    </g>
    <g id="line2d_20">
     <path d="M 266.7625 381.980312 
L 276.7625 381.980312 
L 286.7625 381.980312 
" style="fill: none; stroke: #d62728; stroke-width: 1.5; stroke-linecap: square"/>
    </g>
    <g id="text_18">
     <!-- 0.1 -->
     <g transform="translate(294.7625 385.480312) scale(0.1 -0.1)">
      <use xlink:href="#DejaVuSans-30"/>
      <use xlink:href="#DejaVuSans-2e" x="63.623047"/>
      <use xlink:href="#DejaVuSans-31" x="95.410156"/>
     </g>
    </g>
   </g>
  </g>
 </g>
 <defs>
  <clipPath id="pa46de2998f">
   <rect x="40.603125" y="7.2" width="811.46" height="389.36"/>
  </clipPath>
 </defs>
</svg>
