<?xml version="1.0" encoding="utf-8" standalone="no"?>
<!DOCTYPE svg PUBLIC "-//W3C//DTD SVG 1.1//EN"
  "http://www.w3.org/Graphics/SVG/1.1/DTD/svg11.dtd">
<svg xmlns:xlink="http://www.w3.org/1999/xlink" width="1329.12pt" height="701.28pt" viewBox="0 0 1329.12 701.28" xmlns="http://www.w3.org/2000/svg" version="1.1">
 <metadata>
  <rdf:RDF xmlns:dc="http://purl.org/dc/elements/1.1/" xmlns:cc="http://creativecommons.org/ns#" xmlns:rdf="http://www.w3.org/1999/02/22-rdf-syntax-ns#">
   <cc:Work>
    <dc:type rdf:resource="http://purl.org/dc/dcmitype/StillImage"/>
    <dc:date>2023-03-23T14:15:28.034939</dc:date>
    <dc:format>image/svg+xml</dc:format>
    <dc:creator>
     <cc:Agent>
      <dc:title>Matplotlib v3.7.1, https://matplotlib.org/</dc:title>
     </cc:Agent>
    </dc:creator>
   </cc:Work>
  </rdf:RDF>
 </metadata>
 <defs>
  <style type="text/css">*{stroke-linejoin: round; stroke-linecap: butt}</style>
 </defs>
 <g id="figure_1">
  <g id="patch_1">
   <path d="M 0 701.28 
L 1329.12 701.28 
L 1329.12 0 
L 0 0 
z
" style="fill: #ffffff"/>
  </g>
  <g id="axes_1">
   <g id="patch_2">
    <path d="M 166.14 329.6016 
L 1196.208 329.6016 
L 1196.208 84.1536 
L 166.14 84.1536 
z
" style="fill: #ffffff"/>
   </g>
   <g id="matplotlib.axis_1">
    <g id="xtick_1">
     <g id="line2d_1">
      <defs>
       <path id="ma5d57bb878" d="M 0 0 
L 0 3.5 
" style="stroke: #000000; stroke-width: 0.8"/>
      </defs>
      <g>
       <use xlink:href="#ma5d57bb878" x="203.50243" y="329.6016" style="stroke: #000000; stroke-width: 0.8"/>
      </g>
     </g>
     <g id="text_1">
      <!-- 0 -->
      <g transform="translate(200.32118 344.200037) scale(0.1 -0.1)">
       <defs>
        <path id="DejaVuSans-30" d="M 2034 4250 
Q 1547 4250 1301 3770 
Q 1056 3291 1056 2328 
Q 1056 1369 1301 889 
Q 1547 409 2034 409 
Q 2525 409 2770 889 
Q 3016 1369 3016 2328 
Q 3016 3291 2770 3770 
Q 2525 4250 2034 4250 
z
M 2034 4750 
Q 2819 4750 3233 4129 
Q 3647 3509 3647 2328 
Q 3647 1150 3233 529 
Q 2819 -91 2034 -91 
Q 1250 -91 836 529 
Q 422 1150 422 2328 
Q 422 3509 836 4129 
Q 1250 4750 2034 4750 
z
" transform="scale(0.015625)"/>
       </defs>
       <use xlink:href="#DejaVuSans-30"/>
      </g>
     </g>
    </g>
    <g id="xtick_2">
     <g id="line2d_2">
      <g>
       <use xlink:href="#ma5d57bb878" x="392.679289" y="329.6016" style="stroke: #000000; stroke-width: 0.8"/>
      </g>
     </g>
     <g id="text_2">
      <!-- 20 -->
      <g transform="translate(386.316789 344.200037) scale(0.1 -0.1)">
       <defs>
        <path id="DejaVuSans-32" d="M 1228 531 
L 3431 531 
L 3431 0 
L 469 0 
L 469 531 
Q 828 903 1448 1529 
Q 2069 2156 2228 2338 
Q 2531 2678 2651 2914 
Q 2772 3150 2772 3378 
Q 2772 3750 2511 3984 
Q 2250 4219 1831 4219 
Q 1534 4219 1204 4116 
Q 875 4013 500 3803 
L 500 4441 
Q 881 4594 1212 4672 
Q 1544 4750 1819 4750 
Q 2544 4750 2975 4387 
Q 3406 4025 3406 3419 
Q 3406 3131 3298 2873 
Q 3191 2616 2906 2266 
Q 2828 2175 2409 1742 
Q 1991 1309 1228 531 
z
" transform="scale(0.015625)"/>
       </defs>
       <use xlink:href="#DejaVuSans-32"/>
       <use xlink:href="#DejaVuSans-30" x="63.623047"/>
      </g>
     </g>
    </g>
    <g id="xtick_3">
     <g id="line2d_3">
      <g>
       <use xlink:href="#ma5d57bb878" x="581.856149" y="329.6016" style="stroke: #000000; stroke-width: 0.8"/>
      </g>
     </g>
     <g id="text_3">
      <!-- 40 -->
      <g transform="translate(575.493649 344.200037) scale(0.1 -0.1)">
       <defs>
        <path id="DejaVuSans-34" d="M 2419 4116 
L 825 1625 
L 2419 1625 
L 2419 4116 
z
M 2253 4666 
L 3047 4666 
L 3047 1625 
L 3713 1625 
L 3713 1100 
L 3047 1100 
L 3047 0 
L 2419 0 
L 2419 1100 
L 313 1100 
L 313 1709 
L 2253 4666 
z
" transform="scale(0.015625)"/>
       </defs>
       <use xlink:href="#DejaVuSans-34"/>
       <use xlink:href="#DejaVuSans-30" x="63.623047"/>
      </g>
     </g>
    </g>
    <g id="xtick_4">
     <g id="line2d_4">
      <g>
       <use xlink:href="#ma5d57bb878" x="771.033008" y="329.6016" style="stroke: #000000; stroke-width: 0.8"/>
      </g>
     </g>
     <g id="text_4">
      <!-- 60 -->
      <g transform="translate(764.670508 344.200037) scale(0.1 -0.1)">
       <defs>
        <path id="DejaVuSans-36" d="M 2113 2584 
Q 1688 2584 1439 2293 
Q 1191 2003 1191 1497 
Q 1191 994 1439 701 
Q 1688 409 2113 409 
Q 2538 409 2786 701 
Q 3034 994 3034 1497 
Q 3034 2003 2786 2293 
Q 2538 2584 2113 2584 
z
M 3366 4563 
L 3366 3988 
Q 3128 4100 2886 4159 
Q 2644 4219 2406 4219 
Q 1781 4219 1451 3797 
Q 1122 3375 1075 2522 
Q 1259 2794 1537 2939 
Q 1816 3084 2150 3084 
Q 2853 3084 3261 2657 
Q 3669 2231 3669 1497 
Q 3669 778 3244 343 
Q 2819 -91 2113 -91 
Q 1303 -91 875 529 
Q 447 1150 447 2328 
Q 447 3434 972 4092 
Q 1497 4750 2381 4750 
Q 2619 4750 2861 4703 
Q 3103 4656 3366 4563 
z
" transform="scale(0.015625)"/>
       </defs>
       <use xlink:href="#DejaVuSans-36"/>
       <use xlink:href="#DejaVuSans-30" x="63.623047"/>
      </g>
     </g>
    </g>
    <g id="xtick_5">
     <g id="line2d_5">
      <g>
       <use xlink:href="#ma5d57bb878" x="960.209868" y="329.6016" style="stroke: #000000; stroke-width: 0.8"/>
      </g>
     </g>
     <g id="text_5">
      <!-- 80 -->
      <g transform="translate(953.847368 344.200037) scale(0.1 -0.1)">
       <defs>
        <path id="DejaVuSans-38" d="M 2034 2216 
Q 1584 2216 1326 1975 
Q 1069 1734 1069 1313 
Q 1069 891 1326 650 
Q 1584 409 2034 409 
Q 2484 409 2743 651 
Q 3003 894 3003 1313 
Q 3003 1734 2745 1975 
Q 2488 2216 2034 2216 
z
M 1403 2484 
Q 997 2584 770 2862 
Q 544 3141 544 3541 
Q 544 4100 942 4425 
Q 1341 4750 2034 4750 
Q 2731 4750 3128 4425 
Q 3525 4100 3525 3541 
Q 3525 3141 3298 2862 
Q 3072 2584 2669 2484 
Q 3125 2378 3379 2068 
Q 3634 1759 3634 1313 
Q 3634 634 3220 271 
Q 2806 -91 2034 -91 
Q 1263 -91 848 271 
Q 434 634 434 1313 
Q 434 1759 690 2068 
Q 947 2378 1403 2484 
z
M 1172 3481 
Q 1172 3119 1398 2916 
Q 1625 2713 2034 2713 
Q 2441 2713 2670 2916 
Q 2900 3119 2900 3481 
Q 2900 3844 2670 4047 
Q 2441 4250 2034 4250 
Q 1625 4250 1398 4047 
Q 1172 3844 1172 3481 
z
" transform="scale(0.015625)"/>
       </defs>
       <use xlink:href="#DejaVuSans-38"/>
       <use xlink:href="#DejaVuSans-30" x="63.623047"/>
      </g>
     </g>
    </g>
    <g id="xtick_6">
     <g id="line2d_6">
      <g>
       <use xlink:href="#ma5d57bb878" x="1149.386727" y="329.6016" style="stroke: #000000; stroke-width: 0.8"/>
      </g>
     </g>
     <g id="text_6">
      <!-- 100 -->
      <g transform="translate(1139.842977 344.200037) scale(0.1 -0.1)">
       <defs>
        <path id="DejaVuSans-31" d="M 794 531 
L 1825 531 
L 1825 4091 
L 703 3866 
L 703 4441 
L 1819 4666 
L 2450 4666 
L 2450 531 
L 3481 531 
L 3481 0 
L 794 0 
L 794 531 
z
" transform="scale(0.015625)"/>
       </defs>
       <use xlink:href="#DejaVuSans-31"/>
       <use xlink:href="#DejaVuSans-30" x="63.623047"/>
       <use xlink:href="#DejaVuSans-30" x="127.246094"/>
      </g>
     </g>
    </g>
   </g>
   <g id="matplotlib.axis_2">
    <g id="ytick_1">
     <g id="line2d_7">
      <defs>
       <path id="mb363d75105" d="M 0 0 
L -3.5 0 
" style="stroke: #000000; stroke-width: 0.8"/>
      </defs>
      <g>
       <use xlink:href="#mb363d75105" x="166.14" y="305.228629" style="stroke: #000000; stroke-width: 0.8"/>
      </g>
     </g>
     <g id="text_7">
      <!-- 0.2 -->
      <g transform="translate(143.236875 309.027848) scale(0.1 -0.1)">
       <defs>
        <path id="DejaVuSans-2e" d="M 684 794 
L 1344 794 
L 1344 0 
L 684 0 
L 684 794 
z
" transform="scale(0.015625)"/>
       </defs>
       <use xlink:href="#DejaVuSans-30"/>
       <use xlink:href="#DejaVuSans-2e" x="63.623047"/>
       <use xlink:href="#DejaVuSans-32" x="95.410156"/>
      </g>
     </g>
    </g>
    <g id="ytick_2">
     <g id="line2d_8">
      <g>
       <use xlink:href="#mb363d75105" x="166.14" y="252.370149" style="stroke: #000000; stroke-width: 0.8"/>
      </g>
     </g>
     <g id="text_8">
      <!-- 0.4 -->
      <g transform="translate(143.236875 256.169368) scale(0.1 -0.1)">
       <use xlink:href="#DejaVuSans-30"/>
       <use xlink:href="#DejaVuSans-2e" x="63.623047"/>
       <use xlink:href="#DejaVuSans-34" x="95.410156"/>
      </g>
     </g>
    </g>
    <g id="ytick_3">
     <g id="line2d_9">
      <g>
       <use xlink:href="#mb363d75105" x="166.14" y="199.511668" style="stroke: #000000; stroke-width: 0.8"/>
      </g>
     </g>
     <g id="text_9">
      <!-- 0.6 -->
      <g transform="translate(143.236875 203.310887) scale(0.1 -0.1)">
       <use xlink:href="#DejaVuSans-30"/>
       <use xlink:href="#DejaVuSans-2e" x="63.623047"/>
       <use xlink:href="#DejaVuSans-36" x="95.410156"/>
      </g>
     </g>
    </g>
    <g id="ytick_4">
     <g id="line2d_10">
      <g>
       <use xlink:href="#mb363d75105" x="166.14" y="146.653188" style="stroke: #000000; stroke-width: 0.8"/>
      </g>
     </g>
     <g id="text_10">
      <!-- 0.8 -->
      <g transform="translate(143.236875 150.452407) scale(0.1 -0.1)">
       <use xlink:href="#DejaVuSans-30"/>
       <use xlink:href="#DejaVuSans-2e" x="63.623047"/>
       <use xlink:href="#DejaVuSans-38" x="95.410156"/>
      </g>
     </g>
    </g>
    <g id="ytick_5">
     <g id="line2d_11">
      <g>
       <use xlink:href="#mb363d75105" x="166.14" y="93.794708" style="stroke: #000000; stroke-width: 0.8"/>
      </g>
     </g>
     <g id="text_11">
      <!-- 1.0 -->
      <g transform="translate(143.236875 97.593927) scale(0.1 -0.1)">
       <use xlink:href="#DejaVuSans-31"/>
       <use xlink:href="#DejaVuSans-2e" x="63.623047"/>
       <use xlink:href="#DejaVuSans-30" x="95.410156"/>
      </g>
     </g>
    </g>
    <g id="text_12">
     <!-- residual -->
     <g transform="translate(137.157188 226.686975) rotate(-90) scale(0.1 -0.1)">
      <defs>
       <path id="DejaVuSans-72" d="M 2631 2963 
Q 2534 3019 2420 3045 
Q 2306 3072 2169 3072 
Q 1681 3072 1420 2755 
Q 1159 2438 1159 1844 
L 1159 0 
L 581 0 
L 581 3500 
L 1159 3500 
L 1159 2956 
Q 1341 3275 1631 3429 
Q 1922 3584 2338 3584 
Q 2397 3584 2469 3576 
Q 2541 3569 2628 3553 
L 2631 2963 
z
" transform="scale(0.015625)"/>
       <path id="DejaVuSans-65" d="M 3597 1894 
L 3597 1613 
L 953 1613 
Q 991 1019 1311 708 
Q 1631 397 2203 397 
Q 2534 397 2845 478 
Q 3156 559 3463 722 
L 3463 178 
Q 3153 47 2828 -22 
Q 2503 -91 2169 -91 
Q 1331 -91 842 396 
Q 353 884 353 1716 
Q 353 2575 817 3079 
Q 1281 3584 2069 3584 
Q 2775 3584 3186 3129 
Q 3597 2675 3597 1894 
z
M 3022 2063 
Q 3016 2534 2758 2815 
Q 2500 3097 2075 3097 
Q 1594 3097 1305 2825 
Q 1016 2553 972 2059 
L 3022 2063 
z
" transform="scale(0.015625)"/>
       <path id="DejaVuSans-73" d="M 2834 3397 
L 2834 2853 
Q 2591 2978 2328 3040 
Q 2066 3103 1784 3103 
Q 1356 3103 1142 2972 
Q 928 2841 928 2578 
Q 928 2378 1081 2264 
Q 1234 2150 1697 2047 
L 1894 2003 
Q 2506 1872 2764 1633 
Q 3022 1394 3022 966 
Q 3022 478 2636 193 
Q 2250 -91 1575 -91 
Q 1294 -91 989 -36 
Q 684 19 347 128 
L 347 722 
Q 666 556 975 473 
Q 1284 391 1588 391 
Q 1994 391 2212 530 
Q 2431 669 2431 922 
Q 2431 1156 2273 1281 
Q 2116 1406 1581 1522 
L 1381 1569 
Q 847 1681 609 1914 
Q 372 2147 372 2553 
Q 372 3047 722 3315 
Q 1072 3584 1716 3584 
Q 2034 3584 2315 3537 
Q 2597 3491 2834 3397 
z
" transform="scale(0.015625)"/>
       <path id="DejaVuSans-69" d="M 603 3500 
L 1178 3500 
L 1178 0 
L 603 0 
L 603 3500 
z
M 603 4863 
L 1178 4863 
L 1178 4134 
L 603 4134 
L 603 4863 
z
" transform="scale(0.015625)"/>
       <path id="DejaVuSans-64" d="M 2906 2969 
L 2906 4863 
L 3481 4863 
L 3481 0 
L 2906 0 
L 2906 525 
Q 2725 213 2448 61 
Q 2172 -91 1784 -91 
Q 1150 -91 751 415 
Q 353 922 353 1747 
Q 353 2572 751 3078 
Q 1150 3584 1784 3584 
Q 2172 3584 2448 3432 
Q 2725 3281 2906 2969 
z
M 947 1747 
Q 947 1113 1208 752 
Q 1469 391 1925 391 
Q 2381 391 2643 752 
Q 2906 1113 2906 1747 
Q 2906 2381 2643 2742 
Q 2381 3103 1925 3103 
Q 1469 3103 1208 2742 
Q 947 2381 947 1747 
z
" transform="scale(0.015625)"/>
       <path id="DejaVuSans-75" d="M 544 1381 
L 544 3500 
L 1119 3500 
L 1119 1403 
Q 1119 906 1312 657 
Q 1506 409 1894 409 
Q 2359 409 2629 706 
Q 2900 1003 2900 1516 
L 2900 3500 
L 3475 3500 
L 3475 0 
L 2900 0 
L 2900 538 
Q 2691 219 2414 64 
Q 2138 -91 1772 -91 
Q 1169 -91 856 284 
Q 544 659 544 1381 
z
M 1991 3584 
L 1991 3584 
z
" transform="scale(0.015625)"/>
       <path id="DejaVuSans-61" d="M 2194 1759 
Q 1497 1759 1228 1600 
Q 959 1441 959 1056 
Q 959 750 1161 570 
Q 1363 391 1709 391 
Q 2188 391 2477 730 
Q 2766 1069 2766 1631 
L 2766 1759 
L 2194 1759 
z
M 3341 1997 
L 3341 0 
L 2766 0 
L 2766 531 
Q 2569 213 2275 61 
Q 1981 -91 1556 -91 
Q 1019 -91 701 211 
Q 384 513 384 1019 
Q 384 1609 779 1909 
Q 1175 2209 1959 2209 
L 2766 2209 
L 2766 2266 
Q 2766 2663 2505 2880 
Q 2244 3097 1772 3097 
Q 1472 3097 1187 3025 
Q 903 2953 641 2809 
L 641 3341 
Q 956 3463 1253 3523 
Q 1550 3584 1831 3584 
Q 2591 3584 2966 3190 
Q 3341 2797 3341 1997 
z
" transform="scale(0.015625)"/>
       <path id="DejaVuSans-6c" d="M 603 4863 
L 1178 4863 
L 1178 0 
L 603 0 
L 603 4863 
z
" transform="scale(0.015625)"/>
      </defs>
      <use xlink:href="#DejaVuSans-72"/>
      <use xlink:href="#DejaVuSans-65" x="38.863281"/>
      <use xlink:href="#DejaVuSans-73" x="100.386719"/>
      <use xlink:href="#DejaVuSans-69" x="152.486328"/>
      <use xlink:href="#DejaVuSans-64" x="180.269531"/>
      <use xlink:href="#DejaVuSans-75" x="243.746094"/>
      <use xlink:href="#DejaVuSans-61" x="307.125"/>
      <use xlink:href="#DejaVuSans-6c" x="368.404297"/>
     </g>
    </g>
    <g id="text_13">
     <!-- 1e−5 -->
     <g transform="translate(166.14 81.1536) scale(0.1 -0.1)">
      <defs>
       <path id="DejaVuSans-2212" d="M 678 2272 
L 4684 2272 
L 4684 1741 
L 678 1741 
L 678 2272 
z
" transform="scale(0.015625)"/>
       <path id="DejaVuSans-35" d="M 691 4666 
L 3169 4666 
L 3169 4134 
L 1269 4134 
L 1269 2991 
Q 1406 3038 1543 3061 
Q 1681 3084 1819 3084 
Q 2600 3084 3056 2656 
Q 3513 2228 3513 1497 
Q 3513 744 3044 326 
Q 2575 -91 1722 -91 
Q 1428 -91 1123 -41 
Q 819 9 494 109 
L 494 744 
Q 775 591 1075 516 
Q 1375 441 1709 441 
Q 2250 441 2565 725 
Q 2881 1009 2881 1497 
Q 2881 1984 2565 2268 
Q 2250 2553 1709 2553 
Q 1456 2553 1204 2497 
Q 953 2441 691 2322 
L 691 4666 
z
" transform="scale(0.015625)"/>
      </defs>
      <use xlink:href="#DejaVuSans-31"/>
      <use xlink:href="#DejaVuSans-65" x="63.623047"/>
      <use xlink:href="#DejaVuSans-2212" x="125.146484"/>
      <use xlink:href="#DejaVuSans-35" x="208.935547"/>
     </g>
    </g>
   </g>
   <g id="line2d_12">
    <path d="M 212.961273 302.591505 
L 222.420116 263.875804 
L 231.878959 314.680911 
L 241.337802 123.42681 
L 250.796645 203.983027 
L 260.255488 150.067778 
L 269.714331 255.829339 
L 279.173174 151.771164 
L 288.632017 118.93927 
L 298.09086 177.669948 
L 307.549702 286.949704 
L 317.008545 239.990745 
L 326.467388 119.40349 
L 335.926231 291.073164 
L 345.385074 238.46228 
L 354.843917 242.015887 
L 364.30276 161.58957 
L 373.761603 296.292001 
L 383.220446 146.095423 
L 392.679289 280.560663 
L 402.138132 238.766767 
L 411.596975 210.178062 
L 421.055818 223.275525 
L 430.514661 193.825237 
L 439.973504 174.084365 
L 449.432347 246.741241 
L 458.89119 138.413655 
L 468.350033 114.767714 
L 477.808876 182.645119 
L 487.267719 235.157163 
L 496.726562 202.033793 
L 506.185405 198.759401 
L 515.644248 180.334543 
L 525.103091 230.344395 
L 534.561934 231.008764 
L 544.020777 112.404873 
L 553.47962 206.25837 
L 562.938463 211.683994 
L 572.397306 255.49887 
L 581.856149 183.139935 
L 591.314992 106.627498 
L 600.773835 254.077777 
L 610.232678 241.207042 
L 619.691521 198.826697 
L 629.150364 240.005832 
L 638.609207 178.266065 
L 648.06805 276.885245 
L 657.526893 287.382647 
L 666.985736 214.892354 
L 676.444579 99.811017 
L 685.903421 143.356859 
L 695.362264 116.801784 
L 704.821107 179.620591 
L 714.27995 200.724583 
L 723.738793 209.183679 
L 733.197636 280.93933 
L 742.656479 226.79124 
L 752.115322 183.073462 
L 761.574165 221.708116 
L 771.033008 173.443996 
L 780.491851 204.430021 
L 789.950694 192.094324 
L 799.409537 227.973357 
L 808.86838 254.764804 
L 818.327223 206.052279 
L 827.786066 216.498593 
L 837.244909 223.043806 
L 846.703752 118.825829 
L 856.162595 186.582766 
L 865.621438 189.022752 
L 875.080281 117.396768 
L 884.539124 154.220166 
L 893.997967 95.398195 
L 903.45681 250.575178 
L 912.915653 154.295468 
L 922.374496 266.12745 
L 931.833339 243.899747 
L 941.292182 213.189751 
L 950.751025 184.816448 
L 960.209868 107.972149 
L 969.668711 227.015078 
L 979.127554 136.594802 
L 988.586397 118.037991 
L 998.04524 245.065382 
L 1007.504083 237.913443 
L 1016.962926 163.980407 
L 1026.421769 113.304169 
L 1035.880612 242.435764 
L 1045.339455 180.941703 
L 1054.798298 174.303546 
L 1064.25714 235.694489 
L 1073.715983 170.626121 
L 1083.174826 179.136691 
L 1092.633669 110.358666 
L 1102.092512 183.062141 
L 1111.551355 115.063777 
L 1121.010198 160.87073 
L 1130.469041 228.163552 
L 1139.927884 151.652367 
L 1149.386727 104.257734 
" clip-path="url(#pc9e7099a4a)" style="fill: none; stroke: #1f77b4; stroke-width: 1.5; stroke-linecap: square"/>
   </g>
   <g id="line2d_13">
    <path d="M 212.961273 234.248274 
L 222.420116 208.098635 
L 231.878959 318.444873 
L 241.337802 169.046739 
L 250.796645 156.310137 
L 260.255488 175.498744 
L 269.714331 297.779855 
L 279.173174 133.902603 
L 288.632017 279.439295 
L 298.09086 271.64712 
L 307.549702 207.306678 
L 317.008545 218.815247 
L 326.467388 242.967653 
L 335.926231 145.072431 
L 345.385074 255.703937 
L 354.843917 289.204424 
L 364.30276 170.697449 
L 373.761603 216.493999 
L 383.220446 272.079625 
L 392.679289 254.269513 
L 402.138132 250.774933 
L 411.596975 287.586798 
L 421.055818 244.03757 
L 430.514661 186.400722 
L 439.973504 183.248234 
L 449.432347 282.487319 
L 458.89119 210.167512 
L 468.350033 157.354886 
L 477.808876 131.368592 
L 487.267719 156.13608 
L 496.726562 257.542464 
L 506.185405 243.011264 
L 515.644248 265.780805 
L 525.103091 120.332775 
L 534.561934 230.356609 
L 544.020777 101.162912 
L 553.47962 236.844785 
L 562.938463 158.14774 
L 572.397306 120.170047 
L 581.856149 168.181791 
L 591.314992 257.670852 
L 600.773835 238.207143 
L 610.232678 212.428897 
L 619.691521 266.875789 
L 629.150364 134.179058 
L 638.609207 190.77267 
L 648.06805 278.682029 
L 657.526893 209.492704 
L 666.985736 156.186396 
L 676.444579 219.742882 
L 685.903421 141.781767 
L 695.362264 182.746371 
L 704.821107 170.61458 
L 714.27995 197.058142 
L 723.738793 186.07131 
L 733.197636 299.577405 
L 742.656479 207.862069 
L 752.115322 110.238203 
L 761.574165 306.680535 
L 771.033008 235.176701 
L 780.491851 127.966718 
L 789.950694 222.185382 
L 799.409537 193.0363 
L 808.86838 279.736591 
L 818.327223 199.932817 
L 827.786066 186.512663 
L 837.244909 207.389328 
L 846.703752 223.973588 
L 856.162595 266.06152 
L 865.621438 185.91816 
L 875.080281 204.602993 
L 884.539124 119.66688 
L 893.997967 254.877771 
L 903.45681 215.833278 
L 912.915653 106.087254 
L 922.374496 127.270155 
L 931.833339 155.910778 
L 941.292182 178.156314 
L 950.751025 219.962249 
L 960.209868 261.19482 
L 969.668711 123.68566 
L 979.127554 186.755382 
L 988.586397 161.078124 
L 998.04524 128.296294 
L 1007.504083 203.249369 
L 1016.962926 240.063058 
L 1026.421769 230.176431 
L 1035.880612 301.344267 
L 1045.339455 166.965305 
L 1054.798298 184.876299 
L 1064.25714 95.310327 
L 1073.715983 105.562257 
L 1083.174826 238.189827 
L 1092.633669 123.114421 
L 1102.092512 267.48073 
L 1111.551355 134.358939 
L 1121.010198 117.145185 
L 1130.469041 123.214473 
L 1139.927884 155.061453 
L 1149.386727 191.85259 
" clip-path="url(#pc9e7099a4a)" style="fill: none; stroke: #ff7f0e; stroke-width: 1.5; stroke-linecap: square"/>
   </g>
   <g id="patch_3">
    <path d="M 166.14 329.6016 
L 166.14 84.1536 
" style="fill: none; stroke: #000000; stroke-width: 0.8; stroke-linejoin: miter; stroke-linecap: square"/>
   </g>
   <g id="patch_4">
    <path d="M 1196.208 329.6016 
L 1196.208 84.1536 
" style="fill: none; stroke: #000000; stroke-width: 0.8; stroke-linejoin: miter; stroke-linecap: square"/>
   </g>
   <g id="patch_5">
    <path d="M 166.14 329.6016 
L 1196.208 329.6016 
" style="fill: none; stroke: #000000; stroke-width: 0.8; stroke-linejoin: miter; stroke-linecap: square"/>
   </g>
   <g id="patch_6">
    <path d="M 166.14 84.1536 
L 1196.208 84.1536 
" style="fill: none; stroke: #000000; stroke-width: 0.8; stroke-linejoin: miter; stroke-linecap: square"/>
   </g>
   <g id="legend_1">
    <g id="patch_7">
     <path d="M 173.14 121.50985 
L 215.613438 121.50985 
Q 217.613438 121.50985 217.613438 119.50985 
L 217.613438 91.1536 
Q 217.613438 89.1536 215.613438 89.1536 
L 173.14 89.1536 
Q 171.14 89.1536 171.14 91.1536 
L 171.14 119.50985 
Q 171.14 121.50985 173.14 121.50985 
z
" style="fill: #ffffff; opacity: 0.8; stroke: #cccccc; stroke-linejoin: miter"/>
    </g>
    <g id="line2d_14">
     <path d="M 175.14 97.252037 
L 185.14 97.252037 
L 195.14 97.252037 
" style="fill: none; stroke: #1f77b4; stroke-width: 1.5; stroke-linecap: square"/>
    </g>
    <g id="text_14">
     <!-- r1 -->
     <g transform="translate(203.14 100.752037) scale(0.1 -0.1)">
      <use xlink:href="#DejaVuSans-72"/>
      <use xlink:href="#DejaVuSans-31" x="41.113281"/>
     </g>
    </g>
    <g id="line2d_15">
     <path d="M 175.14 111.930162 
L 185.14 111.930162 
L 195.14 111.930162 
" style="fill: none; stroke: #ff7f0e; stroke-width: 1.5; stroke-linecap: square"/>
    </g>
    <g id="text_15">
     <!-- r2 -->
     <g transform="translate(203.14 115.430162) scale(0.1 -0.1)">
      <use xlink:href="#DejaVuSans-72"/>
      <use xlink:href="#DejaVuSans-32" x="41.113281"/>
     </g>
    </g>
   </g>
  </g>
  <g id="axes_2">
   <g id="patch_8">
    <path d="M 166.14 624.1392 
L 1196.208 624.1392 
L 1196.208 378.6912 
L 166.14 378.6912 
z
" style="fill: #ffffff"/>
   </g>
   <g id="matplotlib.axis_3">
    <g id="xtick_7">
     <g id="line2d_16">
      <g>
       <use xlink:href="#ma5d57bb878" x="203.50243" y="624.1392" style="stroke: #000000; stroke-width: 0.8"/>
      </g>
     </g>
     <g id="text_16">
      <!-- 0 -->
      <g transform="translate(200.32118 638.737638) scale(0.1 -0.1)">
       <use xlink:href="#DejaVuSans-30"/>
      </g>
     </g>
    </g>
    <g id="xtick_8">
     <g id="line2d_17">
      <g>
       <use xlink:href="#ma5d57bb878" x="392.679289" y="624.1392" style="stroke: #000000; stroke-width: 0.8"/>
      </g>
     </g>
     <g id="text_17">
      <!-- 20 -->
      <g transform="translate(386.316789 638.737638) scale(0.1 -0.1)">
       <use xlink:href="#DejaVuSans-32"/>
       <use xlink:href="#DejaVuSans-30" x="63.623047"/>
      </g>
     </g>
    </g>
    <g id="xtick_9">
     <g id="line2d_18">
      <g>
       <use xlink:href="#ma5d57bb878" x="581.856149" y="624.1392" style="stroke: #000000; stroke-width: 0.8"/>
      </g>
     </g>
     <g id="text_18">
      <!-- 40 -->
      <g transform="translate(575.493649 638.737638) scale(0.1 -0.1)">
       <use xlink:href="#DejaVuSans-34"/>
       <use xlink:href="#DejaVuSans-30" x="63.623047"/>
      </g>
     </g>
    </g>
    <g id="xtick_10">
     <g id="line2d_19">
      <g>
       <use xlink:href="#ma5d57bb878" x="771.033008" y="624.1392" style="stroke: #000000; stroke-width: 0.8"/>
      </g>
     </g>
     <g id="text_19">
      <!-- 60 -->
      <g transform="translate(764.670508 638.737638) scale(0.1 -0.1)">
       <use xlink:href="#DejaVuSans-36"/>
       <use xlink:href="#DejaVuSans-30" x="63.623047"/>
      </g>
     </g>
    </g>
    <g id="xtick_11">
     <g id="line2d_20">
      <g>
       <use xlink:href="#ma5d57bb878" x="960.209868" y="624.1392" style="stroke: #000000; stroke-width: 0.8"/>
      </g>
     </g>
     <g id="text_20">
      <!-- 80 -->
      <g transform="translate(953.847368 638.737638) scale(0.1 -0.1)">
       <use xlink:href="#DejaVuSans-38"/>
       <use xlink:href="#DejaVuSans-30" x="63.623047"/>
      </g>
     </g>
    </g>
    <g id="xtick_12">
     <g id="line2d_21">
      <g>
       <use xlink:href="#ma5d57bb878" x="1149.386727" y="624.1392" style="stroke: #000000; stroke-width: 0.8"/>
      </g>
     </g>
     <g id="text_21">
      <!-- 100 -->
      <g transform="translate(1139.842977 638.737638) scale(0.1 -0.1)">
       <use xlink:href="#DejaVuSans-31"/>
       <use xlink:href="#DejaVuSans-30" x="63.623047"/>
       <use xlink:href="#DejaVuSans-30" x="127.246094"/>
      </g>
     </g>
    </g>
    <g id="text_22">
     <!-- iterations -->
     <g transform="translate(657.446656 652.415763) scale(0.1 -0.1)">
      <defs>
       <path id="DejaVuSans-74" d="M 1172 4494 
L 1172 3500 
L 2356 3500 
L 2356 3053 
L 1172 3053 
L 1172 1153 
Q 1172 725 1289 603 
Q 1406 481 1766 481 
L 2356 481 
L 2356 0 
L 1766 0 
Q 1100 0 847 248 
Q 594 497 594 1153 
L 594 3053 
L 172 3053 
L 172 3500 
L 594 3500 
L 594 4494 
L 1172 4494 
z
" transform="scale(0.015625)"/>
       <path id="DejaVuSans-6f" d="M 1959 3097 
Q 1497 3097 1228 2736 
Q 959 2375 959 1747 
Q 959 1119 1226 758 
Q 1494 397 1959 397 
Q 2419 397 2687 759 
Q 2956 1122 2956 1747 
Q 2956 2369 2687 2733 
Q 2419 3097 1959 3097 
z
M 1959 3584 
Q 2709 3584 3137 3096 
Q 3566 2609 3566 1747 
Q 3566 888 3137 398 
Q 2709 -91 1959 -91 
Q 1206 -91 779 398 
Q 353 888 353 1747 
Q 353 2609 779 3096 
Q 1206 3584 1959 3584 
z
" transform="scale(0.015625)"/>
       <path id="DejaVuSans-6e" d="M 3513 2113 
L 3513 0 
L 2938 0 
L 2938 2094 
Q 2938 2591 2744 2837 
Q 2550 3084 2163 3084 
Q 1697 3084 1428 2787 
Q 1159 2491 1159 1978 
L 1159 0 
L 581 0 
L 581 3500 
L 1159 3500 
L 1159 2956 
Q 1366 3272 1645 3428 
Q 1925 3584 2291 3584 
Q 2894 3584 3203 3211 
Q 3513 2838 3513 2113 
z
" transform="scale(0.015625)"/>
      </defs>
      <use xlink:href="#DejaVuSans-69"/>
      <use xlink:href="#DejaVuSans-74" x="27.783203"/>
      <use xlink:href="#DejaVuSans-65" x="66.992188"/>
      <use xlink:href="#DejaVuSans-72" x="128.515625"/>
      <use xlink:href="#DejaVuSans-61" x="169.628906"/>
      <use xlink:href="#DejaVuSans-74" x="230.908203"/>
      <use xlink:href="#DejaVuSans-69" x="270.117188"/>
      <use xlink:href="#DejaVuSans-6f" x="297.900391"/>
      <use xlink:href="#DejaVuSans-6e" x="359.082031"/>
      <use xlink:href="#DejaVuSans-73" x="422.460938"/>
     </g>
    </g>
   </g>
   <g id="matplotlib.axis_4">
    <g id="ytick_6">
     <g id="line2d_22">
      <g>
       <use xlink:href="#mb363d75105" x="166.14" y="613.435743" style="stroke: #000000; stroke-width: 0.8"/>
      </g>
     </g>
     <g id="text_23">
      <!-- 0.000 -->
      <g transform="translate(130.511875 617.234962) scale(0.1 -0.1)">
       <use xlink:href="#DejaVuSans-30"/>
       <use xlink:href="#DejaVuSans-2e" x="63.623047"/>
       <use xlink:href="#DejaVuSans-30" x="95.410156"/>
       <use xlink:href="#DejaVuSans-30" x="159.033203"/>
       <use xlink:href="#DejaVuSans-30" x="222.65625"/>
      </g>
     </g>
    </g>
    <g id="ytick_7">
     <g id="line2d_23">
      <g>
       <use xlink:href="#mb363d75105" x="166.14" y="581.648819" style="stroke: #000000; stroke-width: 0.8"/>
      </g>
     </g>
     <g id="text_24">
      <!-- 0.025 -->
      <g transform="translate(130.511875 585.448038) scale(0.1 -0.1)">
       <use xlink:href="#DejaVuSans-30"/>
       <use xlink:href="#DejaVuSans-2e" x="63.623047"/>
       <use xlink:href="#DejaVuSans-30" x="95.410156"/>
       <use xlink:href="#DejaVuSans-32" x="159.033203"/>
       <use xlink:href="#DejaVuSans-35" x="222.65625"/>
      </g>
     </g>
    </g>
    <g id="ytick_8">
     <g id="line2d_24">
      <g>
       <use xlink:href="#mb363d75105" x="166.14" y="549.861895" style="stroke: #000000; stroke-width: 0.8"/>
      </g>
     </g>
     <g id="text_25">
      <!-- 0.050 -->
      <g transform="translate(130.511875 553.661114) scale(0.1 -0.1)">
       <use xlink:href="#DejaVuSans-30"/>
       <use xlink:href="#DejaVuSans-2e" x="63.623047"/>
       <use xlink:href="#DejaVuSans-30" x="95.410156"/>
       <use xlink:href="#DejaVuSans-35" x="159.033203"/>
       <use xlink:href="#DejaVuSans-30" x="222.65625"/>
      </g>
     </g>
    </g>
    <g id="ytick_9">
     <g id="line2d_25">
      <g>
       <use xlink:href="#mb363d75105" x="166.14" y="518.074971" style="stroke: #000000; stroke-width: 0.8"/>
      </g>
     </g>
     <g id="text_26">
      <!-- 0.075 -->
      <g transform="translate(130.511875 521.87419) scale(0.1 -0.1)">
       <defs>
        <path id="DejaVuSans-37" d="M 525 4666 
L 3525 4666 
L 3525 4397 
L 1831 0 
L 1172 0 
L 2766 4134 
L 525 4134 
L 525 4666 
z
" transform="scale(0.015625)"/>
       </defs>
       <use xlink:href="#DejaVuSans-30"/>
       <use xlink:href="#DejaVuSans-2e" x="63.623047"/>
       <use xlink:href="#DejaVuSans-30" x="95.410156"/>
       <use xlink:href="#DejaVuSans-37" x="159.033203"/>
       <use xlink:href="#DejaVuSans-35" x="222.65625"/>
      </g>
     </g>
    </g>
    <g id="ytick_10">
     <g id="line2d_26">
      <g>
       <use xlink:href="#mb363d75105" x="166.14" y="486.288047" style="stroke: #000000; stroke-width: 0.8"/>
      </g>
     </g>
     <g id="text_27">
      <!-- 0.100 -->
      <g transform="translate(130.511875 490.087266) scale(0.1 -0.1)">
       <use xlink:href="#DejaVuSans-30"/>
       <use xlink:href="#DejaVuSans-2e" x="63.623047"/>
       <use xlink:href="#DejaVuSans-31" x="95.410156"/>
       <use xlink:href="#DejaVuSans-30" x="159.033203"/>
       <use xlink:href="#DejaVuSans-30" x="222.65625"/>
      </g>
     </g>
    </g>
    <g id="ytick_11">
     <g id="line2d_27">
      <g>
       <use xlink:href="#mb363d75105" x="166.14" y="454.501123" style="stroke: #000000; stroke-width: 0.8"/>
      </g>
     </g>
     <g id="text_28">
      <!-- 0.125 -->
      <g transform="translate(130.511875 458.300342) scale(0.1 -0.1)">
       <use xlink:href="#DejaVuSans-30"/>
       <use xlink:href="#DejaVuSans-2e" x="63.623047"/>
       <use xlink:href="#DejaVuSans-31" x="95.410156"/>
       <use xlink:href="#DejaVuSans-32" x="159.033203"/>
       <use xlink:href="#DejaVuSans-35" x="222.65625"/>
      </g>
     </g>
    </g>
    <g id="ytick_12">
     <g id="line2d_28">
      <g>
       <use xlink:href="#mb363d75105" x="166.14" y="422.714199" style="stroke: #000000; stroke-width: 0.8"/>
      </g>
     </g>
     <g id="text_29">
      <!-- 0.150 -->
      <g transform="translate(130.511875 426.513418) scale(0.1 -0.1)">
       <use xlink:href="#DejaVuSans-30"/>
       <use xlink:href="#DejaVuSans-2e" x="63.623047"/>
       <use xlink:href="#DejaVuSans-31" x="95.410156"/>
       <use xlink:href="#DejaVuSans-35" x="159.033203"/>
       <use xlink:href="#DejaVuSans-30" x="222.65625"/>
      </g>
     </g>
    </g>
    <g id="ytick_13">
     <g id="line2d_29">
      <g>
       <use xlink:href="#mb363d75105" x="166.14" y="390.927275" style="stroke: #000000; stroke-width: 0.8"/>
      </g>
     </g>
     <g id="text_30">
      <!-- 0.175 -->
      <g transform="translate(130.511875 394.726494) scale(0.1 -0.1)">
       <use xlink:href="#DejaVuSans-30"/>
       <use xlink:href="#DejaVuSans-2e" x="63.623047"/>
       <use xlink:href="#DejaVuSans-31" x="95.410156"/>
       <use xlink:href="#DejaVuSans-37" x="159.033203"/>
       <use xlink:href="#DejaVuSans-35" x="222.65625"/>
      </g>
     </g>
    </g>
    <g id="text_31">
     <!-- relative forward error -->
     <g transform="translate(124.432187 554.723794) rotate(-90) scale(0.1 -0.1)">
      <defs>
       <path id="DejaVuSans-76" d="M 191 3500 
L 800 3500 
L 1894 563 
L 2988 3500 
L 3597 3500 
L 2284 0 
L 1503 0 
L 191 3500 
z
" transform="scale(0.015625)"/>
       <path id="DejaVuSans-20" transform="scale(0.015625)"/>
       <path id="DejaVuSans-66" d="M 2375 4863 
L 2375 4384 
L 1825 4384 
Q 1516 4384 1395 4259 
Q 1275 4134 1275 3809 
L 1275 3500 
L 2222 3500 
L 2222 3053 
L 1275 3053 
L 1275 0 
L 697 0 
L 697 3053 
L 147 3053 
L 147 3500 
L 697 3500 
L 697 3744 
Q 697 4328 969 4595 
Q 1241 4863 1831 4863 
L 2375 4863 
z
" transform="scale(0.015625)"/>
       <path id="DejaVuSans-77" d="M 269 3500 
L 844 3500 
L 1563 769 
L 2278 3500 
L 2956 3500 
L 3675 769 
L 4391 3500 
L 4966 3500 
L 4050 0 
L 3372 0 
L 2619 2869 
L 1863 0 
L 1184 0 
L 269 3500 
z
" transform="scale(0.015625)"/>
      </defs>
      <use xlink:href="#DejaVuSans-72"/>
      <use xlink:href="#DejaVuSans-65" x="38.863281"/>
      <use xlink:href="#DejaVuSans-6c" x="100.386719"/>
      <use xlink:href="#DejaVuSans-61" x="128.169922"/>
      <use xlink:href="#DejaVuSans-74" x="189.449219"/>
      <use xlink:href="#DejaVuSans-69" x="228.658203"/>
      <use xlink:href="#DejaVuSans-76" x="256.441406"/>
      <use xlink:href="#DejaVuSans-65" x="315.621094"/>
      <use xlink:href="#DejaVuSans-20" x="377.144531"/>
      <use xlink:href="#DejaVuSans-66" x="408.931641"/>
      <use xlink:href="#DejaVuSans-6f" x="444.136719"/>
      <use xlink:href="#DejaVuSans-72" x="505.318359"/>
      <use xlink:href="#DejaVuSans-77" x="546.431641"/>
      <use xlink:href="#DejaVuSans-61" x="628.21875"/>
      <use xlink:href="#DejaVuSans-72" x="689.498047"/>
      <use xlink:href="#DejaVuSans-64" x="728.861328"/>
      <use xlink:href="#DejaVuSans-20" x="792.337891"/>
      <use xlink:href="#DejaVuSans-65" x="824.125"/>
      <use xlink:href="#DejaVuSans-72" x="885.648438"/>
      <use xlink:href="#DejaVuSans-72" x="925.011719"/>
      <use xlink:href="#DejaVuSans-6f" x="963.875"/>
      <use xlink:href="#DejaVuSans-72" x="1025.056641"/>
     </g>
    </g>
   </g>
   <g id="line2d_30">
    <path d="M 212.961273 610.865809 
L 222.420116 608.078704 
L 231.878959 611.343117 
L 241.337802 600.546449 
L 250.796645 605.874698 
L 260.255488 604.193075 
L 269.714331 606.034091 
L 279.173174 601.127962 
L 288.632017 594.258325 
L 298.09086 598.300833 
L 307.549702 606.186411 
L 317.008545 595.645218 
L 326.467388 586.988483 
L 335.926231 600.761995 
L 345.385074 587.676876 
L 354.843917 594.792583 
L 364.30276 549.883267 
L 373.761603 599.831307 
L 383.220446 584.991687 
L 392.679289 590.773318 
L 402.138132 600.63579 
L 411.596975 563.92859 
L 421.055818 588.642416 
L 430.514661 566.013254 
L 439.973504 555.329137 
L 449.432347 585.774975 
L 458.89119 532.418274 
L 468.350033 562.426187 
L 477.808876 576.916478 
L 487.267719 583.987927 
L 496.726562 584.714006 
L 506.185405 585.219041 
L 515.644248 558.485471 
L 525.103091 541.607805 
L 534.561934 584.33738 
L 544.020777 568.595291 
L 553.47962 567.985478 
L 562.938463 587.135626 
L 572.397306 584.0705 
L 581.856149 574.293647 
L 591.314992 389.847927 
L 600.773835 591.210652 
L 610.232678 562.915551 
L 619.691521 536.708133 
L 629.150364 571.698825 
L 638.609207 466.499414 
L 648.06805 578.799689 
L 657.526893 574.518517 
L 666.985736 573.120025 
L 676.444579 520.524444 
L 685.903421 529.98462 
L 695.362264 546.094524 
L 704.821107 508.925345 
L 714.27995 573.096664 
L 723.738793 529.631342 
L 733.197636 584.057045 
L 742.656479 569.056381 
L 752.115322 536.753656 
L 761.574165 567.391105 
L 771.033008 562.562079 
L 780.491851 575.182035 
L 789.950694 566.016526 
L 799.409537 578.177918 
L 808.86838 498.25109 
L 818.327223 498.477478 
L 827.786066 562.570262 
L 837.244909 544.276731 
L 846.703752 547.615588 
L 856.162595 516.970636 
L 865.621438 551.263391 
L 875.080281 537.179268 
L 884.539124 502.164278 
L 893.997967 512.410602 
L 903.45681 521.082384 
L 912.915653 516.730372 
L 922.374496 573.763027 
L 931.833339 555.319319 
L 941.292182 538.570575 
L 950.751025 562.122753 
L 960.209868 518.34461 
L 969.668711 538.754514 
L 979.127554 455.201994 
L 988.586397 522.181208 
L 998.04524 558.97553 
L 1007.504083 526.744466 
L 1016.962926 489.957936 
L 1026.421769 461.092336 
L 1035.880612 578.693782 
L 1045.339455 500.590637 
L 1054.798298 495.976585 
L 1064.25714 539.920799 
L 1073.715983 548.405478 
L 1083.174826 522.039502 
L 1092.633669 504.172002 
L 1102.092512 519.314517 
L 1111.551355 517.383349 
L 1121.010198 543.308962 
L 1130.469041 534.917179 
L 1139.927884 522.002903 
L 1149.386727 487.379788 
" clip-path="url(#pf87124f58c)" style="fill: none; stroke: #1f77b4; stroke-width: 1.5; stroke-linecap: square"/>
   </g>
   <g id="line2d_31">
    <path d="M 212.961273 612.353171 
L 222.420116 611.59756 
L 231.878959 612.982473 
L 241.337802 610.910996 
L 250.796645 610.628938 
L 260.255488 610.600441 
L 269.714331 612.339888 
L 279.173174 609.315599 
L 288.632017 611.866939 
L 298.09086 611.342948 
L 307.549702 609.196771 
L 317.008545 609.531401 
L 326.467388 609.676503 
L 335.926231 605.250454 
L 345.385074 609.716115 
L 354.843917 610.98815 
L 364.30276 606.550534 
L 373.761603 608.552642 
L 383.220446 610.07886 
L 392.679289 609.675462 
L 402.138132 609.480264 
L 411.596975 610.790708 
L 421.055818 609.039795 
L 430.514661 604.86289 
L 439.973504 604.365701 
L 449.432347 609.109009 
L 458.89119 604.87111 
L 468.350033 600.550585 
L 477.808876 599.048534 
L 487.267719 599.702159 
L 496.726562 606.396952 
L 506.185405 605.563603 
L 515.644248 606.653624 
L 525.103091 595.376497 
L 534.561934 605.529473 
L 544.020777 598.267194 
L 553.47962 606.011779 
L 562.938463 598.756243 
L 572.397306 596.521996 
L 581.856149 600.651082 
L 591.314992 604.93385 
L 600.773835 603.03384 
L 610.232678 599.628973 
L 619.691521 604.776537 
L 629.150364 590.257319 
L 638.609207 597.559768 
L 648.06805 605.982932 
L 657.526893 597.904862 
L 666.985736 594.338548 
L 676.444579 600.143319 
L 685.903421 588.492504 
L 695.362264 594.278023 
L 704.821107 592.174229 
L 714.27995 594.632471 
L 723.738793 595.482628 
L 733.197636 607.017233 
L 742.656479 598.043218 
L 752.115322 587.920669 
L 761.574165 607.674105 
L 771.033008 598.556416 
L 780.491851 585.967735 
L 789.950694 593.948682 
L 799.409537 595.772467 
L 808.86838 602.54311 
L 818.327223 595.260775 
L 827.786066 593.454646 
L 837.244909 596.031707 
L 846.703752 596.390431 
L 856.162595 602.109663 
L 865.621438 593.752669 
L 875.080281 593.805997 
L 884.539124 588.470116 
L 893.997967 601.775255 
L 903.45681 597.92432 
L 912.915653 584.912778 
L 922.374496 586.665732 
L 931.833339 591.852352 
L 941.292182 594.675086 
L 950.751025 599.924355 
L 960.209868 604.746026 
L 969.668711 591.152394 
L 979.127554 595.834293 
L 988.586397 595.097486 
L 998.04524 591.949103 
L 1007.504083 598.292767 
L 1016.962926 602.605252 
L 1026.421769 601.378567 
L 1035.880612 608.234323 
L 1045.339455 596.260796 
L 1054.798298 596.106916 
L 1064.25714 588.224826 
L 1073.715983 589.326577 
L 1083.174826 600.447107 
L 1092.633669 590.436515 
L 1102.092512 604.003005 
L 1111.551355 592.760896 
L 1121.010198 590.975813 
L 1130.469041 593.392048 
L 1139.927884 593.705446 
L 1149.386727 596.115516 
" clip-path="url(#pf87124f58c)" style="fill: none; stroke: #ff7f0e; stroke-width: 1.5; stroke-linecap: square"/>
   </g>
   <g id="patch_9">
    <path d="M 166.14 624.1392 
L 166.14 378.6912 
" style="fill: none; stroke: #000000; stroke-width: 0.8; stroke-linejoin: miter; stroke-linecap: square"/>
   </g>
   <g id="patch_10">
    <path d="M 1196.208 624.1392 
L 1196.208 378.6912 
" style="fill: none; stroke: #000000; stroke-width: 0.8; stroke-linejoin: miter; stroke-linecap: square"/>
   </g>
   <g id="patch_11">
    <path d="M 166.14 624.1392 
L 1196.208 624.1392 
" style="fill: none; stroke: #000000; stroke-width: 0.8; stroke-linejoin: miter; stroke-linecap: square"/>
   </g>
   <g id="patch_12">
    <path d="M 166.14 378.6912 
L 1196.208 378.6912 
" style="fill: none; stroke: #000000; stroke-width: 0.8; stroke-linejoin: miter; stroke-linecap: square"/>
   </g>
   <g id="legend_2">
    <g id="patch_13">
     <path d="M 1097.428313 416.369325 
L 1189.208 416.369325 
Q 1191.208 416.369325 1191.208 414.369325 
L 1191.208 385.6912 
Q 1191.208 383.6912 1189.208 383.6912 
L 1097.428313 383.6912 
Q 1095.428313 383.6912 1095.428313 385.6912 
L 1095.428313 414.369325 
Q 1095.428313 416.369325 1097.428313 416.369325 
z
" style="fill: #ffffff; opacity: 0.8; stroke: #cccccc; stroke-linejoin: miter"/>
    </g>
    <g id="line2d_32">
     <path d="M 1099.428313 391.833388 
L 1109.428313 391.833388 
L 1119.428313 391.833388 
" style="fill: none; stroke: #1f77b4; stroke-width: 1.5; stroke-linecap: square"/>
    </g>
    <g id="text_32">
     <!-- k(H)*r1/||g|| -->
     <g transform="translate(1127.428313 395.333388) scale(0.1 -0.1)">
      <defs>
       <path id="DejaVuSans-6b" d="M 581 4863 
L 1159 4863 
L 1159 1991 
L 2875 3500 
L 3609 3500 
L 1753 1863 
L 3688 0 
L 2938 0 
L 1159 1709 
L 1159 0 
L 581 0 
L 581 4863 
z
" transform="scale(0.015625)"/>
       <path id="DejaVuSans-28" d="M 1984 4856 
Q 1566 4138 1362 3434 
Q 1159 2731 1159 2009 
Q 1159 1288 1364 580 
Q 1569 -128 1984 -844 
L 1484 -844 
Q 1016 -109 783 600 
Q 550 1309 550 2009 
Q 550 2706 781 3412 
Q 1013 4119 1484 4856 
L 1984 4856 
z
" transform="scale(0.015625)"/>
       <path id="DejaVuSans-48" d="M 628 4666 
L 1259 4666 
L 1259 2753 
L 3553 2753 
L 3553 4666 
L 4184 4666 
L 4184 0 
L 3553 0 
L 3553 2222 
L 1259 2222 
L 1259 0 
L 628 0 
L 628 4666 
z
" transform="scale(0.015625)"/>
       <path id="DejaVuSans-29" d="M 513 4856 
L 1013 4856 
Q 1481 4119 1714 3412 
Q 1947 2706 1947 2009 
Q 1947 1309 1714 600 
Q 1481 -109 1013 -844 
L 513 -844 
Q 928 -128 1133 580 
Q 1338 1288 1338 2009 
Q 1338 2731 1133 3434 
Q 928 4138 513 4856 
z
" transform="scale(0.015625)"/>
       <path id="DejaVuSans-2a" d="M 3009 3897 
L 1888 3291 
L 3009 2681 
L 2828 2375 
L 1778 3009 
L 1778 1831 
L 1422 1831 
L 1422 3009 
L 372 2375 
L 191 2681 
L 1313 3291 
L 191 3897 
L 372 4206 
L 1422 3572 
L 1422 4750 
L 1778 4750 
L 1778 3572 
L 2828 4206 
L 3009 3897 
z
" transform="scale(0.015625)"/>
       <path id="DejaVuSans-2f" d="M 1625 4666 
L 2156 4666 
L 531 -594 
L 0 -594 
L 1625 4666 
z
" transform="scale(0.015625)"/>
       <path id="DejaVuSans-7c" d="M 1344 4891 
L 1344 -1509 
L 813 -1509 
L 813 4891 
L 1344 4891 
z
" transform="scale(0.015625)"/>
       <path id="DejaVuSans-67" d="M 2906 1791 
Q 2906 2416 2648 2759 
Q 2391 3103 1925 3103 
Q 1463 3103 1205 2759 
Q 947 2416 947 1791 
Q 947 1169 1205 825 
Q 1463 481 1925 481 
Q 2391 481 2648 825 
Q 2906 1169 2906 1791 
z
M 3481 434 
Q 3481 -459 3084 -895 
Q 2688 -1331 1869 -1331 
Q 1566 -1331 1297 -1286 
Q 1028 -1241 775 -1147 
L 775 -588 
Q 1028 -725 1275 -790 
Q 1522 -856 1778 -856 
Q 2344 -856 2625 -561 
Q 2906 -266 2906 331 
L 2906 616 
Q 2728 306 2450 153 
Q 2172 0 1784 0 
Q 1141 0 747 490 
Q 353 981 353 1791 
Q 353 2603 747 3093 
Q 1141 3584 1784 3584 
Q 2172 3584 2450 3431 
Q 2728 3278 2906 2969 
L 2906 3500 
L 3481 3500 
L 3481 434 
z
" transform="scale(0.015625)"/>
      </defs>
      <use xlink:href="#DejaVuSans-6b"/>
      <use xlink:href="#DejaVuSans-28" x="57.910156"/>
      <use xlink:href="#DejaVuSans-48" x="96.923828"/>
      <use xlink:href="#DejaVuSans-29" x="172.119141"/>
      <use xlink:href="#DejaVuSans-2a" x="211.132812"/>
      <use xlink:href="#DejaVuSans-72" x="261.132812"/>
      <use xlink:href="#DejaVuSans-31" x="302.246094"/>
      <use xlink:href="#DejaVuSans-2f" x="365.869141"/>
      <use xlink:href="#DejaVuSans-7c" x="399.560547"/>
      <use xlink:href="#DejaVuSans-7c" x="433.251953"/>
      <use xlink:href="#DejaVuSans-67" x="466.943359"/>
      <use xlink:href="#DejaVuSans-7c" x="530.419922"/>
      <use xlink:href="#DejaVuSans-7c" x="564.111328"/>
     </g>
    </g>
    <g id="line2d_33">
     <path d="M 1099.428313 406.789638 
L 1109.428313 406.789638 
L 1119.428313 406.789638 
" style="fill: none; stroke: #ff7f0e; stroke-width: 1.5; stroke-linecap: square"/>
    </g>
    <g id="text_33">
     <!-- k(H)*r2 -->
     <g transform="translate(1127.428313 410.289638) scale(0.1 -0.1)">
      <use xlink:href="#DejaVuSans-6b"/>
      <use xlink:href="#DejaVuSans-28" x="57.910156"/>
      <use xlink:href="#DejaVuSans-48" x="96.923828"/>
      <use xlink:href="#DejaVuSans-29" x="172.119141"/>
      <use xlink:href="#DejaVuSans-2a" x="211.132812"/>
      <use xlink:href="#DejaVuSans-72" x="261.132812"/>
      <use xlink:href="#DejaVuSans-32" x="302.246094"/>
     </g>
    </g>
   </g>
  </g>
  <g id="text_34">
   <!-- 100 CG iterations -->
   <g transform="translate(611.982188 23.143725) scale(0.12 -0.12)">
    <defs>
     <path id="DejaVuSans-43" d="M 4122 4306 
L 4122 3641 
Q 3803 3938 3442 4084 
Q 3081 4231 2675 4231 
Q 1875 4231 1450 3742 
Q 1025 3253 1025 2328 
Q 1025 1406 1450 917 
Q 1875 428 2675 428 
Q 3081 428 3442 575 
Q 3803 722 4122 1019 
L 4122 359 
Q 3791 134 3420 21 
Q 3050 -91 2638 -91 
Q 1578 -91 968 557 
Q 359 1206 359 2328 
Q 359 3453 968 4101 
Q 1578 4750 2638 4750 
Q 3056 4750 3426 4639 
Q 3797 4528 4122 4306 
z
" transform="scale(0.015625)"/>
     <path id="DejaVuSans-47" d="M 3809 666 
L 3809 1919 
L 2778 1919 
L 2778 2438 
L 4434 2438 
L 4434 434 
Q 4069 175 3628 42 
Q 3188 -91 2688 -91 
Q 1594 -91 976 548 
Q 359 1188 359 2328 
Q 359 3472 976 4111 
Q 1594 4750 2688 4750 
Q 3144 4750 3555 4637 
Q 3966 4525 4313 4306 
L 4313 3634 
Q 3963 3931 3569 4081 
Q 3175 4231 2741 4231 
Q 1884 4231 1454 3753 
Q 1025 3275 1025 2328 
Q 1025 1384 1454 906 
Q 1884 428 2741 428 
Q 3075 428 3337 486 
Q 3600 544 3809 666 
z
" transform="scale(0.015625)"/>
    </defs>
    <use xlink:href="#DejaVuSans-31"/>
    <use xlink:href="#DejaVuSans-30" x="63.623047"/>
    <use xlink:href="#DejaVuSans-30" x="127.246094"/>
    <use xlink:href="#DejaVuSans-20" x="190.869141"/>
    <use xlink:href="#DejaVuSans-43" x="222.65625"/>
    <use xlink:href="#DejaVuSans-47" x="292.480469"/>
    <use xlink:href="#DejaVuSans-20" x="369.970703"/>
    <use xlink:href="#DejaVuSans-69" x="401.757812"/>
    <use xlink:href="#DejaVuSans-74" x="429.541016"/>
    <use xlink:href="#DejaVuSans-65" x="468.75"/>
    <use xlink:href="#DejaVuSans-72" x="530.273438"/>
    <use xlink:href="#DejaVuSans-61" x="571.386719"/>
    <use xlink:href="#DejaVuSans-74" x="632.666016"/>
    <use xlink:href="#DejaVuSans-69" x="671.875"/>
    <use xlink:href="#DejaVuSans-6f" x="699.658203"/>
    <use xlink:href="#DejaVuSans-6e" x="760.839844"/>
    <use xlink:href="#DejaVuSans-73" x="824.21875"/>
   </g>
  </g>
 </g>
 <defs>
  <clipPath id="pc9e7099a4a">
   <rect x="166.14" y="84.1536" width="1030.068" height="245.448"/>
  </clipPath>
  <clipPath id="pf87124f58c">
   <rect x="166.14" y="378.6912" width="1030.068" height="245.448"/>
  </clipPath>
 </defs>
</svg>
