<?xml version="1.0" encoding="utf-8" standalone="no"?>
<!DOCTYPE svg PUBLIC "-//W3C//DTD SVG 1.1//EN"
  "http://www.w3.org/Graphics/SVG/1.1/DTD/svg11.dtd">
<svg xmlns:xlink="http://www.w3.org/1999/xlink" width="1329.12pt" height="701.28pt" viewBox="0 0 1329.12 701.28" xmlns="http://www.w3.org/2000/svg" version="1.1">
 <metadata>
  <rdf:RDF xmlns:dc="http://purl.org/dc/elements/1.1/" xmlns:cc="http://creativecommons.org/ns#" xmlns:rdf="http://www.w3.org/1999/02/22-rdf-syntax-ns#">
   <cc:Work>
    <dc:type rdf:resource="http://purl.org/dc/dcmitype/StillImage"/>
    <dc:date>2023-03-23T14:15:07.818267</dc:date>
    <dc:format>image/svg+xml</dc:format>
    <dc:creator>
     <cc:Agent>
      <dc:title>Matplotlib v3.7.1, https://matplotlib.org/</dc:title>
     </cc:Agent>
    </dc:creator>
   </cc:Work>
  </rdf:RDF>
 </metadata>
 <defs>
  <style type="text/css">*{stroke-linejoin: round; stroke-linecap: butt}</style>
 </defs>
 <g id="figure_1">
  <g id="patch_1">
   <path d="M 0 701.28 
L 1329.12 701.28 
L 1329.12 0 
L 0 0 
z
" style="fill: #ffffff"/>
  </g>
  <g id="axes_1">
   <g id="patch_2">
    <path d="M 166.14 329.6016 
L 1196.208 329.6016 
L 1196.208 84.1536 
L 166.14 84.1536 
z
" style="fill: #ffffff"/>
   </g>
   <g id="matplotlib.axis_1">
    <g id="xtick_1">
     <g id="line2d_1">
      <defs>
       <path id="mf57edfd8d2" d="M 0 0 
L 0 3.5 
" style="stroke: #000000; stroke-width: 0.8"/>
      </defs>
      <g>
       <use xlink:href="#mf57edfd8d2" x="203.50243" y="329.6016" style="stroke: #000000; stroke-width: 0.8"/>
      </g>
     </g>
     <g id="text_1">
      <!-- 0 -->
      <g transform="translate(200.32118 344.200037) scale(0.1 -0.1)">
       <defs>
        <path id="DejaVuSans-30" d="M 2034 4250 
Q 1547 4250 1301 3770 
Q 1056 3291 1056 2328 
Q 1056 1369 1301 889 
Q 1547 409 2034 409 
Q 2525 409 2770 889 
Q 3016 1369 3016 2328 
Q 3016 3291 2770 3770 
Q 2525 4250 2034 4250 
z
M 2034 4750 
Q 2819 4750 3233 4129 
Q 3647 3509 3647 2328 
Q 3647 1150 3233 529 
Q 2819 -91 2034 -91 
Q 1250 -91 836 529 
Q 422 1150 422 2328 
Q 422 3509 836 4129 
Q 1250 4750 2034 4750 
z
" transform="scale(0.015625)"/>
       </defs>
       <use xlink:href="#DejaVuSans-30"/>
      </g>
     </g>
    </g>
    <g id="xtick_2">
     <g id="line2d_2">
      <g>
       <use xlink:href="#mf57edfd8d2" x="392.679289" y="329.6016" style="stroke: #000000; stroke-width: 0.8"/>
      </g>
     </g>
     <g id="text_2">
      <!-- 20 -->
      <g transform="translate(386.316789 344.200037) scale(0.1 -0.1)">
       <defs>
        <path id="DejaVuSans-32" d="M 1228 531 
L 3431 531 
L 3431 0 
L 469 0 
L 469 531 
Q 828 903 1448 1529 
Q 2069 2156 2228 2338 
Q 2531 2678 2651 2914 
Q 2772 3150 2772 3378 
Q 2772 3750 2511 3984 
Q 2250 4219 1831 4219 
Q 1534 4219 1204 4116 
Q 875 4013 500 3803 
L 500 4441 
Q 881 4594 1212 4672 
Q 1544 4750 1819 4750 
Q 2544 4750 2975 4387 
Q 3406 4025 3406 3419 
Q 3406 3131 3298 2873 
Q 3191 2616 2906 2266 
Q 2828 2175 2409 1742 
Q 1991 1309 1228 531 
z
" transform="scale(0.015625)"/>
       </defs>
       <use xlink:href="#DejaVuSans-32"/>
       <use xlink:href="#DejaVuSans-30" x="63.623047"/>
      </g>
     </g>
    </g>
    <g id="xtick_3">
     <g id="line2d_3">
      <g>
       <use xlink:href="#mf57edfd8d2" x="581.856149" y="329.6016" style="stroke: #000000; stroke-width: 0.8"/>
      </g>
     </g>
     <g id="text_3">
      <!-- 40 -->
      <g transform="translate(575.493649 344.200037) scale(0.1 -0.1)">
       <defs>
        <path id="DejaVuSans-34" d="M 2419 4116 
L 825 1625 
L 2419 1625 
L 2419 4116 
z
M 2253 4666 
L 3047 4666 
L 3047 1625 
L 3713 1625 
L 3713 1100 
L 3047 1100 
L 3047 0 
L 2419 0 
L 2419 1100 
L 313 1100 
L 313 1709 
L 2253 4666 
z
" transform="scale(0.015625)"/>
       </defs>
       <use xlink:href="#DejaVuSans-34"/>
       <use xlink:href="#DejaVuSans-30" x="63.623047"/>
      </g>
     </g>
    </g>
    <g id="xtick_4">
     <g id="line2d_4">
      <g>
       <use xlink:href="#mf57edfd8d2" x="771.033008" y="329.6016" style="stroke: #000000; stroke-width: 0.8"/>
      </g>
     </g>
     <g id="text_4">
      <!-- 60 -->
      <g transform="translate(764.670508 344.200037) scale(0.1 -0.1)">
       <defs>
        <path id="DejaVuSans-36" d="M 2113 2584 
Q 1688 2584 1439 2293 
Q 1191 2003 1191 1497 
Q 1191 994 1439 701 
Q 1688 409 2113 409 
Q 2538 409 2786 701 
Q 3034 994 3034 1497 
Q 3034 2003 2786 2293 
Q 2538 2584 2113 2584 
z
M 3366 4563 
L 3366 3988 
Q 3128 4100 2886 4159 
Q 2644 4219 2406 4219 
Q 1781 4219 1451 3797 
Q 1122 3375 1075 2522 
Q 1259 2794 1537 2939 
Q 1816 3084 2150 3084 
Q 2853 3084 3261 2657 
Q 3669 2231 3669 1497 
Q 3669 778 3244 343 
Q 2819 -91 2113 -91 
Q 1303 -91 875 529 
Q 447 1150 447 2328 
Q 447 3434 972 4092 
Q 1497 4750 2381 4750 
Q 2619 4750 2861 4703 
Q 3103 4656 3366 4563 
z
" transform="scale(0.015625)"/>
       </defs>
       <use xlink:href="#DejaVuSans-36"/>
       <use xlink:href="#DejaVuSans-30" x="63.623047"/>
      </g>
     </g>
    </g>
    <g id="xtick_5">
     <g id="line2d_5">
      <g>
       <use xlink:href="#mf57edfd8d2" x="960.209868" y="329.6016" style="stroke: #000000; stroke-width: 0.8"/>
      </g>
     </g>
     <g id="text_5">
      <!-- 80 -->
      <g transform="translate(953.847368 344.200037) scale(0.1 -0.1)">
       <defs>
        <path id="DejaVuSans-38" d="M 2034 2216 
Q 1584 2216 1326 1975 
Q 1069 1734 1069 1313 
Q 1069 891 1326 650 
Q 1584 409 2034 409 
Q 2484 409 2743 651 
Q 3003 894 3003 1313 
Q 3003 1734 2745 1975 
Q 2488 2216 2034 2216 
z
M 1403 2484 
Q 997 2584 770 2862 
Q 544 3141 544 3541 
Q 544 4100 942 4425 
Q 1341 4750 2034 4750 
Q 2731 4750 3128 4425 
Q 3525 4100 3525 3541 
Q 3525 3141 3298 2862 
Q 3072 2584 2669 2484 
Q 3125 2378 3379 2068 
Q 3634 1759 3634 1313 
Q 3634 634 3220 271 
Q 2806 -91 2034 -91 
Q 1263 -91 848 271 
Q 434 634 434 1313 
Q 434 1759 690 2068 
Q 947 2378 1403 2484 
z
M 1172 3481 
Q 1172 3119 1398 2916 
Q 1625 2713 2034 2713 
Q 2441 2713 2670 2916 
Q 2900 3119 2900 3481 
Q 2900 3844 2670 4047 
Q 2441 4250 2034 4250 
Q 1625 4250 1398 4047 
Q 1172 3844 1172 3481 
z
" transform="scale(0.015625)"/>
       </defs>
       <use xlink:href="#DejaVuSans-38"/>
       <use xlink:href="#DejaVuSans-30" x="63.623047"/>
      </g>
     </g>
    </g>
    <g id="xtick_6">
     <g id="line2d_6">
      <g>
       <use xlink:href="#mf57edfd8d2" x="1149.386727" y="329.6016" style="stroke: #000000; stroke-width: 0.8"/>
      </g>
     </g>
     <g id="text_6">
      <!-- 100 -->
      <g transform="translate(1139.842977 344.200037) scale(0.1 -0.1)">
       <defs>
        <path id="DejaVuSans-31" d="M 794 531 
L 1825 531 
L 1825 4091 
L 703 3866 
L 703 4441 
L 1819 4666 
L 2450 4666 
L 2450 531 
L 3481 531 
L 3481 0 
L 794 0 
L 794 531 
z
" transform="scale(0.015625)"/>
       </defs>
       <use xlink:href="#DejaVuSans-31"/>
       <use xlink:href="#DejaVuSans-30" x="63.623047"/>
       <use xlink:href="#DejaVuSans-30" x="127.246094"/>
      </g>
     </g>
    </g>
   </g>
   <g id="matplotlib.axis_2">
    <g id="ytick_1">
     <g id="line2d_7">
      <defs>
       <path id="mc1d90df4f5" d="M 0 0 
L -3.5 0 
" style="stroke: #000000; stroke-width: 0.8"/>
      </defs>
      <g>
       <use xlink:href="#mc1d90df4f5" x="166.14" y="298.184218" style="stroke: #000000; stroke-width: 0.8"/>
      </g>
     </g>
     <g id="text_7">
      <!-- 0.2 -->
      <g transform="translate(143.236875 301.983436) scale(0.1 -0.1)">
       <defs>
        <path id="DejaVuSans-2e" d="M 684 794 
L 1344 794 
L 1344 0 
L 684 0 
L 684 794 
z
" transform="scale(0.015625)"/>
       </defs>
       <use xlink:href="#DejaVuSans-30"/>
       <use xlink:href="#DejaVuSans-2e" x="63.623047"/>
       <use xlink:href="#DejaVuSans-32" x="95.410156"/>
      </g>
     </g>
    </g>
    <g id="ytick_2">
     <g id="line2d_8">
      <g>
       <use xlink:href="#mc1d90df4f5" x="166.14" y="247.461437" style="stroke: #000000; stroke-width: 0.8"/>
      </g>
     </g>
     <g id="text_8">
      <!-- 0.4 -->
      <g transform="translate(143.236875 251.260656) scale(0.1 -0.1)">
       <use xlink:href="#DejaVuSans-30"/>
       <use xlink:href="#DejaVuSans-2e" x="63.623047"/>
       <use xlink:href="#DejaVuSans-34" x="95.410156"/>
      </g>
     </g>
    </g>
    <g id="ytick_3">
     <g id="line2d_9">
      <g>
       <use xlink:href="#mc1d90df4f5" x="166.14" y="196.738656" style="stroke: #000000; stroke-width: 0.8"/>
      </g>
     </g>
     <g id="text_9">
      <!-- 0.6 -->
      <g transform="translate(143.236875 200.537875) scale(0.1 -0.1)">
       <use xlink:href="#DejaVuSans-30"/>
       <use xlink:href="#DejaVuSans-2e" x="63.623047"/>
       <use xlink:href="#DejaVuSans-36" x="95.410156"/>
      </g>
     </g>
    </g>
    <g id="ytick_4">
     <g id="line2d_10">
      <g>
       <use xlink:href="#mc1d90df4f5" x="166.14" y="146.015876" style="stroke: #000000; stroke-width: 0.8"/>
      </g>
     </g>
     <g id="text_10">
      <!-- 0.8 -->
      <g transform="translate(143.236875 149.815095) scale(0.1 -0.1)">
       <use xlink:href="#DejaVuSans-30"/>
       <use xlink:href="#DejaVuSans-2e" x="63.623047"/>
       <use xlink:href="#DejaVuSans-38" x="95.410156"/>
      </g>
     </g>
    </g>
    <g id="ytick_5">
     <g id="line2d_11">
      <g>
       <use xlink:href="#mc1d90df4f5" x="166.14" y="95.293095" style="stroke: #000000; stroke-width: 0.8"/>
      </g>
     </g>
     <g id="text_11">
      <!-- 1.0 -->
      <g transform="translate(143.236875 99.092314) scale(0.1 -0.1)">
       <use xlink:href="#DejaVuSans-31"/>
       <use xlink:href="#DejaVuSans-2e" x="63.623047"/>
       <use xlink:href="#DejaVuSans-30" x="95.410156"/>
      </g>
     </g>
    </g>
    <g id="text_12">
     <!-- residual -->
     <g transform="translate(137.157188 226.686975) rotate(-90) scale(0.1 -0.1)">
      <defs>
       <path id="DejaVuSans-72" d="M 2631 2963 
Q 2534 3019 2420 3045 
Q 2306 3072 2169 3072 
Q 1681 3072 1420 2755 
Q 1159 2438 1159 1844 
L 1159 0 
L 581 0 
L 581 3500 
L 1159 3500 
L 1159 2956 
Q 1341 3275 1631 3429 
Q 1922 3584 2338 3584 
Q 2397 3584 2469 3576 
Q 2541 3569 2628 3553 
L 2631 2963 
z
" transform="scale(0.015625)"/>
       <path id="DejaVuSans-65" d="M 3597 1894 
L 3597 1613 
L 953 1613 
Q 991 1019 1311 708 
Q 1631 397 2203 397 
Q 2534 397 2845 478 
Q 3156 559 3463 722 
L 3463 178 
Q 3153 47 2828 -22 
Q 2503 -91 2169 -91 
Q 1331 -91 842 396 
Q 353 884 353 1716 
Q 353 2575 817 3079 
Q 1281 3584 2069 3584 
Q 2775 3584 3186 3129 
Q 3597 2675 3597 1894 
z
M 3022 2063 
Q 3016 2534 2758 2815 
Q 2500 3097 2075 3097 
Q 1594 3097 1305 2825 
Q 1016 2553 972 2059 
L 3022 2063 
z
" transform="scale(0.015625)"/>
       <path id="DejaVuSans-73" d="M 2834 3397 
L 2834 2853 
Q 2591 2978 2328 3040 
Q 2066 3103 1784 3103 
Q 1356 3103 1142 2972 
Q 928 2841 928 2578 
Q 928 2378 1081 2264 
Q 1234 2150 1697 2047 
L 1894 2003 
Q 2506 1872 2764 1633 
Q 3022 1394 3022 966 
Q 3022 478 2636 193 
Q 2250 -91 1575 -91 
Q 1294 -91 989 -36 
Q 684 19 347 128 
L 347 722 
Q 666 556 975 473 
Q 1284 391 1588 391 
Q 1994 391 2212 530 
Q 2431 669 2431 922 
Q 2431 1156 2273 1281 
Q 2116 1406 1581 1522 
L 1381 1569 
Q 847 1681 609 1914 
Q 372 2147 372 2553 
Q 372 3047 722 3315 
Q 1072 3584 1716 3584 
Q 2034 3584 2315 3537 
Q 2597 3491 2834 3397 
z
" transform="scale(0.015625)"/>
       <path id="DejaVuSans-69" d="M 603 3500 
L 1178 3500 
L 1178 0 
L 603 0 
L 603 3500 
z
M 603 4863 
L 1178 4863 
L 1178 4134 
L 603 4134 
L 603 4863 
z
" transform="scale(0.015625)"/>
       <path id="DejaVuSans-64" d="M 2906 2969 
L 2906 4863 
L 3481 4863 
L 3481 0 
L 2906 0 
L 2906 525 
Q 2725 213 2448 61 
Q 2172 -91 1784 -91 
Q 1150 -91 751 415 
Q 353 922 353 1747 
Q 353 2572 751 3078 
Q 1150 3584 1784 3584 
Q 2172 3584 2448 3432 
Q 2725 3281 2906 2969 
z
M 947 1747 
Q 947 1113 1208 752 
Q 1469 391 1925 391 
Q 2381 391 2643 752 
Q 2906 1113 2906 1747 
Q 2906 2381 2643 2742 
Q 2381 3103 1925 3103 
Q 1469 3103 1208 2742 
Q 947 2381 947 1747 
z
" transform="scale(0.015625)"/>
       <path id="DejaVuSans-75" d="M 544 1381 
L 544 3500 
L 1119 3500 
L 1119 1403 
Q 1119 906 1312 657 
Q 1506 409 1894 409 
Q 2359 409 2629 706 
Q 2900 1003 2900 1516 
L 2900 3500 
L 3475 3500 
L 3475 0 
L 2900 0 
L 2900 538 
Q 2691 219 2414 64 
Q 2138 -91 1772 -91 
Q 1169 -91 856 284 
Q 544 659 544 1381 
z
M 1991 3584 
L 1991 3584 
z
" transform="scale(0.015625)"/>
       <path id="DejaVuSans-61" d="M 2194 1759 
Q 1497 1759 1228 1600 
Q 959 1441 959 1056 
Q 959 750 1161 570 
Q 1363 391 1709 391 
Q 2188 391 2477 730 
Q 2766 1069 2766 1631 
L 2766 1759 
L 2194 1759 
z
M 3341 1997 
L 3341 0 
L 2766 0 
L 2766 531 
Q 2569 213 2275 61 
Q 1981 -91 1556 -91 
Q 1019 -91 701 211 
Q 384 513 384 1019 
Q 384 1609 779 1909 
Q 1175 2209 1959 2209 
L 2766 2209 
L 2766 2266 
Q 2766 2663 2505 2880 
Q 2244 3097 1772 3097 
Q 1472 3097 1187 3025 
Q 903 2953 641 2809 
L 641 3341 
Q 956 3463 1253 3523 
Q 1550 3584 1831 3584 
Q 2591 3584 2966 3190 
Q 3341 2797 3341 1997 
z
" transform="scale(0.015625)"/>
       <path id="DejaVuSans-6c" d="M 603 4863 
L 1178 4863 
L 1178 0 
L 603 0 
L 603 4863 
z
" transform="scale(0.015625)"/>
      </defs>
      <use xlink:href="#DejaVuSans-72"/>
      <use xlink:href="#DejaVuSans-65" x="38.863281"/>
      <use xlink:href="#DejaVuSans-73" x="100.386719"/>
      <use xlink:href="#DejaVuSans-69" x="152.486328"/>
      <use xlink:href="#DejaVuSans-64" x="180.269531"/>
      <use xlink:href="#DejaVuSans-75" x="243.746094"/>
      <use xlink:href="#DejaVuSans-61" x="307.125"/>
      <use xlink:href="#DejaVuSans-6c" x="368.404297"/>
     </g>
    </g>
    <g id="text_13">
     <!-- 1e−5 -->
     <g transform="translate(166.14 81.1536) scale(0.1 -0.1)">
      <defs>
       <path id="DejaVuSans-2212" d="M 678 2272 
L 4684 2272 
L 4684 1741 
L 678 1741 
L 678 2272 
z
" transform="scale(0.015625)"/>
       <path id="DejaVuSans-35" d="M 691 4666 
L 3169 4666 
L 3169 4134 
L 1269 4134 
L 1269 2991 
Q 1406 3038 1543 3061 
Q 1681 3084 1819 3084 
Q 2600 3084 3056 2656 
Q 3513 2228 3513 1497 
Q 3513 744 3044 326 
Q 2575 -91 1722 -91 
Q 1428 -91 1123 -41 
Q 819 9 494 109 
L 494 744 
Q 775 591 1075 516 
Q 1375 441 1709 441 
Q 2250 441 2565 725 
Q 2881 1009 2881 1497 
Q 2881 1984 2565 2268 
Q 2250 2553 1709 2553 
Q 1456 2553 1204 2497 
Q 953 2441 691 2322 
L 691 4666 
z
" transform="scale(0.015625)"/>
      </defs>
      <use xlink:href="#DejaVuSans-31"/>
      <use xlink:href="#DejaVuSans-65" x="63.623047"/>
      <use xlink:href="#DejaVuSans-2212" x="125.146484"/>
      <use xlink:href="#DejaVuSans-35" x="208.935547"/>
     </g>
    </g>
   </g>
   <g id="line2d_12">
    <path d="M 212.961273 281.897525 
L 222.420116 293.376123 
L 231.878959 191.13819 
L 241.337802 180.578737 
L 250.796645 281.974452 
L 260.255488 275.498877 
L 269.714331 156.319558 
L 279.173174 96.927237 
L 288.632017 157.942564 
L 298.09086 98.140861 
L 307.549702 184.964154 
L 317.008545 122.462903 
L 326.467388 117.854854 
L 335.926231 139.382425 
L 345.385074 266.676169 
L 354.843917 207.21148 
L 364.30276 235.092869 
L 373.761603 215.763872 
L 383.220446 277.419643 
L 392.679289 208.11987 
L 402.138132 122.975914 
L 411.596975 167.325488 
L 421.055818 172.23803 
L 430.514661 211.883171 
L 439.973504 100.109024 
L 449.432347 161.648599 
L 458.89119 129.046004 
L 468.350033 128.039935 
L 477.808876 225.484292 
L 487.267719 219.652622 
L 496.726562 210.460357 
L 506.185405 137.217099 
L 515.644248 95.310327 
L 525.103091 192.947511 
L 534.561934 296.344655 
L 544.020777 224.369274 
L 553.47962 112.69919 
L 562.938463 109.796362 
L 572.397306 219.070752 
L 581.856149 114.319032 
L 591.314992 166.433563 
L 600.773835 142.429238 
L 610.232678 271.662388 
L 619.691521 256.999447 
L 629.150364 158.750431 
L 638.609207 282.414123 
L 648.06805 114.645454 
L 657.526893 106.503453 
L 666.985736 166.905911 
L 676.444579 244.015257 
L 685.903421 102.865222 
L 695.362264 172.679129 
L 704.821107 191.521997 
L 714.27995 203.60164 
L 723.738793 124.738487 
L 733.197636 260.561481 
L 742.656479 114.258182 
L 752.115322 198.781883 
L 761.574165 256.811592 
L 771.033008 163.41948 
L 780.491851 147.167597 
L 789.950694 208.27566 
L 799.409537 120.347775 
L 808.86838 195.25358 
L 818.327223 132.176971 
L 827.786066 172.384186 
L 837.244909 137.826176 
L 846.703752 126.126053 
L 856.162595 142.727952 
L 865.621438 197.731424 
L 875.080281 199.494007 
L 884.539124 187.391631 
L 893.997967 220.808231 
L 903.45681 154.917837 
L 912.915653 143.656605 
L 922.374496 206.418951 
L 931.833339 219.420762 
L 941.292182 191.215986 
L 950.751025 231.807753 
L 960.209868 167.118218 
L 969.668711 176.311709 
L 979.127554 119.100598 
L 988.586397 259.698223 
L 998.04524 222.318778 
L 1007.504083 96.515501 
L 1016.962926 169.004426 
L 1026.421769 200.821492 
L 1035.880612 280.469401 
L 1045.339455 179.579863 
L 1054.798298 133.822751 
L 1064.25714 175.504707 
L 1073.715983 230.854122 
L 1083.174826 146.277871 
L 1092.633669 144.086531 
L 1102.092512 189.44393 
L 1111.551355 207.23198 
L 1121.010198 120.773095 
L 1130.469041 123.563956 
L 1139.927884 149.166211 
L 1149.386727 120.481985 
" clip-path="url(#p7941b25bc5)" style="fill: none; stroke: #1f77b4; stroke-width: 1.5; stroke-linecap: square"/>
   </g>
   <g id="line2d_13">
    <path d="M 212.961273 192.745228 
L 222.420116 249.400452 
L 231.878959 318.444873 
L 241.337802 97.631826 
L 250.796645 300.762097 
L 260.255488 137.362713 
L 269.714331 256.538237 
L 279.173174 212.604151 
L 288.632017 96.285165 
L 298.09086 230.157116 
L 307.549702 142.728803 
L 317.008545 254.249778 
L 326.467388 190.091082 
L 335.926231 226.050996 
L 345.385074 126.301538 
L 354.843917 270.346099 
L 364.30276 168.69535 
L 373.761603 141.509762 
L 383.220446 246.052039 
L 392.679289 229.001299 
L 402.138132 172.344472 
L 411.596975 195.894086 
L 421.055818 250.973597 
L 430.514661 204.107741 
L 439.973504 212.938391 
L 449.432347 126.682582 
L 458.89119 202.427225 
L 468.350033 163.868399 
L 477.808876 226.513155 
L 487.267719 163.94843 
L 496.726562 99.16806 
L 506.185405 222.650794 
L 515.644248 153.273261 
L 525.103091 129.236077 
L 534.561934 169.025262 
L 544.020777 145.135634 
L 553.47962 238.169057 
L 562.938463 144.982298 
L 572.397306 232.656388 
L 581.856149 148.31376 
L 591.314992 126.713774 
L 600.773835 217.152299 
L 610.232678 123.28598 
L 619.691521 184.949368 
L 629.150364 111.6667 
L 638.609207 262.435242 
L 648.06805 224.412474 
L 657.526893 202.438355 
L 666.985736 209.81363 
L 676.444579 224.858772 
L 685.903421 254.731774 
L 695.362264 239.897861 
L 704.821107 134.590521 
L 714.27995 146.680795 
L 723.738793 281.734788 
L 733.197636 182.856508 
L 742.656479 175.504861 
L 752.115322 137.650168 
L 761.574165 242.413682 
L 771.033008 227.492417 
L 780.491851 248.808822 
L 789.950694 183.45359 
L 799.409537 128.136808 
L 808.86838 117.252795 
L 818.327223 239.908131 
L 827.786066 163.036181 
L 837.244909 129.765442 
L 846.703752 256.182196 
L 856.162595 202.416686 
L 865.621438 266.277085 
L 875.080281 159.671144 
L 884.539124 261.947882 
L 893.997967 103.380632 
L 903.45681 110.168834 
L 912.915653 236.083694 
L 922.374496 130.872102 
L 931.833339 206.835302 
L 941.292182 220.2246 
L 950.751025 202.781936 
L 960.209868 103.205201 
L 969.668711 224.305684 
L 979.127554 149.983442 
L 988.586397 175.193531 
L 998.04524 180.293406 
L 1007.504083 197.765294 
L 1016.962926 148.78666 
L 1026.421769 158.890056 
L 1035.880612 262.893581 
L 1045.339455 196.663392 
L 1054.798298 243.866271 
L 1064.25714 138.842199 
L 1073.715983 213.000016 
L 1083.174826 128.199128 
L 1092.633669 239.997107 
L 1102.092512 263.816042 
L 1111.551355 125.879881 
L 1121.010198 198.120443 
L 1130.469041 238.641163 
L 1139.927884 176.630274 
L 1149.386727 161.169325 
" clip-path="url(#p7941b25bc5)" style="fill: none; stroke: #ff7f0e; stroke-width: 1.5; stroke-linecap: square"/>
   </g>
   <g id="patch_3">
    <path d="M 166.14 329.6016 
L 166.14 84.1536 
" style="fill: none; stroke: #000000; stroke-width: 0.8; stroke-linejoin: miter; stroke-linecap: square"/>
   </g>
   <g id="patch_4">
    <path d="M 1196.208 329.6016 
L 1196.208 84.1536 
" style="fill: none; stroke: #000000; stroke-width: 0.8; stroke-linejoin: miter; stroke-linecap: square"/>
   </g>
   <g id="patch_5">
    <path d="M 166.14 329.6016 
L 1196.208 329.6016 
" style="fill: none; stroke: #000000; stroke-width: 0.8; stroke-linejoin: miter; stroke-linecap: square"/>
   </g>
   <g id="patch_6">
    <path d="M 166.14 84.1536 
L 1196.208 84.1536 
" style="fill: none; stroke: #000000; stroke-width: 0.8; stroke-linejoin: miter; stroke-linecap: square"/>
   </g>
   <g id="legend_1">
    <g id="patch_7">
     <path d="M 173.14 121.50985 
L 215.613438 121.50985 
Q 217.613438 121.50985 217.613438 119.50985 
L 217.613438 91.1536 
Q 217.613438 89.1536 215.613438 89.1536 
L 173.14 89.1536 
Q 171.14 89.1536 171.14 91.1536 
L 171.14 119.50985 
Q 171.14 121.50985 173.14 121.50985 
z
" style="fill: #ffffff; opacity: 0.8; stroke: #cccccc; stroke-linejoin: miter"/>
    </g>
    <g id="line2d_14">
     <path d="M 175.14 97.252037 
L 185.14 97.252037 
L 195.14 97.252037 
" style="fill: none; stroke: #1f77b4; stroke-width: 1.5; stroke-linecap: square"/>
    </g>
    <g id="text_14">
     <!-- r1 -->
     <g transform="translate(203.14 100.752037) scale(0.1 -0.1)">
      <use xlink:href="#DejaVuSans-72"/>
      <use xlink:href="#DejaVuSans-31" x="41.113281"/>
     </g>
    </g>
    <g id="line2d_15">
     <path d="M 175.14 111.930162 
L 185.14 111.930162 
L 195.14 111.930162 
" style="fill: none; stroke: #ff7f0e; stroke-width: 1.5; stroke-linecap: square"/>
    </g>
    <g id="text_15">
     <!-- r2 -->
     <g transform="translate(203.14 115.430162) scale(0.1 -0.1)">
      <use xlink:href="#DejaVuSans-72"/>
      <use xlink:href="#DejaVuSans-32" x="41.113281"/>
     </g>
    </g>
   </g>
  </g>
  <g id="axes_2">
   <g id="patch_8">
    <path d="M 166.14 624.1392 
L 1196.208 624.1392 
L 1196.208 378.6912 
L 166.14 378.6912 
z
" style="fill: #ffffff"/>
   </g>
   <g id="matplotlib.axis_3">
    <g id="xtick_7">
     <g id="line2d_16">
      <g>
       <use xlink:href="#mf57edfd8d2" x="203.50243" y="624.1392" style="stroke: #000000; stroke-width: 0.8"/>
      </g>
     </g>
     <g id="text_16">
      <!-- 0 -->
      <g transform="translate(200.32118 638.737638) scale(0.1 -0.1)">
       <use xlink:href="#DejaVuSans-30"/>
      </g>
     </g>
    </g>
    <g id="xtick_8">
     <g id="line2d_17">
      <g>
       <use xlink:href="#mf57edfd8d2" x="392.679289" y="624.1392" style="stroke: #000000; stroke-width: 0.8"/>
      </g>
     </g>
     <g id="text_17">
      <!-- 20 -->
      <g transform="translate(386.316789 638.737638) scale(0.1 -0.1)">
       <use xlink:href="#DejaVuSans-32"/>
       <use xlink:href="#DejaVuSans-30" x="63.623047"/>
      </g>
     </g>
    </g>
    <g id="xtick_9">
     <g id="line2d_18">
      <g>
       <use xlink:href="#mf57edfd8d2" x="581.856149" y="624.1392" style="stroke: #000000; stroke-width: 0.8"/>
      </g>
     </g>
     <g id="text_18">
      <!-- 40 -->
      <g transform="translate(575.493649 638.737638) scale(0.1 -0.1)">
       <use xlink:href="#DejaVuSans-34"/>
       <use xlink:href="#DejaVuSans-30" x="63.623047"/>
      </g>
     </g>
    </g>
    <g id="xtick_10">
     <g id="line2d_19">
      <g>
       <use xlink:href="#mf57edfd8d2" x="771.033008" y="624.1392" style="stroke: #000000; stroke-width: 0.8"/>
      </g>
     </g>
     <g id="text_19">
      <!-- 60 -->
      <g transform="translate(764.670508 638.737638) scale(0.1 -0.1)">
       <use xlink:href="#DejaVuSans-36"/>
       <use xlink:href="#DejaVuSans-30" x="63.623047"/>
      </g>
     </g>
    </g>
    <g id="xtick_11">
     <g id="line2d_20">
      <g>
       <use xlink:href="#mf57edfd8d2" x="960.209868" y="624.1392" style="stroke: #000000; stroke-width: 0.8"/>
      </g>
     </g>
     <g id="text_20">
      <!-- 80 -->
      <g transform="translate(953.847368 638.737638) scale(0.1 -0.1)">
       <use xlink:href="#DejaVuSans-38"/>
       <use xlink:href="#DejaVuSans-30" x="63.623047"/>
      </g>
     </g>
    </g>
    <g id="xtick_12">
     <g id="line2d_21">
      <g>
       <use xlink:href="#mf57edfd8d2" x="1149.386727" y="624.1392" style="stroke: #000000; stroke-width: 0.8"/>
      </g>
     </g>
     <g id="text_21">
      <!-- 100 -->
      <g transform="translate(1139.842977 638.737638) scale(0.1 -0.1)">
       <use xlink:href="#DejaVuSans-31"/>
       <use xlink:href="#DejaVuSans-30" x="63.623047"/>
       <use xlink:href="#DejaVuSans-30" x="127.246094"/>
      </g>
     </g>
    </g>
    <g id="text_22">
     <!-- iterations -->
     <g transform="translate(657.446656 652.415763) scale(0.1 -0.1)">
      <defs>
       <path id="DejaVuSans-74" d="M 1172 4494 
L 1172 3500 
L 2356 3500 
L 2356 3053 
L 1172 3053 
L 1172 1153 
Q 1172 725 1289 603 
Q 1406 481 1766 481 
L 2356 481 
L 2356 0 
L 1766 0 
Q 1100 0 847 248 
Q 594 497 594 1153 
L 594 3053 
L 172 3053 
L 172 3500 
L 594 3500 
L 594 4494 
L 1172 4494 
z
" transform="scale(0.015625)"/>
       <path id="DejaVuSans-6f" d="M 1959 3097 
Q 1497 3097 1228 2736 
Q 959 2375 959 1747 
Q 959 1119 1226 758 
Q 1494 397 1959 397 
Q 2419 397 2687 759 
Q 2956 1122 2956 1747 
Q 2956 2369 2687 2733 
Q 2419 3097 1959 3097 
z
M 1959 3584 
Q 2709 3584 3137 3096 
Q 3566 2609 3566 1747 
Q 3566 888 3137 398 
Q 2709 -91 1959 -91 
Q 1206 -91 779 398 
Q 353 888 353 1747 
Q 353 2609 779 3096 
Q 1206 3584 1959 3584 
z
" transform="scale(0.015625)"/>
       <path id="DejaVuSans-6e" d="M 3513 2113 
L 3513 0 
L 2938 0 
L 2938 2094 
Q 2938 2591 2744 2837 
Q 2550 3084 2163 3084 
Q 1697 3084 1428 2787 
Q 1159 2491 1159 1978 
L 1159 0 
L 581 0 
L 581 3500 
L 1159 3500 
L 1159 2956 
Q 1366 3272 1645 3428 
Q 1925 3584 2291 3584 
Q 2894 3584 3203 3211 
Q 3513 2838 3513 2113 
z
" transform="scale(0.015625)"/>
      </defs>
      <use xlink:href="#DejaVuSans-69"/>
      <use xlink:href="#DejaVuSans-74" x="27.783203"/>
      <use xlink:href="#DejaVuSans-65" x="66.992188"/>
      <use xlink:href="#DejaVuSans-72" x="128.515625"/>
      <use xlink:href="#DejaVuSans-61" x="169.628906"/>
      <use xlink:href="#DejaVuSans-74" x="230.908203"/>
      <use xlink:href="#DejaVuSans-69" x="270.117188"/>
      <use xlink:href="#DejaVuSans-6f" x="297.900391"/>
      <use xlink:href="#DejaVuSans-6e" x="359.082031"/>
      <use xlink:href="#DejaVuSans-73" x="422.460938"/>
     </g>
    </g>
   </g>
   <g id="matplotlib.axis_4">
    <g id="ytick_6">
     <g id="line2d_22">
      <g>
       <use xlink:href="#mc1d90df4f5" x="166.14" y="613.317448" style="stroke: #000000; stroke-width: 0.8"/>
      </g>
     </g>
     <g id="text_23">
      <!-- 0.00 -->
      <g transform="translate(136.874375 617.116667) scale(0.1 -0.1)">
       <use xlink:href="#DejaVuSans-30"/>
       <use xlink:href="#DejaVuSans-2e" x="63.623047"/>
       <use xlink:href="#DejaVuSans-30" x="95.410156"/>
       <use xlink:href="#DejaVuSans-30" x="159.033203"/>
      </g>
     </g>
    </g>
    <g id="ytick_7">
     <g id="line2d_23">
      <g>
       <use xlink:href="#mc1d90df4f5" x="166.14" y="563.179298" style="stroke: #000000; stroke-width: 0.8"/>
      </g>
     </g>
     <g id="text_24">
      <!-- 0.05 -->
      <g transform="translate(136.874375 566.978517) scale(0.1 -0.1)">
       <use xlink:href="#DejaVuSans-30"/>
       <use xlink:href="#DejaVuSans-2e" x="63.623047"/>
       <use xlink:href="#DejaVuSans-30" x="95.410156"/>
       <use xlink:href="#DejaVuSans-35" x="159.033203"/>
      </g>
     </g>
    </g>
    <g id="ytick_8">
     <g id="line2d_24">
      <g>
       <use xlink:href="#mc1d90df4f5" x="166.14" y="513.041149" style="stroke: #000000; stroke-width: 0.8"/>
      </g>
     </g>
     <g id="text_25">
      <!-- 0.10 -->
      <g transform="translate(136.874375 516.840367) scale(0.1 -0.1)">
       <use xlink:href="#DejaVuSans-30"/>
       <use xlink:href="#DejaVuSans-2e" x="63.623047"/>
       <use xlink:href="#DejaVuSans-31" x="95.410156"/>
       <use xlink:href="#DejaVuSans-30" x="159.033203"/>
      </g>
     </g>
    </g>
    <g id="ytick_9">
     <g id="line2d_25">
      <g>
       <use xlink:href="#mc1d90df4f5" x="166.14" y="462.902999" style="stroke: #000000; stroke-width: 0.8"/>
      </g>
     </g>
     <g id="text_26">
      <!-- 0.15 -->
      <g transform="translate(136.874375 466.702218) scale(0.1 -0.1)">
       <use xlink:href="#DejaVuSans-30"/>
       <use xlink:href="#DejaVuSans-2e" x="63.623047"/>
       <use xlink:href="#DejaVuSans-31" x="95.410156"/>
       <use xlink:href="#DejaVuSans-35" x="159.033203"/>
      </g>
     </g>
    </g>
    <g id="ytick_10">
     <g id="line2d_26">
      <g>
       <use xlink:href="#mc1d90df4f5" x="166.14" y="412.764849" style="stroke: #000000; stroke-width: 0.8"/>
      </g>
     </g>
     <g id="text_27">
      <!-- 0.20 -->
      <g transform="translate(136.874375 416.564068) scale(0.1 -0.1)">
       <use xlink:href="#DejaVuSans-30"/>
       <use xlink:href="#DejaVuSans-2e" x="63.623047"/>
       <use xlink:href="#DejaVuSans-32" x="95.410156"/>
       <use xlink:href="#DejaVuSans-30" x="159.033203"/>
      </g>
     </g>
    </g>
    <g id="text_28">
     <!-- relative forward error -->
     <g transform="translate(130.794688 554.723794) rotate(-90) scale(0.1 -0.1)">
      <defs>
       <path id="DejaVuSans-76" d="M 191 3500 
L 800 3500 
L 1894 563 
L 2988 3500 
L 3597 3500 
L 2284 0 
L 1503 0 
L 191 3500 
z
" transform="scale(0.015625)"/>
       <path id="DejaVuSans-20" transform="scale(0.015625)"/>
       <path id="DejaVuSans-66" d="M 2375 4863 
L 2375 4384 
L 1825 4384 
Q 1516 4384 1395 4259 
Q 1275 4134 1275 3809 
L 1275 3500 
L 2222 3500 
L 2222 3053 
L 1275 3053 
L 1275 0 
L 697 0 
L 697 3053 
L 147 3053 
L 147 3500 
L 697 3500 
L 697 3744 
Q 697 4328 969 4595 
Q 1241 4863 1831 4863 
L 2375 4863 
z
" transform="scale(0.015625)"/>
       <path id="DejaVuSans-77" d="M 269 3500 
L 844 3500 
L 1563 769 
L 2278 3500 
L 2956 3500 
L 3675 769 
L 4391 3500 
L 4966 3500 
L 4050 0 
L 3372 0 
L 2619 2869 
L 1863 0 
L 1184 0 
L 269 3500 
z
" transform="scale(0.015625)"/>
      </defs>
      <use xlink:href="#DejaVuSans-72"/>
      <use xlink:href="#DejaVuSans-65" x="38.863281"/>
      <use xlink:href="#DejaVuSans-6c" x="100.386719"/>
      <use xlink:href="#DejaVuSans-61" x="128.169922"/>
      <use xlink:href="#DejaVuSans-74" x="189.449219"/>
      <use xlink:href="#DejaVuSans-69" x="228.658203"/>
      <use xlink:href="#DejaVuSans-76" x="256.441406"/>
      <use xlink:href="#DejaVuSans-65" x="315.621094"/>
      <use xlink:href="#DejaVuSans-20" x="377.144531"/>
      <use xlink:href="#DejaVuSans-66" x="408.931641"/>
      <use xlink:href="#DejaVuSans-6f" x="444.136719"/>
      <use xlink:href="#DejaVuSans-72" x="505.318359"/>
      <use xlink:href="#DejaVuSans-77" x="546.431641"/>
      <use xlink:href="#DejaVuSans-61" x="628.21875"/>
      <use xlink:href="#DejaVuSans-72" x="689.498047"/>
      <use xlink:href="#DejaVuSans-64" x="728.861328"/>
      <use xlink:href="#DejaVuSans-20" x="792.337891"/>
      <use xlink:href="#DejaVuSans-65" x="824.125"/>
      <use xlink:href="#DejaVuSans-72" x="885.648438"/>
      <use xlink:href="#DejaVuSans-72" x="925.011719"/>
      <use xlink:href="#DejaVuSans-6f" x="963.875"/>
      <use xlink:href="#DejaVuSans-72" x="1025.056641"/>
     </g>
    </g>
   </g>
   <g id="line2d_27">
    <path d="M 212.961273 610.942691 
L 222.420116 611.234294 
L 231.878959 604.75672 
L 241.337802 605.842985 
L 250.796645 610.092584 
L 260.255488 609.919467 
L 269.714331 601.676662 
L 279.173174 598.721434 
L 288.632017 600.228826 
L 298.09086 595.217866 
L 307.549702 599.133297 
L 317.008545 598.805271 
L 326.467388 592.043399 
L 335.926231 593.204532 
L 345.385074 604.550625 
L 354.843917 598.219182 
L 364.30276 603.20079 
L 373.761603 591.812369 
L 383.220446 598.733136 
L 392.679289 583.580317 
L 402.138132 555.71393 
L 411.596975 580.512067 
L 421.055818 576.96378 
L 430.514661 590.454389 
L 439.973504 562.936516 
L 449.432347 582.785364 
L 458.89119 567.691417 
L 468.350033 508.54498 
L 477.808876 590.93662 
L 487.267719 586.923362 
L 496.726562 579.881029 
L 506.185405 511.581536 
L 515.644248 533.803954 
L 525.103091 594.782415 
L 534.561934 604.471467 
L 544.020777 569.074734 
L 553.47962 558.517167 
L 562.938463 551.840735 
L 572.397306 579.52954 
L 581.856149 546.591663 
L 591.314992 522.843145 
L 600.773835 581.060847 
L 610.232678 582.140739 
L 619.691521 588.532646 
L 629.150364 543.904275 
L 638.609207 594.652445 
L 648.06805 560.951129 
L 657.526893 529.62595 
L 666.985736 550.497173 
L 676.444579 589.365979 
L 685.903421 536.782255 
L 695.362264 529.390998 
L 704.821107 392.623656 
L 714.27995 579.209294 
L 723.738793 541.397855 
L 733.197636 573.38954 
L 742.656479 538.091128 
L 752.115322 579.795821 
L 761.574165 588.017851 
L 771.033008 558.68872 
L 780.491851 507.176649 
L 789.950694 541.840528 
L 799.409537 403.777089 
L 808.86838 409.833981 
L 818.327223 457.80658 
L 827.786066 541.521603 
L 837.244909 389.847927 
L 846.703752 521.21373 
L 856.162595 545.549343 
L 865.621438 575.21019 
L 875.080281 493.615537 
L 884.539124 532.940639 
L 893.997967 537.435269 
L 903.45681 473.841188 
L 912.915653 534.774058 
L 922.374496 519.394626 
L 931.833339 559.75767 
L 941.292182 576.199204 
L 950.751025 512.579721 
L 960.209868 513.374375 
L 969.668711 506.642367 
L 979.127554 524.210724 
L 988.586397 564.941815 
L 998.04524 534.04953 
L 1007.504083 524.961408 
L 1016.962926 555.050769 
L 1026.421769 575.495307 
L 1035.880612 578.109213 
L 1045.339455 464.176068 
L 1054.798298 519.187456 
L 1064.25714 484.07418 
L 1073.715983 535.34929 
L 1083.174826 528.328895 
L 1092.633669 514.147402 
L 1102.092512 555.634538 
L 1111.551355 491.415951 
L 1121.010198 542.15643 
L 1130.469041 395.782617 
L 1139.927884 487.371294 
L 1149.386727 432.526423 
" clip-path="url(#pfe45b538bb)" style="fill: none; stroke: #1f77b4; stroke-width: 1.5; stroke-linecap: square"/>
   </g>
   <g id="line2d_28">
    <path d="M 212.961273 612.245457 
L 222.420116 612.456774 
L 231.878959 612.982473 
L 241.337802 610.538084 
L 250.796645 612.728375 
L 260.255488 610.509979 
L 269.714331 611.933937 
L 279.173174 611.063575 
L 288.632017 609.052405 
L 298.09086 611.017278 
L 307.549702 609.001271 
L 317.008545 611.241149 
L 326.467388 609.679932 
L 335.926231 610.501891 
L 345.385074 607.7888 
L 354.843917 611.531188 
L 364.30276 609.083626 
L 373.761603 608.150337 
L 383.220446 610.672519 
L 392.679289 609.619319 
L 402.138132 608.144008 
L 411.596975 608.2529 
L 421.055818 610.056373 
L 430.514661 608.988251 
L 439.973504 609.338611 
L 449.432347 606.814168 
L 458.89119 608.266958 
L 468.350033 606.85842 
L 477.808876 609.1011 
L 487.267719 606.378614 
L 496.726562 604.097098 
L 506.185405 607.180334 
L 515.644248 604.192724 
L 525.103091 604.520148 
L 534.561934 605.455682 
L 544.020777 604.597024 
L 553.47962 608.650822 
L 562.938463 604.606992 
L 572.397306 607.229752 
L 581.856149 602.60289 
L 591.314992 600.659962 
L 600.773835 605.614954 
L 610.232678 600.016863 
L 619.691521 603.305083 
L 629.150364 599.112202 
L 638.609207 608.273526 
L 648.06805 605.948604 
L 657.526893 603.692712 
L 666.985736 602.771431 
L 676.444579 605.286803 
L 685.903421 607.08264 
L 695.362264 605.029519 
L 704.821107 596.164846 
L 714.27995 597.373722 
L 723.738793 608.286998 
L 733.197636 599.438712 
L 742.656479 599.433583 
L 752.115322 595.873853 
L 761.574165 603.7101 
L 771.033008 600.852229 
L 780.491851 603.838175 
L 789.950694 598.390708 
L 799.409537 588.56224 
L 808.86838 589.562181 
L 818.327223 602.248854 
L 827.786066 593.90875 
L 837.244909 587.986377 
L 846.703752 603.730026 
L 856.162595 599.706537 
L 865.621438 605.102551 
L 875.080281 594.132998 
L 884.539124 604.469708 
L 893.997967 589.529313 
L 903.45681 587.651836 
L 912.915653 602.534389 
L 922.374496 588.914649 
L 931.833339 599.033613 
L 941.292182 599.898579 
L 950.751025 599.850459 
L 960.209868 587.581615 
L 969.668711 600.882012 
L 979.127554 590.152381 
L 988.586397 594.62422 
L 998.04524 594.639594 
L 1007.504083 597.103538 
L 1016.962926 594.352751 
L 1026.421769 590.93506 
L 1035.880612 603.535757 
L 1045.339455 596.44882 
L 1054.798298 602.173183 
L 1064.25714 590.148881 
L 1073.715983 597.439714 
L 1083.174826 586.61534 
L 1092.633669 601.401978 
L 1102.092512 603.918544 
L 1111.551355 587.740651 
L 1121.010198 595.200527 
L 1130.469041 599.148638 
L 1139.927884 593.226141 
L 1149.386727 590.283421 
" clip-path="url(#pfe45b538bb)" style="fill: none; stroke: #ff7f0e; stroke-width: 1.5; stroke-linecap: square"/>
   </g>
   <g id="patch_9">
    <path d="M 166.14 624.1392 
L 166.14 378.6912 
" style="fill: none; stroke: #000000; stroke-width: 0.8; stroke-linejoin: miter; stroke-linecap: square"/>
   </g>
   <g id="patch_10">
    <path d="M 1196.208 624.1392 
L 1196.208 378.6912 
" style="fill: none; stroke: #000000; stroke-width: 0.8; stroke-linejoin: miter; stroke-linecap: square"/>
   </g>
   <g id="patch_11">
    <path d="M 166.14 624.1392 
L 1196.208 624.1392 
" style="fill: none; stroke: #000000; stroke-width: 0.8; stroke-linejoin: miter; stroke-linecap: square"/>
   </g>
   <g id="patch_12">
    <path d="M 166.14 378.6912 
L 1196.208 378.6912 
" style="fill: none; stroke: #000000; stroke-width: 0.8; stroke-linejoin: miter; stroke-linecap: square"/>
   </g>
   <g id="legend_2">
    <g id="patch_13">
     <path d="M 173.14 416.369325 
L 264.919688 416.369325 
Q 266.919688 416.369325 266.919688 414.369325 
L 266.919688 385.6912 
Q 266.919688 383.6912 264.919688 383.6912 
L 173.14 383.6912 
Q 171.14 383.6912 171.14 385.6912 
L 171.14 414.369325 
Q 171.14 416.369325 173.14 416.369325 
z
" style="fill: #ffffff; opacity: 0.8; stroke: #cccccc; stroke-linejoin: miter"/>
    </g>
    <g id="line2d_29">
     <path d="M 175.14 391.833388 
L 185.14 391.833388 
L 195.14 391.833388 
" style="fill: none; stroke: #1f77b4; stroke-width: 1.5; stroke-linecap: square"/>
    </g>
    <g id="text_29">
     <!-- k(H)*r1/||g|| -->
     <g transform="translate(203.14 395.333388) scale(0.1 -0.1)">
      <defs>
       <path id="DejaVuSans-6b" d="M 581 4863 
L 1159 4863 
L 1159 1991 
L 2875 3500 
L 3609 3500 
L 1753 1863 
L 3688 0 
L 2938 0 
L 1159 1709 
L 1159 0 
L 581 0 
L 581 4863 
z
" transform="scale(0.015625)"/>
       <path id="DejaVuSans-28" d="M 1984 4856 
Q 1566 4138 1362 3434 
Q 1159 2731 1159 2009 
Q 1159 1288 1364 580 
Q 1569 -128 1984 -844 
L 1484 -844 
Q 1016 -109 783 600 
Q 550 1309 550 2009 
Q 550 2706 781 3412 
Q 1013 4119 1484 4856 
L 1984 4856 
z
" transform="scale(0.015625)"/>
       <path id="DejaVuSans-48" d="M 628 4666 
L 1259 4666 
L 1259 2753 
L 3553 2753 
L 3553 4666 
L 4184 4666 
L 4184 0 
L 3553 0 
L 3553 2222 
L 1259 2222 
L 1259 0 
L 628 0 
L 628 4666 
z
" transform="scale(0.015625)"/>
       <path id="DejaVuSans-29" d="M 513 4856 
L 1013 4856 
Q 1481 4119 1714 3412 
Q 1947 2706 1947 2009 
Q 1947 1309 1714 600 
Q 1481 -109 1013 -844 
L 513 -844 
Q 928 -128 1133 580 
Q 1338 1288 1338 2009 
Q 1338 2731 1133 3434 
Q 928 4138 513 4856 
z
" transform="scale(0.015625)"/>
       <path id="DejaVuSans-2a" d="M 3009 3897 
L 1888 3291 
L 3009 2681 
L 2828 2375 
L 1778 3009 
L 1778 1831 
L 1422 1831 
L 1422 3009 
L 372 2375 
L 191 2681 
L 1313 3291 
L 191 3897 
L 372 4206 
L 1422 3572 
L 1422 4750 
L 1778 4750 
L 1778 3572 
L 2828 4206 
L 3009 3897 
z
" transform="scale(0.015625)"/>
       <path id="DejaVuSans-2f" d="M 1625 4666 
L 2156 4666 
L 531 -594 
L 0 -594 
L 1625 4666 
z
" transform="scale(0.015625)"/>
       <path id="DejaVuSans-7c" d="M 1344 4891 
L 1344 -1509 
L 813 -1509 
L 813 4891 
L 1344 4891 
z
" transform="scale(0.015625)"/>
       <path id="DejaVuSans-67" d="M 2906 1791 
Q 2906 2416 2648 2759 
Q 2391 3103 1925 3103 
Q 1463 3103 1205 2759 
Q 947 2416 947 1791 
Q 947 1169 1205 825 
Q 1463 481 1925 481 
Q 2391 481 2648 825 
Q 2906 1169 2906 1791 
z
M 3481 434 
Q 3481 -459 3084 -895 
Q 2688 -1331 1869 -1331 
Q 1566 -1331 1297 -1286 
Q 1028 -1241 775 -1147 
L 775 -588 
Q 1028 -725 1275 -790 
Q 1522 -856 1778 -856 
Q 2344 -856 2625 -561 
Q 2906 -266 2906 331 
L 2906 616 
Q 2728 306 2450 153 
Q 2172 0 1784 0 
Q 1141 0 747 490 
Q 353 981 353 1791 
Q 353 2603 747 3093 
Q 1141 3584 1784 3584 
Q 2172 3584 2450 3431 
Q 2728 3278 2906 2969 
L 2906 3500 
L 3481 3500 
L 3481 434 
z
" transform="scale(0.015625)"/>
      </defs>
      <use xlink:href="#DejaVuSans-6b"/>
      <use xlink:href="#DejaVuSans-28" x="57.910156"/>
      <use xlink:href="#DejaVuSans-48" x="96.923828"/>
      <use xlink:href="#DejaVuSans-29" x="172.119141"/>
      <use xlink:href="#DejaVuSans-2a" x="211.132812"/>
      <use xlink:href="#DejaVuSans-72" x="261.132812"/>
      <use xlink:href="#DejaVuSans-31" x="302.246094"/>
      <use xlink:href="#DejaVuSans-2f" x="365.869141"/>
      <use xlink:href="#DejaVuSans-7c" x="399.560547"/>
      <use xlink:href="#DejaVuSans-7c" x="433.251953"/>
      <use xlink:href="#DejaVuSans-67" x="466.943359"/>
      <use xlink:href="#DejaVuSans-7c" x="530.419922"/>
      <use xlink:href="#DejaVuSans-7c" x="564.111328"/>
     </g>
    </g>
    <g id="line2d_30">
     <path d="M 175.14 406.789638 
L 185.14 406.789638 
L 195.14 406.789638 
" style="fill: none; stroke: #ff7f0e; stroke-width: 1.5; stroke-linecap: square"/>
    </g>
    <g id="text_30">
     <!-- k(H)*r2 -->
     <g transform="translate(203.14 410.289638) scale(0.1 -0.1)">
      <use xlink:href="#DejaVuSans-6b"/>
      <use xlink:href="#DejaVuSans-28" x="57.910156"/>
      <use xlink:href="#DejaVuSans-48" x="96.923828"/>
      <use xlink:href="#DejaVuSans-29" x="172.119141"/>
      <use xlink:href="#DejaVuSans-2a" x="211.132812"/>
      <use xlink:href="#DejaVuSans-72" x="261.132812"/>
      <use xlink:href="#DejaVuSans-32" x="302.246094"/>
     </g>
    </g>
   </g>
  </g>
  <g id="text_31">
   <!-- 50 CG iterations -->
   <g transform="translate(615.799688 23.143725) scale(0.12 -0.12)">
    <defs>
     <path id="DejaVuSans-43" d="M 4122 4306 
L 4122 3641 
Q 3803 3938 3442 4084 
Q 3081 4231 2675 4231 
Q 1875 4231 1450 3742 
Q 1025 3253 1025 2328 
Q 1025 1406 1450 917 
Q 1875 428 2675 428 
Q 3081 428 3442 575 
Q 3803 722 4122 1019 
L 4122 359 
Q 3791 134 3420 21 
Q 3050 -91 2638 -91 
Q 1578 -91 968 557 
Q 359 1206 359 2328 
Q 359 3453 968 4101 
Q 1578 4750 2638 4750 
Q 3056 4750 3426 4639 
Q 3797 4528 4122 4306 
z
" transform="scale(0.015625)"/>
     <path id="DejaVuSans-47" d="M 3809 666 
L 3809 1919 
L 2778 1919 
L 2778 2438 
L 4434 2438 
L 4434 434 
Q 4069 175 3628 42 
Q 3188 -91 2688 -91 
Q 1594 -91 976 548 
Q 359 1188 359 2328 
Q 359 3472 976 4111 
Q 1594 4750 2688 4750 
Q 3144 4750 3555 4637 
Q 3966 4525 4313 4306 
L 4313 3634 
Q 3963 3931 3569 4081 
Q 3175 4231 2741 4231 
Q 1884 4231 1454 3753 
Q 1025 3275 1025 2328 
Q 1025 1384 1454 906 
Q 1884 428 2741 428 
Q 3075 428 3337 486 
Q 3600 544 3809 666 
z
" transform="scale(0.015625)"/>
    </defs>
    <use xlink:href="#DejaVuSans-35"/>
    <use xlink:href="#DejaVuSans-30" x="63.623047"/>
    <use xlink:href="#DejaVuSans-20" x="127.246094"/>
    <use xlink:href="#DejaVuSans-43" x="159.033203"/>
    <use xlink:href="#DejaVuSans-47" x="228.857422"/>
    <use xlink:href="#DejaVuSans-20" x="306.347656"/>
    <use xlink:href="#DejaVuSans-69" x="338.134766"/>
    <use xlink:href="#DejaVuSans-74" x="365.917969"/>
    <use xlink:href="#DejaVuSans-65" x="405.126953"/>
    <use xlink:href="#DejaVuSans-72" x="466.650391"/>
    <use xlink:href="#DejaVuSans-61" x="507.763672"/>
    <use xlink:href="#DejaVuSans-74" x="569.042969"/>
    <use xlink:href="#DejaVuSans-69" x="608.251953"/>
    <use xlink:href="#DejaVuSans-6f" x="636.035156"/>
    <use xlink:href="#DejaVuSans-6e" x="697.216797"/>
    <use xlink:href="#DejaVuSans-73" x="760.595703"/>
   </g>
  </g>
 </g>
 <defs>
  <clipPath id="p7941b25bc5">
   <rect x="166.14" y="84.1536" width="1030.068" height="245.448"/>
  </clipPath>
  <clipPath id="pfe45b538bb">
   <rect x="166.14" y="378.6912" width="1030.068" height="245.448"/>
  </clipPath>
 </defs>
</svg>
