<?xml version="1.0" encoding="utf-8" standalone="no"?>
<!DOCTYPE svg PUBLIC "-//W3C//DTD SVG 1.1//EN"
  "http://www.w3.org/Graphics/SVG/1.1/DTD/svg11.dtd">
<svg xmlns:xlink="http://www.w3.org/1999/xlink" width="1329.12pt" height="701.28pt" viewBox="0 0 1329.12 701.28" xmlns="http://www.w3.org/2000/svg" version="1.1">
 <metadata>
  <rdf:RDF xmlns:dc="http://purl.org/dc/elements/1.1/" xmlns:cc="http://creativecommons.org/ns#" xmlns:rdf="http://www.w3.org/1999/02/22-rdf-syntax-ns#">
   <cc:Work>
    <dc:type rdf:resource="http://purl.org/dc/dcmitype/StillImage"/>
    <dc:date>2023-03-23T14:14:53.216604</dc:date>
    <dc:format>image/svg+xml</dc:format>
    <dc:creator>
     <cc:Agent>
      <dc:title>Matplotlib v3.7.1, https://matplotlib.org/</dc:title>
     </cc:Agent>
    </dc:creator>
   </cc:Work>
  </rdf:RDF>
 </metadata>
 <defs>
  <style type="text/css">*{stroke-linejoin: round; stroke-linecap: butt}</style>
 </defs>
 <g id="figure_1">
  <g id="patch_1">
   <path d="M 0 701.28 
L 1329.12 701.28 
L 1329.12 0 
L 0 0 
z
" style="fill: #ffffff"/>
  </g>
  <g id="axes_1">
   <g id="patch_2">
    <path d="M 166.14 329.6016 
L 1196.208 329.6016 
L 1196.208 84.1536 
L 166.14 84.1536 
z
" style="fill: #ffffff"/>
   </g>
   <g id="matplotlib.axis_1">
    <g id="xtick_1">
     <g id="line2d_1">
      <defs>
       <path id="m941a0d046e" d="M 0 0 
L 0 3.5 
" style="stroke: #000000; stroke-width: 0.8"/>
      </defs>
      <g>
       <use xlink:href="#m941a0d046e" x="203.50243" y="329.6016" style="stroke: #000000; stroke-width: 0.8"/>
      </g>
     </g>
     <g id="text_1">
      <!-- 0 -->
      <g transform="translate(200.32118 344.200037) scale(0.1 -0.1)">
       <defs>
        <path id="DejaVuSans-30" d="M 2034 4250 
Q 1547 4250 1301 3770 
Q 1056 3291 1056 2328 
Q 1056 1369 1301 889 
Q 1547 409 2034 409 
Q 2525 409 2770 889 
Q 3016 1369 3016 2328 
Q 3016 3291 2770 3770 
Q 2525 4250 2034 4250 
z
M 2034 4750 
Q 2819 4750 3233 4129 
Q 3647 3509 3647 2328 
Q 3647 1150 3233 529 
Q 2819 -91 2034 -91 
Q 1250 -91 836 529 
Q 422 1150 422 2328 
Q 422 3509 836 4129 
Q 1250 4750 2034 4750 
z
" transform="scale(0.015625)"/>
       </defs>
       <use xlink:href="#DejaVuSans-30"/>
      </g>
     </g>
    </g>
    <g id="xtick_2">
     <g id="line2d_2">
      <g>
       <use xlink:href="#m941a0d046e" x="392.679289" y="329.6016" style="stroke: #000000; stroke-width: 0.8"/>
      </g>
     </g>
     <g id="text_2">
      <!-- 20 -->
      <g transform="translate(386.316789 344.200037) scale(0.1 -0.1)">
       <defs>
        <path id="DejaVuSans-32" d="M 1228 531 
L 3431 531 
L 3431 0 
L 469 0 
L 469 531 
Q 828 903 1448 1529 
Q 2069 2156 2228 2338 
Q 2531 2678 2651 2914 
Q 2772 3150 2772 3378 
Q 2772 3750 2511 3984 
Q 2250 4219 1831 4219 
Q 1534 4219 1204 4116 
Q 875 4013 500 3803 
L 500 4441 
Q 881 4594 1212 4672 
Q 1544 4750 1819 4750 
Q 2544 4750 2975 4387 
Q 3406 4025 3406 3419 
Q 3406 3131 3298 2873 
Q 3191 2616 2906 2266 
Q 2828 2175 2409 1742 
Q 1991 1309 1228 531 
z
" transform="scale(0.015625)"/>
       </defs>
       <use xlink:href="#DejaVuSans-32"/>
       <use xlink:href="#DejaVuSans-30" x="63.623047"/>
      </g>
     </g>
    </g>
    <g id="xtick_3">
     <g id="line2d_3">
      <g>
       <use xlink:href="#m941a0d046e" x="581.856149" y="329.6016" style="stroke: #000000; stroke-width: 0.8"/>
      </g>
     </g>
     <g id="text_3">
      <!-- 40 -->
      <g transform="translate(575.493649 344.200037) scale(0.1 -0.1)">
       <defs>
        <path id="DejaVuSans-34" d="M 2419 4116 
L 825 1625 
L 2419 1625 
L 2419 4116 
z
M 2253 4666 
L 3047 4666 
L 3047 1625 
L 3713 1625 
L 3713 1100 
L 3047 1100 
L 3047 0 
L 2419 0 
L 2419 1100 
L 313 1100 
L 313 1709 
L 2253 4666 
z
" transform="scale(0.015625)"/>
       </defs>
       <use xlink:href="#DejaVuSans-34"/>
       <use xlink:href="#DejaVuSans-30" x="63.623047"/>
      </g>
     </g>
    </g>
    <g id="xtick_4">
     <g id="line2d_4">
      <g>
       <use xlink:href="#m941a0d046e" x="771.033008" y="329.6016" style="stroke: #000000; stroke-width: 0.8"/>
      </g>
     </g>
     <g id="text_4">
      <!-- 60 -->
      <g transform="translate(764.670508 344.200037) scale(0.1 -0.1)">
       <defs>
        <path id="DejaVuSans-36" d="M 2113 2584 
Q 1688 2584 1439 2293 
Q 1191 2003 1191 1497 
Q 1191 994 1439 701 
Q 1688 409 2113 409 
Q 2538 409 2786 701 
Q 3034 994 3034 1497 
Q 3034 2003 2786 2293 
Q 2538 2584 2113 2584 
z
M 3366 4563 
L 3366 3988 
Q 3128 4100 2886 4159 
Q 2644 4219 2406 4219 
Q 1781 4219 1451 3797 
Q 1122 3375 1075 2522 
Q 1259 2794 1537 2939 
Q 1816 3084 2150 3084 
Q 2853 3084 3261 2657 
Q 3669 2231 3669 1497 
Q 3669 778 3244 343 
Q 2819 -91 2113 -91 
Q 1303 -91 875 529 
Q 447 1150 447 2328 
Q 447 3434 972 4092 
Q 1497 4750 2381 4750 
Q 2619 4750 2861 4703 
Q 3103 4656 3366 4563 
z
" transform="scale(0.015625)"/>
       </defs>
       <use xlink:href="#DejaVuSans-36"/>
       <use xlink:href="#DejaVuSans-30" x="63.623047"/>
      </g>
     </g>
    </g>
    <g id="xtick_5">
     <g id="line2d_5">
      <g>
       <use xlink:href="#m941a0d046e" x="960.209868" y="329.6016" style="stroke: #000000; stroke-width: 0.8"/>
      </g>
     </g>
     <g id="text_5">
      <!-- 80 -->
      <g transform="translate(953.847368 344.200037) scale(0.1 -0.1)">
       <defs>
        <path id="DejaVuSans-38" d="M 2034 2216 
Q 1584 2216 1326 1975 
Q 1069 1734 1069 1313 
Q 1069 891 1326 650 
Q 1584 409 2034 409 
Q 2484 409 2743 651 
Q 3003 894 3003 1313 
Q 3003 1734 2745 1975 
Q 2488 2216 2034 2216 
z
M 1403 2484 
Q 997 2584 770 2862 
Q 544 3141 544 3541 
Q 544 4100 942 4425 
Q 1341 4750 2034 4750 
Q 2731 4750 3128 4425 
Q 3525 4100 3525 3541 
Q 3525 3141 3298 2862 
Q 3072 2584 2669 2484 
Q 3125 2378 3379 2068 
Q 3634 1759 3634 1313 
Q 3634 634 3220 271 
Q 2806 -91 2034 -91 
Q 1263 -91 848 271 
Q 434 634 434 1313 
Q 434 1759 690 2068 
Q 947 2378 1403 2484 
z
M 1172 3481 
Q 1172 3119 1398 2916 
Q 1625 2713 2034 2713 
Q 2441 2713 2670 2916 
Q 2900 3119 2900 3481 
Q 2900 3844 2670 4047 
Q 2441 4250 2034 4250 
Q 1625 4250 1398 4047 
Q 1172 3844 1172 3481 
z
" transform="scale(0.015625)"/>
       </defs>
       <use xlink:href="#DejaVuSans-38"/>
       <use xlink:href="#DejaVuSans-30" x="63.623047"/>
      </g>
     </g>
    </g>
    <g id="xtick_6">
     <g id="line2d_6">
      <g>
       <use xlink:href="#m941a0d046e" x="1149.386727" y="329.6016" style="stroke: #000000; stroke-width: 0.8"/>
      </g>
     </g>
     <g id="text_6">
      <!-- 100 -->
      <g transform="translate(1139.842977 344.200037) scale(0.1 -0.1)">
       <defs>
        <path id="DejaVuSans-31" d="M 794 531 
L 1825 531 
L 1825 4091 
L 703 3866 
L 703 4441 
L 1819 4666 
L 2450 4666 
L 2450 531 
L 3481 531 
L 3481 0 
L 794 0 
L 794 531 
z
" transform="scale(0.015625)"/>
       </defs>
       <use xlink:href="#DejaVuSans-31"/>
       <use xlink:href="#DejaVuSans-30" x="63.623047"/>
       <use xlink:href="#DejaVuSans-30" x="127.246094"/>
      </g>
     </g>
    </g>
   </g>
   <g id="matplotlib.axis_2">
    <g id="ytick_1">
     <g id="line2d_7">
      <defs>
       <path id="m9f1219164c" d="M 0 0 
L -3.5 0 
" style="stroke: #000000; stroke-width: 0.8"/>
      </defs>
      <g>
       <use xlink:href="#m9f1219164c" x="166.14" y="318.528102" style="stroke: #000000; stroke-width: 0.8"/>
      </g>
     </g>
     <g id="text_7">
      <!-- 0.000 -->
      <g transform="translate(130.511875 322.327321) scale(0.1 -0.1)">
       <defs>
        <path id="DejaVuSans-2e" d="M 684 794 
L 1344 794 
L 1344 0 
L 684 0 
L 684 794 
z
" transform="scale(0.015625)"/>
       </defs>
       <use xlink:href="#DejaVuSans-30"/>
       <use xlink:href="#DejaVuSans-2e" x="63.623047"/>
       <use xlink:href="#DejaVuSans-30" x="95.410156"/>
       <use xlink:href="#DejaVuSans-30" x="159.033203"/>
       <use xlink:href="#DejaVuSans-30" x="222.65625"/>
      </g>
     </g>
    </g>
    <g id="ytick_2">
     <g id="line2d_8">
      <g>
       <use xlink:href="#m9f1219164c" x="166.14" y="283.997558" style="stroke: #000000; stroke-width: 0.8"/>
      </g>
     </g>
     <g id="text_8">
      <!-- 0.001 -->
      <g transform="translate(130.511875 287.796777) scale(0.1 -0.1)">
       <use xlink:href="#DejaVuSans-30"/>
       <use xlink:href="#DejaVuSans-2e" x="63.623047"/>
       <use xlink:href="#DejaVuSans-30" x="95.410156"/>
       <use xlink:href="#DejaVuSans-30" x="159.033203"/>
       <use xlink:href="#DejaVuSans-31" x="222.65625"/>
      </g>
     </g>
    </g>
    <g id="ytick_3">
     <g id="line2d_9">
      <g>
       <use xlink:href="#m9f1219164c" x="166.14" y="249.467015" style="stroke: #000000; stroke-width: 0.8"/>
      </g>
     </g>
     <g id="text_9">
      <!-- 0.002 -->
      <g transform="translate(130.511875 253.266233) scale(0.1 -0.1)">
       <use xlink:href="#DejaVuSans-30"/>
       <use xlink:href="#DejaVuSans-2e" x="63.623047"/>
       <use xlink:href="#DejaVuSans-30" x="95.410156"/>
       <use xlink:href="#DejaVuSans-30" x="159.033203"/>
       <use xlink:href="#DejaVuSans-32" x="222.65625"/>
      </g>
     </g>
    </g>
    <g id="ytick_4">
     <g id="line2d_10">
      <g>
       <use xlink:href="#m9f1219164c" x="166.14" y="214.936471" style="stroke: #000000; stroke-width: 0.8"/>
      </g>
     </g>
     <g id="text_10">
      <!-- 0.003 -->
      <g transform="translate(130.511875 218.735689) scale(0.1 -0.1)">
       <defs>
        <path id="DejaVuSans-33" d="M 2597 2516 
Q 3050 2419 3304 2112 
Q 3559 1806 3559 1356 
Q 3559 666 3084 287 
Q 2609 -91 1734 -91 
Q 1441 -91 1130 -33 
Q 819 25 488 141 
L 488 750 
Q 750 597 1062 519 
Q 1375 441 1716 441 
Q 2309 441 2620 675 
Q 2931 909 2931 1356 
Q 2931 1769 2642 2001 
Q 2353 2234 1838 2234 
L 1294 2234 
L 1294 2753 
L 1863 2753 
Q 2328 2753 2575 2939 
Q 2822 3125 2822 3475 
Q 2822 3834 2567 4026 
Q 2313 4219 1838 4219 
Q 1578 4219 1281 4162 
Q 984 4106 628 3988 
L 628 4550 
Q 988 4650 1302 4700 
Q 1616 4750 1894 4750 
Q 2613 4750 3031 4423 
Q 3450 4097 3450 3541 
Q 3450 3153 3228 2886 
Q 3006 2619 2597 2516 
z
" transform="scale(0.015625)"/>
       </defs>
       <use xlink:href="#DejaVuSans-30"/>
       <use xlink:href="#DejaVuSans-2e" x="63.623047"/>
       <use xlink:href="#DejaVuSans-30" x="95.410156"/>
       <use xlink:href="#DejaVuSans-30" x="159.033203"/>
       <use xlink:href="#DejaVuSans-33" x="222.65625"/>
      </g>
     </g>
    </g>
    <g id="ytick_5">
     <g id="line2d_11">
      <g>
       <use xlink:href="#m9f1219164c" x="166.14" y="180.405927" style="stroke: #000000; stroke-width: 0.8"/>
      </g>
     </g>
     <g id="text_11">
      <!-- 0.004 -->
      <g transform="translate(130.511875 184.205146) scale(0.1 -0.1)">
       <use xlink:href="#DejaVuSans-30"/>
       <use xlink:href="#DejaVuSans-2e" x="63.623047"/>
       <use xlink:href="#DejaVuSans-30" x="95.410156"/>
       <use xlink:href="#DejaVuSans-30" x="159.033203"/>
       <use xlink:href="#DejaVuSans-34" x="222.65625"/>
      </g>
     </g>
    </g>
    <g id="ytick_6">
     <g id="line2d_12">
      <g>
       <use xlink:href="#m9f1219164c" x="166.14" y="145.875383" style="stroke: #000000; stroke-width: 0.8"/>
      </g>
     </g>
     <g id="text_12">
      <!-- 0.005 -->
      <g transform="translate(130.511875 149.674602) scale(0.1 -0.1)">
       <defs>
        <path id="DejaVuSans-35" d="M 691 4666 
L 3169 4666 
L 3169 4134 
L 1269 4134 
L 1269 2991 
Q 1406 3038 1543 3061 
Q 1681 3084 1819 3084 
Q 2600 3084 3056 2656 
Q 3513 2228 3513 1497 
Q 3513 744 3044 326 
Q 2575 -91 1722 -91 
Q 1428 -91 1123 -41 
Q 819 9 494 109 
L 494 744 
Q 775 591 1075 516 
Q 1375 441 1709 441 
Q 2250 441 2565 725 
Q 2881 1009 2881 1497 
Q 2881 1984 2565 2268 
Q 2250 2553 1709 2553 
Q 1456 2553 1204 2497 
Q 953 2441 691 2322 
L 691 4666 
z
" transform="scale(0.015625)"/>
       </defs>
       <use xlink:href="#DejaVuSans-30"/>
       <use xlink:href="#DejaVuSans-2e" x="63.623047"/>
       <use xlink:href="#DejaVuSans-30" x="95.410156"/>
       <use xlink:href="#DejaVuSans-30" x="159.033203"/>
       <use xlink:href="#DejaVuSans-35" x="222.65625"/>
      </g>
     </g>
    </g>
    <g id="ytick_7">
     <g id="line2d_13">
      <g>
       <use xlink:href="#m9f1219164c" x="166.14" y="111.344839" style="stroke: #000000; stroke-width: 0.8"/>
      </g>
     </g>
     <g id="text_13">
      <!-- 0.006 -->
      <g transform="translate(130.511875 115.144058) scale(0.1 -0.1)">
       <use xlink:href="#DejaVuSans-30"/>
       <use xlink:href="#DejaVuSans-2e" x="63.623047"/>
       <use xlink:href="#DejaVuSans-30" x="95.410156"/>
       <use xlink:href="#DejaVuSans-30" x="159.033203"/>
       <use xlink:href="#DejaVuSans-36" x="222.65625"/>
      </g>
     </g>
    </g>
    <g id="text_14">
     <!-- residual -->
     <g transform="translate(124.432187 226.686975) rotate(-90) scale(0.1 -0.1)">
      <defs>
       <path id="DejaVuSans-72" d="M 2631 2963 
Q 2534 3019 2420 3045 
Q 2306 3072 2169 3072 
Q 1681 3072 1420 2755 
Q 1159 2438 1159 1844 
L 1159 0 
L 581 0 
L 581 3500 
L 1159 3500 
L 1159 2956 
Q 1341 3275 1631 3429 
Q 1922 3584 2338 3584 
Q 2397 3584 2469 3576 
Q 2541 3569 2628 3553 
L 2631 2963 
z
" transform="scale(0.015625)"/>
       <path id="DejaVuSans-65" d="M 3597 1894 
L 3597 1613 
L 953 1613 
Q 991 1019 1311 708 
Q 1631 397 2203 397 
Q 2534 397 2845 478 
Q 3156 559 3463 722 
L 3463 178 
Q 3153 47 2828 -22 
Q 2503 -91 2169 -91 
Q 1331 -91 842 396 
Q 353 884 353 1716 
Q 353 2575 817 3079 
Q 1281 3584 2069 3584 
Q 2775 3584 3186 3129 
Q 3597 2675 3597 1894 
z
M 3022 2063 
Q 3016 2534 2758 2815 
Q 2500 3097 2075 3097 
Q 1594 3097 1305 2825 
Q 1016 2553 972 2059 
L 3022 2063 
z
" transform="scale(0.015625)"/>
       <path id="DejaVuSans-73" d="M 2834 3397 
L 2834 2853 
Q 2591 2978 2328 3040 
Q 2066 3103 1784 3103 
Q 1356 3103 1142 2972 
Q 928 2841 928 2578 
Q 928 2378 1081 2264 
Q 1234 2150 1697 2047 
L 1894 2003 
Q 2506 1872 2764 1633 
Q 3022 1394 3022 966 
Q 3022 478 2636 193 
Q 2250 -91 1575 -91 
Q 1294 -91 989 -36 
Q 684 19 347 128 
L 347 722 
Q 666 556 975 473 
Q 1284 391 1588 391 
Q 1994 391 2212 530 
Q 2431 669 2431 922 
Q 2431 1156 2273 1281 
Q 2116 1406 1581 1522 
L 1381 1569 
Q 847 1681 609 1914 
Q 372 2147 372 2553 
Q 372 3047 722 3315 
Q 1072 3584 1716 3584 
Q 2034 3584 2315 3537 
Q 2597 3491 2834 3397 
z
" transform="scale(0.015625)"/>
       <path id="DejaVuSans-69" d="M 603 3500 
L 1178 3500 
L 1178 0 
L 603 0 
L 603 3500 
z
M 603 4863 
L 1178 4863 
L 1178 4134 
L 603 4134 
L 603 4863 
z
" transform="scale(0.015625)"/>
       <path id="DejaVuSans-64" d="M 2906 2969 
L 2906 4863 
L 3481 4863 
L 3481 0 
L 2906 0 
L 2906 525 
Q 2725 213 2448 61 
Q 2172 -91 1784 -91 
Q 1150 -91 751 415 
Q 353 922 353 1747 
Q 353 2572 751 3078 
Q 1150 3584 1784 3584 
Q 2172 3584 2448 3432 
Q 2725 3281 2906 2969 
z
M 947 1747 
Q 947 1113 1208 752 
Q 1469 391 1925 391 
Q 2381 391 2643 752 
Q 2906 1113 2906 1747 
Q 2906 2381 2643 2742 
Q 2381 3103 1925 3103 
Q 1469 3103 1208 2742 
Q 947 2381 947 1747 
z
" transform="scale(0.015625)"/>
       <path id="DejaVuSans-75" d="M 544 1381 
L 544 3500 
L 1119 3500 
L 1119 1403 
Q 1119 906 1312 657 
Q 1506 409 1894 409 
Q 2359 409 2629 706 
Q 2900 1003 2900 1516 
L 2900 3500 
L 3475 3500 
L 3475 0 
L 2900 0 
L 2900 538 
Q 2691 219 2414 64 
Q 2138 -91 1772 -91 
Q 1169 -91 856 284 
Q 544 659 544 1381 
z
M 1991 3584 
L 1991 3584 
z
" transform="scale(0.015625)"/>
       <path id="DejaVuSans-61" d="M 2194 1759 
Q 1497 1759 1228 1600 
Q 959 1441 959 1056 
Q 959 750 1161 570 
Q 1363 391 1709 391 
Q 2188 391 2477 730 
Q 2766 1069 2766 1631 
L 2766 1759 
L 2194 1759 
z
M 3341 1997 
L 3341 0 
L 2766 0 
L 2766 531 
Q 2569 213 2275 61 
Q 1981 -91 1556 -91 
Q 1019 -91 701 211 
Q 384 513 384 1019 
Q 384 1609 779 1909 
Q 1175 2209 1959 2209 
L 2766 2209 
L 2766 2266 
Q 2766 2663 2505 2880 
Q 2244 3097 1772 3097 
Q 1472 3097 1187 3025 
Q 903 2953 641 2809 
L 641 3341 
Q 956 3463 1253 3523 
Q 1550 3584 1831 3584 
Q 2591 3584 2966 3190 
Q 3341 2797 3341 1997 
z
" transform="scale(0.015625)"/>
       <path id="DejaVuSans-6c" d="M 603 4863 
L 1178 4863 
L 1178 0 
L 603 0 
L 603 4863 
z
" transform="scale(0.015625)"/>
      </defs>
      <use xlink:href="#DejaVuSans-72"/>
      <use xlink:href="#DejaVuSans-65" x="38.863281"/>
      <use xlink:href="#DejaVuSans-73" x="100.386719"/>
      <use xlink:href="#DejaVuSans-69" x="152.486328"/>
      <use xlink:href="#DejaVuSans-64" x="180.269531"/>
      <use xlink:href="#DejaVuSans-75" x="243.746094"/>
      <use xlink:href="#DejaVuSans-61" x="307.125"/>
      <use xlink:href="#DejaVuSans-6c" x="368.404297"/>
     </g>
    </g>
   </g>
   <g id="line2d_14">
    <path d="M 212.961273 318.392822 
L 222.420116 318.272761 
L 231.878959 318.361797 
L 241.337802 318.343069 
L 250.796645 318.314433 
L 260.255488 318.225754 
L 269.714331 318.323649 
L 279.173174 318.309693 
L 288.632017 318.345182 
L 298.09086 318.236985 
L 307.549702 318.356124 
L 317.008545 318.444873 
L 326.467388 318.255468 
L 335.926231 318.320087 
L 345.385074 318.227213 
L 354.843917 318.211988 
L 364.30276 314.510076 
L 373.761603 312.701217 
L 383.220446 318.303227 
L 392.679289 317.681398 
L 402.138132 313.921013 
L 411.596975 318.277622 
L 421.055818 315.024137 
L 430.514661 313.762602 
L 439.973504 317.134465 
L 449.432347 313.117254 
L 458.89119 317.440807 
L 468.350033 316.860765 
L 477.808876 316.824988 
L 487.267719 316.527456 
L 496.726562 317.467149 
L 506.185405 315.772788 
L 515.644248 316.34365 
L 525.103091 310.732764 
L 534.561934 317.534368 
L 544.020777 316.613229 
L 553.47962 316.086915 
L 562.938463 312.783047 
L 572.397306 314.497146 
L 581.856149 314.769516 
L 591.314992 303.817433 
L 600.773835 310.292025 
L 610.232678 314.659249 
L 619.691521 316.130938 
L 629.150364 313.816324 
L 638.609207 317.335686 
L 648.06805 307.839361 
L 657.526893 314.678776 
L 666.985736 314.818435 
L 676.444579 296.81946 
L 685.903421 315.66217 
L 695.362264 308.109335 
L 704.821107 315.639349 
L 714.27995 314.722688 
L 723.738793 314.182712 
L 733.197636 315.648111 
L 742.656479 307.75627 
L 752.115322 309.948123 
L 761.574165 311.461992 
L 771.033008 311.052184 
L 780.491851 314.330866 
L 789.950694 302.535383 
L 799.409537 310.416102 
L 808.86838 301.137283 
L 818.327223 304.549958 
L 827.786066 273.591039 
L 837.244909 276.704447 
L 846.703752 308.616097 
L 856.162595 268.230858 
L 865.621438 300.361884 
L 875.080281 306.075338 
L 884.539124 296.068124 
L 893.997967 286.844825 
L 903.45681 288.455707 
L 912.915653 256.887942 
L 922.374496 312.819613 
L 931.833339 305.977512 
L 941.292182 313.269693 
L 950.751025 310.83524 
L 960.209868 308.793669 
L 969.668711 313.063404 
L 979.127554 313.009148 
L 988.586397 314.018798 
L 998.04524 316.050363 
L 1007.504083 315.289501 
L 1016.962926 315.506415 
L 1026.421769 312.041359 
L 1035.880612 314.647574 
L 1045.339455 311.240026 
L 1054.798298 303.748953 
L 1064.25714 310.856996 
L 1073.715983 313.188786 
L 1083.174826 313.923066 
L 1092.633669 291.691952 
L 1102.092512 314.358824 
L 1111.551355 312.465757 
L 1121.010198 305.582622 
L 1130.469041 311.564626 
L 1139.927884 305.741639 
L 1149.386727 311.705776 
" clip-path="url(#p89043586a7)" style="fill: none; stroke: #1f77b4; stroke-width: 1.5; stroke-linecap: square"/>
   </g>
   <g id="line2d_15">
    <path d="M 212.961273 318.245531 
L 222.420116 318.19419 
L 231.878959 318.382329 
L 241.337802 318.186131 
L 250.796645 318.191911 
L 260.255488 318.406795 
L 269.714331 318.352714 
L 279.173174 318.187028 
L 288.632017 318.268534 
L 298.09086 318.35373 
L 307.549702 318.406551 
L 317.008545 318.14947 
L 326.467388 318.35714 
L 335.926231 316.491359 
L 345.385074 318.195847 
L 354.843917 317.101911 
L 364.30276 317.409504 
L 373.761603 311.025468 
L 383.220446 317.413138 
L 392.679289 301.153454 
L 402.138132 311.34578 
L 411.596975 317.364099 
L 421.055818 296.647974 
L 430.514661 312.774981 
L 439.973504 315.384268 
L 449.432347 284.335902 
L 458.89119 314.820818 
L 468.350033 315.581138 
L 477.808876 314.617677 
L 487.267719 316.06053 
L 496.726562 305.930128 
L 506.185405 311.871584 
L 515.644248 312.161049 
L 525.103091 316.101533 
L 534.561934 296.939053 
L 544.020777 311.827416 
L 553.47962 309.811802 
L 562.938463 307.814399 
L 572.397306 301.141628 
L 581.856149 315.035261 
L 591.314992 310.984404 
L 600.773835 306.663999 
L 610.232678 312.083613 
L 619.691521 310.746768 
L 629.150364 300.572149 
L 638.609207 308.319465 
L 648.06805 307.777842 
L 657.526893 296.106168 
L 666.985736 310.307348 
L 676.444579 307.765386 
L 685.903421 308.317744 
L 695.362264 284.346247 
L 704.821107 307.258 
L 714.27995 298.58837 
L 723.738793 314.019397 
L 733.197636 300.224081 
L 742.656479 301.172501 
L 752.115322 201.453038 
L 761.574165 295.316632 
L 771.033008 248.536446 
L 780.491851 266.776865 
L 789.950694 176.038681 
L 799.409537 305.657297 
L 808.86838 116.354972 
L 818.327223 270.912883 
L 827.786066 206.467432 
L 837.244909 297.025928 
L 846.703752 207.282311 
L 856.162595 270.058784 
L 865.621438 297.087461 
L 875.080281 95.310327 
L 884.539124 257.032559 
L 893.997967 282.779165 
L 903.45681 284.925062 
L 912.915653 304.827145 
L 922.374496 288.669737 
L 931.833339 258.316333 
L 941.292182 303.124164 
L 950.751025 188.352907 
L 960.209868 290.416243 
L 969.668711 298.434827 
L 979.127554 291.927906 
L 988.586397 276.856369 
L 998.04524 294.545363 
L 1007.504083 310.281364 
L 1016.962926 305.71266 
L 1026.421769 302.31516 
L 1035.880612 259.172861 
L 1045.339455 294.261364 
L 1054.798298 307.078662 
L 1064.25714 305.195919 
L 1073.715983 303.853067 
L 1083.174826 290.186824 
L 1092.633669 300.285344 
L 1102.092512 308.852033 
L 1111.551355 309.25208 
L 1121.010198 279.229033 
L 1130.469041 299.965315 
L 1139.927884 296.71943 
L 1149.386727 304.495544 
" clip-path="url(#p89043586a7)" style="fill: none; stroke: #ff7f0e; stroke-width: 1.5; stroke-linecap: square"/>
   </g>
   <g id="patch_3">
    <path d="M 166.14 329.6016 
L 166.14 84.1536 
" style="fill: none; stroke: #000000; stroke-width: 0.8; stroke-linejoin: miter; stroke-linecap: square"/>
   </g>
   <g id="patch_4">
    <path d="M 1196.208 329.6016 
L 1196.208 84.1536 
" style="fill: none; stroke: #000000; stroke-width: 0.8; stroke-linejoin: miter; stroke-linecap: square"/>
   </g>
   <g id="patch_5">
    <path d="M 166.14 329.6016 
L 1196.208 329.6016 
" style="fill: none; stroke: #000000; stroke-width: 0.8; stroke-linejoin: miter; stroke-linecap: square"/>
   </g>
   <g id="patch_6">
    <path d="M 166.14 84.1536 
L 1196.208 84.1536 
" style="fill: none; stroke: #000000; stroke-width: 0.8; stroke-linejoin: miter; stroke-linecap: square"/>
   </g>
   <g id="legend_1">
    <g id="patch_7">
     <path d="M 1146.734563 121.50985 
L 1189.208 121.50985 
Q 1191.208 121.50985 1191.208 119.50985 
L 1191.208 91.1536 
Q 1191.208 89.1536 1189.208 89.1536 
L 1146.734563 89.1536 
Q 1144.734563 89.1536 1144.734563 91.1536 
L 1144.734563 119.50985 
Q 1144.734563 121.50985 1146.734563 121.50985 
z
" style="fill: #ffffff; opacity: 0.8; stroke: #cccccc; stroke-linejoin: miter"/>
    </g>
    <g id="line2d_16">
     <path d="M 1148.734563 97.252037 
L 1158.734563 97.252037 
L 1168.734563 97.252037 
" style="fill: none; stroke: #1f77b4; stroke-width: 1.5; stroke-linecap: square"/>
    </g>
    <g id="text_15">
     <!-- r1 -->
     <g transform="translate(1176.734563 100.752037) scale(0.1 -0.1)">
      <use xlink:href="#DejaVuSans-72"/>
      <use xlink:href="#DejaVuSans-31" x="41.113281"/>
     </g>
    </g>
    <g id="line2d_17">
     <path d="M 1148.734563 111.930162 
L 1158.734563 111.930162 
L 1168.734563 111.930162 
" style="fill: none; stroke: #ff7f0e; stroke-width: 1.5; stroke-linecap: square"/>
    </g>
    <g id="text_16">
     <!-- r2 -->
     <g transform="translate(1176.734563 115.430162) scale(0.1 -0.1)">
      <use xlink:href="#DejaVuSans-72"/>
      <use xlink:href="#DejaVuSans-32" x="41.113281"/>
     </g>
    </g>
   </g>
  </g>
  <g id="axes_2">
   <g id="patch_8">
    <path d="M 166.14 624.1392 
L 1196.208 624.1392 
L 1196.208 378.6912 
L 166.14 378.6912 
z
" style="fill: #ffffff"/>
   </g>
   <g id="matplotlib.axis_3">
    <g id="xtick_7">
     <g id="line2d_18">
      <g>
       <use xlink:href="#m941a0d046e" x="203.50243" y="624.1392" style="stroke: #000000; stroke-width: 0.8"/>
      </g>
     </g>
     <g id="text_17">
      <!-- 0 -->
      <g transform="translate(200.32118 638.737638) scale(0.1 -0.1)">
       <use xlink:href="#DejaVuSans-30"/>
      </g>
     </g>
    </g>
    <g id="xtick_8">
     <g id="line2d_19">
      <g>
       <use xlink:href="#m941a0d046e" x="392.679289" y="624.1392" style="stroke: #000000; stroke-width: 0.8"/>
      </g>
     </g>
     <g id="text_18">
      <!-- 20 -->
      <g transform="translate(386.316789 638.737638) scale(0.1 -0.1)">
       <use xlink:href="#DejaVuSans-32"/>
       <use xlink:href="#DejaVuSans-30" x="63.623047"/>
      </g>
     </g>
    </g>
    <g id="xtick_9">
     <g id="line2d_20">
      <g>
       <use xlink:href="#m941a0d046e" x="581.856149" y="624.1392" style="stroke: #000000; stroke-width: 0.8"/>
      </g>
     </g>
     <g id="text_19">
      <!-- 40 -->
      <g transform="translate(575.493649 638.737638) scale(0.1 -0.1)">
       <use xlink:href="#DejaVuSans-34"/>
       <use xlink:href="#DejaVuSans-30" x="63.623047"/>
      </g>
     </g>
    </g>
    <g id="xtick_10">
     <g id="line2d_21">
      <g>
       <use xlink:href="#m941a0d046e" x="771.033008" y="624.1392" style="stroke: #000000; stroke-width: 0.8"/>
      </g>
     </g>
     <g id="text_20">
      <!-- 60 -->
      <g transform="translate(764.670508 638.737638) scale(0.1 -0.1)">
       <use xlink:href="#DejaVuSans-36"/>
       <use xlink:href="#DejaVuSans-30" x="63.623047"/>
      </g>
     </g>
    </g>
    <g id="xtick_11">
     <g id="line2d_22">
      <g>
       <use xlink:href="#m941a0d046e" x="960.209868" y="624.1392" style="stroke: #000000; stroke-width: 0.8"/>
      </g>
     </g>
     <g id="text_21">
      <!-- 80 -->
      <g transform="translate(953.847368 638.737638) scale(0.1 -0.1)">
       <use xlink:href="#DejaVuSans-38"/>
       <use xlink:href="#DejaVuSans-30" x="63.623047"/>
      </g>
     </g>
    </g>
    <g id="xtick_12">
     <g id="line2d_23">
      <g>
       <use xlink:href="#m941a0d046e" x="1149.386727" y="624.1392" style="stroke: #000000; stroke-width: 0.8"/>
      </g>
     </g>
     <g id="text_22">
      <!-- 100 -->
      <g transform="translate(1139.842977 638.737638) scale(0.1 -0.1)">
       <use xlink:href="#DejaVuSans-31"/>
       <use xlink:href="#DejaVuSans-30" x="63.623047"/>
       <use xlink:href="#DejaVuSans-30" x="127.246094"/>
      </g>
     </g>
    </g>
    <g id="text_23">
     <!-- iterations -->
     <g transform="translate(657.446656 652.415763) scale(0.1 -0.1)">
      <defs>
       <path id="DejaVuSans-74" d="M 1172 4494 
L 1172 3500 
L 2356 3500 
L 2356 3053 
L 1172 3053 
L 1172 1153 
Q 1172 725 1289 603 
Q 1406 481 1766 481 
L 2356 481 
L 2356 0 
L 1766 0 
Q 1100 0 847 248 
Q 594 497 594 1153 
L 594 3053 
L 172 3053 
L 172 3500 
L 594 3500 
L 594 4494 
L 1172 4494 
z
" transform="scale(0.015625)"/>
       <path id="DejaVuSans-6f" d="M 1959 3097 
Q 1497 3097 1228 2736 
Q 959 2375 959 1747 
Q 959 1119 1226 758 
Q 1494 397 1959 397 
Q 2419 397 2687 759 
Q 2956 1122 2956 1747 
Q 2956 2369 2687 2733 
Q 2419 3097 1959 3097 
z
M 1959 3584 
Q 2709 3584 3137 3096 
Q 3566 2609 3566 1747 
Q 3566 888 3137 398 
Q 2709 -91 1959 -91 
Q 1206 -91 779 398 
Q 353 888 353 1747 
Q 353 2609 779 3096 
Q 1206 3584 1959 3584 
z
" transform="scale(0.015625)"/>
       <path id="DejaVuSans-6e" d="M 3513 2113 
L 3513 0 
L 2938 0 
L 2938 2094 
Q 2938 2591 2744 2837 
Q 2550 3084 2163 3084 
Q 1697 3084 1428 2787 
Q 1159 2491 1159 1978 
L 1159 0 
L 581 0 
L 581 3500 
L 1159 3500 
L 1159 2956 
Q 1366 3272 1645 3428 
Q 1925 3584 2291 3584 
Q 2894 3584 3203 3211 
Q 3513 2838 3513 2113 
z
" transform="scale(0.015625)"/>
      </defs>
      <use xlink:href="#DejaVuSans-69"/>
      <use xlink:href="#DejaVuSans-74" x="27.783203"/>
      <use xlink:href="#DejaVuSans-65" x="66.992188"/>
      <use xlink:href="#DejaVuSans-72" x="128.515625"/>
      <use xlink:href="#DejaVuSans-61" x="169.628906"/>
      <use xlink:href="#DejaVuSans-74" x="230.908203"/>
      <use xlink:href="#DejaVuSans-69" x="270.117188"/>
      <use xlink:href="#DejaVuSans-6f" x="297.900391"/>
      <use xlink:href="#DejaVuSans-6e" x="359.082031"/>
      <use xlink:href="#DejaVuSans-73" x="422.460938"/>
     </g>
    </g>
   </g>
   <g id="matplotlib.axis_4">
    <g id="ytick_8">
     <g id="line2d_24">
      <g>
       <use xlink:href="#m9f1219164c" x="166.14" y="612.996024" style="stroke: #000000; stroke-width: 0.8"/>
      </g>
     </g>
     <g id="text_24">
      <!-- 0 -->
      <g transform="translate(152.7775 616.795243) scale(0.1 -0.1)">
       <use xlink:href="#DejaVuSans-30"/>
      </g>
     </g>
    </g>
    <g id="ytick_9">
     <g id="line2d_25">
      <g>
       <use xlink:href="#m9f1219164c" x="166.14" y="561.338487" style="stroke: #000000; stroke-width: 0.8"/>
      </g>
     </g>
     <g id="text_25">
      <!-- 5 -->
      <g transform="translate(152.7775 565.137705) scale(0.1 -0.1)">
       <use xlink:href="#DejaVuSans-35"/>
      </g>
     </g>
    </g>
    <g id="ytick_10">
     <g id="line2d_26">
      <g>
       <use xlink:href="#m9f1219164c" x="166.14" y="509.680949" style="stroke: #000000; stroke-width: 0.8"/>
      </g>
     </g>
     <g id="text_26">
      <!-- 10 -->
      <g transform="translate(146.415 513.480168) scale(0.1 -0.1)">
       <use xlink:href="#DejaVuSans-31"/>
       <use xlink:href="#DejaVuSans-30" x="63.623047"/>
      </g>
     </g>
    </g>
    <g id="ytick_11">
     <g id="line2d_27">
      <g>
       <use xlink:href="#m9f1219164c" x="166.14" y="458.023412" style="stroke: #000000; stroke-width: 0.8"/>
      </g>
     </g>
     <g id="text_27">
      <!-- 15 -->
      <g transform="translate(146.415 461.82263) scale(0.1 -0.1)">
       <use xlink:href="#DejaVuSans-31"/>
       <use xlink:href="#DejaVuSans-35" x="63.623047"/>
      </g>
     </g>
    </g>
    <g id="ytick_12">
     <g id="line2d_28">
      <g>
       <use xlink:href="#m9f1219164c" x="166.14" y="406.365874" style="stroke: #000000; stroke-width: 0.8"/>
      </g>
     </g>
     <g id="text_28">
      <!-- 20 -->
      <g transform="translate(146.415 410.165093) scale(0.1 -0.1)">
       <use xlink:href="#DejaVuSans-32"/>
       <use xlink:href="#DejaVuSans-30" x="63.623047"/>
      </g>
     </g>
    </g>
    <g id="text_29">
     <!-- relative forward error -->
     <g transform="translate(140.335313 554.723794) rotate(-90) scale(0.1 -0.1)">
      <defs>
       <path id="DejaVuSans-76" d="M 191 3500 
L 800 3500 
L 1894 563 
L 2988 3500 
L 3597 3500 
L 2284 0 
L 1503 0 
L 191 3500 
z
" transform="scale(0.015625)"/>
       <path id="DejaVuSans-20" transform="scale(0.015625)"/>
       <path id="DejaVuSans-66" d="M 2375 4863 
L 2375 4384 
L 1825 4384 
Q 1516 4384 1395 4259 
Q 1275 4134 1275 3809 
L 1275 3500 
L 2222 3500 
L 2222 3053 
L 1275 3053 
L 1275 0 
L 697 0 
L 697 3053 
L 147 3053 
L 147 3500 
L 697 3500 
L 697 3744 
Q 697 4328 969 4595 
Q 1241 4863 1831 4863 
L 2375 4863 
z
" transform="scale(0.015625)"/>
       <path id="DejaVuSans-77" d="M 269 3500 
L 844 3500 
L 1563 769 
L 2278 3500 
L 2956 3500 
L 3675 769 
L 4391 3500 
L 4966 3500 
L 4050 0 
L 3372 0 
L 2619 2869 
L 1863 0 
L 1184 0 
L 269 3500 
z
" transform="scale(0.015625)"/>
      </defs>
      <use xlink:href="#DejaVuSans-72"/>
      <use xlink:href="#DejaVuSans-65" x="38.863281"/>
      <use xlink:href="#DejaVuSans-6c" x="100.386719"/>
      <use xlink:href="#DejaVuSans-61" x="128.169922"/>
      <use xlink:href="#DejaVuSans-74" x="189.449219"/>
      <use xlink:href="#DejaVuSans-69" x="228.658203"/>
      <use xlink:href="#DejaVuSans-76" x="256.441406"/>
      <use xlink:href="#DejaVuSans-65" x="315.621094"/>
      <use xlink:href="#DejaVuSans-20" x="377.144531"/>
      <use xlink:href="#DejaVuSans-66" x="408.931641"/>
      <use xlink:href="#DejaVuSans-6f" x="444.136719"/>
      <use xlink:href="#DejaVuSans-72" x="505.318359"/>
      <use xlink:href="#DejaVuSans-77" x="546.431641"/>
      <use xlink:href="#DejaVuSans-61" x="628.21875"/>
      <use xlink:href="#DejaVuSans-72" x="689.498047"/>
      <use xlink:href="#DejaVuSans-64" x="728.861328"/>
      <use xlink:href="#DejaVuSans-20" x="792.337891"/>
      <use xlink:href="#DejaVuSans-65" x="824.125"/>
      <use xlink:href="#DejaVuSans-72" x="885.648438"/>
      <use xlink:href="#DejaVuSans-72" x="925.011719"/>
      <use xlink:href="#DejaVuSans-6f" x="963.875"/>
      <use xlink:href="#DejaVuSans-72" x="1025.056641"/>
     </g>
    </g>
   </g>
   <g id="line2d_29">
    <path d="M 212.961273 612.945767 
L 222.420116 612.901527 
L 231.878959 612.921515 
L 241.337802 612.933668 
L 250.796645 612.906443 
L 260.255488 612.84653 
L 269.714331 612.915195 
L 279.173174 612.9231 
L 288.632017 612.928993 
L 298.09086 612.774351 
L 307.549702 612.825872 
L 317.008545 612.953431 
L 326.467388 612.810493 
L 335.926231 612.790422 
L 345.385074 612.610877 
L 354.843917 612.597888 
L 364.30276 606.949731 
L 373.761603 597.722832 
L 383.220446 612.521031 
L 392.679289 611.724444 
L 402.138132 604.478693 
L 411.596975 612.494508 
L 421.055818 607.752371 
L 430.514661 604.35049 
L 439.973504 610.265875 
L 449.432347 600.701207 
L 458.89119 608.879386 
L 468.350033 609.701329 
L 477.808876 611.282902 
L 487.267719 609.343275 
L 496.726562 610.845096 
L 506.185405 608.148503 
L 515.644248 607.238608 
L 525.103091 587.437551 
L 534.561934 609.229499 
L 544.020777 607.689981 
L 553.47962 608.51577 
L 562.938463 574.911367 
L 572.397306 607.403776 
L 581.856149 607.188939 
L 591.314992 513.026737 
L 600.773835 584.075356 
L 610.232678 602.092255 
L 619.691521 607.774507 
L 629.150364 594.98591 
L 638.609207 609.557602 
L 648.06805 556.321029 
L 657.526893 605.237211 
L 666.985736 601.465914 
L 676.444579 452.889223 
L 685.903421 600.83113 
L 695.362264 530.984074 
L 704.821107 604.715579 
L 714.27995 604.537854 
L 723.738793 586.825324 
L 733.197636 600.105963 
L 742.656479 562.836744 
L 752.115322 582.123701 
L 761.574165 596.572698 
L 771.033008 598.966692 
L 780.491851 601.142863 
L 789.950694 580.934957 
L 799.409537 550.88137 
L 808.86838 571.735966 
L 818.327223 539.387137 
L 827.786066 464.731104 
L 837.244909 546.671022 
L 846.703752 570.184336 
L 856.162595 420.320221 
L 865.621438 559.195687 
L 875.080281 566.779363 
L 884.539124 517.71854 
L 893.997967 523.101628 
L 903.45681 519.081564 
L 912.915653 412.535988 
L 922.374496 597.088052 
L 931.833339 583.984574 
L 941.292182 601.268956 
L 950.751025 585.401276 
L 960.209868 576.209451 
L 969.668711 586.927618 
L 979.127554 571.807552 
L 988.586397 592.981496 
L 998.04524 601.8432 
L 1007.504083 594.806524 
L 1016.962926 603.753638 
L 1026.421769 590.635337 
L 1035.880612 593.462466 
L 1045.339455 575.162218 
L 1054.798298 444.818853 
L 1064.25714 597.505984 
L 1073.715983 588.959688 
L 1083.174826 581.956337 
L 1092.633669 554.44102 
L 1102.092512 595.468668 
L 1111.551355 586.908478 
L 1121.010198 561.931709 
L 1130.469041 585.416908 
L 1139.927884 576.646356 
L 1149.386727 577.649657 
" clip-path="url(#pbec1d71fd1)" style="fill: none; stroke: #1f77b4; stroke-width: 1.5; stroke-linecap: square"/>
   </g>
   <g id="line2d_30">
    <path d="M 212.961273 612.979632 
L 222.420116 612.970411 
L 231.878959 612.982473 
L 241.337802 612.96677 
L 250.796645 612.963363 
L 260.255488 612.982012 
L 269.714331 612.973984 
L 279.173174 612.949572 
L 288.632017 612.961821 
L 298.09086 612.969189 
L 307.549702 612.973883 
L 317.008545 612.929094 
L 326.467388 612.959756 
L 335.926231 612.488524 
L 345.385074 612.897074 
L 354.843917 612.517154 
L 364.30276 612.555215 
L 373.761603 610.133381 
L 383.220446 612.512112 
L 392.679289 606.170619 
L 402.138132 610.124721 
L 411.596975 612.457807 
L 421.055818 602.779724 
L 430.514661 610.205566 
L 439.973504 611.516502 
L 449.432347 596.236932 
L 458.89119 610.908458 
L 468.350033 611.352906 
L 477.808876 610.752333 
L 487.267719 611.297209 
L 496.726562 605.420109 
L 506.185405 608.28759 
L 515.644248 608.573795 
L 525.103091 611.351624 
L 534.561934 596.136896 
L 544.020777 607.893155 
L 553.47962 606.675327 
L 562.938463 605.315417 
L 572.397306 597.935312 
L 581.856149 609.63295 
L 591.314992 606.209044 
L 600.773835 603.3965 
L 610.232678 607.856407 
L 619.691521 607.050775 
L 629.150364 598.179119 
L 638.609207 604.396662 
L 648.06805 604.219143 
L 657.526893 593.068731 
L 666.985736 606.075518 
L 676.444579 603.924221 
L 685.903421 603.771994 
L 695.362264 577.249169 
L 704.821107 601.545805 
L 714.27995 593.075308 
L 723.738793 608.879355 
L 733.197636 594.669994 
L 742.656479 598.153535 
L 752.115322 503.824943 
L 761.574165 593.710611 
L 771.033008 550.906309 
L 780.491851 567.777503 
L 789.950694 492.304903 
L 799.409537 601.229455 
L 808.86838 441.589585 
L 818.327223 558.17787 
L 827.786066 517.650101 
L 837.244909 593.750384 
L 846.703752 509.706544 
L 856.162595 559.329122 
L 865.621438 592.595884 
L 875.080281 389.847927 
L 884.539124 551.499254 
L 893.997967 577.473718 
L 903.45681 575.944722 
L 912.915653 597.308456 
L 922.374496 574.141618 
L 931.833339 550.966395 
L 941.292182 597.80403 
L 950.751025 491.846576 
L 960.209868 584.24648 
L 969.668711 593.119435 
L 979.127554 583.363463 
L 988.586397 568.677567 
L 998.04524 589.070835 
L 1007.504083 604.714108 
L 1016.962926 601.244362 
L 1026.421769 598.271708 
L 1035.880612 543.082662 
L 1045.339455 587.481039 
L 1054.798298 599.523415 
L 1064.25714 599.667545 
L 1073.715983 596.799865 
L 1083.174826 582.587245 
L 1092.633669 589.119084 
L 1102.092512 601.436799 
L 1111.551355 602.165865 
L 1121.010198 568.747711 
L 1130.469041 592.819654 
L 1139.927884 586.394418 
L 1149.386727 596.4436 
" clip-path="url(#pbec1d71fd1)" style="fill: none; stroke: #ff7f0e; stroke-width: 1.5; stroke-linecap: square"/>
   </g>
   <g id="patch_9">
    <path d="M 166.14 624.1392 
L 166.14 378.6912 
" style="fill: none; stroke: #000000; stroke-width: 0.8; stroke-linejoin: miter; stroke-linecap: square"/>
   </g>
   <g id="patch_10">
    <path d="M 1196.208 624.1392 
L 1196.208 378.6912 
" style="fill: none; stroke: #000000; stroke-width: 0.8; stroke-linejoin: miter; stroke-linecap: square"/>
   </g>
   <g id="patch_11">
    <path d="M 166.14 624.1392 
L 1196.208 624.1392 
" style="fill: none; stroke: #000000; stroke-width: 0.8; stroke-linejoin: miter; stroke-linecap: square"/>
   </g>
   <g id="patch_12">
    <path d="M 166.14 378.6912 
L 1196.208 378.6912 
" style="fill: none; stroke: #000000; stroke-width: 0.8; stroke-linejoin: miter; stroke-linecap: square"/>
   </g>
   <g id="legend_2">
    <g id="patch_13">
     <path d="M 1097.428313 416.369325 
L 1189.208 416.369325 
Q 1191.208 416.369325 1191.208 414.369325 
L 1191.208 385.6912 
Q 1191.208 383.6912 1189.208 383.6912 
L 1097.428313 383.6912 
Q 1095.428313 383.6912 1095.428313 385.6912 
L 1095.428313 414.369325 
Q 1095.428313 416.369325 1097.428313 416.369325 
z
" style="fill: #ffffff; opacity: 0.8; stroke: #cccccc; stroke-linejoin: miter"/>
    </g>
    <g id="line2d_31">
     <path d="M 1099.428313 391.833388 
L 1109.428313 391.833388 
L 1119.428313 391.833388 
" style="fill: none; stroke: #1f77b4; stroke-width: 1.5; stroke-linecap: square"/>
    </g>
    <g id="text_30">
     <!-- k(H)*r1/||g|| -->
     <g transform="translate(1127.428313 395.333388) scale(0.1 -0.1)">
      <defs>
       <path id="DejaVuSans-6b" d="M 581 4863 
L 1159 4863 
L 1159 1991 
L 2875 3500 
L 3609 3500 
L 1753 1863 
L 3688 0 
L 2938 0 
L 1159 1709 
L 1159 0 
L 581 0 
L 581 4863 
z
" transform="scale(0.015625)"/>
       <path id="DejaVuSans-28" d="M 1984 4856 
Q 1566 4138 1362 3434 
Q 1159 2731 1159 2009 
Q 1159 1288 1364 580 
Q 1569 -128 1984 -844 
L 1484 -844 
Q 1016 -109 783 600 
Q 550 1309 550 2009 
Q 550 2706 781 3412 
Q 1013 4119 1484 4856 
L 1984 4856 
z
" transform="scale(0.015625)"/>
       <path id="DejaVuSans-48" d="M 628 4666 
L 1259 4666 
L 1259 2753 
L 3553 2753 
L 3553 4666 
L 4184 4666 
L 4184 0 
L 3553 0 
L 3553 2222 
L 1259 2222 
L 1259 0 
L 628 0 
L 628 4666 
z
" transform="scale(0.015625)"/>
       <path id="DejaVuSans-29" d="M 513 4856 
L 1013 4856 
Q 1481 4119 1714 3412 
Q 1947 2706 1947 2009 
Q 1947 1309 1714 600 
Q 1481 -109 1013 -844 
L 513 -844 
Q 928 -128 1133 580 
Q 1338 1288 1338 2009 
Q 1338 2731 1133 3434 
Q 928 4138 513 4856 
z
" transform="scale(0.015625)"/>
       <path id="DejaVuSans-2a" d="M 3009 3897 
L 1888 3291 
L 3009 2681 
L 2828 2375 
L 1778 3009 
L 1778 1831 
L 1422 1831 
L 1422 3009 
L 372 2375 
L 191 2681 
L 1313 3291 
L 191 3897 
L 372 4206 
L 1422 3572 
L 1422 4750 
L 1778 4750 
L 1778 3572 
L 2828 4206 
L 3009 3897 
z
" transform="scale(0.015625)"/>
       <path id="DejaVuSans-2f" d="M 1625 4666 
L 2156 4666 
L 531 -594 
L 0 -594 
L 1625 4666 
z
" transform="scale(0.015625)"/>
       <path id="DejaVuSans-7c" d="M 1344 4891 
L 1344 -1509 
L 813 -1509 
L 813 4891 
L 1344 4891 
z
" transform="scale(0.015625)"/>
       <path id="DejaVuSans-67" d="M 2906 1791 
Q 2906 2416 2648 2759 
Q 2391 3103 1925 3103 
Q 1463 3103 1205 2759 
Q 947 2416 947 1791 
Q 947 1169 1205 825 
Q 1463 481 1925 481 
Q 2391 481 2648 825 
Q 2906 1169 2906 1791 
z
M 3481 434 
Q 3481 -459 3084 -895 
Q 2688 -1331 1869 -1331 
Q 1566 -1331 1297 -1286 
Q 1028 -1241 775 -1147 
L 775 -588 
Q 1028 -725 1275 -790 
Q 1522 -856 1778 -856 
Q 2344 -856 2625 -561 
Q 2906 -266 2906 331 
L 2906 616 
Q 2728 306 2450 153 
Q 2172 0 1784 0 
Q 1141 0 747 490 
Q 353 981 353 1791 
Q 353 2603 747 3093 
Q 1141 3584 1784 3584 
Q 2172 3584 2450 3431 
Q 2728 3278 2906 2969 
L 2906 3500 
L 3481 3500 
L 3481 434 
z
" transform="scale(0.015625)"/>
      </defs>
      <use xlink:href="#DejaVuSans-6b"/>
      <use xlink:href="#DejaVuSans-28" x="57.910156"/>
      <use xlink:href="#DejaVuSans-48" x="96.923828"/>
      <use xlink:href="#DejaVuSans-29" x="172.119141"/>
      <use xlink:href="#DejaVuSans-2a" x="211.132812"/>
      <use xlink:href="#DejaVuSans-72" x="261.132812"/>
      <use xlink:href="#DejaVuSans-31" x="302.246094"/>
      <use xlink:href="#DejaVuSans-2f" x="365.869141"/>
      <use xlink:href="#DejaVuSans-7c" x="399.560547"/>
      <use xlink:href="#DejaVuSans-7c" x="433.251953"/>
      <use xlink:href="#DejaVuSans-67" x="466.943359"/>
      <use xlink:href="#DejaVuSans-7c" x="530.419922"/>
      <use xlink:href="#DejaVuSans-7c" x="564.111328"/>
     </g>
    </g>
    <g id="line2d_32">
     <path d="M 1099.428313 406.789638 
L 1109.428313 406.789638 
L 1119.428313 406.789638 
" style="fill: none; stroke: #ff7f0e; stroke-width: 1.5; stroke-linecap: square"/>
    </g>
    <g id="text_31">
     <!-- k(H)*r2 -->
     <g transform="translate(1127.428313 410.289638) scale(0.1 -0.1)">
      <use xlink:href="#DejaVuSans-6b"/>
      <use xlink:href="#DejaVuSans-28" x="57.910156"/>
      <use xlink:href="#DejaVuSans-48" x="96.923828"/>
      <use xlink:href="#DejaVuSans-29" x="172.119141"/>
      <use xlink:href="#DejaVuSans-2a" x="211.132812"/>
      <use xlink:href="#DejaVuSans-72" x="261.132812"/>
      <use xlink:href="#DejaVuSans-32" x="302.246094"/>
     </g>
    </g>
   </g>
  </g>
  <g id="text_32">
   <!-- 20 CG iterations -->
   <g transform="translate(615.799688 23.143725) scale(0.12 -0.12)">
    <defs>
     <path id="DejaVuSans-43" d="M 4122 4306 
L 4122 3641 
Q 3803 3938 3442 4084 
Q 3081 4231 2675 4231 
Q 1875 4231 1450 3742 
Q 1025 3253 1025 2328 
Q 1025 1406 1450 917 
Q 1875 428 2675 428 
Q 3081 428 3442 575 
Q 3803 722 4122 1019 
L 4122 359 
Q 3791 134 3420 21 
Q 3050 -91 2638 -91 
Q 1578 -91 968 557 
Q 359 1206 359 2328 
Q 359 3453 968 4101 
Q 1578 4750 2638 4750 
Q 3056 4750 3426 4639 
Q 3797 4528 4122 4306 
z
" transform="scale(0.015625)"/>
     <path id="DejaVuSans-47" d="M 3809 666 
L 3809 1919 
L 2778 1919 
L 2778 2438 
L 4434 2438 
L 4434 434 
Q 4069 175 3628 42 
Q 3188 -91 2688 -91 
Q 1594 -91 976 548 
Q 359 1188 359 2328 
Q 359 3472 976 4111 
Q 1594 4750 2688 4750 
Q 3144 4750 3555 4637 
Q 3966 4525 4313 4306 
L 4313 3634 
Q 3963 3931 3569 4081 
Q 3175 4231 2741 4231 
Q 1884 4231 1454 3753 
Q 1025 3275 1025 2328 
Q 1025 1384 1454 906 
Q 1884 428 2741 428 
Q 3075 428 3337 486 
Q 3600 544 3809 666 
z
" transform="scale(0.015625)"/>
    </defs>
    <use xlink:href="#DejaVuSans-32"/>
    <use xlink:href="#DejaVuSans-30" x="63.623047"/>
    <use xlink:href="#DejaVuSans-20" x="127.246094"/>
    <use xlink:href="#DejaVuSans-43" x="159.033203"/>
    <use xlink:href="#DejaVuSans-47" x="228.857422"/>
    <use xlink:href="#DejaVuSans-20" x="306.347656"/>
    <use xlink:href="#DejaVuSans-69" x="338.134766"/>
    <use xlink:href="#DejaVuSans-74" x="365.917969"/>
    <use xlink:href="#DejaVuSans-65" x="405.126953"/>
    <use xlink:href="#DejaVuSans-72" x="466.650391"/>
    <use xlink:href="#DejaVuSans-61" x="507.763672"/>
    <use xlink:href="#DejaVuSans-74" x="569.042969"/>
    <use xlink:href="#DejaVuSans-69" x="608.251953"/>
    <use xlink:href="#DejaVuSans-6f" x="636.035156"/>
    <use xlink:href="#DejaVuSans-6e" x="697.216797"/>
    <use xlink:href="#DejaVuSans-73" x="760.595703"/>
   </g>
  </g>
 </g>
 <defs>
  <clipPath id="p89043586a7">
   <rect x="166.14" y="84.1536" width="1030.068" height="245.448"/>
  </clipPath>
  <clipPath id="pbec1d71fd1">
   <rect x="166.14" y="378.6912" width="1030.068" height="245.448"/>
  </clipPath>
 </defs>
</svg>
